<?xml version="1.0" standalone="no"?>
 <!DOCTYPE svg PUBLIC "-//W3C//DTD SVG 1.1//EN" 
 "http://www.w3.org/Graphics/SVG/1.1/DTD/svg11.dtd"> 
<svg xmlns="http://www.w3.org/2000/svg" version="1.1" 
    width="11.6357cm" height="7.16534cm" viewBox="0 0 45810 28210 ">
<title>SVG Picture created as tiny_sound_card-Edge.Cuts.svg date 2018/09/01 18:52:20 </title>
  <desc>Picture generated by PCBNEW </desc>
<g style="fill:#000000; fill-opacity:1;stroke:#000000; stroke-opacity:1;
stroke-linecap:round; stroke-linejoin:round; "
 transform="translate(0 0) scale(1 1)">
</g>
<g style="fill:#000000; fill-opacity:0.0; 
stroke:#000000; stroke-width:-0.000393701; stroke-opacity:1; 
stroke-linecap:round; stroke-linejoin:round;">
</g>
<g style="fill:#000000; fill-opacity:0.0; 
stroke:#000000; stroke-width:59.0551; stroke-opacity:1; 
stroke-linecap:round; stroke-linejoin:round;">
<path d="M9055 8208
L9055 5846
" />
<path d="M10629 8996
L9842 8996
" />
<path d="M11417 12539
L11417 9783
" />
<path d="M9055.12 8208.66 A787.402 787.402 0.0 0 0 9842.52 8996.06 " />
<path d="M11417.3 9783.46 A787.402 787.402 0.0 0 0 10629.9 8996.06 " />
<path d="M9842 13326
L10629 13326
" />
<path d="M9055 25925
L9055 14114
" />
<path d="M44094 26712
L9842 26712
" />
<path d="M44881 5846
L44881 25925
" />
<path d="M42125 5059
L44094 5059
" />
<path d="M41338 6633
L41338 5846
" />
<path d="M17322 7421
L40551 7421
" />
<path d="M16535 5846
L16535 6633
" />
<path d="M15748 5059
L9842 5059
" />
<path d="M9842.52 13326.8 A787.402 787.402 0.0 0 0 9055.12 14114.2 " />
<path d="M10629.9 13326.8 A787.402 787.402 0.0 0 0 11417.3 12539.4 " />
<path d="M9055.12 25925.2 A787.402 787.402 0.0 0 0 9842.52 26712.6 " />
<path d="M44094.5 26712.6 A787.402 787.402 0.0 0 0 44881.9 25925.2 " />
<path d="M44881.9 5846.46 A787.402 787.402 0.0 0 0 44094.5 5059.06 " />
<path d="M42126 5059.06 A787.402 787.402 0.0 0 0 41338.6 5846.46 " />
<path d="M16535.4 6633.86 A787.402 787.402 0.0 0 0 17322.8 7421.26 " />
<path d="M40551.2 7421.26 A787.402 787.402 0.0 0 0 41338.6 6633.86 " />
<path d="M16535.4 5846.46 A787.402 787.402 0.0 0 0 15748 5059.06 " />
<path d="M9842.52 5059.06 A787.402 787.402 0.0 0 0 9055.12 5846.46 " />
</g> 
</svg>
