G04 #@! TF.FileFunction,Legend,Bot*
%FSLAX46Y46*%
G04 Gerber Fmt 4.6, Leading zero omitted, Abs format (unit mm)*
G04 Created by KiCad (PCBNEW 4.0.1-stable) date 2018/09/01 18:49:11*
%MOMM*%
G01*
G04 APERTURE LIST*
%ADD10C,0.100000*%
%ADD11C,0.150000*%
%ADD12C,0.300000*%
%ADD13C,0.010000*%
%ADD14C,2.000000*%
%ADD15R,3.900000X3.900000*%
%ADD16R,2.200000X2.200000*%
%ADD17C,2.200000*%
%ADD18R,3.000000X1.400000*%
%ADD19C,1.700000*%
%ADD20R,2.100000X2.100000*%
%ADD21O,2.100000X2.100000*%
%ADD22O,2.000000X2.000000*%
%ADD23C,1.400000*%
%ADD24R,2.000000X1.100000*%
%ADD25R,1.100000X2.000000*%
%ADD26C,1.900000*%
%ADD27C,2.100000*%
%ADD28R,2.000000X2.000000*%
%ADD29C,2.400000*%
G04 APERTURE END LIST*
D10*
D11*
X64790476Y-78400000D02*
X64866667Y-78361905D01*
X64980952Y-78361905D01*
X65095238Y-78400000D01*
X65171429Y-78476190D01*
X65209524Y-78552381D01*
X65247619Y-78704762D01*
X65247619Y-78819048D01*
X65209524Y-78971429D01*
X65171429Y-79047619D01*
X65095238Y-79123810D01*
X64980952Y-79161905D01*
X64904762Y-79161905D01*
X64790476Y-79123810D01*
X64752381Y-79085714D01*
X64752381Y-78819048D01*
X64904762Y-78819048D01*
X64409524Y-79161905D02*
X64409524Y-78361905D01*
X63952381Y-79161905D01*
X63952381Y-78361905D01*
X63571429Y-79161905D02*
X63571429Y-78361905D01*
X63380953Y-78361905D01*
X63266667Y-78400000D01*
X63190476Y-78476190D01*
X63152381Y-78552381D01*
X63114286Y-78704762D01*
X63114286Y-78819048D01*
X63152381Y-78971429D01*
X63190476Y-79047619D01*
X63266667Y-79123810D01*
X63380953Y-79161905D01*
X63571429Y-79161905D01*
X64590476Y-73400000D02*
X64666667Y-73361905D01*
X64780952Y-73361905D01*
X64895238Y-73400000D01*
X64971429Y-73476190D01*
X65009524Y-73552381D01*
X65047619Y-73704762D01*
X65047619Y-73819048D01*
X65009524Y-73971429D01*
X64971429Y-74047619D01*
X64895238Y-74123810D01*
X64780952Y-74161905D01*
X64704762Y-74161905D01*
X64590476Y-74123810D01*
X64552381Y-74085714D01*
X64552381Y-73819048D01*
X64704762Y-73819048D01*
X64209524Y-74161905D02*
X64209524Y-73361905D01*
X63752381Y-74161905D01*
X63752381Y-73361905D01*
X63371429Y-74161905D02*
X63371429Y-73361905D01*
X63180953Y-73361905D01*
X63066667Y-73400000D01*
X62990476Y-73476190D01*
X62952381Y-73552381D01*
X62914286Y-73704762D01*
X62914286Y-73819048D01*
X62952381Y-73971429D01*
X62990476Y-74047619D01*
X63066667Y-74123810D01*
X63180953Y-74161905D01*
X63371429Y-74161905D01*
X65123810Y-75961905D02*
X64857143Y-76761905D01*
X64590476Y-75961905D01*
X63866667Y-76685714D02*
X63904762Y-76723810D01*
X64019048Y-76761905D01*
X64095238Y-76761905D01*
X64209524Y-76723810D01*
X64285715Y-76647619D01*
X64323810Y-76571429D01*
X64361905Y-76419048D01*
X64361905Y-76304762D01*
X64323810Y-76152381D01*
X64285715Y-76076190D01*
X64209524Y-76000000D01*
X64095238Y-75961905D01*
X64019048Y-75961905D01*
X63904762Y-76000000D01*
X63866667Y-76038095D01*
X63066667Y-76685714D02*
X63104762Y-76723810D01*
X63219048Y-76761905D01*
X63295238Y-76761905D01*
X63409524Y-76723810D01*
X63485715Y-76647619D01*
X63523810Y-76571429D01*
X63561905Y-76419048D01*
X63561905Y-76304762D01*
X63523810Y-76152381D01*
X63485715Y-76076190D01*
X63409524Y-76000000D01*
X63295238Y-75961905D01*
X63219048Y-75961905D01*
X63104762Y-76000000D01*
X63066667Y-76038095D01*
X107409524Y-109361905D02*
X107409524Y-108561905D01*
X107219048Y-108561905D01*
X107104762Y-108600000D01*
X107028571Y-108676190D01*
X106990476Y-108752381D01*
X106952381Y-108904762D01*
X106952381Y-109019048D01*
X106990476Y-109171429D01*
X107028571Y-109247619D01*
X107104762Y-109323810D01*
X107219048Y-109361905D01*
X107409524Y-109361905D01*
X106495238Y-108904762D02*
X106571429Y-108866667D01*
X106609524Y-108828571D01*
X106647619Y-108752381D01*
X106647619Y-108714286D01*
X106609524Y-108638095D01*
X106571429Y-108600000D01*
X106495238Y-108561905D01*
X106342857Y-108561905D01*
X106266667Y-108600000D01*
X106228571Y-108638095D01*
X106190476Y-108714286D01*
X106190476Y-108752381D01*
X106228571Y-108828571D01*
X106266667Y-108866667D01*
X106342857Y-108904762D01*
X106495238Y-108904762D01*
X106571429Y-108942857D01*
X106609524Y-108980952D01*
X106647619Y-109057143D01*
X106647619Y-109209524D01*
X106609524Y-109285714D01*
X106571429Y-109323810D01*
X106495238Y-109361905D01*
X106342857Y-109361905D01*
X106266667Y-109323810D01*
X106228571Y-109285714D01*
X106190476Y-109209524D01*
X106190476Y-109057143D01*
X106228571Y-108980952D01*
X106266667Y-108942857D01*
X106342857Y-108904762D01*
X97209524Y-109361905D02*
X97209524Y-108561905D01*
X97019048Y-108561905D01*
X96904762Y-108600000D01*
X96828571Y-108676190D01*
X96790476Y-108752381D01*
X96752381Y-108904762D01*
X96752381Y-109019048D01*
X96790476Y-109171429D01*
X96828571Y-109247619D01*
X96904762Y-109323810D01*
X97019048Y-109361905D01*
X97209524Y-109361905D01*
X96485714Y-108561905D02*
X95952381Y-108561905D01*
X96295238Y-109361905D01*
X87409524Y-109361905D02*
X87409524Y-108561905D01*
X87219048Y-108561905D01*
X87104762Y-108600000D01*
X87028571Y-108676190D01*
X86990476Y-108752381D01*
X86952381Y-108904762D01*
X86952381Y-109019048D01*
X86990476Y-109171429D01*
X87028571Y-109247619D01*
X87104762Y-109323810D01*
X87219048Y-109361905D01*
X87409524Y-109361905D01*
X86266667Y-108561905D02*
X86419048Y-108561905D01*
X86495238Y-108600000D01*
X86533333Y-108638095D01*
X86609524Y-108752381D01*
X86647619Y-108904762D01*
X86647619Y-109209524D01*
X86609524Y-109285714D01*
X86571429Y-109323810D01*
X86495238Y-109361905D01*
X86342857Y-109361905D01*
X86266667Y-109323810D01*
X86228571Y-109285714D01*
X86190476Y-109209524D01*
X86190476Y-109019048D01*
X86228571Y-108942857D01*
X86266667Y-108904762D01*
X86342857Y-108866667D01*
X86495238Y-108866667D01*
X86571429Y-108904762D01*
X86609524Y-108942857D01*
X86647619Y-109019048D01*
X77209524Y-109361905D02*
X77209524Y-108561905D01*
X77019048Y-108561905D01*
X76904762Y-108600000D01*
X76828571Y-108676190D01*
X76790476Y-108752381D01*
X76752381Y-108904762D01*
X76752381Y-109019048D01*
X76790476Y-109171429D01*
X76828571Y-109247619D01*
X76904762Y-109323810D01*
X77019048Y-109361905D01*
X77209524Y-109361905D01*
X76028571Y-108561905D02*
X76409524Y-108561905D01*
X76447619Y-108942857D01*
X76409524Y-108904762D01*
X76333333Y-108866667D01*
X76142857Y-108866667D01*
X76066667Y-108904762D01*
X76028571Y-108942857D01*
X75990476Y-109019048D01*
X75990476Y-109209524D01*
X76028571Y-109285714D01*
X76066667Y-109323810D01*
X76142857Y-109361905D01*
X76333333Y-109361905D01*
X76409524Y-109323810D01*
X76447619Y-109285714D01*
X67009524Y-110961905D02*
X67009524Y-110161905D01*
X66819048Y-110161905D01*
X66704762Y-110200000D01*
X66628571Y-110276190D01*
X66590476Y-110352381D01*
X66552381Y-110504762D01*
X66552381Y-110619048D01*
X66590476Y-110771429D01*
X66628571Y-110847619D01*
X66704762Y-110923810D01*
X66819048Y-110961905D01*
X67009524Y-110961905D01*
X65866667Y-110428571D02*
X65866667Y-110961905D01*
X66057143Y-110123810D02*
X66247619Y-110695238D01*
X65752381Y-110695238D01*
X130083333Y-72933333D02*
X130116667Y-73033333D01*
X130116667Y-73200000D01*
X130083333Y-73266667D01*
X130050000Y-73300000D01*
X129983333Y-73333333D01*
X129916667Y-73333333D01*
X129850000Y-73300000D01*
X129816667Y-73266667D01*
X129783333Y-73200000D01*
X129750000Y-73066667D01*
X129716667Y-73000000D01*
X129683333Y-72966667D01*
X129616667Y-72933333D01*
X129550000Y-72933333D01*
X129483333Y-72966667D01*
X129450000Y-73000000D01*
X129416667Y-73066667D01*
X129416667Y-73233333D01*
X129450000Y-73333333D01*
X130116667Y-73633334D02*
X129416667Y-73633334D01*
X129416667Y-73900000D01*
X129450000Y-73966667D01*
X129483333Y-74000000D01*
X129550000Y-74033334D01*
X129650000Y-74033334D01*
X129716667Y-74000000D01*
X129750000Y-73966667D01*
X129783333Y-73900000D01*
X129783333Y-73633334D01*
X130116667Y-74333334D02*
X129416667Y-74333334D01*
X130116667Y-74733334D02*
X129716667Y-74433334D01*
X129416667Y-74733334D02*
X129816667Y-74333334D01*
X130116667Y-75400000D02*
X130116667Y-75000000D01*
X130116667Y-75200000D02*
X129416667Y-75200000D01*
X129516667Y-75133334D01*
X129583333Y-75066667D01*
X129616667Y-75000000D01*
X127483333Y-72933333D02*
X127516667Y-73033333D01*
X127516667Y-73200000D01*
X127483333Y-73266667D01*
X127450000Y-73300000D01*
X127383333Y-73333333D01*
X127316667Y-73333333D01*
X127250000Y-73300000D01*
X127216667Y-73266667D01*
X127183333Y-73200000D01*
X127150000Y-73066667D01*
X127116667Y-73000000D01*
X127083333Y-72966667D01*
X127016667Y-72933333D01*
X126950000Y-72933333D01*
X126883333Y-72966667D01*
X126850000Y-73000000D01*
X126816667Y-73066667D01*
X126816667Y-73233333D01*
X126850000Y-73333333D01*
X127516667Y-73633334D02*
X126816667Y-73633334D01*
X126816667Y-73900000D01*
X126850000Y-73966667D01*
X126883333Y-74000000D01*
X126950000Y-74033334D01*
X127050000Y-74033334D01*
X127116667Y-74000000D01*
X127150000Y-73966667D01*
X127183333Y-73900000D01*
X127183333Y-73633334D01*
X127516667Y-74333334D02*
X126816667Y-74333334D01*
X127516667Y-74733334D02*
X127116667Y-74433334D01*
X126816667Y-74733334D02*
X127216667Y-74333334D01*
X126883333Y-75000000D02*
X126850000Y-75033334D01*
X126816667Y-75100000D01*
X126816667Y-75266667D01*
X126850000Y-75333334D01*
X126883333Y-75366667D01*
X126950000Y-75400000D01*
X127016667Y-75400000D01*
X127116667Y-75366667D01*
X127516667Y-74966667D01*
X127516667Y-75400000D01*
X121698333Y-72952381D02*
X121698333Y-73333333D01*
X121926905Y-72876190D02*
X121126905Y-73142857D01*
X121926905Y-73409524D01*
X121126905Y-74057143D02*
X121126905Y-73676190D01*
X121507857Y-73638095D01*
X121469762Y-73676190D01*
X121431667Y-73752381D01*
X121431667Y-73942857D01*
X121469762Y-74019047D01*
X121507857Y-74057143D01*
X121584048Y-74095238D01*
X121774524Y-74095238D01*
X121850714Y-74057143D01*
X121888810Y-74019047D01*
X121926905Y-73942857D01*
X121926905Y-73752381D01*
X121888810Y-73676190D01*
X121850714Y-73638095D01*
X123158810Y-72952381D02*
X123196905Y-73066667D01*
X123196905Y-73257143D01*
X123158810Y-73333333D01*
X123120714Y-73371429D01*
X123044524Y-73409524D01*
X122968333Y-73409524D01*
X122892143Y-73371429D01*
X122854048Y-73333333D01*
X122815952Y-73257143D01*
X122777857Y-73104762D01*
X122739762Y-73028571D01*
X122701667Y-72990476D01*
X122625476Y-72952381D01*
X122549286Y-72952381D01*
X122473095Y-72990476D01*
X122435000Y-73028571D01*
X122396905Y-73104762D01*
X122396905Y-73295238D01*
X122435000Y-73409524D01*
X123120714Y-74209524D02*
X123158810Y-74171429D01*
X123196905Y-74057143D01*
X123196905Y-73980953D01*
X123158810Y-73866667D01*
X123082619Y-73790476D01*
X123006429Y-73752381D01*
X122854048Y-73714286D01*
X122739762Y-73714286D01*
X122587381Y-73752381D01*
X122511190Y-73790476D01*
X122435000Y-73866667D01*
X122396905Y-73980953D01*
X122396905Y-74057143D01*
X122435000Y-74171429D01*
X122473095Y-74209524D01*
X123196905Y-74933334D02*
X123196905Y-74552381D01*
X122396905Y-74552381D01*
X119098333Y-72952381D02*
X119098333Y-73333333D01*
X119326905Y-72876190D02*
X118526905Y-73142857D01*
X119326905Y-73409524D01*
X118793571Y-74019047D02*
X119326905Y-74019047D01*
X118488810Y-73828571D02*
X119060238Y-73638095D01*
X119060238Y-74133333D01*
X120558810Y-72952381D02*
X120596905Y-73066667D01*
X120596905Y-73257143D01*
X120558810Y-73333333D01*
X120520714Y-73371429D01*
X120444524Y-73409524D01*
X120368333Y-73409524D01*
X120292143Y-73371429D01*
X120254048Y-73333333D01*
X120215952Y-73257143D01*
X120177857Y-73104762D01*
X120139762Y-73028571D01*
X120101667Y-72990476D01*
X120025476Y-72952381D01*
X119949286Y-72952381D01*
X119873095Y-72990476D01*
X119835000Y-73028571D01*
X119796905Y-73104762D01*
X119796905Y-73295238D01*
X119835000Y-73409524D01*
X120596905Y-73752381D02*
X119796905Y-73752381D01*
X119796905Y-73942857D01*
X119835000Y-74057143D01*
X119911190Y-74133334D01*
X119987381Y-74171429D01*
X120139762Y-74209524D01*
X120254048Y-74209524D01*
X120406429Y-74171429D01*
X120482619Y-74133334D01*
X120558810Y-74057143D01*
X120596905Y-73942857D01*
X120596905Y-73752381D01*
X120368333Y-74514286D02*
X120368333Y-74895238D01*
X120596905Y-74438095D02*
X119796905Y-74704762D01*
X120596905Y-74971429D01*
X116561905Y-72876190D02*
X117361905Y-73142857D01*
X116561905Y-73409524D01*
X117285714Y-74133333D02*
X117323810Y-74095238D01*
X117361905Y-73980952D01*
X117361905Y-73904762D01*
X117323810Y-73790476D01*
X117247619Y-73714285D01*
X117171429Y-73676190D01*
X117019048Y-73638095D01*
X116904762Y-73638095D01*
X116752381Y-73676190D01*
X116676190Y-73714285D01*
X116600000Y-73790476D01*
X116561905Y-73904762D01*
X116561905Y-73980952D01*
X116600000Y-74095238D01*
X116638095Y-74133333D01*
X117285714Y-74933333D02*
X117323810Y-74895238D01*
X117361905Y-74780952D01*
X117361905Y-74704762D01*
X117323810Y-74590476D01*
X117247619Y-74514285D01*
X117171429Y-74476190D01*
X117019048Y-74438095D01*
X116904762Y-74438095D01*
X116752381Y-74476190D01*
X116676190Y-74514285D01*
X116600000Y-74590476D01*
X116561905Y-74704762D01*
X116561905Y-74780952D01*
X116600000Y-74895238D01*
X116638095Y-74933333D01*
X114000000Y-73409524D02*
X113961905Y-73333333D01*
X113961905Y-73219048D01*
X114000000Y-73104762D01*
X114076190Y-73028571D01*
X114152381Y-72990476D01*
X114304762Y-72952381D01*
X114419048Y-72952381D01*
X114571429Y-72990476D01*
X114647619Y-73028571D01*
X114723810Y-73104762D01*
X114761905Y-73219048D01*
X114761905Y-73295238D01*
X114723810Y-73409524D01*
X114685714Y-73447619D01*
X114419048Y-73447619D01*
X114419048Y-73295238D01*
X114761905Y-73790476D02*
X113961905Y-73790476D01*
X114761905Y-74247619D01*
X113961905Y-74247619D01*
X114761905Y-74628571D02*
X113961905Y-74628571D01*
X113961905Y-74819047D01*
X114000000Y-74933333D01*
X114076190Y-75009524D01*
X114152381Y-75047619D01*
X114304762Y-75085714D01*
X114419048Y-75085714D01*
X114571429Y-75047619D01*
X114647619Y-75009524D01*
X114723810Y-74933333D01*
X114761905Y-74819047D01*
X114761905Y-74628571D01*
X109126905Y-72790476D02*
X108326905Y-72790476D01*
X108326905Y-72980952D01*
X108365000Y-73095238D01*
X108441190Y-73171429D01*
X108517381Y-73209524D01*
X108669762Y-73247619D01*
X108784048Y-73247619D01*
X108936429Y-73209524D01*
X109012619Y-73171429D01*
X109088810Y-73095238D01*
X109126905Y-72980952D01*
X109126905Y-72790476D01*
X108326905Y-73742857D02*
X108326905Y-73819048D01*
X108365000Y-73895238D01*
X108403095Y-73933333D01*
X108479286Y-73971429D01*
X108631667Y-74009524D01*
X108822143Y-74009524D01*
X108974524Y-73971429D01*
X109050714Y-73933333D01*
X109088810Y-73895238D01*
X109126905Y-73819048D01*
X109126905Y-73742857D01*
X109088810Y-73666667D01*
X109050714Y-73628571D01*
X108974524Y-73590476D01*
X108822143Y-73552381D01*
X108631667Y-73552381D01*
X108479286Y-73590476D01*
X108403095Y-73628571D01*
X108365000Y-73666667D01*
X108326905Y-73742857D01*
X110396905Y-73247619D02*
X110015952Y-72980952D01*
X110396905Y-72790476D02*
X109596905Y-72790476D01*
X109596905Y-73095238D01*
X109635000Y-73171429D01*
X109673095Y-73209524D01*
X109749286Y-73247619D01*
X109863571Y-73247619D01*
X109939762Y-73209524D01*
X109977857Y-73171429D01*
X110015952Y-73095238D01*
X110015952Y-72790476D01*
X109596905Y-73514286D02*
X110396905Y-74047619D01*
X109596905Y-74047619D02*
X110396905Y-73514286D01*
X110396905Y-74352381D02*
X109596905Y-74352381D01*
X109596905Y-74542857D01*
X109635000Y-74657143D01*
X109711190Y-74733334D01*
X109787381Y-74771429D01*
X109939762Y-74809524D01*
X110054048Y-74809524D01*
X110206429Y-74771429D01*
X110282619Y-74733334D01*
X110358810Y-74657143D01*
X110396905Y-74542857D01*
X110396905Y-74352381D01*
X106526905Y-72790476D02*
X105726905Y-72790476D01*
X105726905Y-72980952D01*
X105765000Y-73095238D01*
X105841190Y-73171429D01*
X105917381Y-73209524D01*
X106069762Y-73247619D01*
X106184048Y-73247619D01*
X106336429Y-73209524D01*
X106412619Y-73171429D01*
X106488810Y-73095238D01*
X106526905Y-72980952D01*
X106526905Y-72790476D01*
X106526905Y-74009524D02*
X106526905Y-73552381D01*
X106526905Y-73780952D02*
X105726905Y-73780952D01*
X105841190Y-73704762D01*
X105917381Y-73628571D01*
X105955476Y-73552381D01*
X106996905Y-72676190D02*
X106996905Y-73133333D01*
X107796905Y-72904762D02*
X106996905Y-72904762D01*
X106996905Y-73323810D02*
X107796905Y-73857143D01*
X106996905Y-73857143D02*
X107796905Y-73323810D01*
X107796905Y-74161905D02*
X106996905Y-74161905D01*
X106996905Y-74352381D01*
X107035000Y-74466667D01*
X107111190Y-74542858D01*
X107187381Y-74580953D01*
X107339762Y-74619048D01*
X107454048Y-74619048D01*
X107606429Y-74580953D01*
X107682619Y-74542858D01*
X107758810Y-74466667D01*
X107796905Y-74352381D01*
X107796905Y-74161905D01*
X102390476Y-72800000D02*
X102466667Y-72761905D01*
X102580952Y-72761905D01*
X102695238Y-72800000D01*
X102771429Y-72876190D01*
X102809524Y-72952381D01*
X102847619Y-73104762D01*
X102847619Y-73219048D01*
X102809524Y-73371429D01*
X102771429Y-73447619D01*
X102695238Y-73523810D01*
X102580952Y-73561905D01*
X102504762Y-73561905D01*
X102390476Y-73523810D01*
X102352381Y-73485714D01*
X102352381Y-73219048D01*
X102504762Y-73219048D01*
X102009524Y-73561905D02*
X102009524Y-72761905D01*
X101552381Y-73561905D01*
X101552381Y-72761905D01*
X101171429Y-73561905D02*
X101171429Y-72761905D01*
X100980953Y-72761905D01*
X100866667Y-72800000D01*
X100790476Y-72876190D01*
X100752381Y-72952381D01*
X100714286Y-73104762D01*
X100714286Y-73219048D01*
X100752381Y-73371429D01*
X100790476Y-73447619D01*
X100866667Y-73523810D01*
X100980953Y-73561905D01*
X101171429Y-73561905D01*
X103961905Y-72676190D02*
X104761905Y-72942857D01*
X103961905Y-73209524D01*
X104685714Y-73933333D02*
X104723810Y-73895238D01*
X104761905Y-73780952D01*
X104761905Y-73704762D01*
X104723810Y-73590476D01*
X104647619Y-73514285D01*
X104571429Y-73476190D01*
X104419048Y-73438095D01*
X104304762Y-73438095D01*
X104152381Y-73476190D01*
X104076190Y-73514285D01*
X104000000Y-73590476D01*
X103961905Y-73704762D01*
X103961905Y-73780952D01*
X104000000Y-73895238D01*
X104038095Y-73933333D01*
X104685714Y-74733333D02*
X104723810Y-74695238D01*
X104761905Y-74580952D01*
X104761905Y-74504762D01*
X104723810Y-74390476D01*
X104647619Y-74314285D01*
X104571429Y-74276190D01*
X104419048Y-74238095D01*
X104304762Y-74238095D01*
X104152381Y-74276190D01*
X104076190Y-74314285D01*
X104000000Y-74390476D01*
X103961905Y-74504762D01*
X103961905Y-74580952D01*
X104000000Y-74695238D01*
X104038095Y-74733333D01*
X97609524Y-73761905D02*
X97609524Y-72961905D01*
X97419048Y-72961905D01*
X97304762Y-73000000D01*
X97228571Y-73076190D01*
X97190476Y-73152381D01*
X97152381Y-73304762D01*
X97152381Y-73419048D01*
X97190476Y-73571429D01*
X97228571Y-73647619D01*
X97304762Y-73723810D01*
X97419048Y-73761905D01*
X97609524Y-73761905D01*
X96390476Y-73761905D02*
X96847619Y-73761905D01*
X96619048Y-73761905D02*
X96619048Y-72961905D01*
X96695238Y-73076190D01*
X96771429Y-73152381D01*
X96847619Y-73190476D01*
X95895238Y-72961905D02*
X95819047Y-72961905D01*
X95742857Y-73000000D01*
X95704762Y-73038095D01*
X95666666Y-73114286D01*
X95628571Y-73266667D01*
X95628571Y-73457143D01*
X95666666Y-73609524D01*
X95704762Y-73685714D01*
X95742857Y-73723810D01*
X95819047Y-73761905D01*
X95895238Y-73761905D01*
X95971428Y-73723810D01*
X96009524Y-73685714D01*
X96047619Y-73609524D01*
X96085714Y-73457143D01*
X96085714Y-73266667D01*
X96047619Y-73114286D01*
X96009524Y-73038095D01*
X95971428Y-73000000D01*
X95895238Y-72961905D01*
X93800000Y-73609524D02*
X93761905Y-73533333D01*
X93761905Y-73419048D01*
X93800000Y-73304762D01*
X93876190Y-73228571D01*
X93952381Y-73190476D01*
X94104762Y-73152381D01*
X94219048Y-73152381D01*
X94371429Y-73190476D01*
X94447619Y-73228571D01*
X94523810Y-73304762D01*
X94561905Y-73419048D01*
X94561905Y-73495238D01*
X94523810Y-73609524D01*
X94485714Y-73647619D01*
X94219048Y-73647619D01*
X94219048Y-73495238D01*
X94561905Y-73990476D02*
X93761905Y-73990476D01*
X94561905Y-74447619D01*
X93761905Y-74447619D01*
X94561905Y-74828571D02*
X93761905Y-74828571D01*
X93761905Y-75019047D01*
X93800000Y-75133333D01*
X93876190Y-75209524D01*
X93952381Y-75247619D01*
X94104762Y-75285714D01*
X94219048Y-75285714D01*
X94371429Y-75247619D01*
X94447619Y-75209524D01*
X94523810Y-75133333D01*
X94561905Y-75019047D01*
X94561905Y-74828571D01*
X91961905Y-73647619D02*
X91580952Y-73380952D01*
X91961905Y-73190476D02*
X91161905Y-73190476D01*
X91161905Y-73495238D01*
X91200000Y-73571429D01*
X91238095Y-73609524D01*
X91314286Y-73647619D01*
X91428571Y-73647619D01*
X91504762Y-73609524D01*
X91542857Y-73571429D01*
X91580952Y-73495238D01*
X91580952Y-73190476D01*
X91923810Y-73952381D02*
X91961905Y-74066667D01*
X91961905Y-74257143D01*
X91923810Y-74333333D01*
X91885714Y-74371429D01*
X91809524Y-74409524D01*
X91733333Y-74409524D01*
X91657143Y-74371429D01*
X91619048Y-74333333D01*
X91580952Y-74257143D01*
X91542857Y-74104762D01*
X91504762Y-74028571D01*
X91466667Y-73990476D01*
X91390476Y-73952381D01*
X91314286Y-73952381D01*
X91238095Y-73990476D01*
X91200000Y-74028571D01*
X91161905Y-74104762D01*
X91161905Y-74295238D01*
X91200000Y-74409524D01*
X91161905Y-74638095D02*
X91161905Y-75095238D01*
X91961905Y-74866667D02*
X91161905Y-74866667D01*
X91024000Y-73000000D02*
X91024000Y-75171429D01*
X88926905Y-73190476D02*
X88126905Y-73190476D01*
X88126905Y-73380952D01*
X88165000Y-73495238D01*
X88241190Y-73571429D01*
X88317381Y-73609524D01*
X88469762Y-73647619D01*
X88584048Y-73647619D01*
X88736429Y-73609524D01*
X88812619Y-73571429D01*
X88888810Y-73495238D01*
X88926905Y-73380952D01*
X88926905Y-73190476D01*
X88926905Y-74409524D02*
X88926905Y-73952381D01*
X88926905Y-74180952D02*
X88126905Y-74180952D01*
X88241190Y-74104762D01*
X88317381Y-74028571D01*
X88355476Y-73952381D01*
X88203095Y-74714286D02*
X88165000Y-74752381D01*
X88126905Y-74828572D01*
X88126905Y-75019048D01*
X88165000Y-75095238D01*
X88203095Y-75133334D01*
X88279286Y-75171429D01*
X88355476Y-75171429D01*
X88469762Y-75133334D01*
X88926905Y-74676191D01*
X88926905Y-75171429D01*
X90196905Y-73190476D02*
X89396905Y-73190476D01*
X89968333Y-73457143D01*
X89396905Y-73723810D01*
X90196905Y-73723810D01*
X89396905Y-74257143D02*
X89396905Y-74409524D01*
X89435000Y-74485715D01*
X89511190Y-74561905D01*
X89663571Y-74600000D01*
X89930238Y-74600000D01*
X90082619Y-74561905D01*
X90158810Y-74485715D01*
X90196905Y-74409524D01*
X90196905Y-74257143D01*
X90158810Y-74180953D01*
X90082619Y-74104762D01*
X89930238Y-74066667D01*
X89663571Y-74066667D01*
X89511190Y-74104762D01*
X89435000Y-74180953D01*
X89396905Y-74257143D01*
X90158810Y-74904762D02*
X90196905Y-75019048D01*
X90196905Y-75209524D01*
X90158810Y-75285714D01*
X90120714Y-75323810D01*
X90044524Y-75361905D01*
X89968333Y-75361905D01*
X89892143Y-75323810D01*
X89854048Y-75285714D01*
X89815952Y-75209524D01*
X89777857Y-75057143D01*
X89739762Y-74980952D01*
X89701667Y-74942857D01*
X89625476Y-74904762D01*
X89549286Y-74904762D01*
X89473095Y-74942857D01*
X89435000Y-74980952D01*
X89396905Y-75057143D01*
X89396905Y-75247619D01*
X89435000Y-75361905D01*
X90196905Y-75704762D02*
X89396905Y-75704762D01*
X87409524Y-73126905D02*
X87409524Y-72326905D01*
X87219048Y-72326905D01*
X87104762Y-72365000D01*
X87028571Y-72441190D01*
X86990476Y-72517381D01*
X86952381Y-72669762D01*
X86952381Y-72784048D01*
X86990476Y-72936429D01*
X87028571Y-73012619D01*
X87104762Y-73088810D01*
X87219048Y-73126905D01*
X87409524Y-73126905D01*
X86190476Y-73126905D02*
X86647619Y-73126905D01*
X86419048Y-73126905D02*
X86419048Y-72326905D01*
X86495238Y-72441190D01*
X86571429Y-72517381D01*
X86647619Y-72555476D01*
X85923809Y-72326905D02*
X85428571Y-72326905D01*
X85695238Y-72631667D01*
X85580952Y-72631667D01*
X85504762Y-72669762D01*
X85466666Y-72707857D01*
X85428571Y-72784048D01*
X85428571Y-72974524D01*
X85466666Y-73050714D01*
X85504762Y-73088810D01*
X85580952Y-73126905D01*
X85809524Y-73126905D01*
X85885714Y-73088810D01*
X85923809Y-73050714D01*
X87447619Y-74358810D02*
X87333333Y-74396905D01*
X87142857Y-74396905D01*
X87066667Y-74358810D01*
X87028571Y-74320714D01*
X86990476Y-74244524D01*
X86990476Y-74168333D01*
X87028571Y-74092143D01*
X87066667Y-74054048D01*
X87142857Y-74015952D01*
X87295238Y-73977857D01*
X87371429Y-73939762D01*
X87409524Y-73901667D01*
X87447619Y-73825476D01*
X87447619Y-73749286D01*
X87409524Y-73673095D01*
X87371429Y-73635000D01*
X87295238Y-73596905D01*
X87104762Y-73596905D01*
X86990476Y-73635000D01*
X86190476Y-74320714D02*
X86228571Y-74358810D01*
X86342857Y-74396905D01*
X86419047Y-74396905D01*
X86533333Y-74358810D01*
X86609524Y-74282619D01*
X86647619Y-74206429D01*
X86685714Y-74054048D01*
X86685714Y-73939762D01*
X86647619Y-73787381D01*
X86609524Y-73711190D01*
X86533333Y-73635000D01*
X86419047Y-73596905D01*
X86342857Y-73596905D01*
X86228571Y-73635000D01*
X86190476Y-73673095D01*
X85847619Y-74396905D02*
X85847619Y-73596905D01*
X85390476Y-74396905D02*
X85733333Y-73939762D01*
X85390476Y-73596905D02*
X85847619Y-74054048D01*
X83561905Y-73076190D02*
X84361905Y-73342857D01*
X83561905Y-73609524D01*
X84285714Y-74333333D02*
X84323810Y-74295238D01*
X84361905Y-74180952D01*
X84361905Y-74104762D01*
X84323810Y-73990476D01*
X84247619Y-73914285D01*
X84171429Y-73876190D01*
X84019048Y-73838095D01*
X83904762Y-73838095D01*
X83752381Y-73876190D01*
X83676190Y-73914285D01*
X83600000Y-73990476D01*
X83561905Y-74104762D01*
X83561905Y-74180952D01*
X83600000Y-74295238D01*
X83638095Y-74333333D01*
X84285714Y-75133333D02*
X84323810Y-75095238D01*
X84361905Y-74980952D01*
X84361905Y-74904762D01*
X84323810Y-74790476D01*
X84247619Y-74714285D01*
X84171429Y-74676190D01*
X84019048Y-74638095D01*
X83904762Y-74638095D01*
X83752381Y-74676190D01*
X83676190Y-74714285D01*
X83600000Y-74790476D01*
X83561905Y-74904762D01*
X83561905Y-74980952D01*
X83600000Y-75095238D01*
X83638095Y-75133333D01*
X81126905Y-73190476D02*
X80326905Y-73190476D01*
X80326905Y-73380952D01*
X80365000Y-73495238D01*
X80441190Y-73571429D01*
X80517381Y-73609524D01*
X80669762Y-73647619D01*
X80784048Y-73647619D01*
X80936429Y-73609524D01*
X81012619Y-73571429D01*
X81088810Y-73495238D01*
X81126905Y-73380952D01*
X81126905Y-73190476D01*
X81126905Y-74409524D02*
X81126905Y-73952381D01*
X81126905Y-74180952D02*
X80326905Y-74180952D01*
X80441190Y-74104762D01*
X80517381Y-74028571D01*
X80555476Y-73952381D01*
X80403095Y-74714286D02*
X80365000Y-74752381D01*
X80326905Y-74828572D01*
X80326905Y-75019048D01*
X80365000Y-75095238D01*
X80403095Y-75133334D01*
X80479286Y-75171429D01*
X80555476Y-75171429D01*
X80669762Y-75133334D01*
X81126905Y-74676191D01*
X81126905Y-75171429D01*
X82396905Y-73190476D02*
X81596905Y-73190476D01*
X82168333Y-73457143D01*
X81596905Y-73723810D01*
X82396905Y-73723810D01*
X82396905Y-74104762D02*
X81596905Y-74104762D01*
X82358810Y-74447619D02*
X82396905Y-74561905D01*
X82396905Y-74752381D01*
X82358810Y-74828571D01*
X82320714Y-74866667D01*
X82244524Y-74904762D01*
X82168333Y-74904762D01*
X82092143Y-74866667D01*
X82054048Y-74828571D01*
X82015952Y-74752381D01*
X81977857Y-74600000D01*
X81939762Y-74523809D01*
X81901667Y-74485714D01*
X81825476Y-74447619D01*
X81749286Y-74447619D01*
X81673095Y-74485714D01*
X81635000Y-74523809D01*
X81596905Y-74600000D01*
X81596905Y-74790476D01*
X81635000Y-74904762D01*
X81596905Y-75400000D02*
X81596905Y-75552381D01*
X81635000Y-75628572D01*
X81711190Y-75704762D01*
X81863571Y-75742857D01*
X82130238Y-75742857D01*
X82282619Y-75704762D01*
X82358810Y-75628572D01*
X82396905Y-75552381D01*
X82396905Y-75400000D01*
X82358810Y-75323810D01*
X82282619Y-75247619D01*
X82130238Y-75209524D01*
X81863571Y-75209524D01*
X81711190Y-75247619D01*
X81635000Y-75323810D01*
X81596905Y-75400000D01*
X76000000Y-73409524D02*
X75961905Y-73333333D01*
X75961905Y-73219048D01*
X76000000Y-73104762D01*
X76076190Y-73028571D01*
X76152381Y-72990476D01*
X76304762Y-72952381D01*
X76419048Y-72952381D01*
X76571429Y-72990476D01*
X76647619Y-73028571D01*
X76723810Y-73104762D01*
X76761905Y-73219048D01*
X76761905Y-73295238D01*
X76723810Y-73409524D01*
X76685714Y-73447619D01*
X76419048Y-73447619D01*
X76419048Y-73295238D01*
X76761905Y-73790476D02*
X75961905Y-73790476D01*
X76761905Y-74247619D01*
X75961905Y-74247619D01*
X76761905Y-74628571D02*
X75961905Y-74628571D01*
X75961905Y-74819047D01*
X76000000Y-74933333D01*
X76076190Y-75009524D01*
X76152381Y-75047619D01*
X76304762Y-75085714D01*
X76419048Y-75085714D01*
X76571429Y-75047619D01*
X76647619Y-75009524D01*
X76723810Y-74933333D01*
X76761905Y-74819047D01*
X76761905Y-74628571D01*
X74161905Y-72990476D02*
X73361905Y-72990476D01*
X73361905Y-73180952D01*
X73400000Y-73295238D01*
X73476190Y-73371429D01*
X73552381Y-73409524D01*
X73704762Y-73447619D01*
X73819048Y-73447619D01*
X73971429Y-73409524D01*
X74047619Y-73371429D01*
X74123810Y-73295238D01*
X74161905Y-73180952D01*
X74161905Y-72990476D01*
X73361905Y-73714286D02*
X73361905Y-74209524D01*
X73666667Y-73942857D01*
X73666667Y-74057143D01*
X73704762Y-74133333D01*
X73742857Y-74171429D01*
X73819048Y-74209524D01*
X74009524Y-74209524D01*
X74085714Y-74171429D01*
X74123810Y-74133333D01*
X74161905Y-74057143D01*
X74161905Y-73828571D01*
X74123810Y-73752381D01*
X74085714Y-73714286D01*
D12*
X132642856Y-113678571D02*
X132285713Y-114678571D01*
X131928571Y-113678571D01*
X131071428Y-113178571D02*
X130928571Y-113178571D01*
X130785714Y-113250000D01*
X130714285Y-113321429D01*
X130642856Y-113464286D01*
X130571428Y-113750000D01*
X130571428Y-114107143D01*
X130642856Y-114392857D01*
X130714285Y-114535714D01*
X130785714Y-114607143D01*
X130928571Y-114678571D01*
X131071428Y-114678571D01*
X131214285Y-114607143D01*
X131285714Y-114535714D01*
X131357142Y-114392857D01*
X131428571Y-114107143D01*
X131428571Y-113750000D01*
X131357142Y-113464286D01*
X131285714Y-113321429D01*
X131214285Y-113250000D01*
X131071428Y-113178571D01*
X129928571Y-114535714D02*
X129857143Y-114607143D01*
X129928571Y-114678571D01*
X130000000Y-114607143D01*
X129928571Y-114535714D01*
X129928571Y-114678571D01*
X128428571Y-114678571D02*
X129285714Y-114678571D01*
X128857142Y-114678571D02*
X128857142Y-113178571D01*
X128999999Y-113392857D01*
X129142857Y-113535714D01*
X129285714Y-113607143D01*
D13*
G36*
X124271053Y-87109363D02*
X124386990Y-87751486D01*
X124672106Y-87923684D01*
X124998721Y-87700780D01*
X125073158Y-87388947D01*
X125161651Y-87040715D01*
X125520345Y-86885687D01*
X126155390Y-86854210D01*
X127237622Y-86854210D01*
X127158022Y-88525263D01*
X127078421Y-90196315D01*
X126075790Y-90279297D01*
X125412829Y-90292290D01*
X125127958Y-90136333D01*
X125073158Y-89811403D01*
X124902384Y-89357062D01*
X124654346Y-89260526D01*
X124351282Y-89433694D01*
X124320136Y-89995789D01*
X124399425Y-90399697D01*
X124606264Y-90628510D01*
X125070729Y-90742871D01*
X125922899Y-90803423D01*
X126067548Y-90810439D01*
X126983962Y-90838391D01*
X127502435Y-90784408D01*
X127758157Y-90607935D01*
X127886319Y-90268419D01*
X127887289Y-90264561D01*
X127959990Y-89656754D01*
X127982018Y-88748957D01*
X127962374Y-88046227D01*
X127880527Y-86453158D01*
X126075790Y-86374099D01*
X124271053Y-86295041D01*
X124271053Y-87109363D01*
X124271053Y-87109363D01*
G37*
X124271053Y-87109363D02*
X124386990Y-87751486D01*
X124672106Y-87923684D01*
X124998721Y-87700780D01*
X125073158Y-87388947D01*
X125161651Y-87040715D01*
X125520345Y-86885687D01*
X126155390Y-86854210D01*
X127237622Y-86854210D01*
X127158022Y-88525263D01*
X127078421Y-90196315D01*
X126075790Y-90279297D01*
X125412829Y-90292290D01*
X125127958Y-90136333D01*
X125073158Y-89811403D01*
X124902384Y-89357062D01*
X124654346Y-89260526D01*
X124351282Y-89433694D01*
X124320136Y-89995789D01*
X124399425Y-90399697D01*
X124606264Y-90628510D01*
X125070729Y-90742871D01*
X125922899Y-90803423D01*
X126067548Y-90810439D01*
X126983962Y-90838391D01*
X127502435Y-90784408D01*
X127758157Y-90607935D01*
X127886319Y-90268419D01*
X127887289Y-90264561D01*
X127959990Y-89656754D01*
X127982018Y-88748957D01*
X127962374Y-88046227D01*
X127880527Y-86453158D01*
X126075790Y-86374099D01*
X124271053Y-86295041D01*
X124271053Y-87109363D01*
G36*
X119993158Y-90864736D02*
X121552807Y-90864736D01*
X122423362Y-90836327D01*
X123063160Y-90762829D01*
X123290702Y-90686491D01*
X123387741Y-90340996D01*
X123452480Y-89634558D01*
X123468948Y-88977202D01*
X123467862Y-88948596D01*
X122666842Y-88948596D01*
X122609727Y-89782612D01*
X122381004Y-90196557D01*
X121894613Y-90298214D01*
X121607375Y-90275432D01*
X121169680Y-90154333D01*
X120950304Y-89821853D01*
X120851299Y-89121484D01*
X120846733Y-89060000D01*
X120764517Y-87923684D01*
X121715680Y-87923684D01*
X122333626Y-87957836D01*
X122601568Y-88165223D01*
X122665572Y-88703235D01*
X122666842Y-88948596D01*
X123467862Y-88948596D01*
X123434070Y-88059304D01*
X123257617Y-87507424D01*
X122831856Y-87229045D01*
X122049058Y-87131653D01*
X121308133Y-87121579D01*
X119993158Y-87121579D01*
X119993158Y-90864736D01*
X119993158Y-90864736D01*
G37*
X119993158Y-90864736D02*
X121552807Y-90864736D01*
X122423362Y-90836327D01*
X123063160Y-90762829D01*
X123290702Y-90686491D01*
X123387741Y-90340996D01*
X123452480Y-89634558D01*
X123468948Y-88977202D01*
X123467862Y-88948596D01*
X122666842Y-88948596D01*
X122609727Y-89782612D01*
X122381004Y-90196557D01*
X121894613Y-90298214D01*
X121607375Y-90275432D01*
X121169680Y-90154333D01*
X120950304Y-89821853D01*
X120851299Y-89121484D01*
X120846733Y-89060000D01*
X120764517Y-87923684D01*
X121715680Y-87923684D01*
X122333626Y-87957836D01*
X122601568Y-88165223D01*
X122665572Y-88703235D01*
X122666842Y-88948596D01*
X123467862Y-88948596D01*
X123434070Y-88059304D01*
X123257617Y-87507424D01*
X122831856Y-87229045D01*
X122049058Y-87131653D01*
X121308133Y-87121579D01*
X119993158Y-87121579D01*
X119993158Y-90864736D01*
G36*
X117102665Y-87228179D02*
X116798956Y-87446666D01*
X116784737Y-87539390D01*
X117017629Y-87843895D01*
X117453158Y-87923684D01*
X117835977Y-87961856D01*
X118035307Y-88163610D01*
X118110629Y-88659801D01*
X118121579Y-89394210D01*
X118157585Y-90281025D01*
X118283927Y-90737594D01*
X118522632Y-90864736D01*
X118742126Y-90753359D01*
X118866935Y-90353420D01*
X118918572Y-89566211D01*
X118923685Y-89024676D01*
X118923685Y-87184615D01*
X117854211Y-87169856D01*
X117102665Y-87228179D01*
X117102665Y-87228179D01*
G37*
X117102665Y-87228179D02*
X116798956Y-87446666D01*
X116784737Y-87539390D01*
X117017629Y-87843895D01*
X117453158Y-87923684D01*
X117835977Y-87961856D01*
X118035307Y-88163610D01*
X118110629Y-88659801D01*
X118121579Y-89394210D01*
X118157585Y-90281025D01*
X118283927Y-90737594D01*
X118522632Y-90864736D01*
X118742126Y-90753359D01*
X118866935Y-90353420D01*
X118918572Y-89566211D01*
X118923685Y-89024676D01*
X118923685Y-87184615D01*
X117854211Y-87169856D01*
X117102665Y-87228179D01*
G36*
X113251454Y-85875641D02*
X113130469Y-86208116D01*
X113065523Y-86871804D01*
X113042461Y-87956348D01*
X113041579Y-88324736D01*
X113041579Y-90864736D01*
X114458632Y-90864736D01*
X115321878Y-90807409D01*
X115981872Y-90660732D01*
X116196527Y-90543894D01*
X116420709Y-90031175D01*
X116507256Y-89228489D01*
X116500847Y-89126842D01*
X115447895Y-89126842D01*
X115424643Y-89866682D01*
X115290391Y-90217094D01*
X114948392Y-90323198D01*
X114645790Y-90330000D01*
X114152563Y-90295122D01*
X113918955Y-90093744D01*
X113848219Y-89580745D01*
X113843685Y-89126842D01*
X113866936Y-88387002D01*
X114001189Y-88036589D01*
X114343188Y-87930485D01*
X114645790Y-87923684D01*
X115139017Y-87958561D01*
X115372625Y-88159940D01*
X115443361Y-88672939D01*
X115447895Y-89126842D01*
X116500847Y-89126842D01*
X116452716Y-88363497D01*
X116253633Y-87663859D01*
X116240593Y-87638738D01*
X115846379Y-87263653D01*
X115117236Y-87125586D01*
X114903751Y-87121579D01*
X114218566Y-87084332D01*
X113915572Y-86909188D01*
X113843939Y-86501041D01*
X113843685Y-86453158D01*
X113704230Y-85915562D01*
X113442632Y-85784736D01*
X113251454Y-85875641D01*
X113251454Y-85875641D01*
G37*
X113251454Y-85875641D02*
X113130469Y-86208116D01*
X113065523Y-86871804D01*
X113042461Y-87956348D01*
X113041579Y-88324736D01*
X113041579Y-90864736D01*
X114458632Y-90864736D01*
X115321878Y-90807409D01*
X115981872Y-90660732D01*
X116196527Y-90543894D01*
X116420709Y-90031175D01*
X116507256Y-89228489D01*
X116500847Y-89126842D01*
X115447895Y-89126842D01*
X115424643Y-89866682D01*
X115290391Y-90217094D01*
X114948392Y-90323198D01*
X114645790Y-90330000D01*
X114152563Y-90295122D01*
X113918955Y-90093744D01*
X113848219Y-89580745D01*
X113843685Y-89126842D01*
X113866936Y-88387002D01*
X114001189Y-88036589D01*
X114343188Y-87930485D01*
X114645790Y-87923684D01*
X115139017Y-87958561D01*
X115372625Y-88159940D01*
X115443361Y-88672939D01*
X115447895Y-89126842D01*
X116500847Y-89126842D01*
X116452716Y-88363497D01*
X116253633Y-87663859D01*
X116240593Y-87638738D01*
X115846379Y-87263653D01*
X115117236Y-87125586D01*
X114903751Y-87121579D01*
X114218566Y-87084332D01*
X113915572Y-86909188D01*
X113843939Y-86501041D01*
X113843685Y-86453158D01*
X113704230Y-85915562D01*
X113442632Y-85784736D01*
X113251454Y-85875641D01*
G36*
X139758079Y-84517149D02*
X139051388Y-84949018D01*
X138047183Y-85806444D01*
X137104432Y-86720833D01*
X134843301Y-88993771D01*
X132533301Y-86694474D01*
X131360253Y-85576987D01*
X130476093Y-84860100D01*
X129840586Y-84522963D01*
X129413497Y-84544726D01*
X129154590Y-84904538D01*
X129143118Y-84937641D01*
X129278575Y-85248522D01*
X129732946Y-85849039D01*
X130439111Y-86658798D01*
X131329953Y-87597405D01*
X131542703Y-87811852D01*
X132729583Y-88963231D01*
X133621069Y-89741674D01*
X134264496Y-90184706D01*
X134707199Y-90329854D01*
X134719127Y-90330000D01*
X135158322Y-90193661D01*
X135794994Y-89759306D01*
X136677094Y-88988921D01*
X137845281Y-87851818D01*
X138769610Y-86889752D01*
X139536268Y-86027268D01*
X140073201Y-85350237D01*
X140308353Y-84944529D01*
X140313158Y-84910765D01*
X140175815Y-84506008D01*
X139758079Y-84517149D01*
X139758079Y-84517149D01*
G37*
X139758079Y-84517149D02*
X139051388Y-84949018D01*
X138047183Y-85806444D01*
X137104432Y-86720833D01*
X134843301Y-88993771D01*
X132533301Y-86694474D01*
X131360253Y-85576987D01*
X130476093Y-84860100D01*
X129840586Y-84522963D01*
X129413497Y-84544726D01*
X129154590Y-84904538D01*
X129143118Y-84937641D01*
X129278575Y-85248522D01*
X129732946Y-85849039D01*
X130439111Y-86658798D01*
X131329953Y-87597405D01*
X131542703Y-87811852D01*
X132729583Y-88963231D01*
X133621069Y-89741674D01*
X134264496Y-90184706D01*
X134707199Y-90329854D01*
X134719127Y-90330000D01*
X135158322Y-90193661D01*
X135794994Y-89759306D01*
X136677094Y-88988921D01*
X137845281Y-87851818D01*
X138769610Y-86889752D01*
X139536268Y-86027268D01*
X140073201Y-85350237D01*
X140308353Y-84944529D01*
X140313158Y-84910765D01*
X140175815Y-84506008D01*
X139758079Y-84517149D01*
G36*
X132705218Y-80182528D02*
X131682953Y-80223172D01*
X131001528Y-80292695D01*
X130843447Y-80332289D01*
X130586387Y-80583345D01*
X130454434Y-81156758D01*
X130420527Y-82048550D01*
X130420527Y-83602520D01*
X132492632Y-85494816D01*
X133391453Y-86280750D01*
X134180769Y-86907358D01*
X134758679Y-87297278D01*
X134986267Y-87388030D01*
X135335047Y-87205825D01*
X135953913Y-86711694D01*
X136749077Y-85985551D01*
X137459424Y-85280703D01*
X138362346Y-84340176D01*
X138952497Y-83669323D01*
X139296096Y-83160580D01*
X139459361Y-82706379D01*
X139508511Y-82199156D01*
X139509507Y-82100668D01*
X137906842Y-82100668D01*
X137706343Y-82627841D01*
X137144880Y-83400682D01*
X136377539Y-84239923D01*
X134848235Y-85785353D01*
X133302802Y-84256046D01*
X132408652Y-83287081D01*
X131884307Y-82526147D01*
X131757369Y-82116790D01*
X131777203Y-81855242D01*
X131897369Y-81681719D01*
X132208866Y-81578171D01*
X132802690Y-81526545D01*
X133769841Y-81508790D01*
X134832106Y-81506842D01*
X136150830Y-81511117D01*
X137025772Y-81535651D01*
X137547876Y-81598010D01*
X137808089Y-81715758D01*
X137897359Y-81906459D01*
X137906842Y-82100668D01*
X139509507Y-82100668D01*
X139511053Y-81948005D01*
X139447843Y-81098085D01*
X139222939Y-80618127D01*
X138993893Y-80446775D01*
X138552547Y-80351027D01*
X137701766Y-80273620D01*
X136566597Y-80216310D01*
X135272086Y-80180854D01*
X133943278Y-80169008D01*
X132705218Y-80182528D01*
X132705218Y-80182528D01*
G37*
X132705218Y-80182528D02*
X131682953Y-80223172D01*
X131001528Y-80292695D01*
X130843447Y-80332289D01*
X130586387Y-80583345D01*
X130454434Y-81156758D01*
X130420527Y-82048550D01*
X130420527Y-83602520D01*
X132492632Y-85494816D01*
X133391453Y-86280750D01*
X134180769Y-86907358D01*
X134758679Y-87297278D01*
X134986267Y-87388030D01*
X135335047Y-87205825D01*
X135953913Y-86711694D01*
X136749077Y-85985551D01*
X137459424Y-85280703D01*
X138362346Y-84340176D01*
X138952497Y-83669323D01*
X139296096Y-83160580D01*
X139459361Y-82706379D01*
X139508511Y-82199156D01*
X139509507Y-82100668D01*
X137906842Y-82100668D01*
X137706343Y-82627841D01*
X137144880Y-83400682D01*
X136377539Y-84239923D01*
X134848235Y-85785353D01*
X133302802Y-84256046D01*
X132408652Y-83287081D01*
X131884307Y-82526147D01*
X131757369Y-82116790D01*
X131777203Y-81855242D01*
X131897369Y-81681719D01*
X132208866Y-81578171D01*
X132802690Y-81526545D01*
X133769841Y-81508790D01*
X134832106Y-81506842D01*
X136150830Y-81511117D01*
X137025772Y-81535651D01*
X137547876Y-81598010D01*
X137808089Y-81715758D01*
X137897359Y-81906459D01*
X137906842Y-82100668D01*
X139509507Y-82100668D01*
X139511053Y-81948005D01*
X139447843Y-81098085D01*
X139222939Y-80618127D01*
X138993893Y-80446775D01*
X138552547Y-80351027D01*
X137701766Y-80273620D01*
X136566597Y-80216310D01*
X135272086Y-80180854D01*
X133943278Y-80169008D01*
X132705218Y-80182528D01*
G36*
X113879246Y-81047810D02*
X113843685Y-81103436D01*
X113959928Y-81510922D01*
X114260497Y-82238112D01*
X114673145Y-83135547D01*
X115125629Y-84053765D01*
X115545706Y-84843306D01*
X115861129Y-85354709D01*
X115944924Y-85450526D01*
X116506825Y-85735517D01*
X117024530Y-85742403D01*
X117307587Y-85480446D01*
X117319474Y-85383684D01*
X117096570Y-85057069D01*
X116784737Y-84982631D01*
X116349526Y-84936873D01*
X116250000Y-84873870D01*
X116351518Y-84594810D01*
X116619368Y-83959162D01*
X116998497Y-83097094D01*
X117052106Y-82977368D01*
X117498348Y-81974792D01*
X117743851Y-81368784D01*
X117806227Y-81067789D01*
X117703091Y-80980250D01*
X117452055Y-81014611D01*
X117428776Y-81019342D01*
X117098561Y-81297479D01*
X116692694Y-81924431D01*
X116409715Y-82512400D01*
X115816089Y-83919012D01*
X115205377Y-82445558D01*
X114821477Y-81659833D01*
X114448886Y-81125296D01*
X114219174Y-80972105D01*
X113879246Y-81047810D01*
X113879246Y-81047810D01*
G37*
X113879246Y-81047810D02*
X113843685Y-81103436D01*
X113959928Y-81510922D01*
X114260497Y-82238112D01*
X114673145Y-83135547D01*
X115125629Y-84053765D01*
X115545706Y-84843306D01*
X115861129Y-85354709D01*
X115944924Y-85450526D01*
X116506825Y-85735517D01*
X117024530Y-85742403D01*
X117307587Y-85480446D01*
X117319474Y-85383684D01*
X117096570Y-85057069D01*
X116784737Y-84982631D01*
X116349526Y-84936873D01*
X116250000Y-84873870D01*
X116351518Y-84594810D01*
X116619368Y-83959162D01*
X116998497Y-83097094D01*
X117052106Y-82977368D01*
X117498348Y-81974792D01*
X117743851Y-81368784D01*
X117806227Y-81067789D01*
X117703091Y-80980250D01*
X117452055Y-81014611D01*
X117428776Y-81019342D01*
X117098561Y-81297479D01*
X116692694Y-81924431D01*
X116409715Y-82512400D01*
X115816089Y-83919012D01*
X115205377Y-82445558D01*
X114821477Y-81659833D01*
X114448886Y-81125296D01*
X114219174Y-80972105D01*
X113879246Y-81047810D01*
G36*
X125533284Y-80203175D02*
X124829029Y-80292980D01*
X124540298Y-80424830D01*
X124538421Y-80437368D01*
X124770756Y-80625096D01*
X125330548Y-80704716D01*
X125340527Y-80704736D01*
X126142632Y-80704736D01*
X126142632Y-82710000D01*
X126163640Y-83767722D01*
X126239560Y-84388593D01*
X126389730Y-84669318D01*
X126543685Y-84715263D01*
X126755229Y-84610220D01*
X126879403Y-84230624D01*
X126935548Y-83479773D01*
X126944737Y-82710000D01*
X126944737Y-80704736D01*
X127746842Y-80704736D01*
X128310027Y-80627292D01*
X128548886Y-80440694D01*
X128548948Y-80437368D01*
X128300131Y-80302648D01*
X127626596Y-80208747D01*
X126637721Y-80170250D01*
X126543685Y-80170000D01*
X125533284Y-80203175D01*
X125533284Y-80203175D01*
G37*
X125533284Y-80203175D02*
X124829029Y-80292980D01*
X124540298Y-80424830D01*
X124538421Y-80437368D01*
X124770756Y-80625096D01*
X125330548Y-80704716D01*
X125340527Y-80704736D01*
X126142632Y-80704736D01*
X126142632Y-82710000D01*
X126163640Y-83767722D01*
X126239560Y-84388593D01*
X126389730Y-84669318D01*
X126543685Y-84715263D01*
X126755229Y-84610220D01*
X126879403Y-84230624D01*
X126935548Y-83479773D01*
X126944737Y-82710000D01*
X126944737Y-80704736D01*
X127746842Y-80704736D01*
X128310027Y-80627292D01*
X128548886Y-80440694D01*
X128548948Y-80437368D01*
X128300131Y-80302648D01*
X127626596Y-80208747D01*
X126637721Y-80170250D01*
X126543685Y-80170000D01*
X125533284Y-80203175D01*
G36*
X123156643Y-81037366D02*
X123015045Y-81270130D01*
X122950004Y-81825565D01*
X122934213Y-82808836D01*
X122934211Y-82824079D01*
X122947835Y-83812822D01*
X123010725Y-84381277D01*
X123155910Y-84643647D01*
X123416420Y-84714137D01*
X123481164Y-84715263D01*
X123769945Y-84671414D01*
X123925094Y-84461820D01*
X123977008Y-83969414D01*
X123956085Y-83077127D01*
X123949059Y-82913290D01*
X123879989Y-81917699D01*
X123760117Y-81343399D01*
X123556722Y-81077250D01*
X123402106Y-81022107D01*
X123156643Y-81037366D01*
X123156643Y-81037366D01*
G37*
X123156643Y-81037366D02*
X123015045Y-81270130D01*
X122950004Y-81825565D01*
X122934213Y-82808836D01*
X122934211Y-82824079D01*
X122947835Y-83812822D01*
X123010725Y-84381277D01*
X123155910Y-84643647D01*
X123416420Y-84714137D01*
X123481164Y-84715263D01*
X123769945Y-84671414D01*
X123925094Y-84461820D01*
X123977008Y-83969414D01*
X123956085Y-83077127D01*
X123949059Y-82913290D01*
X123879989Y-81917699D01*
X123760117Y-81343399D01*
X123556722Y-81077250D01*
X123402106Y-81022107D01*
X123156643Y-81037366D01*
G36*
X119481716Y-81000457D02*
X118839795Y-81153364D01*
X118515871Y-81532600D01*
X118401818Y-82239939D01*
X118388948Y-83005973D01*
X118416504Y-83971625D01*
X118514816Y-84504645D01*
X118707348Y-84705042D01*
X118790000Y-84715263D01*
X119031859Y-84583242D01*
X119156378Y-84119989D01*
X119191053Y-83244736D01*
X119191053Y-81774210D01*
X121062632Y-81774210D01*
X121062632Y-83244736D01*
X121098638Y-84131552D01*
X121224979Y-84588121D01*
X121463685Y-84715263D01*
X121681583Y-84605196D01*
X121806293Y-84209431D01*
X121858890Y-83429618D01*
X121864737Y-82843684D01*
X121864737Y-80972105D01*
X120549763Y-80972105D01*
X119481716Y-81000457D01*
X119481716Y-81000457D01*
G37*
X119481716Y-81000457D02*
X118839795Y-81153364D01*
X118515871Y-81532600D01*
X118401818Y-82239939D01*
X118388948Y-83005973D01*
X118416504Y-83971625D01*
X118514816Y-84504645D01*
X118707348Y-84705042D01*
X118790000Y-84715263D01*
X119031859Y-84583242D01*
X119156378Y-84119989D01*
X119191053Y-83244736D01*
X119191053Y-81774210D01*
X121062632Y-81774210D01*
X121062632Y-83244736D01*
X121098638Y-84131552D01*
X121224979Y-84588121D01*
X121463685Y-84715263D01*
X121681583Y-84605196D01*
X121806293Y-84209431D01*
X121858890Y-83429618D01*
X121864737Y-82843684D01*
X121864737Y-80972105D01*
X120549763Y-80972105D01*
X119481716Y-81000457D01*
G36*
X110636836Y-80181720D02*
X110116488Y-80247859D01*
X109889199Y-80414881D01*
X109834161Y-80729251D01*
X109833158Y-80838421D01*
X109972613Y-81376016D01*
X110234211Y-81506842D01*
X110588680Y-81292822D01*
X110635264Y-81105789D01*
X110838189Y-80809164D01*
X111485825Y-80705461D01*
X111571053Y-80704736D01*
X112204653Y-80755447D01*
X112463889Y-80980427D01*
X112506842Y-81358508D01*
X112451471Y-81758931D01*
X112192835Y-81968570D01*
X111592148Y-82067771D01*
X111236842Y-82093771D01*
X109966842Y-82175263D01*
X109885351Y-83445263D01*
X109803859Y-84715263D01*
X113308948Y-84715263D01*
X113308948Y-83913158D01*
X113189377Y-83276361D01*
X112907895Y-83111052D01*
X112581280Y-83333956D01*
X112506842Y-83645789D01*
X112402164Y-84014341D01*
X111993509Y-84163047D01*
X111571053Y-84180526D01*
X110942332Y-84135812D01*
X110684457Y-83909011D01*
X110635264Y-83378421D01*
X110664470Y-82903594D01*
X110844050Y-82666815D01*
X111311940Y-82585322D01*
X111972106Y-82576315D01*
X113308948Y-82576315D01*
X113308948Y-80170000D01*
X111571053Y-80170000D01*
X110636836Y-80181720D01*
X110636836Y-80181720D01*
G37*
X110636836Y-80181720D02*
X110116488Y-80247859D01*
X109889199Y-80414881D01*
X109834161Y-80729251D01*
X109833158Y-80838421D01*
X109972613Y-81376016D01*
X110234211Y-81506842D01*
X110588680Y-81292822D01*
X110635264Y-81105789D01*
X110838189Y-80809164D01*
X111485825Y-80705461D01*
X111571053Y-80704736D01*
X112204653Y-80755447D01*
X112463889Y-80980427D01*
X112506842Y-81358508D01*
X112451471Y-81758931D01*
X112192835Y-81968570D01*
X111592148Y-82067771D01*
X111236842Y-82093771D01*
X109966842Y-82175263D01*
X109885351Y-83445263D01*
X109803859Y-84715263D01*
X113308948Y-84715263D01*
X113308948Y-83913158D01*
X113189377Y-83276361D01*
X112907895Y-83111052D01*
X112581280Y-83333956D01*
X112506842Y-83645789D01*
X112402164Y-84014341D01*
X111993509Y-84163047D01*
X111571053Y-84180526D01*
X110942332Y-84135812D01*
X110684457Y-83909011D01*
X110635264Y-83378421D01*
X110664470Y-82903594D01*
X110844050Y-82666815D01*
X111311940Y-82585322D01*
X111972106Y-82576315D01*
X113308948Y-82576315D01*
X113308948Y-80170000D01*
X111571053Y-80170000D01*
X110636836Y-80181720D01*
G36*
X106270427Y-81043603D02*
X105665992Y-81295472D01*
X105377385Y-81868969D01*
X105325888Y-82850985D01*
X105340012Y-83156190D01*
X105421579Y-84581579D01*
X106962182Y-84661860D01*
X107923758Y-84670555D01*
X108458461Y-84559193D01*
X108648420Y-84362621D01*
X108716408Y-83892557D01*
X108731960Y-83102038D01*
X108727504Y-82977368D01*
X107961579Y-82977368D01*
X107941602Y-83716641D01*
X107806212Y-84066710D01*
X107442220Y-84173105D01*
X107025790Y-84180526D01*
X106450800Y-84154841D01*
X106178524Y-83980768D01*
X106095773Y-83512778D01*
X106090000Y-82977368D01*
X106109977Y-82238095D01*
X106245367Y-81888026D01*
X106609360Y-81781631D01*
X107025790Y-81774210D01*
X107600780Y-81799895D01*
X107873056Y-81973968D01*
X107955807Y-82441958D01*
X107961579Y-82977368D01*
X108727504Y-82977368D01*
X108712028Y-82544445D01*
X108630000Y-81105789D01*
X107269410Y-81026469D01*
X106270427Y-81043603D01*
X106270427Y-81043603D01*
G37*
X106270427Y-81043603D02*
X105665992Y-81295472D01*
X105377385Y-81868969D01*
X105325888Y-82850985D01*
X105340012Y-83156190D01*
X105421579Y-84581579D01*
X106962182Y-84661860D01*
X107923758Y-84670555D01*
X108458461Y-84559193D01*
X108648420Y-84362621D01*
X108716408Y-83892557D01*
X108731960Y-83102038D01*
X108727504Y-82977368D01*
X107961579Y-82977368D01*
X107941602Y-83716641D01*
X107806212Y-84066710D01*
X107442220Y-84173105D01*
X107025790Y-84180526D01*
X106450800Y-84154841D01*
X106178524Y-83980768D01*
X106095773Y-83512778D01*
X106090000Y-82977368D01*
X106109977Y-82238095D01*
X106245367Y-81888026D01*
X106609360Y-81781631D01*
X107025790Y-81774210D01*
X107600780Y-81799895D01*
X107873056Y-81973968D01*
X107955807Y-82441958D01*
X107961579Y-82977368D01*
X108727504Y-82977368D01*
X108712028Y-82544445D01*
X108630000Y-81105789D01*
X107269410Y-81026469D01*
X106270427Y-81043603D01*
G36*
X101193154Y-81082171D02*
X101068444Y-81477937D01*
X101015848Y-82257750D01*
X101010000Y-82843684D01*
X101010000Y-84715263D01*
X102585605Y-84715263D01*
X103551984Y-84675005D01*
X104097274Y-84536578D01*
X104323500Y-84292343D01*
X104415580Y-83794898D01*
X104474388Y-82982493D01*
X104485790Y-82420764D01*
X104448787Y-81541392D01*
X104319199Y-81092156D01*
X104084737Y-80972105D01*
X103851864Y-81095306D01*
X103726836Y-81532044D01*
X103684476Y-82383026D01*
X103683685Y-82576315D01*
X103683685Y-84180526D01*
X101812106Y-84180526D01*
X101812106Y-82576315D01*
X101781305Y-81644823D01*
X101672121Y-81144709D01*
X101459375Y-80975269D01*
X101411053Y-80972105D01*
X101193154Y-81082171D01*
X101193154Y-81082171D01*
G37*
X101193154Y-81082171D02*
X101068444Y-81477937D01*
X101015848Y-82257750D01*
X101010000Y-82843684D01*
X101010000Y-84715263D01*
X102585605Y-84715263D01*
X103551984Y-84675005D01*
X104097274Y-84536578D01*
X104323500Y-84292343D01*
X104415580Y-83794898D01*
X104474388Y-82982493D01*
X104485790Y-82420764D01*
X104448787Y-81541392D01*
X104319199Y-81092156D01*
X104084737Y-80972105D01*
X103851864Y-81095306D01*
X103726836Y-81532044D01*
X103684476Y-82383026D01*
X103683685Y-82576315D01*
X103683685Y-84180526D01*
X101812106Y-84180526D01*
X101812106Y-82576315D01*
X101781305Y-81644823D01*
X101672121Y-81144709D01*
X101459375Y-80975269D01*
X101411053Y-80972105D01*
X101193154Y-81082171D01*
G36*
X96598421Y-81105789D02*
X96519363Y-82910526D01*
X96497262Y-83891219D01*
X96551740Y-84446477D01*
X96702473Y-84682566D01*
X96853574Y-84715263D01*
X97100910Y-84593848D01*
X97228695Y-84158837D01*
X97266759Y-83304081D01*
X97266842Y-83244736D01*
X97266842Y-81774210D01*
X99138421Y-81774210D01*
X99138421Y-83244736D01*
X99174427Y-84131552D01*
X99300769Y-84588121D01*
X99539474Y-84715263D01*
X99756738Y-84605712D01*
X99881405Y-84211594D01*
X99934375Y-83434710D01*
X99940527Y-82830926D01*
X99940527Y-80946589D01*
X96598421Y-81105789D01*
X96598421Y-81105789D01*
G37*
X96598421Y-81105789D02*
X96519363Y-82910526D01*
X96497262Y-83891219D01*
X96551740Y-84446477D01*
X96702473Y-84682566D01*
X96853574Y-84715263D01*
X97100910Y-84593848D01*
X97228695Y-84158837D01*
X97266759Y-83304081D01*
X97266842Y-83244736D01*
X97266842Y-81774210D01*
X99138421Y-81774210D01*
X99138421Y-83244736D01*
X99174427Y-84131552D01*
X99300769Y-84588121D01*
X99539474Y-84715263D01*
X99756738Y-84605712D01*
X99881405Y-84211594D01*
X99934375Y-83434710D01*
X99940527Y-82830926D01*
X99940527Y-80946589D01*
X96598421Y-81105789D01*
G36*
X92521053Y-79685556D02*
X92294965Y-79801287D01*
X92146088Y-80111284D01*
X92053100Y-80715722D01*
X91994680Y-81714780D01*
X91976283Y-82245160D01*
X91899408Y-84715263D01*
X93618730Y-84715263D01*
X94624815Y-84681781D01*
X95208460Y-84564994D01*
X95478717Y-84340390D01*
X95500342Y-84292343D01*
X95644156Y-83520117D01*
X95638620Y-82977368D01*
X94593158Y-82977368D01*
X94569907Y-83717208D01*
X94435654Y-84067621D01*
X94093655Y-84173725D01*
X93791053Y-84180526D01*
X93297826Y-84145648D01*
X93064218Y-83944270D01*
X92993482Y-83431271D01*
X92988948Y-82977368D01*
X93012199Y-82237528D01*
X93146452Y-81887115D01*
X93488451Y-81781011D01*
X93791053Y-81774210D01*
X94284280Y-81809088D01*
X94517888Y-82010466D01*
X94588624Y-82523465D01*
X94593158Y-82977368D01*
X95638620Y-82977368D01*
X95634446Y-82568177D01*
X95483124Y-81728153D01*
X95385857Y-81489265D01*
X94991642Y-81114179D01*
X94262499Y-80976112D01*
X94049014Y-80972105D01*
X93364583Y-80935714D01*
X93061874Y-80760981D01*
X92989375Y-80349568D01*
X92988948Y-80284079D01*
X92891310Y-79776138D01*
X92549205Y-79680575D01*
X92521053Y-79685556D01*
X92521053Y-79685556D01*
G37*
X92521053Y-79685556D02*
X92294965Y-79801287D01*
X92146088Y-80111284D01*
X92053100Y-80715722D01*
X91994680Y-81714780D01*
X91976283Y-82245160D01*
X91899408Y-84715263D01*
X93618730Y-84715263D01*
X94624815Y-84681781D01*
X95208460Y-84564994D01*
X95478717Y-84340390D01*
X95500342Y-84292343D01*
X95644156Y-83520117D01*
X95638620Y-82977368D01*
X94593158Y-82977368D01*
X94569907Y-83717208D01*
X94435654Y-84067621D01*
X94093655Y-84173725D01*
X93791053Y-84180526D01*
X93297826Y-84145648D01*
X93064218Y-83944270D01*
X92993482Y-83431271D01*
X92988948Y-82977368D01*
X93012199Y-82237528D01*
X93146452Y-81887115D01*
X93488451Y-81781011D01*
X93791053Y-81774210D01*
X94284280Y-81809088D01*
X94517888Y-82010466D01*
X94588624Y-82523465D01*
X94593158Y-82977368D01*
X95638620Y-82977368D01*
X95634446Y-82568177D01*
X95483124Y-81728153D01*
X95385857Y-81489265D01*
X94991642Y-81114179D01*
X94262499Y-80976112D01*
X94049014Y-80972105D01*
X93364583Y-80935714D01*
X93061874Y-80760981D01*
X92989375Y-80349568D01*
X92988948Y-80284079D01*
X92891310Y-79776138D01*
X92549205Y-79680575D01*
X92521053Y-79685556D01*
G36*
X122961209Y-79877750D02*
X122934211Y-80016711D01*
X123159116Y-80363817D01*
X123491228Y-80437368D01*
X123898715Y-80309636D01*
X123936967Y-80103158D01*
X123649274Y-79770238D01*
X123244986Y-79688288D01*
X122961209Y-79877750D01*
X122961209Y-79877750D01*
G37*
X122961209Y-79877750D02*
X122934211Y-80016711D01*
X123159116Y-80363817D01*
X123491228Y-80437368D01*
X123898715Y-80309636D01*
X123936967Y-80103158D01*
X123649274Y-79770238D01*
X123244986Y-79688288D01*
X122961209Y-79877750D01*
%LPC*%
D14*
X82000000Y-83000000D03*
X84500000Y-83000000D03*
X97000000Y-92000000D03*
X99500000Y-92000000D03*
X97000000Y-88000000D03*
X99500000Y-88000000D03*
X71320000Y-95925000D03*
X71320000Y-93425000D03*
X71320000Y-88305000D03*
X71320000Y-90805000D03*
X119500000Y-103000000D03*
X122000000Y-103000000D03*
X77000000Y-101500000D03*
X79500000Y-101500000D03*
X89500000Y-101500000D03*
X92000000Y-101500000D03*
X69000000Y-72000000D03*
X69000000Y-69500000D03*
X102000000Y-101500000D03*
X104500000Y-101500000D03*
X71500000Y-105000000D03*
X74000000Y-105000000D03*
X114000000Y-109000000D03*
X116500000Y-109000000D03*
D15*
X65000000Y-99000000D03*
X59000000Y-99000000D03*
X62000000Y-103700000D03*
D16*
X101940000Y-75600000D03*
D17*
X99400000Y-75600000D03*
D14*
X60000000Y-87000000D03*
X65000000Y-87000000D03*
D18*
X138000000Y-106550000D03*
X138000000Y-100850000D03*
X130500000Y-106000000D03*
X130500000Y-101400000D03*
D19*
X134500000Y-106200000D03*
X134500000Y-101600000D03*
D20*
X61160000Y-78780000D03*
D21*
X61160000Y-76240000D03*
X61160000Y-73700000D03*
D20*
X127200000Y-71160000D03*
D21*
X129740000Y-71160000D03*
D20*
X73860000Y-71160000D03*
D21*
X76400000Y-71160000D03*
D14*
X86500000Y-75500000D03*
D22*
X96660000Y-75500000D03*
D14*
X106000000Y-77340000D03*
D22*
X106000000Y-87500000D03*
D14*
X109500000Y-87500000D03*
D22*
X109500000Y-77340000D03*
D14*
X87160000Y-105000000D03*
D22*
X77000000Y-105000000D03*
D14*
X99660000Y-105000000D03*
D22*
X89500000Y-105000000D03*
D14*
X79500000Y-76000000D03*
D22*
X69340000Y-76000000D03*
D14*
X112160000Y-105000000D03*
D22*
X102000000Y-105000000D03*
D14*
X70000000Y-108625000D03*
D22*
X59840000Y-108625000D03*
D14*
X124160000Y-113000000D03*
D22*
X114000000Y-113000000D03*
D23*
X53200000Y-86000000D03*
X53200000Y-88000000D03*
X53200000Y-90000000D03*
D24*
X53200000Y-83650000D03*
X53200000Y-92350000D03*
D23*
X64500000Y-113500000D03*
X66500000Y-113500000D03*
X68500000Y-113500000D03*
D25*
X62150000Y-113500000D03*
X70850000Y-113500000D03*
D26*
X77000000Y-94880000D03*
X77000000Y-90000000D03*
D21*
X121840000Y-77000000D03*
X124380000Y-77000000D03*
X126920000Y-77000000D03*
X129460000Y-77000000D03*
X132000000Y-77000000D03*
X134540000Y-77000000D03*
X137080000Y-77000000D03*
D27*
X139620000Y-77000000D03*
D20*
X121840000Y-97320000D03*
D21*
X124380000Y-97320000D03*
X126920000Y-97320000D03*
X129460000Y-97320000D03*
X132000000Y-97320000D03*
X134540000Y-97320000D03*
X137080000Y-97320000D03*
X139620000Y-97320000D03*
D20*
X114500000Y-71000000D03*
D21*
X117040000Y-71000000D03*
X119580000Y-71000000D03*
X122120000Y-71000000D03*
D20*
X101800000Y-71000000D03*
D21*
X104340000Y-71000000D03*
X106880000Y-71000000D03*
X109420000Y-71000000D03*
D20*
X81480000Y-71160000D03*
D21*
X84020000Y-71160000D03*
X86560000Y-71160000D03*
X89100000Y-71160000D03*
X91640000Y-71160000D03*
X94180000Y-71160000D03*
X96720000Y-71160000D03*
D28*
X115000000Y-95500000D03*
D14*
X112500000Y-95500000D03*
D29*
X73500000Y-113500000D03*
X73500000Y-109000000D03*
X80000000Y-113500000D03*
X80000000Y-109000000D03*
X83500000Y-113500000D03*
X83500000Y-109000000D03*
X90000000Y-113500000D03*
X90000000Y-109000000D03*
X93500000Y-113500000D03*
X93500000Y-109000000D03*
X100000000Y-113500000D03*
X100000000Y-109000000D03*
X103500000Y-113500000D03*
X103500000Y-109000000D03*
X110000000Y-113500000D03*
X110000000Y-109000000D03*
D14*
X96250000Y-97500000D03*
D22*
X106410000Y-97500000D03*
D14*
X125750000Y-110410000D03*
D22*
X125750000Y-100250000D03*
M02*
