G04 #@! TF.FileFunction,Copper,L2,Bot,Signal*
%FSLAX46Y46*%
G04 Gerber Fmt 4.6, Leading zero omitted, Abs format (unit mm)*
G04 Created by KiCad (PCBNEW 4.0.1-stable) date 2018/09/01 18:49:11*
%MOMM*%
G01*
G04 APERTURE LIST*
%ADD10C,0.100000*%
%ADD11C,3.500000*%
%ADD12C,1.600000*%
%ADD13R,3.500000X3.500000*%
%ADD14R,1.800000X1.800000*%
%ADD15C,1.800000*%
%ADD16R,2.600000X1.000000*%
%ADD17C,1.300000*%
%ADD18R,1.700000X1.700000*%
%ADD19O,1.700000X1.700000*%
%ADD20O,1.600000X1.600000*%
%ADD21C,1.000000*%
%ADD22R,1.600000X0.700000*%
%ADD23R,0.700000X1.600000*%
%ADD24C,1.500000*%
%ADD25C,1.700000*%
%ADD26R,1.600000X1.600000*%
%ADD27C,2.000000*%
%ADD28C,0.700000*%
%ADD29C,0.250000*%
%ADD30C,0.200000*%
%ADD31C,0.600000*%
%ADD32C,0.300000*%
G04 APERTURE END LIST*
D10*
D11*
X138000000Y-112000000D03*
X138000000Y-65000000D03*
X55000000Y-112000000D03*
D12*
X82000000Y-83000000D03*
X84500000Y-83000000D03*
X97000000Y-92000000D03*
X99500000Y-92000000D03*
X97000000Y-88000000D03*
X99500000Y-88000000D03*
X71320000Y-95925000D03*
X71320000Y-93425000D03*
X71320000Y-88305000D03*
X71320000Y-90805000D03*
X119500000Y-103000000D03*
X122000000Y-103000000D03*
X77000000Y-101500000D03*
X79500000Y-101500000D03*
X89500000Y-101500000D03*
X92000000Y-101500000D03*
X69000000Y-72000000D03*
X69000000Y-69500000D03*
X102000000Y-101500000D03*
X104500000Y-101500000D03*
X71500000Y-105000000D03*
X74000000Y-105000000D03*
X114000000Y-109000000D03*
X116500000Y-109000000D03*
D13*
X65000000Y-99000000D03*
X59000000Y-99000000D03*
X62000000Y-103700000D03*
D14*
X101940000Y-75600000D03*
D15*
X99400000Y-75600000D03*
D12*
X60000000Y-87000000D03*
X65000000Y-87000000D03*
D16*
X138000000Y-106550000D03*
X138000000Y-100850000D03*
X130500000Y-106000000D03*
X130500000Y-101400000D03*
D17*
X134500000Y-106200000D03*
X134500000Y-101600000D03*
D18*
X61160000Y-78780000D03*
D19*
X61160000Y-76240000D03*
X61160000Y-73700000D03*
D18*
X127200000Y-71160000D03*
D19*
X129740000Y-71160000D03*
D18*
X73860000Y-71160000D03*
D19*
X76400000Y-71160000D03*
D12*
X86500000Y-75500000D03*
D20*
X96660000Y-75500000D03*
D12*
X106000000Y-77340000D03*
D20*
X106000000Y-87500000D03*
D12*
X109500000Y-87500000D03*
D20*
X109500000Y-77340000D03*
D12*
X87160000Y-105000000D03*
D20*
X77000000Y-105000000D03*
D12*
X99660000Y-105000000D03*
D20*
X89500000Y-105000000D03*
D12*
X79500000Y-76000000D03*
D20*
X69340000Y-76000000D03*
D12*
X112160000Y-105000000D03*
D20*
X102000000Y-105000000D03*
D12*
X70000000Y-108625000D03*
D20*
X59840000Y-108625000D03*
D12*
X124160000Y-113000000D03*
D20*
X114000000Y-113000000D03*
D21*
X53200000Y-86000000D03*
X53200000Y-88000000D03*
X53200000Y-90000000D03*
D22*
X53200000Y-83650000D03*
X53200000Y-92350000D03*
D21*
X64500000Y-113500000D03*
X66500000Y-113500000D03*
X68500000Y-113500000D03*
D23*
X62150000Y-113500000D03*
X70850000Y-113500000D03*
D24*
X77000000Y-94880000D03*
X77000000Y-90000000D03*
D19*
X121840000Y-77000000D03*
X124380000Y-77000000D03*
X126920000Y-77000000D03*
X129460000Y-77000000D03*
X132000000Y-77000000D03*
X134540000Y-77000000D03*
X137080000Y-77000000D03*
D25*
X139620000Y-77000000D03*
D18*
X121840000Y-97320000D03*
D19*
X124380000Y-97320000D03*
X126920000Y-97320000D03*
X129460000Y-97320000D03*
X132000000Y-97320000D03*
X134540000Y-97320000D03*
X137080000Y-97320000D03*
X139620000Y-97320000D03*
D18*
X114500000Y-71000000D03*
D19*
X117040000Y-71000000D03*
X119580000Y-71000000D03*
X122120000Y-71000000D03*
D18*
X101800000Y-71000000D03*
D19*
X104340000Y-71000000D03*
X106880000Y-71000000D03*
X109420000Y-71000000D03*
D18*
X81480000Y-71160000D03*
D19*
X84020000Y-71160000D03*
X86560000Y-71160000D03*
X89100000Y-71160000D03*
X91640000Y-71160000D03*
X94180000Y-71160000D03*
X96720000Y-71160000D03*
D11*
X55000000Y-65000000D03*
D26*
X115000000Y-95500000D03*
D12*
X112500000Y-95500000D03*
D27*
X73500000Y-113500000D03*
X73500000Y-109000000D03*
X80000000Y-113500000D03*
X80000000Y-109000000D03*
X83500000Y-113500000D03*
X83500000Y-109000000D03*
X90000000Y-113500000D03*
X90000000Y-109000000D03*
X93500000Y-113500000D03*
X93500000Y-109000000D03*
X100000000Y-113500000D03*
X100000000Y-109000000D03*
X103500000Y-113500000D03*
X103500000Y-109000000D03*
X110000000Y-113500000D03*
X110000000Y-109000000D03*
D12*
X96250000Y-97500000D03*
D20*
X106410000Y-97500000D03*
D12*
X125750000Y-110410000D03*
D20*
X125750000Y-100250000D03*
D28*
X107953235Y-103046765D03*
X95500000Y-102750000D03*
X96750000Y-102750000D03*
X96750000Y-101500000D03*
X95500000Y-101500000D03*
X101750000Y-93000000D03*
X102750000Y-93000000D03*
X102750000Y-92000000D03*
X101750000Y-92000000D03*
X134000000Y-115000000D03*
X131000000Y-115000000D03*
X128000000Y-115000000D03*
X125000000Y-115000000D03*
X122000000Y-115000000D03*
X119000000Y-115000000D03*
X116000000Y-115000000D03*
X113000000Y-115000000D03*
X107000000Y-115000000D03*
X102000000Y-115000000D03*
X96000000Y-115000000D03*
X92000000Y-115000000D03*
X86000000Y-115000000D03*
X82000000Y-115000000D03*
X78000000Y-115000000D03*
X75000000Y-115000000D03*
X71000000Y-115000000D03*
X68000000Y-115000000D03*
X65000000Y-115000000D03*
X62000000Y-115000000D03*
X59000000Y-115000000D03*
X56000000Y-115000000D03*
X53000000Y-115000000D03*
X52000000Y-112000000D03*
X52000000Y-109000000D03*
X52000000Y-106000000D03*
X52000000Y-103000000D03*
X52000000Y-100000000D03*
X52000000Y-97000000D03*
X52000000Y-94000000D03*
X52000000Y-91000000D03*
X52000000Y-87000000D03*
X56000000Y-83000000D03*
X58000000Y-81000000D03*
X58000000Y-78000000D03*
X58000000Y-75000000D03*
X58000000Y-72000000D03*
X54000000Y-70000000D03*
X52000000Y-68000000D03*
X52000000Y-65000000D03*
X53000000Y-62000000D03*
X56000000Y-62000000D03*
X59000000Y-62000000D03*
X63000000Y-62000000D03*
X67000000Y-62000000D03*
X69000000Y-64000000D03*
X70000000Y-67000000D03*
X72000000Y-68000000D03*
X75000000Y-68000000D03*
X78000000Y-68000000D03*
X81000000Y-68000000D03*
X84000000Y-68000000D03*
X87000000Y-68000000D03*
X90000000Y-68000000D03*
X93000000Y-68000000D03*
X96000000Y-68000000D03*
X99000000Y-68000000D03*
X102000000Y-68000000D03*
X105000000Y-68000000D03*
X108000000Y-68000000D03*
X111000000Y-68000000D03*
X114000000Y-68000000D03*
X117000000Y-68000000D03*
X120000000Y-68000000D03*
X123000000Y-68000000D03*
X126000000Y-68000000D03*
X129000000Y-68000000D03*
X132000000Y-68000000D03*
X134000000Y-65000000D03*
X135000000Y-62000000D03*
X138000000Y-62000000D03*
X141000000Y-63000000D03*
X141000000Y-66000000D03*
X138000000Y-115000000D03*
X141000000Y-114000000D03*
X141000000Y-111000000D03*
X141000000Y-108000000D03*
X141000000Y-105000000D03*
X107000000Y-103000000D03*
X107000000Y-104000000D03*
X108000000Y-104000000D03*
X73000000Y-101000000D03*
X72000000Y-101000000D03*
X71000000Y-101000000D03*
X71000000Y-102000000D03*
X72000000Y-102000000D03*
X73000000Y-102000000D03*
X141000000Y-102000000D03*
X141000000Y-99000000D03*
X141000000Y-96000026D03*
X141000000Y-93000000D03*
X141000000Y-90000000D03*
X141000000Y-87000000D03*
X141000000Y-84000000D03*
X141000000Y-81000000D03*
X141000000Y-78000000D03*
X141000000Y-75000000D03*
X141000000Y-72000000D03*
X141000000Y-69000000D03*
X92500000Y-80750000D03*
X92500000Y-79750000D03*
X93500000Y-79750000D03*
X94500000Y-79750000D03*
X94500000Y-80750000D03*
X93500000Y-80750000D03*
X83250000Y-78250000D03*
X119750000Y-85500000D03*
X119750000Y-84500000D03*
X119750000Y-83500000D03*
X118750000Y-83500000D03*
X118750000Y-84500000D03*
X118750000Y-85500000D03*
X119000000Y-95250000D03*
X118000000Y-95250000D03*
X118000000Y-94250000D03*
X119000000Y-94250000D03*
X119000000Y-93250000D03*
X118000000Y-93250000D03*
X77250000Y-77250000D03*
X77250000Y-78250000D03*
X77250000Y-79250000D03*
X76250000Y-79250000D03*
X76250000Y-78250000D03*
X76250000Y-77250000D03*
X81250000Y-95000000D03*
X81250000Y-96000000D03*
X81250000Y-97000000D03*
X82250000Y-97000000D03*
X82250000Y-96000000D03*
X82250000Y-95000000D03*
X94750000Y-95000006D03*
X94749974Y-96000000D03*
X95750000Y-96000000D03*
X95750000Y-95000000D03*
X68500000Y-85750000D03*
X68500000Y-86750000D03*
X68500000Y-87750000D03*
X67500000Y-87750000D03*
X67500000Y-86750000D03*
X67500000Y-85750000D03*
X59000000Y-91500000D03*
X60000000Y-91500000D03*
X61000000Y-91500000D03*
X61000000Y-92500000D03*
X60000000Y-92500000D03*
X59000000Y-92500000D03*
X64250000Y-79750000D03*
X65250000Y-79750000D03*
X66250000Y-79750000D03*
X66250000Y-78750000D03*
X65250000Y-78750000D03*
X64250000Y-78750000D03*
X110250000Y-96500000D03*
X109250000Y-96500000D03*
X108250000Y-96500000D03*
X108250000Y-95500000D03*
X109250000Y-95500000D03*
X110250000Y-95500000D03*
X137000000Y-93000000D03*
X137080000Y-92000000D03*
X137080000Y-94000000D03*
X70750000Y-74000000D03*
X83000000Y-87875020D03*
X116800000Y-86400000D03*
X88400000Y-92600000D03*
X86395005Y-90397503D03*
X86400000Y-88800000D03*
X86400000Y-87200000D03*
X91600000Y-89600000D03*
X95200000Y-88800000D03*
X133200000Y-81800000D03*
X137200000Y-79000000D03*
X135000000Y-80000000D03*
X125200000Y-71200000D03*
X117600000Y-80000000D03*
X133400000Y-95000000D03*
X118865710Y-78934310D03*
X120477133Y-78250567D03*
X130800000Y-73200000D03*
X128600000Y-73200000D03*
X69000000Y-92200000D03*
X79200000Y-98549990D03*
X79000000Y-85800000D03*
X71000000Y-85800000D03*
X70800000Y-98600000D03*
X80800000Y-94000000D03*
X80800000Y-90000000D03*
X99249994Y-97750000D03*
X73000000Y-83000000D03*
X69000000Y-99000012D03*
X69000000Y-103000000D03*
X73000000Y-100000000D03*
X82000000Y-91000000D03*
X82000000Y-88600000D03*
X121800000Y-82000000D03*
X106000000Y-84200000D03*
X109600000Y-82800000D03*
X87200000Y-91800018D03*
X84600000Y-94400000D03*
X93750000Y-95000000D03*
X89159093Y-80886285D03*
X92800000Y-75080000D03*
X90200000Y-75200000D03*
X93000000Y-94250000D03*
X88400000Y-81600000D03*
X87000000Y-83000000D03*
X90000000Y-92800000D03*
X87675020Y-80800000D03*
X90799996Y-92124980D03*
X103800000Y-81800000D03*
X101000000Y-81800000D03*
X93500000Y-77250000D03*
X90750000Y-77500000D03*
X93750000Y-76250000D03*
X90250000Y-76500000D03*
X83200000Y-76400004D03*
X115000000Y-89000000D03*
D29*
X107603236Y-102696766D02*
X107953235Y-103046765D01*
X106406470Y-101500000D02*
X107603236Y-102696766D01*
X104500000Y-101500000D02*
X106406470Y-101500000D01*
X96750000Y-101500000D02*
X96750000Y-102750000D01*
X92000000Y-101500000D02*
X95500000Y-101500000D01*
X102750000Y-93000000D02*
X101750000Y-93000000D01*
X101750000Y-92000000D02*
X102750000Y-92000000D01*
X128000000Y-115000000D02*
X131000000Y-115000000D01*
X122000000Y-115000000D02*
X125000000Y-115000000D01*
X116000000Y-115000000D02*
X119000000Y-115000000D01*
X107000000Y-115000000D02*
X113000000Y-115000000D01*
X96000000Y-115000000D02*
X102000000Y-115000000D01*
X86000000Y-115000000D02*
X92000000Y-115000000D01*
X78000000Y-115000000D02*
X82000000Y-115000000D01*
X71000000Y-115000000D02*
X75000000Y-115000000D01*
X65000000Y-115000000D02*
X68000000Y-115000000D01*
X59000000Y-115000000D02*
X62000000Y-115000000D01*
X53000000Y-115000000D02*
X56000000Y-115000000D01*
X52000000Y-109000000D02*
X52000000Y-112000000D01*
X52000000Y-103000000D02*
X52000000Y-106000000D01*
X52000000Y-97000000D02*
X52000000Y-100000000D01*
X52000000Y-91000000D02*
X52000000Y-94000000D01*
X52000000Y-83800000D02*
X52000000Y-87000000D01*
X53200000Y-83650000D02*
X52150000Y-83650000D01*
X52150000Y-83650000D02*
X52000000Y-83800000D01*
X56000000Y-83000000D02*
X55350000Y-83650000D01*
X55350000Y-83650000D02*
X53200000Y-83650000D01*
X58000000Y-78000000D02*
X58000000Y-81000000D01*
X58000000Y-72000000D02*
X58000000Y-75000000D01*
X52000000Y-69000000D02*
X53000000Y-70000000D01*
X53000000Y-70000000D02*
X54000000Y-70000000D01*
X52000000Y-68000000D02*
X52000000Y-69000000D01*
X52000000Y-63000000D02*
X52000000Y-65000000D01*
X53000000Y-62000000D02*
X52000000Y-63000000D01*
X56000000Y-62000000D02*
X53000000Y-62000000D01*
X63000000Y-62000000D02*
X59000000Y-62000000D01*
X68000000Y-62000000D02*
X67000000Y-62000000D01*
X69000000Y-63000000D02*
X68000000Y-62000000D01*
X69000000Y-64000000D02*
X69000000Y-63000000D01*
X71000000Y-68000000D02*
X70000000Y-67000000D01*
X72000000Y-68000000D02*
X71000000Y-68000000D01*
X78000000Y-68000000D02*
X75000000Y-68000000D01*
X84000000Y-68000000D02*
X81000000Y-68000000D01*
X90000000Y-68000000D02*
X87000000Y-68000000D01*
X96000000Y-68000000D02*
X93000000Y-68000000D01*
X102000000Y-68000000D02*
X99000000Y-68000000D01*
X108000000Y-68000000D02*
X105000000Y-68000000D01*
X114000000Y-68000000D02*
X111000000Y-68000000D01*
X120000000Y-68000000D02*
X117000000Y-68000000D01*
X126000000Y-68000000D02*
X123000000Y-68000000D01*
X132000000Y-68000000D02*
X129000000Y-68000000D01*
X134000000Y-63000000D02*
X134000000Y-65000000D01*
X135000000Y-62000000D02*
X134000000Y-63000000D01*
X140000000Y-62000000D02*
X138000000Y-62000000D01*
X141000000Y-63000000D02*
X140000000Y-62000000D01*
X141000000Y-69000000D02*
X141000000Y-66000000D01*
X141000000Y-111000000D02*
X141000000Y-114000000D01*
X141000000Y-105000000D02*
X141000000Y-108000000D01*
X108000000Y-104000000D02*
X107000000Y-104000000D01*
X71000000Y-101000000D02*
X72000000Y-101000000D01*
X72000000Y-102000000D02*
X71000000Y-102000000D01*
X78000000Y-103000000D02*
X74000000Y-103000000D01*
X74000000Y-103000000D02*
X73000000Y-102000000D01*
X79500000Y-101500000D02*
X78000000Y-103000000D01*
X141000000Y-96000026D02*
X141000000Y-99000000D01*
D30*
X140505026Y-96000026D02*
X141000000Y-96000026D01*
X138399974Y-96000026D02*
X140505026Y-96000026D01*
X137080000Y-97320000D02*
X138399974Y-96000026D01*
D29*
X141000000Y-90000000D02*
X141000000Y-93000000D01*
X141000000Y-87000000D02*
X141000000Y-90000000D01*
X141000000Y-84000000D02*
X141000000Y-87000000D01*
X141000000Y-81000000D02*
X141000000Y-84000000D01*
X141000000Y-75000000D02*
X141000000Y-78000000D01*
X141000000Y-69000000D02*
X141000000Y-72000000D01*
X92150001Y-80400001D02*
X92500000Y-80750000D01*
X91874998Y-80124998D02*
X92150001Y-80400001D01*
X87375002Y-80124998D02*
X91874998Y-80124998D01*
X84500000Y-83000000D02*
X87375002Y-80124998D01*
X93500000Y-80750000D02*
X92500000Y-80750000D01*
X93500000Y-79750000D02*
X92500000Y-79750000D01*
X94500000Y-80750000D02*
X94500000Y-79750000D01*
X119750000Y-84500000D02*
X119750000Y-85500000D01*
X118750000Y-83500000D02*
X119750000Y-83500000D01*
X118750000Y-85500000D02*
X118750000Y-84500000D01*
X118000000Y-95250000D02*
X119000000Y-95250000D01*
X119000000Y-94250000D02*
X118000000Y-94250000D01*
X118000000Y-93250000D02*
X119000000Y-93250000D01*
X77250000Y-79250000D02*
X77250000Y-78250000D01*
X76250000Y-78250000D02*
X76250000Y-79250000D01*
X76400000Y-71160000D02*
X76400000Y-77100000D01*
X76400000Y-77100000D02*
X76250000Y-77250000D01*
X81250000Y-97000000D02*
X81250000Y-96000000D01*
X82250000Y-96000000D02*
X82250000Y-97000000D01*
X80800000Y-94000000D02*
X81250000Y-94000000D01*
X81250000Y-94000000D02*
X82250000Y-95000000D01*
X94750000Y-96000026D02*
X94749974Y-96000000D01*
X99500000Y-92000000D02*
X96500000Y-95000000D01*
X96500000Y-95000000D02*
X95750000Y-95000000D01*
X68500000Y-86750000D02*
X68500000Y-85750000D01*
X67500000Y-87750000D02*
X68500000Y-87750000D01*
X67500000Y-85750000D02*
X67500000Y-86750000D01*
X60000000Y-91500000D02*
X59000000Y-91500000D01*
X61000000Y-92500000D02*
X61000000Y-91500000D01*
X59000000Y-92500000D02*
X60000000Y-92500000D01*
X65250000Y-79750000D02*
X64250000Y-79750000D01*
X66250000Y-78750000D02*
X66250000Y-79750000D01*
X64250000Y-78750000D02*
X65250000Y-78750000D01*
X109250000Y-96500000D02*
X110250000Y-96500000D01*
X108250000Y-95500000D02*
X108250000Y-96500000D01*
X110250000Y-95500000D02*
X109250000Y-95500000D01*
X137080000Y-93080000D02*
X137000000Y-93000000D01*
X137080000Y-94000000D02*
X137080000Y-93080000D01*
X137080000Y-97320000D02*
X137080000Y-94000000D01*
D30*
X125200000Y-71200000D02*
X125200000Y-71694974D01*
X125200000Y-71694974D02*
X126705026Y-73200000D01*
X126705026Y-73200000D02*
X128105026Y-73200000D01*
X128105026Y-73200000D02*
X128600000Y-73200000D01*
X137080000Y-97320000D02*
X134760000Y-95000000D01*
X134760000Y-95000000D02*
X133400000Y-95000000D01*
X128600000Y-73200000D02*
X130800000Y-73200000D01*
D31*
X99744968Y-97750000D02*
X99249994Y-97750000D01*
X111360001Y-104200001D02*
X110450001Y-104200001D01*
X104000000Y-97750000D02*
X99744968Y-97750000D01*
X112160000Y-105000000D02*
X111360001Y-104200001D01*
X98000000Y-99000000D02*
X98000000Y-98999994D01*
X98899995Y-98099999D02*
X99249994Y-97750000D01*
X110450001Y-104200001D02*
X104000000Y-97750000D01*
X98000000Y-98999994D02*
X98899995Y-98099999D01*
X73000000Y-83000000D02*
X78000000Y-83000000D01*
X69000000Y-99000000D02*
X68200000Y-98200000D01*
X68200000Y-98200000D02*
X68200000Y-93200000D01*
X68200000Y-93200000D02*
X65000000Y-90000000D01*
X65000000Y-90000000D02*
X65000000Y-87000000D01*
X70000000Y-108625000D02*
X69000000Y-107625000D01*
X69000000Y-107625000D02*
X69000000Y-103000000D01*
X83500000Y-99500000D02*
X73500000Y-99500000D01*
X73500000Y-99500000D02*
X73000000Y-100000000D01*
X82000000Y-83000000D02*
X82000000Y-81500000D01*
X82000000Y-81500000D02*
X85000000Y-78500000D01*
X85000000Y-78500000D02*
X95100000Y-78500000D01*
X95100000Y-78500000D02*
X102000000Y-85400000D01*
X102000000Y-85400000D02*
X107400000Y-85400000D01*
X107400000Y-85400000D02*
X108700001Y-86700001D01*
X108700001Y-86700001D02*
X109500000Y-87500000D01*
X78000000Y-83000000D02*
X82000000Y-83000000D01*
X80500000Y-73500000D02*
X79500000Y-74500000D01*
X79500000Y-74500000D02*
X79500000Y-76000000D01*
X83000000Y-73500000D02*
X80500000Y-73500000D01*
X84020000Y-72480000D02*
X83000000Y-73500000D01*
X87160000Y-100840000D02*
X84840000Y-100840000D01*
X84840000Y-100840000D02*
X83500000Y-99500000D01*
X84020000Y-72480000D02*
X85140000Y-73600000D01*
X85140000Y-73600000D02*
X102800000Y-73600000D01*
X102800000Y-73600000D02*
X103400000Y-73000000D01*
X104340000Y-71000000D02*
X104340000Y-72060000D01*
X104340000Y-72060000D02*
X103400000Y-73000000D01*
X103400000Y-73000000D02*
X103400000Y-73200000D01*
X103400000Y-73200000D02*
X105200000Y-75000000D01*
X105200000Y-75000000D02*
X115500000Y-75000000D01*
X115500000Y-75000000D02*
X117040000Y-73460000D01*
X117040000Y-73460000D02*
X117040000Y-71000000D01*
X82000000Y-89600000D02*
X82000000Y-91000000D01*
X82000000Y-88600000D02*
X82000000Y-91000000D01*
X82000000Y-83000000D02*
X82000000Y-88600000D01*
X84020000Y-72480000D02*
X84020000Y-71160000D01*
X98000000Y-99000000D02*
X99660000Y-100660000D01*
X99660000Y-100660000D02*
X99660000Y-105000000D01*
X98000000Y-99000000D02*
X89000000Y-99000000D01*
X87160000Y-100840000D02*
X87160000Y-105000000D01*
X89000000Y-99000000D02*
X87160000Y-100840000D01*
X124160000Y-113000000D02*
X123360001Y-112200001D01*
X117000000Y-105000000D02*
X112160000Y-105000000D01*
X123360001Y-112200001D02*
X123360001Y-111360001D01*
X123360001Y-111360001D02*
X117000000Y-105000000D01*
D29*
X121840000Y-77000000D02*
X121840000Y-81960000D01*
X121840000Y-81960000D02*
X121800000Y-82000000D01*
X106000000Y-84200000D02*
X106000000Y-77340000D01*
X109600000Y-82800000D02*
X109600000Y-77440000D01*
X109600000Y-77440000D02*
X109500000Y-77340000D01*
X84600000Y-94400000D02*
X87199982Y-91800018D01*
X87199982Y-91800018D02*
X87200000Y-91800018D01*
X93750000Y-94505026D02*
X93750000Y-95000000D01*
X89159093Y-80886285D02*
X93750000Y-85477192D01*
X93750000Y-85477192D02*
X93750000Y-94505026D01*
X90200000Y-75200000D02*
X92680000Y-75200000D01*
X92680000Y-75200000D02*
X92800000Y-75080000D01*
X93000000Y-93755026D02*
X93000000Y-94250000D01*
X88400000Y-81600000D02*
X93000000Y-86200000D01*
X93000000Y-86200000D02*
X93000000Y-93755026D01*
X87349999Y-83349999D02*
X87000000Y-83000000D01*
X90000000Y-92800000D02*
X90000000Y-86000000D01*
X90000000Y-86000000D02*
X87349999Y-83349999D01*
X90799996Y-84999996D02*
X87675020Y-81875020D01*
X90799996Y-92124980D02*
X90799996Y-84999996D01*
X87675020Y-81875020D02*
X87675020Y-81294974D01*
X87675020Y-81294974D02*
X87675020Y-80800000D01*
X101000000Y-81800000D02*
X103800000Y-81800000D01*
X90750000Y-77500000D02*
X91000000Y-77250000D01*
X91000000Y-77250000D02*
X93500000Y-77250000D01*
X90250000Y-76500000D02*
X90500000Y-76250000D01*
X90500000Y-76250000D02*
X93750000Y-76250000D01*
X83549999Y-76050005D02*
X83200000Y-76400004D01*
X84100004Y-75500000D02*
X83549999Y-76050005D01*
X86500000Y-75500000D02*
X84100004Y-75500000D01*
D31*
X115000000Y-89000000D02*
X115000000Y-95500000D01*
X65000000Y-99000000D02*
X65000000Y-96650000D01*
X55750000Y-90750000D02*
X55000000Y-90000000D01*
X65000000Y-96650000D02*
X63100000Y-94750000D01*
X55000000Y-90000000D02*
X53200000Y-90000000D01*
X63100000Y-94750000D02*
X57000000Y-94750000D01*
X57000000Y-94750000D02*
X55750000Y-93500000D01*
X55750000Y-93500000D02*
X55750000Y-90750000D01*
X53200000Y-88000000D02*
X59000000Y-88000000D01*
X59000000Y-88000000D02*
X60000000Y-87000000D01*
X61160000Y-76240000D02*
X59957919Y-76240000D01*
X59957919Y-76240000D02*
X59000000Y-77197919D01*
X59000000Y-77197919D02*
X59000000Y-82000000D01*
X55000000Y-86000000D02*
X53200000Y-86000000D01*
X59000000Y-82000000D02*
X55000000Y-86000000D01*
D32*
G36*
X68479365Y-61842712D02*
X68885749Y-62114249D01*
X69157288Y-62520635D01*
X69267000Y-63072196D01*
X69267000Y-65000000D01*
X69281084Y-65070805D01*
X69281084Y-65143001D01*
X69433325Y-65908368D01*
X69542773Y-66172600D01*
X69976318Y-66821446D01*
X69976319Y-66821448D01*
X70178553Y-67023682D01*
X70827400Y-67457226D01*
X71091632Y-67566675D01*
X71856998Y-67718916D01*
X71929195Y-67718916D01*
X72000000Y-67733000D01*
X131000000Y-67733000D01*
X131070805Y-67718916D01*
X131143001Y-67718916D01*
X131908368Y-67566675D01*
X132172600Y-67457227D01*
X132821446Y-67023682D01*
X132821448Y-67023681D01*
X133023682Y-66821447D01*
X133457226Y-66172600D01*
X133566675Y-65908368D01*
X133652503Y-65476880D01*
X135591582Y-65476880D01*
X135957406Y-66362241D01*
X136634196Y-67040213D01*
X137518918Y-67407582D01*
X138476880Y-67408418D01*
X139362241Y-67042594D01*
X140040213Y-66365804D01*
X140407582Y-65481082D01*
X140408418Y-64523120D01*
X140042594Y-63637759D01*
X139365804Y-62959787D01*
X138481082Y-62592418D01*
X137523120Y-62591582D01*
X136637759Y-62957406D01*
X135959787Y-63634196D01*
X135592418Y-64518918D01*
X135591582Y-65476880D01*
X133652503Y-65476880D01*
X133718916Y-65143002D01*
X133718916Y-65070805D01*
X133733000Y-65000000D01*
X133733000Y-63072196D01*
X133842712Y-62520635D01*
X134114249Y-62114251D01*
X134520635Y-61842712D01*
X135072196Y-61733000D01*
X139927804Y-61733000D01*
X140479365Y-61842712D01*
X140885749Y-62114249D01*
X141157288Y-62520635D01*
X141267000Y-63072196D01*
X141267000Y-113927804D01*
X141157288Y-114479365D01*
X140885749Y-114885751D01*
X140479365Y-115157288D01*
X139927804Y-115267000D01*
X53072196Y-115267000D01*
X52520635Y-115157288D01*
X52114249Y-114885749D01*
X51842712Y-114479365D01*
X51733000Y-113927804D01*
X51733000Y-112476880D01*
X52591582Y-112476880D01*
X52957406Y-113362241D01*
X53634196Y-114040213D01*
X54518918Y-114407582D01*
X55476880Y-114408418D01*
X56362241Y-114042594D01*
X56636813Y-113768500D01*
X61142000Y-113768500D01*
X61142000Y-114430885D01*
X61242175Y-114672727D01*
X61427273Y-114857826D01*
X61669116Y-114958000D01*
X61881500Y-114958000D01*
X62046000Y-114793500D01*
X62046000Y-113604000D01*
X62254000Y-113604000D01*
X62254000Y-114793500D01*
X62418500Y-114958000D01*
X62630884Y-114958000D01*
X62872727Y-114857826D01*
X63057825Y-114672727D01*
X63158000Y-114430885D01*
X63158000Y-114288319D01*
X63858760Y-114288319D01*
X63892845Y-114512613D01*
X64326572Y-114667880D01*
X64786702Y-114645349D01*
X65107155Y-114512613D01*
X65141240Y-114288319D01*
X64500000Y-113647078D01*
X63858760Y-114288319D01*
X63158000Y-114288319D01*
X63158000Y-113768500D01*
X62993500Y-113604000D01*
X62254000Y-113604000D01*
X62046000Y-113604000D01*
X61306500Y-113604000D01*
X61142000Y-113768500D01*
X56636813Y-113768500D01*
X57040213Y-113365804D01*
X57371027Y-112569115D01*
X61142000Y-112569115D01*
X61142000Y-113231500D01*
X61306500Y-113396000D01*
X62046000Y-113396000D01*
X62046000Y-112206500D01*
X62254000Y-112206500D01*
X62254000Y-113396000D01*
X62993500Y-113396000D01*
X63062928Y-113326572D01*
X63332120Y-113326572D01*
X63354651Y-113786702D01*
X63487387Y-114107155D01*
X63711681Y-114141240D01*
X64352922Y-113500000D01*
X64647078Y-113500000D01*
X65288319Y-114141240D01*
X65498782Y-114109257D01*
X65517723Y-114155098D01*
X65843189Y-114481133D01*
X66268649Y-114657799D01*
X66729330Y-114658201D01*
X67155098Y-114482277D01*
X67481133Y-114156811D01*
X67499828Y-114111789D01*
X67517723Y-114155098D01*
X67843189Y-114481133D01*
X68268649Y-114657799D01*
X68729330Y-114658201D01*
X69155098Y-114482277D01*
X69481133Y-114156811D01*
X69642373Y-113768500D01*
X69842000Y-113768500D01*
X69842000Y-114430885D01*
X69942175Y-114672727D01*
X70127273Y-114857826D01*
X70369116Y-114958000D01*
X70581500Y-114958000D01*
X70746000Y-114793500D01*
X70746000Y-113604000D01*
X70006500Y-113604000D01*
X69842000Y-113768500D01*
X69642373Y-113768500D01*
X69657799Y-113731351D01*
X69658201Y-113270670D01*
X69482277Y-112844902D01*
X69206972Y-112569115D01*
X69842000Y-112569115D01*
X69842000Y-113231500D01*
X70006500Y-113396000D01*
X70746000Y-113396000D01*
X70746000Y-112206500D01*
X70954000Y-112206500D01*
X70954000Y-113396000D01*
X70974000Y-113396000D01*
X70974000Y-113604000D01*
X70954000Y-113604000D01*
X70954000Y-114793500D01*
X71118500Y-114958000D01*
X71330884Y-114958000D01*
X71572727Y-114857826D01*
X71757825Y-114672727D01*
X71767212Y-114650063D01*
X72497016Y-114650063D01*
X72592379Y-114926168D01*
X73207239Y-115164939D01*
X73866668Y-115150238D01*
X74407621Y-114926168D01*
X74502984Y-114650063D01*
X78997016Y-114650063D01*
X79092379Y-114926168D01*
X79707239Y-115164939D01*
X80366668Y-115150238D01*
X80907621Y-114926168D01*
X81002984Y-114650063D01*
X82497016Y-114650063D01*
X82592379Y-114926168D01*
X83207239Y-115164939D01*
X83866668Y-115150238D01*
X84407621Y-114926168D01*
X84502984Y-114650063D01*
X88997016Y-114650063D01*
X89092379Y-114926168D01*
X89707239Y-115164939D01*
X90366668Y-115150238D01*
X90907621Y-114926168D01*
X91002984Y-114650063D01*
X92497016Y-114650063D01*
X92592379Y-114926168D01*
X93207239Y-115164939D01*
X93866668Y-115150238D01*
X94407621Y-114926168D01*
X94502984Y-114650063D01*
X98997016Y-114650063D01*
X99092379Y-114926168D01*
X99707239Y-115164939D01*
X100366668Y-115150238D01*
X100907621Y-114926168D01*
X101002984Y-114650063D01*
X102497016Y-114650063D01*
X102592379Y-114926168D01*
X103207239Y-115164939D01*
X103866668Y-115150238D01*
X104407621Y-114926168D01*
X104502984Y-114650063D01*
X108997016Y-114650063D01*
X109092379Y-114926168D01*
X109707239Y-115164939D01*
X110366668Y-115150238D01*
X110907621Y-114926168D01*
X111002984Y-114650063D01*
X110000000Y-113647078D01*
X108997016Y-114650063D01*
X104502984Y-114650063D01*
X103500000Y-113647078D01*
X102497016Y-114650063D01*
X101002984Y-114650063D01*
X100000000Y-113647078D01*
X98997016Y-114650063D01*
X94502984Y-114650063D01*
X93500000Y-113647078D01*
X92497016Y-114650063D01*
X91002984Y-114650063D01*
X90000000Y-113647078D01*
X88997016Y-114650063D01*
X84502984Y-114650063D01*
X83500000Y-113647078D01*
X82497016Y-114650063D01*
X81002984Y-114650063D01*
X80000000Y-113647078D01*
X78997016Y-114650063D01*
X74502984Y-114650063D01*
X73500000Y-113647078D01*
X72497016Y-114650063D01*
X71767212Y-114650063D01*
X71858000Y-114430885D01*
X71858000Y-113886556D01*
X72073832Y-114407621D01*
X72349937Y-114502984D01*
X73352922Y-113500000D01*
X73647078Y-113500000D01*
X74650063Y-114502984D01*
X74926168Y-114407621D01*
X75164939Y-113792761D01*
X75151886Y-113207239D01*
X78335061Y-113207239D01*
X78349762Y-113866668D01*
X78573832Y-114407621D01*
X78849937Y-114502984D01*
X79852922Y-113500000D01*
X80147078Y-113500000D01*
X81150063Y-114502984D01*
X81426168Y-114407621D01*
X81664939Y-113792761D01*
X81651886Y-113207239D01*
X81835061Y-113207239D01*
X81849762Y-113866668D01*
X82073832Y-114407621D01*
X82349937Y-114502984D01*
X83352922Y-113500000D01*
X83647078Y-113500000D01*
X84650063Y-114502984D01*
X84926168Y-114407621D01*
X85164939Y-113792761D01*
X85151886Y-113207239D01*
X88335061Y-113207239D01*
X88349762Y-113866668D01*
X88573832Y-114407621D01*
X88849937Y-114502984D01*
X89852922Y-113500000D01*
X90147078Y-113500000D01*
X91150063Y-114502984D01*
X91426168Y-114407621D01*
X91664939Y-113792761D01*
X91651886Y-113207239D01*
X91835061Y-113207239D01*
X91849762Y-113866668D01*
X92073832Y-114407621D01*
X92349937Y-114502984D01*
X93352922Y-113500000D01*
X93647078Y-113500000D01*
X94650063Y-114502984D01*
X94926168Y-114407621D01*
X95164939Y-113792761D01*
X95151886Y-113207239D01*
X98335061Y-113207239D01*
X98349762Y-113866668D01*
X98573832Y-114407621D01*
X98849937Y-114502984D01*
X99852922Y-113500000D01*
X100147078Y-113500000D01*
X101150063Y-114502984D01*
X101426168Y-114407621D01*
X101664939Y-113792761D01*
X101651886Y-113207239D01*
X101835061Y-113207239D01*
X101849762Y-113866668D01*
X102073832Y-114407621D01*
X102349937Y-114502984D01*
X103352922Y-113500000D01*
X103647078Y-113500000D01*
X104650063Y-114502984D01*
X104926168Y-114407621D01*
X105164939Y-113792761D01*
X105151886Y-113207239D01*
X108335061Y-113207239D01*
X108349762Y-113866668D01*
X108573832Y-114407621D01*
X108849937Y-114502984D01*
X109852922Y-113500000D01*
X110147078Y-113500000D01*
X111150063Y-114502984D01*
X111426168Y-114407621D01*
X111664939Y-113792761D01*
X111650238Y-113133332D01*
X111595011Y-113000000D01*
X112513436Y-113000000D01*
X112624420Y-113557952D01*
X112940474Y-114030962D01*
X113413484Y-114347016D01*
X113971436Y-114458000D01*
X114028564Y-114458000D01*
X114586516Y-114347016D01*
X115059526Y-114030962D01*
X115375580Y-113557952D01*
X115486564Y-113000000D01*
X115375580Y-112442048D01*
X115059526Y-111969038D01*
X114586516Y-111652984D01*
X114028564Y-111542000D01*
X113971436Y-111542000D01*
X113413484Y-111652984D01*
X112940474Y-111969038D01*
X112624420Y-112442048D01*
X112513436Y-113000000D01*
X111595011Y-113000000D01*
X111426168Y-112592379D01*
X111150063Y-112497016D01*
X110147078Y-113500000D01*
X109852922Y-113500000D01*
X108849937Y-112497016D01*
X108573832Y-112592379D01*
X108335061Y-113207239D01*
X105151886Y-113207239D01*
X105150238Y-113133332D01*
X104926168Y-112592379D01*
X104650063Y-112497016D01*
X103647078Y-113500000D01*
X103352922Y-113500000D01*
X102349937Y-112497016D01*
X102073832Y-112592379D01*
X101835061Y-113207239D01*
X101651886Y-113207239D01*
X101650238Y-113133332D01*
X101426168Y-112592379D01*
X101150063Y-112497016D01*
X100147078Y-113500000D01*
X99852922Y-113500000D01*
X98849937Y-112497016D01*
X98573832Y-112592379D01*
X98335061Y-113207239D01*
X95151886Y-113207239D01*
X95150238Y-113133332D01*
X94926168Y-112592379D01*
X94650063Y-112497016D01*
X93647078Y-113500000D01*
X93352922Y-113500000D01*
X92349937Y-112497016D01*
X92073832Y-112592379D01*
X91835061Y-113207239D01*
X91651886Y-113207239D01*
X91650238Y-113133332D01*
X91426168Y-112592379D01*
X91150063Y-112497016D01*
X90147078Y-113500000D01*
X89852922Y-113500000D01*
X88849937Y-112497016D01*
X88573832Y-112592379D01*
X88335061Y-113207239D01*
X85151886Y-113207239D01*
X85150238Y-113133332D01*
X84926168Y-112592379D01*
X84650063Y-112497016D01*
X83647078Y-113500000D01*
X83352922Y-113500000D01*
X82349937Y-112497016D01*
X82073832Y-112592379D01*
X81835061Y-113207239D01*
X81651886Y-113207239D01*
X81650238Y-113133332D01*
X81426168Y-112592379D01*
X81150063Y-112497016D01*
X80147078Y-113500000D01*
X79852922Y-113500000D01*
X78849937Y-112497016D01*
X78573832Y-112592379D01*
X78335061Y-113207239D01*
X75151886Y-113207239D01*
X75150238Y-113133332D01*
X74926168Y-112592379D01*
X74650063Y-112497016D01*
X73647078Y-113500000D01*
X73352922Y-113500000D01*
X72349937Y-112497016D01*
X72073832Y-112592379D01*
X71858000Y-113148169D01*
X71858000Y-112569115D01*
X71767213Y-112349937D01*
X72497016Y-112349937D01*
X73500000Y-113352922D01*
X74502984Y-112349937D01*
X78997016Y-112349937D01*
X80000000Y-113352922D01*
X81002984Y-112349937D01*
X82497016Y-112349937D01*
X83500000Y-113352922D01*
X84502984Y-112349937D01*
X88997016Y-112349937D01*
X90000000Y-113352922D01*
X91002984Y-112349937D01*
X92497016Y-112349937D01*
X93500000Y-113352922D01*
X94502984Y-112349937D01*
X98997016Y-112349937D01*
X100000000Y-113352922D01*
X101002984Y-112349937D01*
X102497016Y-112349937D01*
X103500000Y-113352922D01*
X104502984Y-112349937D01*
X108997016Y-112349937D01*
X110000000Y-113352922D01*
X111002984Y-112349937D01*
X110907621Y-112073832D01*
X110292761Y-111835061D01*
X109633332Y-111849762D01*
X109092379Y-112073832D01*
X108997016Y-112349937D01*
X104502984Y-112349937D01*
X104407621Y-112073832D01*
X103792761Y-111835061D01*
X103133332Y-111849762D01*
X102592379Y-112073832D01*
X102497016Y-112349937D01*
X101002984Y-112349937D01*
X100907621Y-112073832D01*
X100292761Y-111835061D01*
X99633332Y-111849762D01*
X99092379Y-112073832D01*
X98997016Y-112349937D01*
X94502984Y-112349937D01*
X94407621Y-112073832D01*
X93792761Y-111835061D01*
X93133332Y-111849762D01*
X92592379Y-112073832D01*
X92497016Y-112349937D01*
X91002984Y-112349937D01*
X90907621Y-112073832D01*
X90292761Y-111835061D01*
X89633332Y-111849762D01*
X89092379Y-112073832D01*
X88997016Y-112349937D01*
X84502984Y-112349937D01*
X84407621Y-112073832D01*
X83792761Y-111835061D01*
X83133332Y-111849762D01*
X82592379Y-112073832D01*
X82497016Y-112349937D01*
X81002984Y-112349937D01*
X80907621Y-112073832D01*
X80292761Y-111835061D01*
X79633332Y-111849762D01*
X79092379Y-112073832D01*
X78997016Y-112349937D01*
X74502984Y-112349937D01*
X74407621Y-112073832D01*
X73792761Y-111835061D01*
X73133332Y-111849762D01*
X72592379Y-112073832D01*
X72497016Y-112349937D01*
X71767213Y-112349937D01*
X71757825Y-112327273D01*
X71572727Y-112142174D01*
X71330884Y-112042000D01*
X71118500Y-112042000D01*
X70954000Y-112206500D01*
X70746000Y-112206500D01*
X70581500Y-112042000D01*
X70369116Y-112042000D01*
X70127273Y-112142174D01*
X69942175Y-112327273D01*
X69842000Y-112569115D01*
X69206972Y-112569115D01*
X69156811Y-112518867D01*
X68731351Y-112342201D01*
X68270670Y-112341799D01*
X67844902Y-112517723D01*
X67518867Y-112843189D01*
X67500172Y-112888211D01*
X67482277Y-112844902D01*
X67156811Y-112518867D01*
X66731351Y-112342201D01*
X66270670Y-112341799D01*
X65844902Y-112517723D01*
X65518867Y-112843189D01*
X65499101Y-112890792D01*
X65288319Y-112858760D01*
X64647078Y-113500000D01*
X64352922Y-113500000D01*
X63711681Y-112858760D01*
X63487387Y-112892845D01*
X63332120Y-113326572D01*
X63062928Y-113326572D01*
X63158000Y-113231500D01*
X63158000Y-112711681D01*
X63858760Y-112711681D01*
X64500000Y-113352922D01*
X65141240Y-112711681D01*
X65107155Y-112487387D01*
X64673428Y-112332120D01*
X64213298Y-112354651D01*
X63892845Y-112487387D01*
X63858760Y-112711681D01*
X63158000Y-112711681D01*
X63158000Y-112569115D01*
X63057825Y-112327273D01*
X62872727Y-112142174D01*
X62630884Y-112042000D01*
X62418500Y-112042000D01*
X62254000Y-112206500D01*
X62046000Y-112206500D01*
X61881500Y-112042000D01*
X61669116Y-112042000D01*
X61427273Y-112142174D01*
X61242175Y-112327273D01*
X61142000Y-112569115D01*
X57371027Y-112569115D01*
X57407582Y-112481082D01*
X57408418Y-111523120D01*
X57042594Y-110637759D01*
X56365804Y-109959787D01*
X55481082Y-109592418D01*
X54523120Y-109591582D01*
X53637759Y-109957406D01*
X52959787Y-110634196D01*
X52592418Y-111518918D01*
X52591582Y-112476880D01*
X51733000Y-112476880D01*
X51733000Y-108625000D01*
X58353436Y-108625000D01*
X58464420Y-109182952D01*
X58780474Y-109655962D01*
X59253484Y-109972016D01*
X59811436Y-110083000D01*
X59868564Y-110083000D01*
X60426516Y-109972016D01*
X60899526Y-109655962D01*
X61215580Y-109182952D01*
X61326564Y-108625000D01*
X61215580Y-108067048D01*
X60899526Y-107594038D01*
X60426516Y-107277984D01*
X59868564Y-107167000D01*
X59811436Y-107167000D01*
X59253484Y-107277984D01*
X58780474Y-107594038D01*
X58464420Y-108067048D01*
X58353436Y-108625000D01*
X51733000Y-108625000D01*
X51733000Y-103968500D01*
X59592000Y-103968500D01*
X59592000Y-105580885D01*
X59692175Y-105822727D01*
X59877273Y-106007826D01*
X60119116Y-106108000D01*
X61731500Y-106108000D01*
X61896000Y-105943500D01*
X61896000Y-103804000D01*
X62104000Y-103804000D01*
X62104000Y-105943500D01*
X62268500Y-106108000D01*
X63880884Y-106108000D01*
X64122727Y-106007826D01*
X64307825Y-105822727D01*
X64408000Y-105580885D01*
X64408000Y-103968500D01*
X64243500Y-103804000D01*
X62104000Y-103804000D01*
X61896000Y-103804000D01*
X59756500Y-103804000D01*
X59592000Y-103968500D01*
X51733000Y-103968500D01*
X51733000Y-99268500D01*
X56592000Y-99268500D01*
X56592000Y-100880885D01*
X56692175Y-101122727D01*
X56877273Y-101307826D01*
X57119116Y-101408000D01*
X58731500Y-101408000D01*
X58896000Y-101243500D01*
X58896000Y-99104000D01*
X59104000Y-99104000D01*
X59104000Y-101243500D01*
X59268500Y-101408000D01*
X59861447Y-101408000D01*
X59692175Y-101577273D01*
X59592000Y-101819115D01*
X59592000Y-103431500D01*
X59756500Y-103596000D01*
X61896000Y-103596000D01*
X61896000Y-101456500D01*
X61731500Y-101292000D01*
X61138553Y-101292000D01*
X61307825Y-101122727D01*
X61408000Y-100880885D01*
X61408000Y-99268500D01*
X61243500Y-99104000D01*
X59104000Y-99104000D01*
X58896000Y-99104000D01*
X56756500Y-99104000D01*
X56592000Y-99268500D01*
X51733000Y-99268500D01*
X51733000Y-97119115D01*
X56592000Y-97119115D01*
X56592000Y-98731500D01*
X56756500Y-98896000D01*
X58896000Y-98896000D01*
X58896000Y-96756500D01*
X59104000Y-96756500D01*
X59104000Y-98896000D01*
X61243500Y-98896000D01*
X61408000Y-98731500D01*
X61408000Y-97119115D01*
X61307825Y-96877273D01*
X61122727Y-96692174D01*
X60880884Y-96592000D01*
X59268500Y-96592000D01*
X59104000Y-96756500D01*
X58896000Y-96756500D01*
X58731500Y-96592000D01*
X57119116Y-96592000D01*
X56877273Y-96692174D01*
X56692175Y-96877273D01*
X56592000Y-97119115D01*
X51733000Y-97119115D01*
X51733000Y-92618500D01*
X51742000Y-92618500D01*
X51742000Y-92830884D01*
X51842174Y-93072727D01*
X52027273Y-93257825D01*
X52269115Y-93358000D01*
X52931500Y-93358000D01*
X53096000Y-93193500D01*
X53096000Y-92454000D01*
X53304000Y-92454000D01*
X53304000Y-93193500D01*
X53468500Y-93358000D01*
X54130885Y-93358000D01*
X54372727Y-93257825D01*
X54557826Y-93072727D01*
X54658000Y-92830884D01*
X54658000Y-92618500D01*
X54493500Y-92454000D01*
X53304000Y-92454000D01*
X53096000Y-92454000D01*
X51906500Y-92454000D01*
X51742000Y-92618500D01*
X51733000Y-92618500D01*
X51733000Y-91869116D01*
X51742000Y-91869116D01*
X51742000Y-92081500D01*
X51906500Y-92246000D01*
X53096000Y-92246000D01*
X53096000Y-91506500D01*
X53304000Y-91506500D01*
X53304000Y-92246000D01*
X54493500Y-92246000D01*
X54658000Y-92081500D01*
X54658000Y-91869116D01*
X54557826Y-91627273D01*
X54372727Y-91442175D01*
X54130885Y-91342000D01*
X53468500Y-91342000D01*
X53304000Y-91506500D01*
X53096000Y-91506500D01*
X52931500Y-91342000D01*
X52269115Y-91342000D01*
X52027273Y-91442175D01*
X51842174Y-91627273D01*
X51742000Y-91869116D01*
X51733000Y-91869116D01*
X51733000Y-86229330D01*
X52041799Y-86229330D01*
X52217723Y-86655098D01*
X52543189Y-86981133D01*
X52588211Y-86999828D01*
X52544902Y-87017723D01*
X52218867Y-87343189D01*
X52042201Y-87768649D01*
X52041799Y-88229330D01*
X52217723Y-88655098D01*
X52543189Y-88981133D01*
X52588211Y-88999828D01*
X52544902Y-89017723D01*
X52218867Y-89343189D01*
X52042201Y-89768649D01*
X52041799Y-90229330D01*
X52217723Y-90655098D01*
X52543189Y-90981133D01*
X52968649Y-91157799D01*
X53429330Y-91158201D01*
X53855098Y-90982277D01*
X53879417Y-90958000D01*
X54603184Y-90958000D01*
X54792000Y-91146816D01*
X54792000Y-93500000D01*
X54864923Y-93866611D01*
X55072592Y-94177408D01*
X56322592Y-95427408D01*
X56633389Y-95635077D01*
X57000000Y-95708000D01*
X62703184Y-95708000D01*
X63574294Y-96579110D01*
X63250000Y-96579110D01*
X63006160Y-96624992D01*
X62782208Y-96769101D01*
X62631967Y-96988986D01*
X62579110Y-97250000D01*
X62579110Y-100750000D01*
X62624992Y-100993840D01*
X62769101Y-101217792D01*
X62877708Y-101292000D01*
X62268500Y-101292000D01*
X62104000Y-101456500D01*
X62104000Y-103596000D01*
X64243500Y-103596000D01*
X64408000Y-103431500D01*
X64408000Y-103199624D01*
X67991825Y-103199624D01*
X68042000Y-103321056D01*
X68042000Y-107625000D01*
X68114923Y-107991611D01*
X68322592Y-108302408D01*
X68542090Y-108521906D01*
X68541747Y-108913742D01*
X68763247Y-109449812D01*
X69173031Y-109860312D01*
X69708714Y-110082746D01*
X70288742Y-110083253D01*
X70824812Y-109861753D01*
X71235312Y-109451969D01*
X71286642Y-109328350D01*
X71841713Y-109328350D01*
X72093597Y-109937955D01*
X72559592Y-110404764D01*
X73168757Y-110657711D01*
X73828350Y-110658287D01*
X74437955Y-110406403D01*
X74904764Y-109940408D01*
X75157711Y-109331243D01*
X75157713Y-109328350D01*
X78341713Y-109328350D01*
X78593597Y-109937955D01*
X79059592Y-110404764D01*
X79668757Y-110657711D01*
X80328350Y-110658287D01*
X80937955Y-110406403D01*
X81404764Y-109940408D01*
X81657711Y-109331243D01*
X81657713Y-109328350D01*
X81841713Y-109328350D01*
X82093597Y-109937955D01*
X82559592Y-110404764D01*
X83168757Y-110657711D01*
X83828350Y-110658287D01*
X84437955Y-110406403D01*
X84904764Y-109940408D01*
X85157711Y-109331243D01*
X85157713Y-109328350D01*
X88341713Y-109328350D01*
X88593597Y-109937955D01*
X89059592Y-110404764D01*
X89668757Y-110657711D01*
X90328350Y-110658287D01*
X90937955Y-110406403D01*
X91404764Y-109940408D01*
X91657711Y-109331243D01*
X91657713Y-109328350D01*
X91841713Y-109328350D01*
X92093597Y-109937955D01*
X92559592Y-110404764D01*
X93168757Y-110657711D01*
X93828350Y-110658287D01*
X94437955Y-110406403D01*
X94904764Y-109940408D01*
X95157711Y-109331243D01*
X95157713Y-109328350D01*
X98341713Y-109328350D01*
X98593597Y-109937955D01*
X99059592Y-110404764D01*
X99668757Y-110657711D01*
X100328350Y-110658287D01*
X100937955Y-110406403D01*
X101404764Y-109940408D01*
X101657711Y-109331243D01*
X101657713Y-109328350D01*
X101841713Y-109328350D01*
X102093597Y-109937955D01*
X102559592Y-110404764D01*
X103168757Y-110657711D01*
X103828350Y-110658287D01*
X104437955Y-110406403D01*
X104904764Y-109940408D01*
X105157711Y-109331243D01*
X105157713Y-109328350D01*
X108341713Y-109328350D01*
X108593597Y-109937955D01*
X109059592Y-110404764D01*
X109668757Y-110657711D01*
X110328350Y-110658287D01*
X110937955Y-110406403D01*
X111404764Y-109940408D01*
X111657711Y-109331243D01*
X111657748Y-109288742D01*
X112541747Y-109288742D01*
X112763247Y-109824812D01*
X113173031Y-110235312D01*
X113708714Y-110457746D01*
X114288742Y-110458253D01*
X114824812Y-110236753D01*
X115056486Y-110005483D01*
X115641596Y-110005483D01*
X115712498Y-110260839D01*
X116254946Y-110466228D01*
X116834701Y-110448397D01*
X117287502Y-110260839D01*
X117358404Y-110005483D01*
X116500000Y-109147078D01*
X115641596Y-110005483D01*
X115056486Y-110005483D01*
X115235312Y-109826969D01*
X115250404Y-109790624D01*
X115494517Y-109858404D01*
X116352922Y-109000000D01*
X116647078Y-109000000D01*
X117505483Y-109858404D01*
X117760839Y-109787502D01*
X117966228Y-109245054D01*
X117948397Y-108665299D01*
X117760839Y-108212498D01*
X117505483Y-108141596D01*
X116647078Y-109000000D01*
X116352922Y-109000000D01*
X115494517Y-108141596D01*
X115250830Y-108209258D01*
X115236753Y-108175188D01*
X115056398Y-107994517D01*
X115641596Y-107994517D01*
X116500000Y-108852922D01*
X117358404Y-107994517D01*
X117287502Y-107739161D01*
X116745054Y-107533772D01*
X116165299Y-107551603D01*
X115712498Y-107739161D01*
X115641596Y-107994517D01*
X115056398Y-107994517D01*
X114826969Y-107764688D01*
X114291286Y-107542254D01*
X113711258Y-107541747D01*
X113175188Y-107763247D01*
X112764688Y-108173031D01*
X112542254Y-108708714D01*
X112541747Y-109288742D01*
X111657748Y-109288742D01*
X111658287Y-108671650D01*
X111406403Y-108062045D01*
X110940408Y-107595236D01*
X110331243Y-107342289D01*
X109671650Y-107341713D01*
X109062045Y-107593597D01*
X108595236Y-108059592D01*
X108342289Y-108668757D01*
X108341713Y-109328350D01*
X105157713Y-109328350D01*
X105158287Y-108671650D01*
X104906403Y-108062045D01*
X104440408Y-107595236D01*
X103831243Y-107342289D01*
X103171650Y-107341713D01*
X102562045Y-107593597D01*
X102095236Y-108059592D01*
X101842289Y-108668757D01*
X101841713Y-109328350D01*
X101657713Y-109328350D01*
X101658287Y-108671650D01*
X101406403Y-108062045D01*
X100940408Y-107595236D01*
X100331243Y-107342289D01*
X99671650Y-107341713D01*
X99062045Y-107593597D01*
X98595236Y-108059592D01*
X98342289Y-108668757D01*
X98341713Y-109328350D01*
X95157713Y-109328350D01*
X95158287Y-108671650D01*
X94906403Y-108062045D01*
X94440408Y-107595236D01*
X93831243Y-107342289D01*
X93171650Y-107341713D01*
X92562045Y-107593597D01*
X92095236Y-108059592D01*
X91842289Y-108668757D01*
X91841713Y-109328350D01*
X91657713Y-109328350D01*
X91658287Y-108671650D01*
X91406403Y-108062045D01*
X90940408Y-107595236D01*
X90331243Y-107342289D01*
X89671650Y-107341713D01*
X89062045Y-107593597D01*
X88595236Y-108059592D01*
X88342289Y-108668757D01*
X88341713Y-109328350D01*
X85157713Y-109328350D01*
X85158287Y-108671650D01*
X84906403Y-108062045D01*
X84440408Y-107595236D01*
X83831243Y-107342289D01*
X83171650Y-107341713D01*
X82562045Y-107593597D01*
X82095236Y-108059592D01*
X81842289Y-108668757D01*
X81841713Y-109328350D01*
X81657713Y-109328350D01*
X81658287Y-108671650D01*
X81406403Y-108062045D01*
X80940408Y-107595236D01*
X80331243Y-107342289D01*
X79671650Y-107341713D01*
X79062045Y-107593597D01*
X78595236Y-108059592D01*
X78342289Y-108668757D01*
X78341713Y-109328350D01*
X75157713Y-109328350D01*
X75158287Y-108671650D01*
X74906403Y-108062045D01*
X74440408Y-107595236D01*
X73831243Y-107342289D01*
X73171650Y-107341713D01*
X72562045Y-107593597D01*
X72095236Y-108059592D01*
X71842289Y-108668757D01*
X71841713Y-109328350D01*
X71286642Y-109328350D01*
X71457746Y-108916286D01*
X71458253Y-108336258D01*
X71236753Y-107800188D01*
X70826969Y-107389688D01*
X70291286Y-107167254D01*
X69958000Y-107166963D01*
X69958000Y-105288742D01*
X70041747Y-105288742D01*
X70263247Y-105824812D01*
X70673031Y-106235312D01*
X71208714Y-106457746D01*
X71788742Y-106458253D01*
X72324812Y-106236753D01*
X72556486Y-106005483D01*
X73141596Y-106005483D01*
X73212498Y-106260839D01*
X73754946Y-106466228D01*
X74334701Y-106448397D01*
X74787502Y-106260839D01*
X74858404Y-106005483D01*
X74000000Y-105147078D01*
X73141596Y-106005483D01*
X72556486Y-106005483D01*
X72735312Y-105826969D01*
X72750404Y-105790624D01*
X72994517Y-105858404D01*
X73852922Y-105000000D01*
X74147078Y-105000000D01*
X75005483Y-105858404D01*
X75260839Y-105787502D01*
X75466228Y-105245054D01*
X75458692Y-105000000D01*
X75513436Y-105000000D01*
X75624420Y-105557952D01*
X75940474Y-106030962D01*
X76413484Y-106347016D01*
X76971436Y-106458000D01*
X77028564Y-106458000D01*
X77586516Y-106347016D01*
X78059526Y-106030962D01*
X78375580Y-105557952D01*
X78486564Y-105000000D01*
X78375580Y-104442048D01*
X78059526Y-103969038D01*
X77586516Y-103652984D01*
X77028564Y-103542000D01*
X76971436Y-103542000D01*
X76413484Y-103652984D01*
X75940474Y-103969038D01*
X75624420Y-104442048D01*
X75513436Y-105000000D01*
X75458692Y-105000000D01*
X75448397Y-104665299D01*
X75260839Y-104212498D01*
X75005483Y-104141596D01*
X74147078Y-105000000D01*
X73852922Y-105000000D01*
X72994517Y-104141596D01*
X72750830Y-104209258D01*
X72736753Y-104175188D01*
X72556398Y-103994517D01*
X73141596Y-103994517D01*
X74000000Y-104852922D01*
X74858404Y-103994517D01*
X74787502Y-103739161D01*
X74245054Y-103533772D01*
X73665299Y-103551603D01*
X73212498Y-103739161D01*
X73141596Y-103994517D01*
X72556398Y-103994517D01*
X72326969Y-103764688D01*
X71791286Y-103542254D01*
X71211258Y-103541747D01*
X70675188Y-103763247D01*
X70264688Y-104173031D01*
X70042254Y-104708714D01*
X70041747Y-105288742D01*
X69958000Y-105288742D01*
X69958000Y-103321375D01*
X70007825Y-103201383D01*
X70008175Y-102800376D01*
X69855039Y-102429760D01*
X69571732Y-102145957D01*
X69201383Y-101992175D01*
X68800376Y-101991825D01*
X68429760Y-102144961D01*
X68145957Y-102428268D01*
X67992175Y-102798617D01*
X67991825Y-103199624D01*
X64408000Y-103199624D01*
X64408000Y-101819115D01*
X64307825Y-101577273D01*
X64151443Y-101420890D01*
X66750000Y-101420890D01*
X66993840Y-101375008D01*
X67217792Y-101230899D01*
X67368033Y-101011014D01*
X67420890Y-100750000D01*
X67420890Y-100199624D01*
X71991825Y-100199624D01*
X72144961Y-100570240D01*
X72428268Y-100854043D01*
X72798617Y-101007825D01*
X73199624Y-101008175D01*
X73570240Y-100855039D01*
X73854043Y-100571732D01*
X73901269Y-100458000D01*
X75980095Y-100458000D01*
X75764688Y-100673031D01*
X75542254Y-101208714D01*
X75541747Y-101788742D01*
X75763247Y-102324812D01*
X76173031Y-102735312D01*
X76708714Y-102957746D01*
X77288742Y-102958253D01*
X77824812Y-102736753D01*
X78056486Y-102505483D01*
X78641596Y-102505483D01*
X78712498Y-102760839D01*
X79254946Y-102966228D01*
X79834701Y-102948397D01*
X80287502Y-102760839D01*
X80358404Y-102505483D01*
X79500000Y-101647078D01*
X78641596Y-102505483D01*
X78056486Y-102505483D01*
X78235312Y-102326969D01*
X78250404Y-102290624D01*
X78494517Y-102358404D01*
X79352922Y-101500000D01*
X79338779Y-101485858D01*
X79485858Y-101338779D01*
X79500000Y-101352922D01*
X79514142Y-101338779D01*
X79661221Y-101485858D01*
X79647078Y-101500000D01*
X80505483Y-102358404D01*
X80760839Y-102287502D01*
X80966228Y-101745054D01*
X80948397Y-101165299D01*
X80760839Y-100712498D01*
X80505485Y-100641596D01*
X80622622Y-100524459D01*
X80556163Y-100458000D01*
X83103184Y-100458000D01*
X84162592Y-101517408D01*
X84473389Y-101725077D01*
X84840000Y-101798000D01*
X86202000Y-101798000D01*
X86202000Y-103896203D01*
X85924688Y-104173031D01*
X85702254Y-104708714D01*
X85701747Y-105288742D01*
X85923247Y-105824812D01*
X86333031Y-106235312D01*
X86868714Y-106457746D01*
X87448742Y-106458253D01*
X87984812Y-106236753D01*
X88340639Y-105881547D01*
X88440474Y-106030962D01*
X88913484Y-106347016D01*
X89471436Y-106458000D01*
X89528564Y-106458000D01*
X90086516Y-106347016D01*
X90559526Y-106030962D01*
X90875580Y-105557952D01*
X90986564Y-105000000D01*
X90875580Y-104442048D01*
X90559526Y-103969038D01*
X90086516Y-103652984D01*
X89528564Y-103542000D01*
X89471436Y-103542000D01*
X88913484Y-103652984D01*
X88440474Y-103969038D01*
X88340429Y-104118766D01*
X88118000Y-103895948D01*
X88118000Y-101973288D01*
X88263247Y-102324812D01*
X88673031Y-102735312D01*
X89208714Y-102957746D01*
X89788742Y-102958253D01*
X90324812Y-102736753D01*
X90556486Y-102505483D01*
X91141596Y-102505483D01*
X91212498Y-102760839D01*
X91754946Y-102966228D01*
X92334701Y-102948397D01*
X92787502Y-102760839D01*
X92858404Y-102505483D01*
X92000000Y-101647078D01*
X91141596Y-102505483D01*
X90556486Y-102505483D01*
X90735312Y-102326969D01*
X90750404Y-102290624D01*
X90994517Y-102358404D01*
X91852922Y-101500000D01*
X92147078Y-101500000D01*
X93005483Y-102358404D01*
X93260839Y-102287502D01*
X93466228Y-101745054D01*
X93448397Y-101165299D01*
X93260839Y-100712498D01*
X93005483Y-100641596D01*
X92147078Y-101500000D01*
X91852922Y-101500000D01*
X90994517Y-100641596D01*
X90750830Y-100709258D01*
X90736753Y-100675188D01*
X90556398Y-100494517D01*
X91141596Y-100494517D01*
X92000000Y-101352922D01*
X92858404Y-100494517D01*
X92787502Y-100239161D01*
X92245054Y-100033772D01*
X91665299Y-100051603D01*
X91212498Y-100239161D01*
X91141596Y-100494517D01*
X90556398Y-100494517D01*
X90326969Y-100264688D01*
X89791286Y-100042254D01*
X89312980Y-100041836D01*
X89396816Y-99958000D01*
X97603184Y-99958000D01*
X98702000Y-101056817D01*
X98702000Y-103896203D01*
X98424688Y-104173031D01*
X98202254Y-104708714D01*
X98201747Y-105288742D01*
X98423247Y-105824812D01*
X98833031Y-106235312D01*
X99368714Y-106457746D01*
X99948742Y-106458253D01*
X100484812Y-106236753D01*
X100840639Y-105881547D01*
X100940474Y-106030962D01*
X101413484Y-106347016D01*
X101971436Y-106458000D01*
X102028564Y-106458000D01*
X102586516Y-106347016D01*
X103059526Y-106030962D01*
X103375580Y-105557952D01*
X103486564Y-105000000D01*
X103375580Y-104442048D01*
X103059526Y-103969038D01*
X102586516Y-103652984D01*
X102028564Y-103542000D01*
X101971436Y-103542000D01*
X101413484Y-103652984D01*
X100940474Y-103969038D01*
X100840429Y-104118766D01*
X100618000Y-103895948D01*
X100618000Y-101973288D01*
X100763247Y-102324812D01*
X101173031Y-102735312D01*
X101708714Y-102957746D01*
X102288742Y-102958253D01*
X102824812Y-102736753D01*
X103056486Y-102505483D01*
X103641596Y-102505483D01*
X103712498Y-102760839D01*
X104254946Y-102966228D01*
X104834701Y-102948397D01*
X105287502Y-102760839D01*
X105358404Y-102505483D01*
X104500000Y-101647078D01*
X103641596Y-102505483D01*
X103056486Y-102505483D01*
X103235312Y-102326969D01*
X103250404Y-102290624D01*
X103494517Y-102358404D01*
X104352922Y-101500000D01*
X103494517Y-100641596D01*
X103250830Y-100709258D01*
X103236753Y-100675188D01*
X102826969Y-100264688D01*
X102291286Y-100042254D01*
X101711258Y-100041747D01*
X101175188Y-100263247D01*
X100764688Y-100673031D01*
X100618000Y-101026297D01*
X100618000Y-100660000D01*
X100545077Y-100293389D01*
X100457681Y-100162592D01*
X100337409Y-99982592D01*
X99354813Y-98999997D01*
X99646810Y-98708000D01*
X103603184Y-98708000D01*
X105041018Y-100145834D01*
X104745054Y-100033772D01*
X104165299Y-100051603D01*
X103712498Y-100239161D01*
X103641596Y-100494517D01*
X104500000Y-101352922D01*
X104514142Y-101338779D01*
X104661221Y-101485858D01*
X104647078Y-101500000D01*
X105505483Y-102358404D01*
X105760839Y-102287502D01*
X105966228Y-101745054D01*
X105948397Y-101165299D01*
X105869139Y-100973955D01*
X109772593Y-104877409D01*
X110083390Y-105085078D01*
X110450001Y-105158001D01*
X110701861Y-105158001D01*
X110701747Y-105288742D01*
X110923247Y-105824812D01*
X111333031Y-106235312D01*
X111868714Y-106457746D01*
X112448742Y-106458253D01*
X112984812Y-106236753D01*
X113264052Y-105958000D01*
X116603184Y-105958000D01*
X122402001Y-111756818D01*
X122402001Y-112200001D01*
X122474924Y-112566612D01*
X122682593Y-112877409D01*
X122702090Y-112896906D01*
X122701747Y-113288742D01*
X122923247Y-113824812D01*
X123333031Y-114235312D01*
X123868714Y-114457746D01*
X124448742Y-114458253D01*
X124984812Y-114236753D01*
X125395312Y-113826969D01*
X125617746Y-113291286D01*
X125618253Y-112711258D01*
X125521410Y-112476880D01*
X135591582Y-112476880D01*
X135957406Y-113362241D01*
X136634196Y-114040213D01*
X137518918Y-114407582D01*
X138476880Y-114408418D01*
X139362241Y-114042594D01*
X140040213Y-113365804D01*
X140407582Y-112481082D01*
X140408418Y-111523120D01*
X140042594Y-110637759D01*
X139365804Y-109959787D01*
X138481082Y-109592418D01*
X137523120Y-109591582D01*
X136637759Y-109957406D01*
X135959787Y-110634196D01*
X135592418Y-111518918D01*
X135591582Y-112476880D01*
X125521410Y-112476880D01*
X125396753Y-112175188D01*
X124986969Y-111764688D01*
X124451286Y-111542254D01*
X124318001Y-111542137D01*
X124318001Y-111360001D01*
X124245078Y-110993390D01*
X124048201Y-110698742D01*
X124291747Y-110698742D01*
X124513247Y-111234812D01*
X124923031Y-111645312D01*
X125458714Y-111867746D01*
X126038742Y-111868253D01*
X126574812Y-111646753D01*
X126985312Y-111236969D01*
X127207746Y-110701286D01*
X127208253Y-110121258D01*
X126986753Y-109585188D01*
X126576969Y-109174688D01*
X126041286Y-108952254D01*
X125461258Y-108951747D01*
X124925188Y-109173247D01*
X124514688Y-109583031D01*
X124292254Y-110118714D01*
X124291747Y-110698742D01*
X124048201Y-110698742D01*
X124037410Y-110682593D01*
X118854817Y-105500000D01*
X128529110Y-105500000D01*
X128529110Y-106500000D01*
X128574992Y-106743840D01*
X128719101Y-106967792D01*
X128938986Y-107118033D01*
X129200000Y-107170890D01*
X131800000Y-107170890D01*
X132043840Y-107125008D01*
X132267792Y-106980899D01*
X132418033Y-106761014D01*
X132470890Y-106500000D01*
X132470890Y-106459036D01*
X133191774Y-106459036D01*
X133390485Y-106939954D01*
X133758110Y-107308222D01*
X134238681Y-107507772D01*
X134759036Y-107508226D01*
X135239954Y-107309515D01*
X135608222Y-106941890D01*
X135659457Y-106818500D01*
X136042000Y-106818500D01*
X136042000Y-107180885D01*
X136142175Y-107422727D01*
X136327273Y-107607826D01*
X136569116Y-107708000D01*
X137731500Y-107708000D01*
X137896000Y-107543500D01*
X137896000Y-106654000D01*
X138104000Y-106654000D01*
X138104000Y-107543500D01*
X138268500Y-107708000D01*
X139430884Y-107708000D01*
X139672727Y-107607826D01*
X139857825Y-107422727D01*
X139958000Y-107180885D01*
X139958000Y-106818500D01*
X139793500Y-106654000D01*
X138104000Y-106654000D01*
X137896000Y-106654000D01*
X136206500Y-106654000D01*
X136042000Y-106818500D01*
X135659457Y-106818500D01*
X135807772Y-106461319D01*
X135808226Y-105940964D01*
X135799199Y-105919115D01*
X136042000Y-105919115D01*
X136042000Y-106281500D01*
X136206500Y-106446000D01*
X137896000Y-106446000D01*
X137896000Y-105556500D01*
X138104000Y-105556500D01*
X138104000Y-106446000D01*
X139793500Y-106446000D01*
X139958000Y-106281500D01*
X139958000Y-105919115D01*
X139857825Y-105677273D01*
X139672727Y-105492174D01*
X139430884Y-105392000D01*
X138268500Y-105392000D01*
X138104000Y-105556500D01*
X137896000Y-105556500D01*
X137731500Y-105392000D01*
X136569116Y-105392000D01*
X136327273Y-105492174D01*
X136142175Y-105677273D01*
X136042000Y-105919115D01*
X135799199Y-105919115D01*
X135609515Y-105460046D01*
X135241890Y-105091778D01*
X134761319Y-104892228D01*
X134240964Y-104891774D01*
X133760046Y-105090485D01*
X133391778Y-105458110D01*
X133192228Y-105938681D01*
X133191774Y-106459036D01*
X132470890Y-106459036D01*
X132470890Y-105500000D01*
X132425008Y-105256160D01*
X132280899Y-105032208D01*
X132061014Y-104881967D01*
X131800000Y-104829110D01*
X129200000Y-104829110D01*
X128956160Y-104874992D01*
X128732208Y-105019101D01*
X128581967Y-105238986D01*
X128529110Y-105500000D01*
X118854817Y-105500000D01*
X117677408Y-104322592D01*
X117366611Y-104114923D01*
X117000000Y-104042000D01*
X113263797Y-104042000D01*
X112986969Y-103764688D01*
X112451286Y-103542254D01*
X112056725Y-103541909D01*
X112037409Y-103522593D01*
X111726612Y-103314924D01*
X111594986Y-103288742D01*
X118041747Y-103288742D01*
X118263247Y-103824812D01*
X118673031Y-104235312D01*
X119208714Y-104457746D01*
X119788742Y-104458253D01*
X120324812Y-104236753D01*
X120556486Y-104005483D01*
X121141596Y-104005483D01*
X121212498Y-104260839D01*
X121754946Y-104466228D01*
X122334701Y-104448397D01*
X122787502Y-104260839D01*
X122858404Y-104005483D01*
X122000000Y-103147078D01*
X121141596Y-104005483D01*
X120556486Y-104005483D01*
X120735312Y-103826969D01*
X120750404Y-103790624D01*
X120994517Y-103858404D01*
X121852922Y-103000000D01*
X122147078Y-103000000D01*
X123005483Y-103858404D01*
X123260839Y-103787502D01*
X123466228Y-103245054D01*
X123448397Y-102665299D01*
X123260839Y-102212498D01*
X123005483Y-102141596D01*
X122147078Y-103000000D01*
X121852922Y-103000000D01*
X120994517Y-102141596D01*
X120750830Y-102209258D01*
X120736753Y-102175188D01*
X120556398Y-101994517D01*
X121141596Y-101994517D01*
X122000000Y-102852922D01*
X122858404Y-101994517D01*
X122787502Y-101739161D01*
X122245054Y-101533772D01*
X121665299Y-101551603D01*
X121212498Y-101739161D01*
X121141596Y-101994517D01*
X120556398Y-101994517D01*
X120326969Y-101764688D01*
X119791286Y-101542254D01*
X119211258Y-101541747D01*
X118675188Y-101763247D01*
X118264688Y-102173031D01*
X118042254Y-102708714D01*
X118041747Y-103288742D01*
X111594986Y-103288742D01*
X111360001Y-103242001D01*
X110846817Y-103242001D01*
X107826252Y-100221436D01*
X124292000Y-100221436D01*
X124292000Y-100278564D01*
X124402984Y-100836516D01*
X124719038Y-101309526D01*
X125192048Y-101625580D01*
X125750000Y-101736564D01*
X126307952Y-101625580D01*
X126780962Y-101309526D01*
X127054597Y-100900000D01*
X128529110Y-100900000D01*
X128529110Y-101900000D01*
X128574992Y-102143840D01*
X128719101Y-102367792D01*
X128938986Y-102518033D01*
X129200000Y-102570890D01*
X131800000Y-102570890D01*
X132043840Y-102525008D01*
X132267792Y-102380899D01*
X132418033Y-102161014D01*
X132470890Y-101900000D01*
X132470890Y-101859036D01*
X133191774Y-101859036D01*
X133390485Y-102339954D01*
X133758110Y-102708222D01*
X134238681Y-102907772D01*
X134759036Y-102908226D01*
X135239954Y-102709515D01*
X135608222Y-102341890D01*
X135807772Y-101861319D01*
X135808226Y-101340964D01*
X135716306Y-101118500D01*
X136042000Y-101118500D01*
X136042000Y-101480885D01*
X136142175Y-101722727D01*
X136327273Y-101907826D01*
X136569116Y-102008000D01*
X137731500Y-102008000D01*
X137896000Y-101843500D01*
X137896000Y-100954000D01*
X138104000Y-100954000D01*
X138104000Y-101843500D01*
X138268500Y-102008000D01*
X139430884Y-102008000D01*
X139672727Y-101907826D01*
X139857825Y-101722727D01*
X139958000Y-101480885D01*
X139958000Y-101118500D01*
X139793500Y-100954000D01*
X138104000Y-100954000D01*
X137896000Y-100954000D01*
X136206500Y-100954000D01*
X136042000Y-101118500D01*
X135716306Y-101118500D01*
X135609515Y-100860046D01*
X135241890Y-100491778D01*
X134761319Y-100292228D01*
X134240964Y-100291774D01*
X133760046Y-100490485D01*
X133391778Y-100858110D01*
X133192228Y-101338681D01*
X133191774Y-101859036D01*
X132470890Y-101859036D01*
X132470890Y-100900000D01*
X132425008Y-100656160D01*
X132280899Y-100432208D01*
X132061014Y-100281967D01*
X131800000Y-100229110D01*
X129200000Y-100229110D01*
X128956160Y-100274992D01*
X128732208Y-100419101D01*
X128581967Y-100638986D01*
X128529110Y-100900000D01*
X127054597Y-100900000D01*
X127097016Y-100836516D01*
X127208000Y-100278564D01*
X127208000Y-100221436D01*
X127207539Y-100219115D01*
X136042000Y-100219115D01*
X136042000Y-100581500D01*
X136206500Y-100746000D01*
X137896000Y-100746000D01*
X137896000Y-99856500D01*
X138104000Y-99856500D01*
X138104000Y-100746000D01*
X139793500Y-100746000D01*
X139958000Y-100581500D01*
X139958000Y-100219115D01*
X139857825Y-99977273D01*
X139672727Y-99792174D01*
X139430884Y-99692000D01*
X138268500Y-99692000D01*
X138104000Y-99856500D01*
X137896000Y-99856500D01*
X137731500Y-99692000D01*
X136569116Y-99692000D01*
X136327273Y-99792174D01*
X136142175Y-99977273D01*
X136042000Y-100219115D01*
X127207539Y-100219115D01*
X127097016Y-99663484D01*
X126780962Y-99190474D01*
X126307952Y-98874420D01*
X125750000Y-98763436D01*
X125192048Y-98874420D01*
X124719038Y-99190474D01*
X124402984Y-99663484D01*
X124292000Y-100221436D01*
X107826252Y-100221436D01*
X106542201Y-98937385D01*
X106996516Y-98847016D01*
X107469526Y-98530962D01*
X107785580Y-98057952D01*
X107896564Y-97500000D01*
X107785580Y-96942048D01*
X107493878Y-96505483D01*
X111641596Y-96505483D01*
X111712498Y-96760839D01*
X112254946Y-96966228D01*
X112834701Y-96948397D01*
X113287502Y-96760839D01*
X113358404Y-96505483D01*
X112500000Y-95647078D01*
X111641596Y-96505483D01*
X107493878Y-96505483D01*
X107469526Y-96469038D01*
X106996516Y-96152984D01*
X106438564Y-96042000D01*
X106381436Y-96042000D01*
X105823484Y-96152984D01*
X105350474Y-96469038D01*
X105034420Y-96942048D01*
X104953529Y-97348713D01*
X104677408Y-97072592D01*
X104366611Y-96864923D01*
X104000000Y-96792000D01*
X99571369Y-96792000D01*
X99451377Y-96742175D01*
X99050370Y-96741825D01*
X98679754Y-96894961D01*
X98395951Y-97178268D01*
X98345564Y-97299614D01*
X97603970Y-98041208D01*
X97707746Y-97791286D01*
X97708253Y-97211258D01*
X97486753Y-96675188D01*
X97076969Y-96264688D01*
X96541286Y-96042254D01*
X95961258Y-96041747D01*
X95425188Y-96263247D01*
X95014688Y-96673031D01*
X94792254Y-97208714D01*
X94791747Y-97788742D01*
X94896391Y-98042000D01*
X89000000Y-98042000D01*
X88633389Y-98114923D01*
X88322592Y-98322592D01*
X86763184Y-99882000D01*
X85236816Y-99882000D01*
X84177408Y-98822592D01*
X83866611Y-98614923D01*
X83500000Y-98542000D01*
X73500000Y-98542000D01*
X73133389Y-98614923D01*
X72822592Y-98822592D01*
X72549839Y-99095345D01*
X72429760Y-99144961D01*
X72145957Y-99428268D01*
X71992175Y-99798617D01*
X71991825Y-100199624D01*
X67420890Y-100199624D01*
X67420890Y-98725201D01*
X67522592Y-98877408D01*
X68095337Y-99450153D01*
X68144961Y-99570252D01*
X68428268Y-99854055D01*
X68798617Y-100007837D01*
X69199624Y-100008187D01*
X69570240Y-99855051D01*
X69854043Y-99571744D01*
X70007825Y-99201395D01*
X70008175Y-98800388D01*
X69855039Y-98429772D01*
X69571732Y-98145969D01*
X69450406Y-98095590D01*
X69158000Y-97803184D01*
X69158000Y-96213742D01*
X69861747Y-96213742D01*
X70083247Y-96749812D01*
X70493031Y-97160312D01*
X71028714Y-97382746D01*
X71608742Y-97383253D01*
X72144812Y-97161753D01*
X72555312Y-96751969D01*
X72777746Y-96216286D01*
X72778253Y-95636258D01*
X72580988Y-95158840D01*
X75591756Y-95158840D01*
X75805660Y-95676526D01*
X76201391Y-96072948D01*
X76718703Y-96287755D01*
X77278840Y-96288244D01*
X77796526Y-96074340D01*
X78192948Y-95678609D01*
X78407755Y-95161297D01*
X78408244Y-94601160D01*
X78407610Y-94599624D01*
X83591825Y-94599624D01*
X83744961Y-94970240D01*
X84028268Y-95254043D01*
X84398617Y-95407825D01*
X84799624Y-95408175D01*
X85170240Y-95255039D01*
X85454043Y-94971732D01*
X85607825Y-94601383D01*
X85607914Y-94499416D01*
X87299224Y-92808105D01*
X87399624Y-92808193D01*
X87770240Y-92655057D01*
X88054043Y-92371750D01*
X88207825Y-92001401D01*
X88208175Y-91600394D01*
X88055039Y-91229778D01*
X87771732Y-90945975D01*
X87401383Y-90792193D01*
X87000376Y-90791843D01*
X86629760Y-90944979D01*
X86345957Y-91228286D01*
X86192175Y-91598635D01*
X86192086Y-91700585D01*
X84500758Y-93391913D01*
X84400376Y-93391825D01*
X84029760Y-93544961D01*
X83745957Y-93828268D01*
X83592175Y-94198617D01*
X83591825Y-94599624D01*
X78407610Y-94599624D01*
X78194340Y-94083474D01*
X77798609Y-93687052D01*
X77281297Y-93472245D01*
X76721160Y-93471756D01*
X76203474Y-93685660D01*
X75807052Y-94081391D01*
X75592245Y-94598703D01*
X75591756Y-95158840D01*
X72580988Y-95158840D01*
X72556753Y-95100188D01*
X72146969Y-94689688D01*
X72110624Y-94674596D01*
X72178404Y-94430483D01*
X71320000Y-93572078D01*
X70461596Y-94430483D01*
X70529258Y-94674170D01*
X70495188Y-94688247D01*
X70084688Y-95098031D01*
X69862254Y-95633714D01*
X69861747Y-96213742D01*
X69158000Y-96213742D01*
X69158000Y-93200000D01*
X69154012Y-93179946D01*
X69853772Y-93179946D01*
X69871603Y-93759701D01*
X70059161Y-94212502D01*
X70314517Y-94283404D01*
X71172922Y-93425000D01*
X71467078Y-93425000D01*
X72325483Y-94283404D01*
X72580839Y-94212502D01*
X72786228Y-93670054D01*
X72768397Y-93090299D01*
X72580839Y-92637498D01*
X72325483Y-92566596D01*
X71467078Y-93425000D01*
X71172922Y-93425000D01*
X70314517Y-92566596D01*
X70059161Y-92637498D01*
X69853772Y-93179946D01*
X69154012Y-93179946D01*
X69085077Y-92833389D01*
X69077863Y-92822592D01*
X68877408Y-92522591D01*
X68165300Y-91810483D01*
X70461596Y-91810483D01*
X70532498Y-92065839D01*
X70656509Y-92112794D01*
X70532498Y-92164161D01*
X70461596Y-92419517D01*
X71320000Y-93277922D01*
X72178404Y-92419517D01*
X72107502Y-92164161D01*
X71983491Y-92117206D01*
X72107502Y-92065839D01*
X72178404Y-91810483D01*
X71320000Y-90952078D01*
X70461596Y-91810483D01*
X68165300Y-91810483D01*
X66914763Y-90559946D01*
X69853772Y-90559946D01*
X69871603Y-91139701D01*
X70059161Y-91592502D01*
X70314517Y-91663404D01*
X71172922Y-90805000D01*
X71467078Y-90805000D01*
X72325483Y-91663404D01*
X72580839Y-91592502D01*
X72786228Y-91050054D01*
X72768397Y-90470299D01*
X72689092Y-90278840D01*
X75591756Y-90278840D01*
X75805660Y-90796526D01*
X76201391Y-91192948D01*
X76718703Y-91407755D01*
X77278840Y-91408244D01*
X77796526Y-91194340D01*
X78192948Y-90798609D01*
X78407755Y-90281297D01*
X78408244Y-89721160D01*
X78194340Y-89203474D01*
X77798609Y-88807052D01*
X77281297Y-88592245D01*
X76721160Y-88591756D01*
X76203474Y-88805660D01*
X75807052Y-89201391D01*
X75592245Y-89718703D01*
X75591756Y-90278840D01*
X72689092Y-90278840D01*
X72580839Y-90017498D01*
X72325483Y-89946596D01*
X71467078Y-90805000D01*
X71172922Y-90805000D01*
X70314517Y-89946596D01*
X70059161Y-90017498D01*
X69853772Y-90559946D01*
X66914763Y-90559946D01*
X65958000Y-89603184D01*
X65958000Y-88593742D01*
X69861747Y-88593742D01*
X70083247Y-89129812D01*
X70493031Y-89540312D01*
X70529376Y-89555404D01*
X70461596Y-89799517D01*
X71320000Y-90657922D01*
X72178404Y-89799517D01*
X72110742Y-89555830D01*
X72144812Y-89541753D01*
X72555312Y-89131969D01*
X72777746Y-88596286D01*
X72778253Y-88016258D01*
X72556753Y-87480188D01*
X72146969Y-87069688D01*
X71611286Y-86847254D01*
X71031258Y-86846747D01*
X70495188Y-87068247D01*
X70084688Y-87478031D01*
X69862254Y-88013714D01*
X69861747Y-88593742D01*
X65958000Y-88593742D01*
X65958000Y-88103797D01*
X66235312Y-87826969D01*
X66457746Y-87291286D01*
X66458253Y-86711258D01*
X66236753Y-86175188D01*
X65826969Y-85764688D01*
X65291286Y-85542254D01*
X64711258Y-85541747D01*
X64175188Y-85763247D01*
X63764688Y-86173031D01*
X63542254Y-86708714D01*
X63541747Y-87288742D01*
X63763247Y-87824812D01*
X64042000Y-88104052D01*
X64042000Y-90000000D01*
X64114923Y-90366611D01*
X64322592Y-90677408D01*
X67242000Y-93596817D01*
X67242000Y-96799459D01*
X67230899Y-96782208D01*
X67011014Y-96631967D01*
X66750000Y-96579110D01*
X65943899Y-96579110D01*
X65885077Y-96283389D01*
X65677408Y-95972592D01*
X63777408Y-94072592D01*
X63466611Y-93864923D01*
X63100000Y-93792000D01*
X57396816Y-93792000D01*
X56708000Y-93103184D01*
X56708000Y-90750000D01*
X56635077Y-90383389D01*
X56427408Y-90072592D01*
X55677408Y-89322592D01*
X55366611Y-89114923D01*
X55000000Y-89042000D01*
X53879904Y-89042000D01*
X53856811Y-89018867D01*
X53811789Y-89000172D01*
X53855098Y-88982277D01*
X53879417Y-88958000D01*
X59000000Y-88958000D01*
X59366611Y-88885077D01*
X59677408Y-88677408D01*
X59896906Y-88457910D01*
X60288742Y-88458253D01*
X60824812Y-88236753D01*
X61235312Y-87826969D01*
X61457746Y-87291286D01*
X61458253Y-86711258D01*
X61236753Y-86175188D01*
X60826969Y-85764688D01*
X60291286Y-85542254D01*
X59711258Y-85541747D01*
X59175188Y-85763247D01*
X58764688Y-86173031D01*
X58542254Y-86708714D01*
X58541963Y-87042000D01*
X53879904Y-87042000D01*
X53856811Y-87018867D01*
X53811789Y-87000172D01*
X53855098Y-86982277D01*
X53879417Y-86958000D01*
X55000000Y-86958000D01*
X55366611Y-86885077D01*
X55677408Y-86677408D01*
X59155192Y-83199624D01*
X71991825Y-83199624D01*
X72144961Y-83570240D01*
X72428268Y-83854043D01*
X72798617Y-84007825D01*
X73199624Y-84008175D01*
X73321056Y-83958000D01*
X80896203Y-83958000D01*
X81042000Y-84104052D01*
X81042000Y-88278625D01*
X80992175Y-88398617D01*
X80991825Y-88799624D01*
X81042000Y-88921056D01*
X81042000Y-90678625D01*
X80992175Y-90798617D01*
X80991825Y-91199624D01*
X81144961Y-91570240D01*
X81428268Y-91854043D01*
X81798617Y-92007825D01*
X82199624Y-92008175D01*
X82570240Y-91855039D01*
X82854043Y-91571732D01*
X83007825Y-91201383D01*
X83008175Y-90800376D01*
X82958000Y-90678944D01*
X82958000Y-88921375D01*
X83007825Y-88801383D01*
X83008175Y-88400376D01*
X82958000Y-88278944D01*
X82958000Y-84103797D01*
X83056485Y-84005483D01*
X83641596Y-84005483D01*
X83712498Y-84260839D01*
X84254946Y-84466228D01*
X84834701Y-84448397D01*
X85287502Y-84260839D01*
X85358404Y-84005483D01*
X84500000Y-83147078D01*
X83641596Y-84005483D01*
X83056485Y-84005483D01*
X83235312Y-83826969D01*
X83250404Y-83790624D01*
X83494517Y-83858404D01*
X84352922Y-83000000D01*
X84647078Y-83000000D01*
X85505483Y-83858404D01*
X85760839Y-83787502D01*
X85966228Y-83245054D01*
X85964831Y-83199624D01*
X85991825Y-83199624D01*
X86144961Y-83570240D01*
X86428268Y-83854043D01*
X86798617Y-84007825D01*
X86900584Y-84007914D01*
X89217000Y-86324329D01*
X89217000Y-92157349D01*
X89145957Y-92228268D01*
X88992175Y-92598617D01*
X88991825Y-92999624D01*
X89144961Y-93370240D01*
X89428268Y-93654043D01*
X89798617Y-93807825D01*
X90199624Y-93808175D01*
X90570240Y-93655039D01*
X90854043Y-93371732D01*
X90953125Y-93133114D01*
X90999620Y-93133155D01*
X91370236Y-92980019D01*
X91654039Y-92696712D01*
X91807821Y-92326363D01*
X91808171Y-91925356D01*
X91655035Y-91554740D01*
X91582996Y-91482575D01*
X91582996Y-85890325D01*
X92217000Y-86524329D01*
X92217000Y-93607349D01*
X92145957Y-93678268D01*
X91992175Y-94048617D01*
X91991825Y-94449624D01*
X92144961Y-94820240D01*
X92428268Y-95104043D01*
X92759092Y-95241413D01*
X92894961Y-95570240D01*
X93178268Y-95854043D01*
X93548617Y-96007825D01*
X93949624Y-96008175D01*
X94320240Y-95855039D01*
X94604043Y-95571732D01*
X94735583Y-95254946D01*
X111033772Y-95254946D01*
X111051603Y-95834701D01*
X111239161Y-96287502D01*
X111494517Y-96358404D01*
X112352922Y-95500000D01*
X112647078Y-95500000D01*
X113505483Y-96358404D01*
X113538381Y-96349270D01*
X113574992Y-96543840D01*
X113719101Y-96767792D01*
X113938986Y-96918033D01*
X114200000Y-96970890D01*
X115800000Y-96970890D01*
X116043840Y-96925008D01*
X116267792Y-96780899D01*
X116418033Y-96561014D01*
X116436463Y-96470000D01*
X120319110Y-96470000D01*
X120319110Y-98170000D01*
X120364992Y-98413840D01*
X120509101Y-98637792D01*
X120728986Y-98788033D01*
X120990000Y-98840890D01*
X122690000Y-98840890D01*
X122933840Y-98795008D01*
X123157792Y-98650899D01*
X123308033Y-98431014D01*
X123311702Y-98412895D01*
X123313683Y-98415860D01*
X123802913Y-98742753D01*
X124380000Y-98857543D01*
X124957087Y-98742753D01*
X125446317Y-98415860D01*
X125650000Y-98111027D01*
X125853683Y-98415860D01*
X126342913Y-98742753D01*
X126920000Y-98857543D01*
X127497087Y-98742753D01*
X127986317Y-98415860D01*
X128190000Y-98111027D01*
X128393683Y-98415860D01*
X128882913Y-98742753D01*
X129460000Y-98857543D01*
X130037087Y-98742753D01*
X130526317Y-98415860D01*
X130730000Y-98111027D01*
X130933683Y-98415860D01*
X131422913Y-98742753D01*
X132000000Y-98857543D01*
X132577087Y-98742753D01*
X133066317Y-98415860D01*
X133270000Y-98111027D01*
X133473683Y-98415860D01*
X133962913Y-98742753D01*
X134540000Y-98857543D01*
X135117087Y-98742753D01*
X135606317Y-98415860D01*
X135812384Y-98107459D01*
X135851613Y-98194730D01*
X136279863Y-98598228D01*
X136741939Y-98789619D01*
X136976000Y-98659469D01*
X136976000Y-97424000D01*
X136956000Y-97424000D01*
X136956000Y-97216000D01*
X136976000Y-97216000D01*
X136976000Y-95980531D01*
X137184000Y-95980531D01*
X137184000Y-97216000D01*
X137204000Y-97216000D01*
X137204000Y-97424000D01*
X137184000Y-97424000D01*
X137184000Y-98659469D01*
X137418061Y-98789619D01*
X137880137Y-98598228D01*
X138308387Y-98194730D01*
X138347616Y-98107459D01*
X138553683Y-98415860D01*
X139042913Y-98742753D01*
X139620000Y-98857543D01*
X140197087Y-98742753D01*
X140686317Y-98415860D01*
X141013210Y-97926630D01*
X141128000Y-97349543D01*
X141128000Y-97290457D01*
X141013210Y-96713370D01*
X140686317Y-96224140D01*
X140197087Y-95897247D01*
X139620000Y-95782457D01*
X139042913Y-95897247D01*
X138553683Y-96224140D01*
X138347616Y-96532541D01*
X138308387Y-96445270D01*
X137880137Y-96041772D01*
X137418061Y-95850381D01*
X137184000Y-95980531D01*
X136976000Y-95980531D01*
X136741939Y-95850381D01*
X136279863Y-96041772D01*
X135851613Y-96445270D01*
X135812384Y-96532541D01*
X135606317Y-96224140D01*
X135117087Y-95897247D01*
X134540000Y-95782457D01*
X133962913Y-95897247D01*
X133473683Y-96224140D01*
X133270000Y-96528973D01*
X133066317Y-96224140D01*
X132577087Y-95897247D01*
X132000000Y-95782457D01*
X131422913Y-95897247D01*
X130933683Y-96224140D01*
X130730000Y-96528973D01*
X130526317Y-96224140D01*
X130037087Y-95897247D01*
X129460000Y-95782457D01*
X128882913Y-95897247D01*
X128393683Y-96224140D01*
X128190000Y-96528973D01*
X127986317Y-96224140D01*
X127497087Y-95897247D01*
X126920000Y-95782457D01*
X126342913Y-95897247D01*
X125853683Y-96224140D01*
X125650000Y-96528973D01*
X125446317Y-96224140D01*
X124957087Y-95897247D01*
X124380000Y-95782457D01*
X123802913Y-95897247D01*
X123313701Y-96224128D01*
X123170899Y-96002208D01*
X122951014Y-95851967D01*
X122690000Y-95799110D01*
X120990000Y-95799110D01*
X120746160Y-95844992D01*
X120522208Y-95989101D01*
X120371967Y-96208986D01*
X120319110Y-96470000D01*
X116436463Y-96470000D01*
X116470890Y-96300000D01*
X116470890Y-94700000D01*
X116425008Y-94456160D01*
X116280899Y-94232208D01*
X116061014Y-94081967D01*
X115958000Y-94061106D01*
X115958000Y-89321375D01*
X116007825Y-89201383D01*
X116008175Y-88800376D01*
X115855039Y-88429760D01*
X115571732Y-88145957D01*
X115201383Y-87992175D01*
X114800376Y-87991825D01*
X114429760Y-88144961D01*
X114145957Y-88428268D01*
X113992175Y-88798617D01*
X113991825Y-89199624D01*
X114042000Y-89321056D01*
X114042000Y-94058840D01*
X113956160Y-94074992D01*
X113732208Y-94219101D01*
X113581967Y-94438986D01*
X113539050Y-94650916D01*
X113505483Y-94641596D01*
X112647078Y-95500000D01*
X112352922Y-95500000D01*
X111494517Y-94641596D01*
X111239161Y-94712498D01*
X111033772Y-95254946D01*
X94735583Y-95254946D01*
X94757825Y-95201383D01*
X94758175Y-94800376D01*
X94631797Y-94494517D01*
X111641596Y-94494517D01*
X112500000Y-95352922D01*
X113358404Y-94494517D01*
X113287502Y-94239161D01*
X112745054Y-94033772D01*
X112165299Y-94051603D01*
X111712498Y-94239161D01*
X111641596Y-94494517D01*
X94631797Y-94494517D01*
X94605039Y-94429760D01*
X94533000Y-94357595D01*
X94533000Y-92288742D01*
X95541747Y-92288742D01*
X95763247Y-92824812D01*
X96173031Y-93235312D01*
X96708714Y-93457746D01*
X97288742Y-93458253D01*
X97824812Y-93236753D01*
X98056486Y-93005483D01*
X98641596Y-93005483D01*
X98712498Y-93260839D01*
X99254946Y-93466228D01*
X99834701Y-93448397D01*
X100287502Y-93260839D01*
X100358404Y-93005483D01*
X99500000Y-92147078D01*
X98641596Y-93005483D01*
X98056486Y-93005483D01*
X98235312Y-92826969D01*
X98250404Y-92790624D01*
X98494517Y-92858404D01*
X99352922Y-92000000D01*
X99647078Y-92000000D01*
X100505483Y-92858404D01*
X100760839Y-92787502D01*
X100966228Y-92245054D01*
X100948397Y-91665299D01*
X100760839Y-91212498D01*
X100505483Y-91141596D01*
X99647078Y-92000000D01*
X99352922Y-92000000D01*
X98494517Y-91141596D01*
X98250830Y-91209258D01*
X98236753Y-91175188D01*
X98056398Y-90994517D01*
X98641596Y-90994517D01*
X99500000Y-91852922D01*
X100358404Y-90994517D01*
X100287502Y-90739161D01*
X99745054Y-90533772D01*
X99165299Y-90551603D01*
X98712498Y-90739161D01*
X98641596Y-90994517D01*
X98056398Y-90994517D01*
X97826969Y-90764688D01*
X97291286Y-90542254D01*
X96711258Y-90541747D01*
X96175188Y-90763247D01*
X95764688Y-91173031D01*
X95542254Y-91708714D01*
X95541747Y-92288742D01*
X94533000Y-92288742D01*
X94533000Y-88288742D01*
X95541747Y-88288742D01*
X95763247Y-88824812D01*
X96173031Y-89235312D01*
X96708714Y-89457746D01*
X97288742Y-89458253D01*
X97824812Y-89236753D01*
X98056486Y-89005483D01*
X98641596Y-89005483D01*
X98712498Y-89260839D01*
X99254946Y-89466228D01*
X99834701Y-89448397D01*
X100287502Y-89260839D01*
X100358404Y-89005483D01*
X99500000Y-88147078D01*
X98641596Y-89005483D01*
X98056486Y-89005483D01*
X98235312Y-88826969D01*
X98250404Y-88790624D01*
X98494517Y-88858404D01*
X99352922Y-88000000D01*
X99647078Y-88000000D01*
X100505483Y-88858404D01*
X100760839Y-88787502D01*
X100966228Y-88245054D01*
X100953470Y-87830221D01*
X104579880Y-87830221D01*
X104814350Y-88348541D01*
X105229325Y-88737678D01*
X105669780Y-88920112D01*
X105896000Y-88789312D01*
X105896000Y-87604000D01*
X106104000Y-87604000D01*
X106104000Y-88789312D01*
X106330220Y-88920112D01*
X106770675Y-88737678D01*
X107185650Y-88348541D01*
X107420120Y-87830221D01*
X107289794Y-87604000D01*
X106104000Y-87604000D01*
X105896000Y-87604000D01*
X104710206Y-87604000D01*
X104579880Y-87830221D01*
X100953470Y-87830221D01*
X100948397Y-87665299D01*
X100760839Y-87212498D01*
X100505483Y-87141596D01*
X99647078Y-88000000D01*
X99352922Y-88000000D01*
X98494517Y-87141596D01*
X98250830Y-87209258D01*
X98236753Y-87175188D01*
X98056398Y-86994517D01*
X98641596Y-86994517D01*
X99500000Y-87852922D01*
X100358404Y-86994517D01*
X100287502Y-86739161D01*
X99745054Y-86533772D01*
X99165299Y-86551603D01*
X98712498Y-86739161D01*
X98641596Y-86994517D01*
X98056398Y-86994517D01*
X97826969Y-86764688D01*
X97291286Y-86542254D01*
X96711258Y-86541747D01*
X96175188Y-86763247D01*
X95764688Y-87173031D01*
X95542254Y-87708714D01*
X95541747Y-88288742D01*
X94533000Y-88288742D01*
X94533000Y-85477197D01*
X94533001Y-85477192D01*
X94473398Y-85177551D01*
X94303665Y-84923527D01*
X90167180Y-80787042D01*
X90167268Y-80686661D01*
X90014132Y-80316045D01*
X89730825Y-80032242D01*
X89360476Y-79878460D01*
X88959469Y-79878110D01*
X88588853Y-80031246D01*
X88460148Y-80159726D01*
X88246752Y-79945957D01*
X87876403Y-79792175D01*
X87475396Y-79791825D01*
X87104780Y-79944961D01*
X86820977Y-80228268D01*
X86667195Y-80598617D01*
X86666845Y-80999624D01*
X86819981Y-81370240D01*
X86892020Y-81442405D01*
X86892020Y-81875015D01*
X86892019Y-81875020D01*
X86915273Y-81991925D01*
X86800376Y-81991825D01*
X86429760Y-82144961D01*
X86145957Y-82428268D01*
X85992175Y-82798617D01*
X85991825Y-83199624D01*
X85964831Y-83199624D01*
X85948397Y-82665299D01*
X85760839Y-82212498D01*
X85505483Y-82141596D01*
X84647078Y-83000000D01*
X84352922Y-83000000D01*
X83494517Y-82141596D01*
X83250830Y-82209258D01*
X83236753Y-82175188D01*
X83056398Y-81994517D01*
X83641596Y-81994517D01*
X84500000Y-82852922D01*
X85358404Y-81994517D01*
X85287502Y-81739161D01*
X84745054Y-81533772D01*
X84165299Y-81551603D01*
X83712498Y-81739161D01*
X83641596Y-81994517D01*
X83056398Y-81994517D01*
X82958434Y-81896382D01*
X85396817Y-79458000D01*
X94703184Y-79458000D01*
X101322592Y-86077409D01*
X101633389Y-86285077D01*
X102000000Y-86358000D01*
X105127294Y-86358000D01*
X104814350Y-86651459D01*
X104579880Y-87169779D01*
X104710206Y-87396000D01*
X105896000Y-87396000D01*
X105896000Y-87376000D01*
X106104000Y-87376000D01*
X106104000Y-87396000D01*
X107289794Y-87396000D01*
X107420120Y-87169779D01*
X107185650Y-86651459D01*
X106872706Y-86358000D01*
X107003184Y-86358000D01*
X108042090Y-87396906D01*
X108041747Y-87788742D01*
X108263247Y-88324812D01*
X108673031Y-88735312D01*
X109208714Y-88957746D01*
X109788742Y-88958253D01*
X110324812Y-88736753D01*
X110735312Y-88326969D01*
X110957746Y-87791286D01*
X110958253Y-87211258D01*
X110736753Y-86675188D01*
X110326969Y-86264688D01*
X109791286Y-86042254D01*
X109396725Y-86041909D01*
X108077408Y-84722592D01*
X107766611Y-84514923D01*
X107400000Y-84442000D01*
X106990959Y-84442000D01*
X107007825Y-84401383D01*
X107008175Y-84000376D01*
X106855039Y-83629760D01*
X106783000Y-83557595D01*
X106783000Y-78594029D01*
X106824812Y-78576753D01*
X107235312Y-78166969D01*
X107457746Y-77631286D01*
X107458253Y-77051258D01*
X107236753Y-76515188D01*
X106826969Y-76104688D01*
X106473703Y-75958000D01*
X108974323Y-75958000D01*
X108942048Y-75964420D01*
X108469038Y-76280474D01*
X108152984Y-76753484D01*
X108042000Y-77311436D01*
X108042000Y-77368564D01*
X108152984Y-77926516D01*
X108469038Y-78399526D01*
X108817000Y-78632026D01*
X108817000Y-82157349D01*
X108745957Y-82228268D01*
X108592175Y-82598617D01*
X108591825Y-82999624D01*
X108744961Y-83370240D01*
X109028268Y-83654043D01*
X109398617Y-83807825D01*
X109799624Y-83808175D01*
X110170240Y-83655039D01*
X110454043Y-83371732D01*
X110607825Y-83001383D01*
X110608175Y-82600376D01*
X110455039Y-82229760D01*
X110383000Y-82157595D01*
X110383000Y-78498391D01*
X110530962Y-78399526D01*
X110847016Y-77926516D01*
X110958000Y-77368564D01*
X110958000Y-77311436D01*
X110890175Y-76970457D01*
X120332000Y-76970457D01*
X120332000Y-77029543D01*
X120446790Y-77606630D01*
X120773683Y-78095860D01*
X121057000Y-78285166D01*
X121057000Y-81317419D01*
X120945957Y-81428268D01*
X120792175Y-81798617D01*
X120791825Y-82199624D01*
X120944961Y-82570240D01*
X121228268Y-82854043D01*
X121598617Y-83007825D01*
X121999624Y-83008175D01*
X122370240Y-82855039D01*
X122654043Y-82571732D01*
X122807825Y-82201383D01*
X122808175Y-81800376D01*
X122655039Y-81429760D01*
X122623000Y-81397665D01*
X122623000Y-78285166D01*
X122906317Y-78095860D01*
X123110000Y-77791027D01*
X123313683Y-78095860D01*
X123802913Y-78422753D01*
X124380000Y-78537543D01*
X124957087Y-78422753D01*
X125446317Y-78095860D01*
X125650000Y-77791027D01*
X125853683Y-78095860D01*
X126342913Y-78422753D01*
X126920000Y-78537543D01*
X127497087Y-78422753D01*
X127986317Y-78095860D01*
X128190000Y-77791027D01*
X128393683Y-78095860D01*
X128882913Y-78422753D01*
X129460000Y-78537543D01*
X130037087Y-78422753D01*
X130526317Y-78095860D01*
X130730000Y-77791027D01*
X130933683Y-78095860D01*
X131422913Y-78422753D01*
X132000000Y-78537543D01*
X132577087Y-78422753D01*
X133066317Y-78095860D01*
X133270000Y-77791027D01*
X133473683Y-78095860D01*
X133962913Y-78422753D01*
X134540000Y-78537543D01*
X135117087Y-78422753D01*
X135606317Y-78095860D01*
X135812384Y-77787459D01*
X135851613Y-77874730D01*
X136279863Y-78278228D01*
X136741939Y-78469619D01*
X136976000Y-78339469D01*
X136976000Y-77104000D01*
X136956000Y-77104000D01*
X136956000Y-76896000D01*
X136976000Y-76896000D01*
X136976000Y-75660531D01*
X137184000Y-75660531D01*
X137184000Y-76896000D01*
X137204000Y-76896000D01*
X137204000Y-77104000D01*
X137184000Y-77104000D01*
X137184000Y-78339469D01*
X137418061Y-78469619D01*
X137880137Y-78278228D01*
X138308387Y-77874730D01*
X138329951Y-77826757D01*
X138340835Y-77853097D01*
X138764672Y-78277674D01*
X139318724Y-78507737D01*
X139918644Y-78508261D01*
X140473097Y-78279165D01*
X140897674Y-77855328D01*
X141127737Y-77301276D01*
X141128261Y-76701356D01*
X140899165Y-76146903D01*
X140475328Y-75722326D01*
X139921276Y-75492263D01*
X139321356Y-75491739D01*
X138766903Y-75720835D01*
X138342326Y-76144672D01*
X138330217Y-76173834D01*
X138308387Y-76125270D01*
X137880137Y-75721772D01*
X137418061Y-75530381D01*
X137184000Y-75660531D01*
X136976000Y-75660531D01*
X136741939Y-75530381D01*
X136279863Y-75721772D01*
X135851613Y-76125270D01*
X135812384Y-76212541D01*
X135606317Y-75904140D01*
X135117087Y-75577247D01*
X134540000Y-75462457D01*
X133962913Y-75577247D01*
X133473683Y-75904140D01*
X133270000Y-76208973D01*
X133066317Y-75904140D01*
X132577087Y-75577247D01*
X132000000Y-75462457D01*
X131422913Y-75577247D01*
X130933683Y-75904140D01*
X130730000Y-76208973D01*
X130526317Y-75904140D01*
X130037087Y-75577247D01*
X129460000Y-75462457D01*
X128882913Y-75577247D01*
X128393683Y-75904140D01*
X128190000Y-76208973D01*
X127986317Y-75904140D01*
X127497087Y-75577247D01*
X126920000Y-75462457D01*
X126342913Y-75577247D01*
X125853683Y-75904140D01*
X125650000Y-76208973D01*
X125446317Y-75904140D01*
X124957087Y-75577247D01*
X124380000Y-75462457D01*
X123802913Y-75577247D01*
X123313683Y-75904140D01*
X123110000Y-76208973D01*
X122906317Y-75904140D01*
X122417087Y-75577247D01*
X121840000Y-75462457D01*
X121262913Y-75577247D01*
X120773683Y-75904140D01*
X120446790Y-76393370D01*
X120332000Y-76970457D01*
X110890175Y-76970457D01*
X110847016Y-76753484D01*
X110530962Y-76280474D01*
X110057952Y-75964420D01*
X110025677Y-75958000D01*
X115500000Y-75958000D01*
X115866611Y-75885077D01*
X116177408Y-75677408D01*
X117717408Y-74137408D01*
X117925077Y-73826611D01*
X117998000Y-73460000D01*
X117998000Y-72168235D01*
X118106317Y-72095860D01*
X118310000Y-71791027D01*
X118513683Y-72095860D01*
X119002913Y-72422753D01*
X119580000Y-72537543D01*
X120157087Y-72422753D01*
X120646317Y-72095860D01*
X120850000Y-71791027D01*
X121053683Y-72095860D01*
X121542913Y-72422753D01*
X122120000Y-72537543D01*
X122697087Y-72422753D01*
X123186317Y-72095860D01*
X123513210Y-71606630D01*
X123628000Y-71029543D01*
X123628000Y-70970457D01*
X123513210Y-70393370D01*
X123457504Y-70310000D01*
X125679110Y-70310000D01*
X125679110Y-72010000D01*
X125724992Y-72253840D01*
X125869101Y-72477792D01*
X126088986Y-72628033D01*
X126350000Y-72680890D01*
X128050000Y-72680890D01*
X128293840Y-72635008D01*
X128517792Y-72490899D01*
X128668033Y-72271014D01*
X128671702Y-72252895D01*
X128673683Y-72255860D01*
X129162913Y-72582753D01*
X129740000Y-72697543D01*
X130317087Y-72582753D01*
X130806317Y-72255860D01*
X131133210Y-71766630D01*
X131248000Y-71189543D01*
X131248000Y-71130457D01*
X131133210Y-70553370D01*
X130806317Y-70064140D01*
X130317087Y-69737247D01*
X129740000Y-69622457D01*
X129162913Y-69737247D01*
X128673701Y-70064128D01*
X128530899Y-69842208D01*
X128311014Y-69691967D01*
X128050000Y-69639110D01*
X126350000Y-69639110D01*
X126106160Y-69684992D01*
X125882208Y-69829101D01*
X125731967Y-70048986D01*
X125679110Y-70310000D01*
X123457504Y-70310000D01*
X123186317Y-69904140D01*
X122697087Y-69577247D01*
X122120000Y-69462457D01*
X121542913Y-69577247D01*
X121053683Y-69904140D01*
X120850000Y-70208973D01*
X120646317Y-69904140D01*
X120157087Y-69577247D01*
X119580000Y-69462457D01*
X119002913Y-69577247D01*
X118513683Y-69904140D01*
X118310000Y-70208973D01*
X118106317Y-69904140D01*
X117617087Y-69577247D01*
X117040000Y-69462457D01*
X116462913Y-69577247D01*
X115973683Y-69904140D01*
X115965468Y-69916434D01*
X115907826Y-69777273D01*
X115722727Y-69592175D01*
X115480885Y-69492000D01*
X114768500Y-69492000D01*
X114604000Y-69656500D01*
X114604000Y-70896000D01*
X114624000Y-70896000D01*
X114624000Y-71104000D01*
X114604000Y-71104000D01*
X114604000Y-72343500D01*
X114768500Y-72508000D01*
X115480885Y-72508000D01*
X115722727Y-72407825D01*
X115907826Y-72222727D01*
X115965468Y-72083566D01*
X115973683Y-72095860D01*
X116082000Y-72168235D01*
X116082000Y-73063184D01*
X115103184Y-74042000D01*
X105596817Y-74042000D01*
X104654816Y-73100000D01*
X105017408Y-72737408D01*
X105225077Y-72426611D01*
X105273171Y-72184825D01*
X105406317Y-72095860D01*
X105610000Y-71791027D01*
X105813683Y-72095860D01*
X106302913Y-72422753D01*
X106880000Y-72537543D01*
X107457087Y-72422753D01*
X107946317Y-72095860D01*
X108150000Y-71791027D01*
X108353683Y-72095860D01*
X108842913Y-72422753D01*
X109420000Y-72537543D01*
X109997087Y-72422753D01*
X110486317Y-72095860D01*
X110813210Y-71606630D01*
X110880468Y-71268500D01*
X112992000Y-71268500D01*
X112992000Y-71980884D01*
X113092174Y-72222727D01*
X113277273Y-72407825D01*
X113519115Y-72508000D01*
X114231500Y-72508000D01*
X114396000Y-72343500D01*
X114396000Y-71104000D01*
X113156500Y-71104000D01*
X112992000Y-71268500D01*
X110880468Y-71268500D01*
X110928000Y-71029543D01*
X110928000Y-70970457D01*
X110813210Y-70393370D01*
X110563142Y-70019116D01*
X112992000Y-70019116D01*
X112992000Y-70731500D01*
X113156500Y-70896000D01*
X114396000Y-70896000D01*
X114396000Y-69656500D01*
X114231500Y-69492000D01*
X113519115Y-69492000D01*
X113277273Y-69592175D01*
X113092174Y-69777273D01*
X112992000Y-70019116D01*
X110563142Y-70019116D01*
X110486317Y-69904140D01*
X109997087Y-69577247D01*
X109420000Y-69462457D01*
X108842913Y-69577247D01*
X108353683Y-69904140D01*
X108150000Y-70208973D01*
X107946317Y-69904140D01*
X107457087Y-69577247D01*
X106880000Y-69462457D01*
X106302913Y-69577247D01*
X105813683Y-69904140D01*
X105610000Y-70208973D01*
X105406317Y-69904140D01*
X104917087Y-69577247D01*
X104340000Y-69462457D01*
X103762913Y-69577247D01*
X103273683Y-69904140D01*
X103265468Y-69916434D01*
X103207826Y-69777273D01*
X103022727Y-69592175D01*
X102780885Y-69492000D01*
X102068500Y-69492000D01*
X101904000Y-69656500D01*
X101904000Y-70896000D01*
X101924000Y-70896000D01*
X101924000Y-71104000D01*
X101904000Y-71104000D01*
X101904000Y-72343500D01*
X102068500Y-72508000D01*
X102537184Y-72508000D01*
X102403184Y-72642000D01*
X96999233Y-72642000D01*
X97297087Y-72582753D01*
X97786317Y-72255860D01*
X98113210Y-71766630D01*
X98212294Y-71268500D01*
X100292000Y-71268500D01*
X100292000Y-71980884D01*
X100392174Y-72222727D01*
X100577273Y-72407825D01*
X100819115Y-72508000D01*
X101531500Y-72508000D01*
X101696000Y-72343500D01*
X101696000Y-71104000D01*
X100456500Y-71104000D01*
X100292000Y-71268500D01*
X98212294Y-71268500D01*
X98228000Y-71189543D01*
X98228000Y-71130457D01*
X98113210Y-70553370D01*
X97786317Y-70064140D01*
X97718934Y-70019116D01*
X100292000Y-70019116D01*
X100292000Y-70731500D01*
X100456500Y-70896000D01*
X101696000Y-70896000D01*
X101696000Y-69656500D01*
X101531500Y-69492000D01*
X100819115Y-69492000D01*
X100577273Y-69592175D01*
X100392174Y-69777273D01*
X100292000Y-70019116D01*
X97718934Y-70019116D01*
X97297087Y-69737247D01*
X96720000Y-69622457D01*
X96142913Y-69737247D01*
X95653683Y-70064140D01*
X95447616Y-70372541D01*
X95408387Y-70285270D01*
X94980137Y-69881772D01*
X94518061Y-69690381D01*
X94284000Y-69820531D01*
X94284000Y-71056000D01*
X94304000Y-71056000D01*
X94304000Y-71264000D01*
X94284000Y-71264000D01*
X94284000Y-71284000D01*
X94076000Y-71284000D01*
X94076000Y-71264000D01*
X94056000Y-71264000D01*
X94056000Y-71056000D01*
X94076000Y-71056000D01*
X94076000Y-69820531D01*
X93841939Y-69690381D01*
X93379863Y-69881772D01*
X92951613Y-70285270D01*
X92912384Y-70372541D01*
X92706317Y-70064140D01*
X92217087Y-69737247D01*
X91640000Y-69622457D01*
X91062913Y-69737247D01*
X90573683Y-70064140D01*
X90370000Y-70368973D01*
X90166317Y-70064140D01*
X89677087Y-69737247D01*
X89100000Y-69622457D01*
X88522913Y-69737247D01*
X88033683Y-70064140D01*
X87830000Y-70368973D01*
X87626317Y-70064140D01*
X87137087Y-69737247D01*
X86560000Y-69622457D01*
X85982913Y-69737247D01*
X85493683Y-70064140D01*
X85290000Y-70368973D01*
X85086317Y-70064140D01*
X84597087Y-69737247D01*
X84020000Y-69622457D01*
X83442913Y-69737247D01*
X82953701Y-70064128D01*
X82810899Y-69842208D01*
X82591014Y-69691967D01*
X82330000Y-69639110D01*
X80630000Y-69639110D01*
X80386160Y-69684992D01*
X80162208Y-69829101D01*
X80011967Y-70048986D01*
X79959110Y-70310000D01*
X79959110Y-72010000D01*
X80004992Y-72253840D01*
X80149101Y-72477792D01*
X80301004Y-72581583D01*
X80133389Y-72614923D01*
X79822592Y-72822591D01*
X78822592Y-73822592D01*
X78614923Y-74133389D01*
X78542000Y-74500000D01*
X78542000Y-74896203D01*
X78264688Y-75173031D01*
X78042254Y-75708714D01*
X78041747Y-76288742D01*
X78263247Y-76824812D01*
X78673031Y-77235312D01*
X79208714Y-77457746D01*
X79788742Y-77458253D01*
X80324812Y-77236753D01*
X80735312Y-76826969D01*
X80957746Y-76291286D01*
X80958253Y-75711258D01*
X80736753Y-75175188D01*
X80458434Y-74896382D01*
X80896817Y-74458000D01*
X83000000Y-74458000D01*
X83366611Y-74385077D01*
X83677408Y-74177408D01*
X84020000Y-73834816D01*
X84462592Y-74277408D01*
X84773389Y-74485077D01*
X85140000Y-74558000D01*
X85379920Y-74558000D01*
X85264688Y-74673031D01*
X85246431Y-74717000D01*
X84100009Y-74717000D01*
X84100004Y-74716999D01*
X83800363Y-74776602D01*
X83546339Y-74946335D01*
X83546337Y-74946338D01*
X83100758Y-75391917D01*
X83000376Y-75391829D01*
X82629760Y-75544965D01*
X82345957Y-75828272D01*
X82192175Y-76198621D01*
X82191825Y-76599628D01*
X82344961Y-76970244D01*
X82628268Y-77254047D01*
X82998617Y-77407829D01*
X83399624Y-77408179D01*
X83770240Y-77255043D01*
X84054043Y-76971736D01*
X84207825Y-76601387D01*
X84207914Y-76499420D01*
X84424333Y-76283000D01*
X85245971Y-76283000D01*
X85263247Y-76324812D01*
X85673031Y-76735312D01*
X86208714Y-76957746D01*
X86788742Y-76958253D01*
X87324812Y-76736753D01*
X87735312Y-76326969D01*
X87957746Y-75791286D01*
X87958253Y-75211258D01*
X87736753Y-74675188D01*
X87619769Y-74558000D01*
X89416348Y-74558000D01*
X89345957Y-74628268D01*
X89192175Y-74998617D01*
X89191825Y-75399624D01*
X89344961Y-75770240D01*
X89449428Y-75874890D01*
X89395957Y-75928268D01*
X89242175Y-76298617D01*
X89241825Y-76699624D01*
X89394961Y-77070240D01*
X89678268Y-77354043D01*
X89742103Y-77380550D01*
X89741963Y-77542000D01*
X85000000Y-77542000D01*
X84633389Y-77614923D01*
X84322592Y-77822591D01*
X81322592Y-80822592D01*
X81114923Y-81133389D01*
X81042000Y-81500000D01*
X81042000Y-81896203D01*
X80895948Y-82042000D01*
X73321375Y-82042000D01*
X73201383Y-81992175D01*
X72800376Y-81991825D01*
X72429760Y-82144961D01*
X72145957Y-82428268D01*
X71992175Y-82798617D01*
X71991825Y-83199624D01*
X59155192Y-83199624D01*
X59677408Y-82677408D01*
X59885077Y-82366611D01*
X59902981Y-82276602D01*
X59958000Y-82000000D01*
X59958000Y-80196411D01*
X60179116Y-80288000D01*
X60891500Y-80288000D01*
X61056000Y-80123500D01*
X61056000Y-78884000D01*
X61264000Y-78884000D01*
X61264000Y-80123500D01*
X61428500Y-80288000D01*
X62140884Y-80288000D01*
X62382727Y-80187826D01*
X62567825Y-80002727D01*
X62668000Y-79760885D01*
X62668000Y-79048500D01*
X62503500Y-78884000D01*
X61264000Y-78884000D01*
X61056000Y-78884000D01*
X61036000Y-78884000D01*
X61036000Y-78676000D01*
X61056000Y-78676000D01*
X61056000Y-78656000D01*
X61264000Y-78656000D01*
X61264000Y-78676000D01*
X62503500Y-78676000D01*
X62668000Y-78511500D01*
X62668000Y-77799115D01*
X62567825Y-77557273D01*
X62382727Y-77372174D01*
X62243566Y-77314532D01*
X62255860Y-77306317D01*
X62582753Y-76817087D01*
X62697543Y-76240000D01*
X62649804Y-76000000D01*
X67853436Y-76000000D01*
X67964420Y-76557952D01*
X68280474Y-77030962D01*
X68753484Y-77347016D01*
X69311436Y-77458000D01*
X69368564Y-77458000D01*
X69926516Y-77347016D01*
X70399526Y-77030962D01*
X70715580Y-76557952D01*
X70826564Y-76000000D01*
X70715580Y-75442048D01*
X70399526Y-74969038D01*
X69926516Y-74652984D01*
X69368564Y-74542000D01*
X69311436Y-74542000D01*
X68753484Y-74652984D01*
X68280474Y-74969038D01*
X67964420Y-75442048D01*
X67853436Y-76000000D01*
X62649804Y-76000000D01*
X62582753Y-75662913D01*
X62255860Y-75173683D01*
X61947459Y-74967616D01*
X62034730Y-74928387D01*
X62438228Y-74500137D01*
X62629619Y-74038061D01*
X62499469Y-73804000D01*
X61264000Y-73804000D01*
X61264000Y-73824000D01*
X61056000Y-73824000D01*
X61056000Y-73804000D01*
X59820531Y-73804000D01*
X59690381Y-74038061D01*
X59881772Y-74500137D01*
X60285270Y-74928387D01*
X60372541Y-74967616D01*
X60064140Y-75173683D01*
X59991765Y-75282000D01*
X59957919Y-75282000D01*
X59591308Y-75354923D01*
X59280511Y-75562592D01*
X58322592Y-76520511D01*
X58114923Y-76831308D01*
X58042000Y-77197919D01*
X58042000Y-81603184D01*
X54603184Y-85042000D01*
X53879904Y-85042000D01*
X53856811Y-85018867D01*
X53431351Y-84842201D01*
X52970670Y-84841799D01*
X52544902Y-85017723D01*
X52218867Y-85343189D01*
X52042201Y-85768649D01*
X52041799Y-86229330D01*
X51733000Y-86229330D01*
X51733000Y-84072196D01*
X51742000Y-84026950D01*
X51742000Y-84130884D01*
X51842174Y-84372727D01*
X52027273Y-84557825D01*
X52269115Y-84658000D01*
X52931500Y-84658000D01*
X53096000Y-84493500D01*
X53096000Y-83754000D01*
X53304000Y-83754000D01*
X53304000Y-84493500D01*
X53468500Y-84658000D01*
X54130885Y-84658000D01*
X54372727Y-84557825D01*
X54557826Y-84372727D01*
X54658000Y-84130884D01*
X54658000Y-83918500D01*
X54493500Y-83754000D01*
X53304000Y-83754000D01*
X53096000Y-83754000D01*
X53076000Y-83754000D01*
X53076000Y-83546000D01*
X53096000Y-83546000D01*
X53096000Y-83526000D01*
X53304000Y-83526000D01*
X53304000Y-83546000D01*
X54493500Y-83546000D01*
X54658000Y-83381500D01*
X54658000Y-83169116D01*
X54557826Y-82927273D01*
X54372727Y-82742175D01*
X54350577Y-82733000D01*
X55000000Y-82733000D01*
X55070805Y-82718916D01*
X55143001Y-82718916D01*
X55908368Y-82566675D01*
X56172600Y-82457227D01*
X56821446Y-82023682D01*
X56821448Y-82023681D01*
X57023682Y-81821447D01*
X57457226Y-81172600D01*
X57566675Y-80908368D01*
X57718916Y-80143002D01*
X57718916Y-80070805D01*
X57733000Y-80000000D01*
X57733000Y-73361939D01*
X59690381Y-73361939D01*
X59820531Y-73596000D01*
X61056000Y-73596000D01*
X61056000Y-72360083D01*
X61264000Y-72360083D01*
X61264000Y-73596000D01*
X62499469Y-73596000D01*
X62629619Y-73361939D01*
X62438228Y-72899863D01*
X62034730Y-72471613D01*
X61627910Y-72288742D01*
X67541747Y-72288742D01*
X67763247Y-72824812D01*
X68173031Y-73235312D01*
X68708714Y-73457746D01*
X69288742Y-73458253D01*
X69824812Y-73236753D01*
X70235312Y-72826969D01*
X70457746Y-72291286D01*
X70458253Y-71711258D01*
X70236753Y-71175188D01*
X69826969Y-70764688D01*
X69790624Y-70749596D01*
X69858404Y-70505483D01*
X69000000Y-69647078D01*
X68141596Y-70505483D01*
X68209258Y-70749170D01*
X68175188Y-70763247D01*
X67764688Y-71173031D01*
X67542254Y-71708714D01*
X67541747Y-72288742D01*
X61627910Y-72288742D01*
X61498062Y-72230374D01*
X61264000Y-72360083D01*
X61056000Y-72360083D01*
X60821938Y-72230374D01*
X60285270Y-72471613D01*
X59881772Y-72899863D01*
X59690381Y-73361939D01*
X57733000Y-73361939D01*
X57733000Y-73000000D01*
X57718916Y-72929195D01*
X57718916Y-72856998D01*
X57566675Y-72091632D01*
X57457226Y-71827400D01*
X57023682Y-71178553D01*
X56821447Y-70976318D01*
X56172600Y-70542773D01*
X55908368Y-70433325D01*
X55143001Y-70281084D01*
X55070805Y-70281084D01*
X55000000Y-70267000D01*
X53072196Y-70267000D01*
X52520635Y-70157288D01*
X52114249Y-69885749D01*
X51842712Y-69479365D01*
X51798073Y-69254946D01*
X67533772Y-69254946D01*
X67551603Y-69834701D01*
X67739161Y-70287502D01*
X67994517Y-70358404D01*
X68852922Y-69500000D01*
X69147078Y-69500000D01*
X70005483Y-70358404D01*
X70179811Y-70310000D01*
X72339110Y-70310000D01*
X72339110Y-72010000D01*
X72384992Y-72253840D01*
X72529101Y-72477792D01*
X72748986Y-72628033D01*
X73010000Y-72680890D01*
X74710000Y-72680890D01*
X74953840Y-72635008D01*
X75177792Y-72490899D01*
X75328033Y-72271014D01*
X75343152Y-72196354D01*
X75599863Y-72438228D01*
X76061939Y-72629619D01*
X76296000Y-72499469D01*
X76296000Y-71264000D01*
X76504000Y-71264000D01*
X76504000Y-72499469D01*
X76738061Y-72629619D01*
X77200137Y-72438228D01*
X77628387Y-72034730D01*
X77869626Y-71498062D01*
X77739917Y-71264000D01*
X76504000Y-71264000D01*
X76296000Y-71264000D01*
X76276000Y-71264000D01*
X76276000Y-71056000D01*
X76296000Y-71056000D01*
X76296000Y-69820531D01*
X76504000Y-69820531D01*
X76504000Y-71056000D01*
X77739917Y-71056000D01*
X77869626Y-70821938D01*
X77628387Y-70285270D01*
X77200137Y-69881772D01*
X76738061Y-69690381D01*
X76504000Y-69820531D01*
X76296000Y-69820531D01*
X76061939Y-69690381D01*
X75599863Y-69881772D01*
X75345422Y-70121507D01*
X75335008Y-70066160D01*
X75190899Y-69842208D01*
X74971014Y-69691967D01*
X74710000Y-69639110D01*
X73010000Y-69639110D01*
X72766160Y-69684992D01*
X72542208Y-69829101D01*
X72391967Y-70048986D01*
X72339110Y-70310000D01*
X70179811Y-70310000D01*
X70260839Y-70287502D01*
X70466228Y-69745054D01*
X70448397Y-69165299D01*
X70260839Y-68712498D01*
X70005483Y-68641596D01*
X69147078Y-69500000D01*
X68852922Y-69500000D01*
X67994517Y-68641596D01*
X67739161Y-68712498D01*
X67533772Y-69254946D01*
X51798073Y-69254946D01*
X51733000Y-68927804D01*
X51733000Y-68494517D01*
X68141596Y-68494517D01*
X69000000Y-69352922D01*
X69858404Y-68494517D01*
X69787502Y-68239161D01*
X69245054Y-68033772D01*
X68665299Y-68051603D01*
X68212498Y-68239161D01*
X68141596Y-68494517D01*
X51733000Y-68494517D01*
X51733000Y-65476880D01*
X52591582Y-65476880D01*
X52957406Y-66362241D01*
X53634196Y-67040213D01*
X54518918Y-67407582D01*
X55476880Y-67408418D01*
X56362241Y-67042594D01*
X57040213Y-66365804D01*
X57407582Y-65481082D01*
X57408418Y-64523120D01*
X57042594Y-63637759D01*
X56365804Y-62959787D01*
X55481082Y-62592418D01*
X54523120Y-62591582D01*
X53637759Y-62957406D01*
X52959787Y-63634196D01*
X52592418Y-64518918D01*
X52591582Y-65476880D01*
X51733000Y-65476880D01*
X51733000Y-63072196D01*
X51842712Y-62520635D01*
X52114249Y-62114251D01*
X52520635Y-61842712D01*
X53072196Y-61733000D01*
X67927804Y-61733000D01*
X68479365Y-61842712D01*
X68479365Y-61842712D01*
G37*
X68479365Y-61842712D02*
X68885749Y-62114249D01*
X69157288Y-62520635D01*
X69267000Y-63072196D01*
X69267000Y-65000000D01*
X69281084Y-65070805D01*
X69281084Y-65143001D01*
X69433325Y-65908368D01*
X69542773Y-66172600D01*
X69976318Y-66821446D01*
X69976319Y-66821448D01*
X70178553Y-67023682D01*
X70827400Y-67457226D01*
X71091632Y-67566675D01*
X71856998Y-67718916D01*
X71929195Y-67718916D01*
X72000000Y-67733000D01*
X131000000Y-67733000D01*
X131070805Y-67718916D01*
X131143001Y-67718916D01*
X131908368Y-67566675D01*
X132172600Y-67457227D01*
X132821446Y-67023682D01*
X132821448Y-67023681D01*
X133023682Y-66821447D01*
X133457226Y-66172600D01*
X133566675Y-65908368D01*
X133652503Y-65476880D01*
X135591582Y-65476880D01*
X135957406Y-66362241D01*
X136634196Y-67040213D01*
X137518918Y-67407582D01*
X138476880Y-67408418D01*
X139362241Y-67042594D01*
X140040213Y-66365804D01*
X140407582Y-65481082D01*
X140408418Y-64523120D01*
X140042594Y-63637759D01*
X139365804Y-62959787D01*
X138481082Y-62592418D01*
X137523120Y-62591582D01*
X136637759Y-62957406D01*
X135959787Y-63634196D01*
X135592418Y-64518918D01*
X135591582Y-65476880D01*
X133652503Y-65476880D01*
X133718916Y-65143002D01*
X133718916Y-65070805D01*
X133733000Y-65000000D01*
X133733000Y-63072196D01*
X133842712Y-62520635D01*
X134114249Y-62114251D01*
X134520635Y-61842712D01*
X135072196Y-61733000D01*
X139927804Y-61733000D01*
X140479365Y-61842712D01*
X140885749Y-62114249D01*
X141157288Y-62520635D01*
X141267000Y-63072196D01*
X141267000Y-113927804D01*
X141157288Y-114479365D01*
X140885749Y-114885751D01*
X140479365Y-115157288D01*
X139927804Y-115267000D01*
X53072196Y-115267000D01*
X52520635Y-115157288D01*
X52114249Y-114885749D01*
X51842712Y-114479365D01*
X51733000Y-113927804D01*
X51733000Y-112476880D01*
X52591582Y-112476880D01*
X52957406Y-113362241D01*
X53634196Y-114040213D01*
X54518918Y-114407582D01*
X55476880Y-114408418D01*
X56362241Y-114042594D01*
X56636813Y-113768500D01*
X61142000Y-113768500D01*
X61142000Y-114430885D01*
X61242175Y-114672727D01*
X61427273Y-114857826D01*
X61669116Y-114958000D01*
X61881500Y-114958000D01*
X62046000Y-114793500D01*
X62046000Y-113604000D01*
X62254000Y-113604000D01*
X62254000Y-114793500D01*
X62418500Y-114958000D01*
X62630884Y-114958000D01*
X62872727Y-114857826D01*
X63057825Y-114672727D01*
X63158000Y-114430885D01*
X63158000Y-114288319D01*
X63858760Y-114288319D01*
X63892845Y-114512613D01*
X64326572Y-114667880D01*
X64786702Y-114645349D01*
X65107155Y-114512613D01*
X65141240Y-114288319D01*
X64500000Y-113647078D01*
X63858760Y-114288319D01*
X63158000Y-114288319D01*
X63158000Y-113768500D01*
X62993500Y-113604000D01*
X62254000Y-113604000D01*
X62046000Y-113604000D01*
X61306500Y-113604000D01*
X61142000Y-113768500D01*
X56636813Y-113768500D01*
X57040213Y-113365804D01*
X57371027Y-112569115D01*
X61142000Y-112569115D01*
X61142000Y-113231500D01*
X61306500Y-113396000D01*
X62046000Y-113396000D01*
X62046000Y-112206500D01*
X62254000Y-112206500D01*
X62254000Y-113396000D01*
X62993500Y-113396000D01*
X63062928Y-113326572D01*
X63332120Y-113326572D01*
X63354651Y-113786702D01*
X63487387Y-114107155D01*
X63711681Y-114141240D01*
X64352922Y-113500000D01*
X64647078Y-113500000D01*
X65288319Y-114141240D01*
X65498782Y-114109257D01*
X65517723Y-114155098D01*
X65843189Y-114481133D01*
X66268649Y-114657799D01*
X66729330Y-114658201D01*
X67155098Y-114482277D01*
X67481133Y-114156811D01*
X67499828Y-114111789D01*
X67517723Y-114155098D01*
X67843189Y-114481133D01*
X68268649Y-114657799D01*
X68729330Y-114658201D01*
X69155098Y-114482277D01*
X69481133Y-114156811D01*
X69642373Y-113768500D01*
X69842000Y-113768500D01*
X69842000Y-114430885D01*
X69942175Y-114672727D01*
X70127273Y-114857826D01*
X70369116Y-114958000D01*
X70581500Y-114958000D01*
X70746000Y-114793500D01*
X70746000Y-113604000D01*
X70006500Y-113604000D01*
X69842000Y-113768500D01*
X69642373Y-113768500D01*
X69657799Y-113731351D01*
X69658201Y-113270670D01*
X69482277Y-112844902D01*
X69206972Y-112569115D01*
X69842000Y-112569115D01*
X69842000Y-113231500D01*
X70006500Y-113396000D01*
X70746000Y-113396000D01*
X70746000Y-112206500D01*
X70954000Y-112206500D01*
X70954000Y-113396000D01*
X70974000Y-113396000D01*
X70974000Y-113604000D01*
X70954000Y-113604000D01*
X70954000Y-114793500D01*
X71118500Y-114958000D01*
X71330884Y-114958000D01*
X71572727Y-114857826D01*
X71757825Y-114672727D01*
X71767212Y-114650063D01*
X72497016Y-114650063D01*
X72592379Y-114926168D01*
X73207239Y-115164939D01*
X73866668Y-115150238D01*
X74407621Y-114926168D01*
X74502984Y-114650063D01*
X78997016Y-114650063D01*
X79092379Y-114926168D01*
X79707239Y-115164939D01*
X80366668Y-115150238D01*
X80907621Y-114926168D01*
X81002984Y-114650063D01*
X82497016Y-114650063D01*
X82592379Y-114926168D01*
X83207239Y-115164939D01*
X83866668Y-115150238D01*
X84407621Y-114926168D01*
X84502984Y-114650063D01*
X88997016Y-114650063D01*
X89092379Y-114926168D01*
X89707239Y-115164939D01*
X90366668Y-115150238D01*
X90907621Y-114926168D01*
X91002984Y-114650063D01*
X92497016Y-114650063D01*
X92592379Y-114926168D01*
X93207239Y-115164939D01*
X93866668Y-115150238D01*
X94407621Y-114926168D01*
X94502984Y-114650063D01*
X98997016Y-114650063D01*
X99092379Y-114926168D01*
X99707239Y-115164939D01*
X100366668Y-115150238D01*
X100907621Y-114926168D01*
X101002984Y-114650063D01*
X102497016Y-114650063D01*
X102592379Y-114926168D01*
X103207239Y-115164939D01*
X103866668Y-115150238D01*
X104407621Y-114926168D01*
X104502984Y-114650063D01*
X108997016Y-114650063D01*
X109092379Y-114926168D01*
X109707239Y-115164939D01*
X110366668Y-115150238D01*
X110907621Y-114926168D01*
X111002984Y-114650063D01*
X110000000Y-113647078D01*
X108997016Y-114650063D01*
X104502984Y-114650063D01*
X103500000Y-113647078D01*
X102497016Y-114650063D01*
X101002984Y-114650063D01*
X100000000Y-113647078D01*
X98997016Y-114650063D01*
X94502984Y-114650063D01*
X93500000Y-113647078D01*
X92497016Y-114650063D01*
X91002984Y-114650063D01*
X90000000Y-113647078D01*
X88997016Y-114650063D01*
X84502984Y-114650063D01*
X83500000Y-113647078D01*
X82497016Y-114650063D01*
X81002984Y-114650063D01*
X80000000Y-113647078D01*
X78997016Y-114650063D01*
X74502984Y-114650063D01*
X73500000Y-113647078D01*
X72497016Y-114650063D01*
X71767212Y-114650063D01*
X71858000Y-114430885D01*
X71858000Y-113886556D01*
X72073832Y-114407621D01*
X72349937Y-114502984D01*
X73352922Y-113500000D01*
X73647078Y-113500000D01*
X74650063Y-114502984D01*
X74926168Y-114407621D01*
X75164939Y-113792761D01*
X75151886Y-113207239D01*
X78335061Y-113207239D01*
X78349762Y-113866668D01*
X78573832Y-114407621D01*
X78849937Y-114502984D01*
X79852922Y-113500000D01*
X80147078Y-113500000D01*
X81150063Y-114502984D01*
X81426168Y-114407621D01*
X81664939Y-113792761D01*
X81651886Y-113207239D01*
X81835061Y-113207239D01*
X81849762Y-113866668D01*
X82073832Y-114407621D01*
X82349937Y-114502984D01*
X83352922Y-113500000D01*
X83647078Y-113500000D01*
X84650063Y-114502984D01*
X84926168Y-114407621D01*
X85164939Y-113792761D01*
X85151886Y-113207239D01*
X88335061Y-113207239D01*
X88349762Y-113866668D01*
X88573832Y-114407621D01*
X88849937Y-114502984D01*
X89852922Y-113500000D01*
X90147078Y-113500000D01*
X91150063Y-114502984D01*
X91426168Y-114407621D01*
X91664939Y-113792761D01*
X91651886Y-113207239D01*
X91835061Y-113207239D01*
X91849762Y-113866668D01*
X92073832Y-114407621D01*
X92349937Y-114502984D01*
X93352922Y-113500000D01*
X93647078Y-113500000D01*
X94650063Y-114502984D01*
X94926168Y-114407621D01*
X95164939Y-113792761D01*
X95151886Y-113207239D01*
X98335061Y-113207239D01*
X98349762Y-113866668D01*
X98573832Y-114407621D01*
X98849937Y-114502984D01*
X99852922Y-113500000D01*
X100147078Y-113500000D01*
X101150063Y-114502984D01*
X101426168Y-114407621D01*
X101664939Y-113792761D01*
X101651886Y-113207239D01*
X101835061Y-113207239D01*
X101849762Y-113866668D01*
X102073832Y-114407621D01*
X102349937Y-114502984D01*
X103352922Y-113500000D01*
X103647078Y-113500000D01*
X104650063Y-114502984D01*
X104926168Y-114407621D01*
X105164939Y-113792761D01*
X105151886Y-113207239D01*
X108335061Y-113207239D01*
X108349762Y-113866668D01*
X108573832Y-114407621D01*
X108849937Y-114502984D01*
X109852922Y-113500000D01*
X110147078Y-113500000D01*
X111150063Y-114502984D01*
X111426168Y-114407621D01*
X111664939Y-113792761D01*
X111650238Y-113133332D01*
X111595011Y-113000000D01*
X112513436Y-113000000D01*
X112624420Y-113557952D01*
X112940474Y-114030962D01*
X113413484Y-114347016D01*
X113971436Y-114458000D01*
X114028564Y-114458000D01*
X114586516Y-114347016D01*
X115059526Y-114030962D01*
X115375580Y-113557952D01*
X115486564Y-113000000D01*
X115375580Y-112442048D01*
X115059526Y-111969038D01*
X114586516Y-111652984D01*
X114028564Y-111542000D01*
X113971436Y-111542000D01*
X113413484Y-111652984D01*
X112940474Y-111969038D01*
X112624420Y-112442048D01*
X112513436Y-113000000D01*
X111595011Y-113000000D01*
X111426168Y-112592379D01*
X111150063Y-112497016D01*
X110147078Y-113500000D01*
X109852922Y-113500000D01*
X108849937Y-112497016D01*
X108573832Y-112592379D01*
X108335061Y-113207239D01*
X105151886Y-113207239D01*
X105150238Y-113133332D01*
X104926168Y-112592379D01*
X104650063Y-112497016D01*
X103647078Y-113500000D01*
X103352922Y-113500000D01*
X102349937Y-112497016D01*
X102073832Y-112592379D01*
X101835061Y-113207239D01*
X101651886Y-113207239D01*
X101650238Y-113133332D01*
X101426168Y-112592379D01*
X101150063Y-112497016D01*
X100147078Y-113500000D01*
X99852922Y-113500000D01*
X98849937Y-112497016D01*
X98573832Y-112592379D01*
X98335061Y-113207239D01*
X95151886Y-113207239D01*
X95150238Y-113133332D01*
X94926168Y-112592379D01*
X94650063Y-112497016D01*
X93647078Y-113500000D01*
X93352922Y-113500000D01*
X92349937Y-112497016D01*
X92073832Y-112592379D01*
X91835061Y-113207239D01*
X91651886Y-113207239D01*
X91650238Y-113133332D01*
X91426168Y-112592379D01*
X91150063Y-112497016D01*
X90147078Y-113500000D01*
X89852922Y-113500000D01*
X88849937Y-112497016D01*
X88573832Y-112592379D01*
X88335061Y-113207239D01*
X85151886Y-113207239D01*
X85150238Y-113133332D01*
X84926168Y-112592379D01*
X84650063Y-112497016D01*
X83647078Y-113500000D01*
X83352922Y-113500000D01*
X82349937Y-112497016D01*
X82073832Y-112592379D01*
X81835061Y-113207239D01*
X81651886Y-113207239D01*
X81650238Y-113133332D01*
X81426168Y-112592379D01*
X81150063Y-112497016D01*
X80147078Y-113500000D01*
X79852922Y-113500000D01*
X78849937Y-112497016D01*
X78573832Y-112592379D01*
X78335061Y-113207239D01*
X75151886Y-113207239D01*
X75150238Y-113133332D01*
X74926168Y-112592379D01*
X74650063Y-112497016D01*
X73647078Y-113500000D01*
X73352922Y-113500000D01*
X72349937Y-112497016D01*
X72073832Y-112592379D01*
X71858000Y-113148169D01*
X71858000Y-112569115D01*
X71767213Y-112349937D01*
X72497016Y-112349937D01*
X73500000Y-113352922D01*
X74502984Y-112349937D01*
X78997016Y-112349937D01*
X80000000Y-113352922D01*
X81002984Y-112349937D01*
X82497016Y-112349937D01*
X83500000Y-113352922D01*
X84502984Y-112349937D01*
X88997016Y-112349937D01*
X90000000Y-113352922D01*
X91002984Y-112349937D01*
X92497016Y-112349937D01*
X93500000Y-113352922D01*
X94502984Y-112349937D01*
X98997016Y-112349937D01*
X100000000Y-113352922D01*
X101002984Y-112349937D01*
X102497016Y-112349937D01*
X103500000Y-113352922D01*
X104502984Y-112349937D01*
X108997016Y-112349937D01*
X110000000Y-113352922D01*
X111002984Y-112349937D01*
X110907621Y-112073832D01*
X110292761Y-111835061D01*
X109633332Y-111849762D01*
X109092379Y-112073832D01*
X108997016Y-112349937D01*
X104502984Y-112349937D01*
X104407621Y-112073832D01*
X103792761Y-111835061D01*
X103133332Y-111849762D01*
X102592379Y-112073832D01*
X102497016Y-112349937D01*
X101002984Y-112349937D01*
X100907621Y-112073832D01*
X100292761Y-111835061D01*
X99633332Y-111849762D01*
X99092379Y-112073832D01*
X98997016Y-112349937D01*
X94502984Y-112349937D01*
X94407621Y-112073832D01*
X93792761Y-111835061D01*
X93133332Y-111849762D01*
X92592379Y-112073832D01*
X92497016Y-112349937D01*
X91002984Y-112349937D01*
X90907621Y-112073832D01*
X90292761Y-111835061D01*
X89633332Y-111849762D01*
X89092379Y-112073832D01*
X88997016Y-112349937D01*
X84502984Y-112349937D01*
X84407621Y-112073832D01*
X83792761Y-111835061D01*
X83133332Y-111849762D01*
X82592379Y-112073832D01*
X82497016Y-112349937D01*
X81002984Y-112349937D01*
X80907621Y-112073832D01*
X80292761Y-111835061D01*
X79633332Y-111849762D01*
X79092379Y-112073832D01*
X78997016Y-112349937D01*
X74502984Y-112349937D01*
X74407621Y-112073832D01*
X73792761Y-111835061D01*
X73133332Y-111849762D01*
X72592379Y-112073832D01*
X72497016Y-112349937D01*
X71767213Y-112349937D01*
X71757825Y-112327273D01*
X71572727Y-112142174D01*
X71330884Y-112042000D01*
X71118500Y-112042000D01*
X70954000Y-112206500D01*
X70746000Y-112206500D01*
X70581500Y-112042000D01*
X70369116Y-112042000D01*
X70127273Y-112142174D01*
X69942175Y-112327273D01*
X69842000Y-112569115D01*
X69206972Y-112569115D01*
X69156811Y-112518867D01*
X68731351Y-112342201D01*
X68270670Y-112341799D01*
X67844902Y-112517723D01*
X67518867Y-112843189D01*
X67500172Y-112888211D01*
X67482277Y-112844902D01*
X67156811Y-112518867D01*
X66731351Y-112342201D01*
X66270670Y-112341799D01*
X65844902Y-112517723D01*
X65518867Y-112843189D01*
X65499101Y-112890792D01*
X65288319Y-112858760D01*
X64647078Y-113500000D01*
X64352922Y-113500000D01*
X63711681Y-112858760D01*
X63487387Y-112892845D01*
X63332120Y-113326572D01*
X63062928Y-113326572D01*
X63158000Y-113231500D01*
X63158000Y-112711681D01*
X63858760Y-112711681D01*
X64500000Y-113352922D01*
X65141240Y-112711681D01*
X65107155Y-112487387D01*
X64673428Y-112332120D01*
X64213298Y-112354651D01*
X63892845Y-112487387D01*
X63858760Y-112711681D01*
X63158000Y-112711681D01*
X63158000Y-112569115D01*
X63057825Y-112327273D01*
X62872727Y-112142174D01*
X62630884Y-112042000D01*
X62418500Y-112042000D01*
X62254000Y-112206500D01*
X62046000Y-112206500D01*
X61881500Y-112042000D01*
X61669116Y-112042000D01*
X61427273Y-112142174D01*
X61242175Y-112327273D01*
X61142000Y-112569115D01*
X57371027Y-112569115D01*
X57407582Y-112481082D01*
X57408418Y-111523120D01*
X57042594Y-110637759D01*
X56365804Y-109959787D01*
X55481082Y-109592418D01*
X54523120Y-109591582D01*
X53637759Y-109957406D01*
X52959787Y-110634196D01*
X52592418Y-111518918D01*
X52591582Y-112476880D01*
X51733000Y-112476880D01*
X51733000Y-108625000D01*
X58353436Y-108625000D01*
X58464420Y-109182952D01*
X58780474Y-109655962D01*
X59253484Y-109972016D01*
X59811436Y-110083000D01*
X59868564Y-110083000D01*
X60426516Y-109972016D01*
X60899526Y-109655962D01*
X61215580Y-109182952D01*
X61326564Y-108625000D01*
X61215580Y-108067048D01*
X60899526Y-107594038D01*
X60426516Y-107277984D01*
X59868564Y-107167000D01*
X59811436Y-107167000D01*
X59253484Y-107277984D01*
X58780474Y-107594038D01*
X58464420Y-108067048D01*
X58353436Y-108625000D01*
X51733000Y-108625000D01*
X51733000Y-103968500D01*
X59592000Y-103968500D01*
X59592000Y-105580885D01*
X59692175Y-105822727D01*
X59877273Y-106007826D01*
X60119116Y-106108000D01*
X61731500Y-106108000D01*
X61896000Y-105943500D01*
X61896000Y-103804000D01*
X62104000Y-103804000D01*
X62104000Y-105943500D01*
X62268500Y-106108000D01*
X63880884Y-106108000D01*
X64122727Y-106007826D01*
X64307825Y-105822727D01*
X64408000Y-105580885D01*
X64408000Y-103968500D01*
X64243500Y-103804000D01*
X62104000Y-103804000D01*
X61896000Y-103804000D01*
X59756500Y-103804000D01*
X59592000Y-103968500D01*
X51733000Y-103968500D01*
X51733000Y-99268500D01*
X56592000Y-99268500D01*
X56592000Y-100880885D01*
X56692175Y-101122727D01*
X56877273Y-101307826D01*
X57119116Y-101408000D01*
X58731500Y-101408000D01*
X58896000Y-101243500D01*
X58896000Y-99104000D01*
X59104000Y-99104000D01*
X59104000Y-101243500D01*
X59268500Y-101408000D01*
X59861447Y-101408000D01*
X59692175Y-101577273D01*
X59592000Y-101819115D01*
X59592000Y-103431500D01*
X59756500Y-103596000D01*
X61896000Y-103596000D01*
X61896000Y-101456500D01*
X61731500Y-101292000D01*
X61138553Y-101292000D01*
X61307825Y-101122727D01*
X61408000Y-100880885D01*
X61408000Y-99268500D01*
X61243500Y-99104000D01*
X59104000Y-99104000D01*
X58896000Y-99104000D01*
X56756500Y-99104000D01*
X56592000Y-99268500D01*
X51733000Y-99268500D01*
X51733000Y-97119115D01*
X56592000Y-97119115D01*
X56592000Y-98731500D01*
X56756500Y-98896000D01*
X58896000Y-98896000D01*
X58896000Y-96756500D01*
X59104000Y-96756500D01*
X59104000Y-98896000D01*
X61243500Y-98896000D01*
X61408000Y-98731500D01*
X61408000Y-97119115D01*
X61307825Y-96877273D01*
X61122727Y-96692174D01*
X60880884Y-96592000D01*
X59268500Y-96592000D01*
X59104000Y-96756500D01*
X58896000Y-96756500D01*
X58731500Y-96592000D01*
X57119116Y-96592000D01*
X56877273Y-96692174D01*
X56692175Y-96877273D01*
X56592000Y-97119115D01*
X51733000Y-97119115D01*
X51733000Y-92618500D01*
X51742000Y-92618500D01*
X51742000Y-92830884D01*
X51842174Y-93072727D01*
X52027273Y-93257825D01*
X52269115Y-93358000D01*
X52931500Y-93358000D01*
X53096000Y-93193500D01*
X53096000Y-92454000D01*
X53304000Y-92454000D01*
X53304000Y-93193500D01*
X53468500Y-93358000D01*
X54130885Y-93358000D01*
X54372727Y-93257825D01*
X54557826Y-93072727D01*
X54658000Y-92830884D01*
X54658000Y-92618500D01*
X54493500Y-92454000D01*
X53304000Y-92454000D01*
X53096000Y-92454000D01*
X51906500Y-92454000D01*
X51742000Y-92618500D01*
X51733000Y-92618500D01*
X51733000Y-91869116D01*
X51742000Y-91869116D01*
X51742000Y-92081500D01*
X51906500Y-92246000D01*
X53096000Y-92246000D01*
X53096000Y-91506500D01*
X53304000Y-91506500D01*
X53304000Y-92246000D01*
X54493500Y-92246000D01*
X54658000Y-92081500D01*
X54658000Y-91869116D01*
X54557826Y-91627273D01*
X54372727Y-91442175D01*
X54130885Y-91342000D01*
X53468500Y-91342000D01*
X53304000Y-91506500D01*
X53096000Y-91506500D01*
X52931500Y-91342000D01*
X52269115Y-91342000D01*
X52027273Y-91442175D01*
X51842174Y-91627273D01*
X51742000Y-91869116D01*
X51733000Y-91869116D01*
X51733000Y-86229330D01*
X52041799Y-86229330D01*
X52217723Y-86655098D01*
X52543189Y-86981133D01*
X52588211Y-86999828D01*
X52544902Y-87017723D01*
X52218867Y-87343189D01*
X52042201Y-87768649D01*
X52041799Y-88229330D01*
X52217723Y-88655098D01*
X52543189Y-88981133D01*
X52588211Y-88999828D01*
X52544902Y-89017723D01*
X52218867Y-89343189D01*
X52042201Y-89768649D01*
X52041799Y-90229330D01*
X52217723Y-90655098D01*
X52543189Y-90981133D01*
X52968649Y-91157799D01*
X53429330Y-91158201D01*
X53855098Y-90982277D01*
X53879417Y-90958000D01*
X54603184Y-90958000D01*
X54792000Y-91146816D01*
X54792000Y-93500000D01*
X54864923Y-93866611D01*
X55072592Y-94177408D01*
X56322592Y-95427408D01*
X56633389Y-95635077D01*
X57000000Y-95708000D01*
X62703184Y-95708000D01*
X63574294Y-96579110D01*
X63250000Y-96579110D01*
X63006160Y-96624992D01*
X62782208Y-96769101D01*
X62631967Y-96988986D01*
X62579110Y-97250000D01*
X62579110Y-100750000D01*
X62624992Y-100993840D01*
X62769101Y-101217792D01*
X62877708Y-101292000D01*
X62268500Y-101292000D01*
X62104000Y-101456500D01*
X62104000Y-103596000D01*
X64243500Y-103596000D01*
X64408000Y-103431500D01*
X64408000Y-103199624D01*
X67991825Y-103199624D01*
X68042000Y-103321056D01*
X68042000Y-107625000D01*
X68114923Y-107991611D01*
X68322592Y-108302408D01*
X68542090Y-108521906D01*
X68541747Y-108913742D01*
X68763247Y-109449812D01*
X69173031Y-109860312D01*
X69708714Y-110082746D01*
X70288742Y-110083253D01*
X70824812Y-109861753D01*
X71235312Y-109451969D01*
X71286642Y-109328350D01*
X71841713Y-109328350D01*
X72093597Y-109937955D01*
X72559592Y-110404764D01*
X73168757Y-110657711D01*
X73828350Y-110658287D01*
X74437955Y-110406403D01*
X74904764Y-109940408D01*
X75157711Y-109331243D01*
X75157713Y-109328350D01*
X78341713Y-109328350D01*
X78593597Y-109937955D01*
X79059592Y-110404764D01*
X79668757Y-110657711D01*
X80328350Y-110658287D01*
X80937955Y-110406403D01*
X81404764Y-109940408D01*
X81657711Y-109331243D01*
X81657713Y-109328350D01*
X81841713Y-109328350D01*
X82093597Y-109937955D01*
X82559592Y-110404764D01*
X83168757Y-110657711D01*
X83828350Y-110658287D01*
X84437955Y-110406403D01*
X84904764Y-109940408D01*
X85157711Y-109331243D01*
X85157713Y-109328350D01*
X88341713Y-109328350D01*
X88593597Y-109937955D01*
X89059592Y-110404764D01*
X89668757Y-110657711D01*
X90328350Y-110658287D01*
X90937955Y-110406403D01*
X91404764Y-109940408D01*
X91657711Y-109331243D01*
X91657713Y-109328350D01*
X91841713Y-109328350D01*
X92093597Y-109937955D01*
X92559592Y-110404764D01*
X93168757Y-110657711D01*
X93828350Y-110658287D01*
X94437955Y-110406403D01*
X94904764Y-109940408D01*
X95157711Y-109331243D01*
X95157713Y-109328350D01*
X98341713Y-109328350D01*
X98593597Y-109937955D01*
X99059592Y-110404764D01*
X99668757Y-110657711D01*
X100328350Y-110658287D01*
X100937955Y-110406403D01*
X101404764Y-109940408D01*
X101657711Y-109331243D01*
X101657713Y-109328350D01*
X101841713Y-109328350D01*
X102093597Y-109937955D01*
X102559592Y-110404764D01*
X103168757Y-110657711D01*
X103828350Y-110658287D01*
X104437955Y-110406403D01*
X104904764Y-109940408D01*
X105157711Y-109331243D01*
X105157713Y-109328350D01*
X108341713Y-109328350D01*
X108593597Y-109937955D01*
X109059592Y-110404764D01*
X109668757Y-110657711D01*
X110328350Y-110658287D01*
X110937955Y-110406403D01*
X111404764Y-109940408D01*
X111657711Y-109331243D01*
X111657748Y-109288742D01*
X112541747Y-109288742D01*
X112763247Y-109824812D01*
X113173031Y-110235312D01*
X113708714Y-110457746D01*
X114288742Y-110458253D01*
X114824812Y-110236753D01*
X115056486Y-110005483D01*
X115641596Y-110005483D01*
X115712498Y-110260839D01*
X116254946Y-110466228D01*
X116834701Y-110448397D01*
X117287502Y-110260839D01*
X117358404Y-110005483D01*
X116500000Y-109147078D01*
X115641596Y-110005483D01*
X115056486Y-110005483D01*
X115235312Y-109826969D01*
X115250404Y-109790624D01*
X115494517Y-109858404D01*
X116352922Y-109000000D01*
X116647078Y-109000000D01*
X117505483Y-109858404D01*
X117760839Y-109787502D01*
X117966228Y-109245054D01*
X117948397Y-108665299D01*
X117760839Y-108212498D01*
X117505483Y-108141596D01*
X116647078Y-109000000D01*
X116352922Y-109000000D01*
X115494517Y-108141596D01*
X115250830Y-108209258D01*
X115236753Y-108175188D01*
X115056398Y-107994517D01*
X115641596Y-107994517D01*
X116500000Y-108852922D01*
X117358404Y-107994517D01*
X117287502Y-107739161D01*
X116745054Y-107533772D01*
X116165299Y-107551603D01*
X115712498Y-107739161D01*
X115641596Y-107994517D01*
X115056398Y-107994517D01*
X114826969Y-107764688D01*
X114291286Y-107542254D01*
X113711258Y-107541747D01*
X113175188Y-107763247D01*
X112764688Y-108173031D01*
X112542254Y-108708714D01*
X112541747Y-109288742D01*
X111657748Y-109288742D01*
X111658287Y-108671650D01*
X111406403Y-108062045D01*
X110940408Y-107595236D01*
X110331243Y-107342289D01*
X109671650Y-107341713D01*
X109062045Y-107593597D01*
X108595236Y-108059592D01*
X108342289Y-108668757D01*
X108341713Y-109328350D01*
X105157713Y-109328350D01*
X105158287Y-108671650D01*
X104906403Y-108062045D01*
X104440408Y-107595236D01*
X103831243Y-107342289D01*
X103171650Y-107341713D01*
X102562045Y-107593597D01*
X102095236Y-108059592D01*
X101842289Y-108668757D01*
X101841713Y-109328350D01*
X101657713Y-109328350D01*
X101658287Y-108671650D01*
X101406403Y-108062045D01*
X100940408Y-107595236D01*
X100331243Y-107342289D01*
X99671650Y-107341713D01*
X99062045Y-107593597D01*
X98595236Y-108059592D01*
X98342289Y-108668757D01*
X98341713Y-109328350D01*
X95157713Y-109328350D01*
X95158287Y-108671650D01*
X94906403Y-108062045D01*
X94440408Y-107595236D01*
X93831243Y-107342289D01*
X93171650Y-107341713D01*
X92562045Y-107593597D01*
X92095236Y-108059592D01*
X91842289Y-108668757D01*
X91841713Y-109328350D01*
X91657713Y-109328350D01*
X91658287Y-108671650D01*
X91406403Y-108062045D01*
X90940408Y-107595236D01*
X90331243Y-107342289D01*
X89671650Y-107341713D01*
X89062045Y-107593597D01*
X88595236Y-108059592D01*
X88342289Y-108668757D01*
X88341713Y-109328350D01*
X85157713Y-109328350D01*
X85158287Y-108671650D01*
X84906403Y-108062045D01*
X84440408Y-107595236D01*
X83831243Y-107342289D01*
X83171650Y-107341713D01*
X82562045Y-107593597D01*
X82095236Y-108059592D01*
X81842289Y-108668757D01*
X81841713Y-109328350D01*
X81657713Y-109328350D01*
X81658287Y-108671650D01*
X81406403Y-108062045D01*
X80940408Y-107595236D01*
X80331243Y-107342289D01*
X79671650Y-107341713D01*
X79062045Y-107593597D01*
X78595236Y-108059592D01*
X78342289Y-108668757D01*
X78341713Y-109328350D01*
X75157713Y-109328350D01*
X75158287Y-108671650D01*
X74906403Y-108062045D01*
X74440408Y-107595236D01*
X73831243Y-107342289D01*
X73171650Y-107341713D01*
X72562045Y-107593597D01*
X72095236Y-108059592D01*
X71842289Y-108668757D01*
X71841713Y-109328350D01*
X71286642Y-109328350D01*
X71457746Y-108916286D01*
X71458253Y-108336258D01*
X71236753Y-107800188D01*
X70826969Y-107389688D01*
X70291286Y-107167254D01*
X69958000Y-107166963D01*
X69958000Y-105288742D01*
X70041747Y-105288742D01*
X70263247Y-105824812D01*
X70673031Y-106235312D01*
X71208714Y-106457746D01*
X71788742Y-106458253D01*
X72324812Y-106236753D01*
X72556486Y-106005483D01*
X73141596Y-106005483D01*
X73212498Y-106260839D01*
X73754946Y-106466228D01*
X74334701Y-106448397D01*
X74787502Y-106260839D01*
X74858404Y-106005483D01*
X74000000Y-105147078D01*
X73141596Y-106005483D01*
X72556486Y-106005483D01*
X72735312Y-105826969D01*
X72750404Y-105790624D01*
X72994517Y-105858404D01*
X73852922Y-105000000D01*
X74147078Y-105000000D01*
X75005483Y-105858404D01*
X75260839Y-105787502D01*
X75466228Y-105245054D01*
X75458692Y-105000000D01*
X75513436Y-105000000D01*
X75624420Y-105557952D01*
X75940474Y-106030962D01*
X76413484Y-106347016D01*
X76971436Y-106458000D01*
X77028564Y-106458000D01*
X77586516Y-106347016D01*
X78059526Y-106030962D01*
X78375580Y-105557952D01*
X78486564Y-105000000D01*
X78375580Y-104442048D01*
X78059526Y-103969038D01*
X77586516Y-103652984D01*
X77028564Y-103542000D01*
X76971436Y-103542000D01*
X76413484Y-103652984D01*
X75940474Y-103969038D01*
X75624420Y-104442048D01*
X75513436Y-105000000D01*
X75458692Y-105000000D01*
X75448397Y-104665299D01*
X75260839Y-104212498D01*
X75005483Y-104141596D01*
X74147078Y-105000000D01*
X73852922Y-105000000D01*
X72994517Y-104141596D01*
X72750830Y-104209258D01*
X72736753Y-104175188D01*
X72556398Y-103994517D01*
X73141596Y-103994517D01*
X74000000Y-104852922D01*
X74858404Y-103994517D01*
X74787502Y-103739161D01*
X74245054Y-103533772D01*
X73665299Y-103551603D01*
X73212498Y-103739161D01*
X73141596Y-103994517D01*
X72556398Y-103994517D01*
X72326969Y-103764688D01*
X71791286Y-103542254D01*
X71211258Y-103541747D01*
X70675188Y-103763247D01*
X70264688Y-104173031D01*
X70042254Y-104708714D01*
X70041747Y-105288742D01*
X69958000Y-105288742D01*
X69958000Y-103321375D01*
X70007825Y-103201383D01*
X70008175Y-102800376D01*
X69855039Y-102429760D01*
X69571732Y-102145957D01*
X69201383Y-101992175D01*
X68800376Y-101991825D01*
X68429760Y-102144961D01*
X68145957Y-102428268D01*
X67992175Y-102798617D01*
X67991825Y-103199624D01*
X64408000Y-103199624D01*
X64408000Y-101819115D01*
X64307825Y-101577273D01*
X64151443Y-101420890D01*
X66750000Y-101420890D01*
X66993840Y-101375008D01*
X67217792Y-101230899D01*
X67368033Y-101011014D01*
X67420890Y-100750000D01*
X67420890Y-100199624D01*
X71991825Y-100199624D01*
X72144961Y-100570240D01*
X72428268Y-100854043D01*
X72798617Y-101007825D01*
X73199624Y-101008175D01*
X73570240Y-100855039D01*
X73854043Y-100571732D01*
X73901269Y-100458000D01*
X75980095Y-100458000D01*
X75764688Y-100673031D01*
X75542254Y-101208714D01*
X75541747Y-101788742D01*
X75763247Y-102324812D01*
X76173031Y-102735312D01*
X76708714Y-102957746D01*
X77288742Y-102958253D01*
X77824812Y-102736753D01*
X78056486Y-102505483D01*
X78641596Y-102505483D01*
X78712498Y-102760839D01*
X79254946Y-102966228D01*
X79834701Y-102948397D01*
X80287502Y-102760839D01*
X80358404Y-102505483D01*
X79500000Y-101647078D01*
X78641596Y-102505483D01*
X78056486Y-102505483D01*
X78235312Y-102326969D01*
X78250404Y-102290624D01*
X78494517Y-102358404D01*
X79352922Y-101500000D01*
X79338779Y-101485858D01*
X79485858Y-101338779D01*
X79500000Y-101352922D01*
X79514142Y-101338779D01*
X79661221Y-101485858D01*
X79647078Y-101500000D01*
X80505483Y-102358404D01*
X80760839Y-102287502D01*
X80966228Y-101745054D01*
X80948397Y-101165299D01*
X80760839Y-100712498D01*
X80505485Y-100641596D01*
X80622622Y-100524459D01*
X80556163Y-100458000D01*
X83103184Y-100458000D01*
X84162592Y-101517408D01*
X84473389Y-101725077D01*
X84840000Y-101798000D01*
X86202000Y-101798000D01*
X86202000Y-103896203D01*
X85924688Y-104173031D01*
X85702254Y-104708714D01*
X85701747Y-105288742D01*
X85923247Y-105824812D01*
X86333031Y-106235312D01*
X86868714Y-106457746D01*
X87448742Y-106458253D01*
X87984812Y-106236753D01*
X88340639Y-105881547D01*
X88440474Y-106030962D01*
X88913484Y-106347016D01*
X89471436Y-106458000D01*
X89528564Y-106458000D01*
X90086516Y-106347016D01*
X90559526Y-106030962D01*
X90875580Y-105557952D01*
X90986564Y-105000000D01*
X90875580Y-104442048D01*
X90559526Y-103969038D01*
X90086516Y-103652984D01*
X89528564Y-103542000D01*
X89471436Y-103542000D01*
X88913484Y-103652984D01*
X88440474Y-103969038D01*
X88340429Y-104118766D01*
X88118000Y-103895948D01*
X88118000Y-101973288D01*
X88263247Y-102324812D01*
X88673031Y-102735312D01*
X89208714Y-102957746D01*
X89788742Y-102958253D01*
X90324812Y-102736753D01*
X90556486Y-102505483D01*
X91141596Y-102505483D01*
X91212498Y-102760839D01*
X91754946Y-102966228D01*
X92334701Y-102948397D01*
X92787502Y-102760839D01*
X92858404Y-102505483D01*
X92000000Y-101647078D01*
X91141596Y-102505483D01*
X90556486Y-102505483D01*
X90735312Y-102326969D01*
X90750404Y-102290624D01*
X90994517Y-102358404D01*
X91852922Y-101500000D01*
X92147078Y-101500000D01*
X93005483Y-102358404D01*
X93260839Y-102287502D01*
X93466228Y-101745054D01*
X93448397Y-101165299D01*
X93260839Y-100712498D01*
X93005483Y-100641596D01*
X92147078Y-101500000D01*
X91852922Y-101500000D01*
X90994517Y-100641596D01*
X90750830Y-100709258D01*
X90736753Y-100675188D01*
X90556398Y-100494517D01*
X91141596Y-100494517D01*
X92000000Y-101352922D01*
X92858404Y-100494517D01*
X92787502Y-100239161D01*
X92245054Y-100033772D01*
X91665299Y-100051603D01*
X91212498Y-100239161D01*
X91141596Y-100494517D01*
X90556398Y-100494517D01*
X90326969Y-100264688D01*
X89791286Y-100042254D01*
X89312980Y-100041836D01*
X89396816Y-99958000D01*
X97603184Y-99958000D01*
X98702000Y-101056817D01*
X98702000Y-103896203D01*
X98424688Y-104173031D01*
X98202254Y-104708714D01*
X98201747Y-105288742D01*
X98423247Y-105824812D01*
X98833031Y-106235312D01*
X99368714Y-106457746D01*
X99948742Y-106458253D01*
X100484812Y-106236753D01*
X100840639Y-105881547D01*
X100940474Y-106030962D01*
X101413484Y-106347016D01*
X101971436Y-106458000D01*
X102028564Y-106458000D01*
X102586516Y-106347016D01*
X103059526Y-106030962D01*
X103375580Y-105557952D01*
X103486564Y-105000000D01*
X103375580Y-104442048D01*
X103059526Y-103969038D01*
X102586516Y-103652984D01*
X102028564Y-103542000D01*
X101971436Y-103542000D01*
X101413484Y-103652984D01*
X100940474Y-103969038D01*
X100840429Y-104118766D01*
X100618000Y-103895948D01*
X100618000Y-101973288D01*
X100763247Y-102324812D01*
X101173031Y-102735312D01*
X101708714Y-102957746D01*
X102288742Y-102958253D01*
X102824812Y-102736753D01*
X103056486Y-102505483D01*
X103641596Y-102505483D01*
X103712498Y-102760839D01*
X104254946Y-102966228D01*
X104834701Y-102948397D01*
X105287502Y-102760839D01*
X105358404Y-102505483D01*
X104500000Y-101647078D01*
X103641596Y-102505483D01*
X103056486Y-102505483D01*
X103235312Y-102326969D01*
X103250404Y-102290624D01*
X103494517Y-102358404D01*
X104352922Y-101500000D01*
X103494517Y-100641596D01*
X103250830Y-100709258D01*
X103236753Y-100675188D01*
X102826969Y-100264688D01*
X102291286Y-100042254D01*
X101711258Y-100041747D01*
X101175188Y-100263247D01*
X100764688Y-100673031D01*
X100618000Y-101026297D01*
X100618000Y-100660000D01*
X100545077Y-100293389D01*
X100457681Y-100162592D01*
X100337409Y-99982592D01*
X99354813Y-98999997D01*
X99646810Y-98708000D01*
X103603184Y-98708000D01*
X105041018Y-100145834D01*
X104745054Y-100033772D01*
X104165299Y-100051603D01*
X103712498Y-100239161D01*
X103641596Y-100494517D01*
X104500000Y-101352922D01*
X104514142Y-101338779D01*
X104661221Y-101485858D01*
X104647078Y-101500000D01*
X105505483Y-102358404D01*
X105760839Y-102287502D01*
X105966228Y-101745054D01*
X105948397Y-101165299D01*
X105869139Y-100973955D01*
X109772593Y-104877409D01*
X110083390Y-105085078D01*
X110450001Y-105158001D01*
X110701861Y-105158001D01*
X110701747Y-105288742D01*
X110923247Y-105824812D01*
X111333031Y-106235312D01*
X111868714Y-106457746D01*
X112448742Y-106458253D01*
X112984812Y-106236753D01*
X113264052Y-105958000D01*
X116603184Y-105958000D01*
X122402001Y-111756818D01*
X122402001Y-112200001D01*
X122474924Y-112566612D01*
X122682593Y-112877409D01*
X122702090Y-112896906D01*
X122701747Y-113288742D01*
X122923247Y-113824812D01*
X123333031Y-114235312D01*
X123868714Y-114457746D01*
X124448742Y-114458253D01*
X124984812Y-114236753D01*
X125395312Y-113826969D01*
X125617746Y-113291286D01*
X125618253Y-112711258D01*
X125521410Y-112476880D01*
X135591582Y-112476880D01*
X135957406Y-113362241D01*
X136634196Y-114040213D01*
X137518918Y-114407582D01*
X138476880Y-114408418D01*
X139362241Y-114042594D01*
X140040213Y-113365804D01*
X140407582Y-112481082D01*
X140408418Y-111523120D01*
X140042594Y-110637759D01*
X139365804Y-109959787D01*
X138481082Y-109592418D01*
X137523120Y-109591582D01*
X136637759Y-109957406D01*
X135959787Y-110634196D01*
X135592418Y-111518918D01*
X135591582Y-112476880D01*
X125521410Y-112476880D01*
X125396753Y-112175188D01*
X124986969Y-111764688D01*
X124451286Y-111542254D01*
X124318001Y-111542137D01*
X124318001Y-111360001D01*
X124245078Y-110993390D01*
X124048201Y-110698742D01*
X124291747Y-110698742D01*
X124513247Y-111234812D01*
X124923031Y-111645312D01*
X125458714Y-111867746D01*
X126038742Y-111868253D01*
X126574812Y-111646753D01*
X126985312Y-111236969D01*
X127207746Y-110701286D01*
X127208253Y-110121258D01*
X126986753Y-109585188D01*
X126576969Y-109174688D01*
X126041286Y-108952254D01*
X125461258Y-108951747D01*
X124925188Y-109173247D01*
X124514688Y-109583031D01*
X124292254Y-110118714D01*
X124291747Y-110698742D01*
X124048201Y-110698742D01*
X124037410Y-110682593D01*
X118854817Y-105500000D01*
X128529110Y-105500000D01*
X128529110Y-106500000D01*
X128574992Y-106743840D01*
X128719101Y-106967792D01*
X128938986Y-107118033D01*
X129200000Y-107170890D01*
X131800000Y-107170890D01*
X132043840Y-107125008D01*
X132267792Y-106980899D01*
X132418033Y-106761014D01*
X132470890Y-106500000D01*
X132470890Y-106459036D01*
X133191774Y-106459036D01*
X133390485Y-106939954D01*
X133758110Y-107308222D01*
X134238681Y-107507772D01*
X134759036Y-107508226D01*
X135239954Y-107309515D01*
X135608222Y-106941890D01*
X135659457Y-106818500D01*
X136042000Y-106818500D01*
X136042000Y-107180885D01*
X136142175Y-107422727D01*
X136327273Y-107607826D01*
X136569116Y-107708000D01*
X137731500Y-107708000D01*
X137896000Y-107543500D01*
X137896000Y-106654000D01*
X138104000Y-106654000D01*
X138104000Y-107543500D01*
X138268500Y-107708000D01*
X139430884Y-107708000D01*
X139672727Y-107607826D01*
X139857825Y-107422727D01*
X139958000Y-107180885D01*
X139958000Y-106818500D01*
X139793500Y-106654000D01*
X138104000Y-106654000D01*
X137896000Y-106654000D01*
X136206500Y-106654000D01*
X136042000Y-106818500D01*
X135659457Y-106818500D01*
X135807772Y-106461319D01*
X135808226Y-105940964D01*
X135799199Y-105919115D01*
X136042000Y-105919115D01*
X136042000Y-106281500D01*
X136206500Y-106446000D01*
X137896000Y-106446000D01*
X137896000Y-105556500D01*
X138104000Y-105556500D01*
X138104000Y-106446000D01*
X139793500Y-106446000D01*
X139958000Y-106281500D01*
X139958000Y-105919115D01*
X139857825Y-105677273D01*
X139672727Y-105492174D01*
X139430884Y-105392000D01*
X138268500Y-105392000D01*
X138104000Y-105556500D01*
X137896000Y-105556500D01*
X137731500Y-105392000D01*
X136569116Y-105392000D01*
X136327273Y-105492174D01*
X136142175Y-105677273D01*
X136042000Y-105919115D01*
X135799199Y-105919115D01*
X135609515Y-105460046D01*
X135241890Y-105091778D01*
X134761319Y-104892228D01*
X134240964Y-104891774D01*
X133760046Y-105090485D01*
X133391778Y-105458110D01*
X133192228Y-105938681D01*
X133191774Y-106459036D01*
X132470890Y-106459036D01*
X132470890Y-105500000D01*
X132425008Y-105256160D01*
X132280899Y-105032208D01*
X132061014Y-104881967D01*
X131800000Y-104829110D01*
X129200000Y-104829110D01*
X128956160Y-104874992D01*
X128732208Y-105019101D01*
X128581967Y-105238986D01*
X128529110Y-105500000D01*
X118854817Y-105500000D01*
X117677408Y-104322592D01*
X117366611Y-104114923D01*
X117000000Y-104042000D01*
X113263797Y-104042000D01*
X112986969Y-103764688D01*
X112451286Y-103542254D01*
X112056725Y-103541909D01*
X112037409Y-103522593D01*
X111726612Y-103314924D01*
X111594986Y-103288742D01*
X118041747Y-103288742D01*
X118263247Y-103824812D01*
X118673031Y-104235312D01*
X119208714Y-104457746D01*
X119788742Y-104458253D01*
X120324812Y-104236753D01*
X120556486Y-104005483D01*
X121141596Y-104005483D01*
X121212498Y-104260839D01*
X121754946Y-104466228D01*
X122334701Y-104448397D01*
X122787502Y-104260839D01*
X122858404Y-104005483D01*
X122000000Y-103147078D01*
X121141596Y-104005483D01*
X120556486Y-104005483D01*
X120735312Y-103826969D01*
X120750404Y-103790624D01*
X120994517Y-103858404D01*
X121852922Y-103000000D01*
X122147078Y-103000000D01*
X123005483Y-103858404D01*
X123260839Y-103787502D01*
X123466228Y-103245054D01*
X123448397Y-102665299D01*
X123260839Y-102212498D01*
X123005483Y-102141596D01*
X122147078Y-103000000D01*
X121852922Y-103000000D01*
X120994517Y-102141596D01*
X120750830Y-102209258D01*
X120736753Y-102175188D01*
X120556398Y-101994517D01*
X121141596Y-101994517D01*
X122000000Y-102852922D01*
X122858404Y-101994517D01*
X122787502Y-101739161D01*
X122245054Y-101533772D01*
X121665299Y-101551603D01*
X121212498Y-101739161D01*
X121141596Y-101994517D01*
X120556398Y-101994517D01*
X120326969Y-101764688D01*
X119791286Y-101542254D01*
X119211258Y-101541747D01*
X118675188Y-101763247D01*
X118264688Y-102173031D01*
X118042254Y-102708714D01*
X118041747Y-103288742D01*
X111594986Y-103288742D01*
X111360001Y-103242001D01*
X110846817Y-103242001D01*
X107826252Y-100221436D01*
X124292000Y-100221436D01*
X124292000Y-100278564D01*
X124402984Y-100836516D01*
X124719038Y-101309526D01*
X125192048Y-101625580D01*
X125750000Y-101736564D01*
X126307952Y-101625580D01*
X126780962Y-101309526D01*
X127054597Y-100900000D01*
X128529110Y-100900000D01*
X128529110Y-101900000D01*
X128574992Y-102143840D01*
X128719101Y-102367792D01*
X128938986Y-102518033D01*
X129200000Y-102570890D01*
X131800000Y-102570890D01*
X132043840Y-102525008D01*
X132267792Y-102380899D01*
X132418033Y-102161014D01*
X132470890Y-101900000D01*
X132470890Y-101859036D01*
X133191774Y-101859036D01*
X133390485Y-102339954D01*
X133758110Y-102708222D01*
X134238681Y-102907772D01*
X134759036Y-102908226D01*
X135239954Y-102709515D01*
X135608222Y-102341890D01*
X135807772Y-101861319D01*
X135808226Y-101340964D01*
X135716306Y-101118500D01*
X136042000Y-101118500D01*
X136042000Y-101480885D01*
X136142175Y-101722727D01*
X136327273Y-101907826D01*
X136569116Y-102008000D01*
X137731500Y-102008000D01*
X137896000Y-101843500D01*
X137896000Y-100954000D01*
X138104000Y-100954000D01*
X138104000Y-101843500D01*
X138268500Y-102008000D01*
X139430884Y-102008000D01*
X139672727Y-101907826D01*
X139857825Y-101722727D01*
X139958000Y-101480885D01*
X139958000Y-101118500D01*
X139793500Y-100954000D01*
X138104000Y-100954000D01*
X137896000Y-100954000D01*
X136206500Y-100954000D01*
X136042000Y-101118500D01*
X135716306Y-101118500D01*
X135609515Y-100860046D01*
X135241890Y-100491778D01*
X134761319Y-100292228D01*
X134240964Y-100291774D01*
X133760046Y-100490485D01*
X133391778Y-100858110D01*
X133192228Y-101338681D01*
X133191774Y-101859036D01*
X132470890Y-101859036D01*
X132470890Y-100900000D01*
X132425008Y-100656160D01*
X132280899Y-100432208D01*
X132061014Y-100281967D01*
X131800000Y-100229110D01*
X129200000Y-100229110D01*
X128956160Y-100274992D01*
X128732208Y-100419101D01*
X128581967Y-100638986D01*
X128529110Y-100900000D01*
X127054597Y-100900000D01*
X127097016Y-100836516D01*
X127208000Y-100278564D01*
X127208000Y-100221436D01*
X127207539Y-100219115D01*
X136042000Y-100219115D01*
X136042000Y-100581500D01*
X136206500Y-100746000D01*
X137896000Y-100746000D01*
X137896000Y-99856500D01*
X138104000Y-99856500D01*
X138104000Y-100746000D01*
X139793500Y-100746000D01*
X139958000Y-100581500D01*
X139958000Y-100219115D01*
X139857825Y-99977273D01*
X139672727Y-99792174D01*
X139430884Y-99692000D01*
X138268500Y-99692000D01*
X138104000Y-99856500D01*
X137896000Y-99856500D01*
X137731500Y-99692000D01*
X136569116Y-99692000D01*
X136327273Y-99792174D01*
X136142175Y-99977273D01*
X136042000Y-100219115D01*
X127207539Y-100219115D01*
X127097016Y-99663484D01*
X126780962Y-99190474D01*
X126307952Y-98874420D01*
X125750000Y-98763436D01*
X125192048Y-98874420D01*
X124719038Y-99190474D01*
X124402984Y-99663484D01*
X124292000Y-100221436D01*
X107826252Y-100221436D01*
X106542201Y-98937385D01*
X106996516Y-98847016D01*
X107469526Y-98530962D01*
X107785580Y-98057952D01*
X107896564Y-97500000D01*
X107785580Y-96942048D01*
X107493878Y-96505483D01*
X111641596Y-96505483D01*
X111712498Y-96760839D01*
X112254946Y-96966228D01*
X112834701Y-96948397D01*
X113287502Y-96760839D01*
X113358404Y-96505483D01*
X112500000Y-95647078D01*
X111641596Y-96505483D01*
X107493878Y-96505483D01*
X107469526Y-96469038D01*
X106996516Y-96152984D01*
X106438564Y-96042000D01*
X106381436Y-96042000D01*
X105823484Y-96152984D01*
X105350474Y-96469038D01*
X105034420Y-96942048D01*
X104953529Y-97348713D01*
X104677408Y-97072592D01*
X104366611Y-96864923D01*
X104000000Y-96792000D01*
X99571369Y-96792000D01*
X99451377Y-96742175D01*
X99050370Y-96741825D01*
X98679754Y-96894961D01*
X98395951Y-97178268D01*
X98345564Y-97299614D01*
X97603970Y-98041208D01*
X97707746Y-97791286D01*
X97708253Y-97211258D01*
X97486753Y-96675188D01*
X97076969Y-96264688D01*
X96541286Y-96042254D01*
X95961258Y-96041747D01*
X95425188Y-96263247D01*
X95014688Y-96673031D01*
X94792254Y-97208714D01*
X94791747Y-97788742D01*
X94896391Y-98042000D01*
X89000000Y-98042000D01*
X88633389Y-98114923D01*
X88322592Y-98322592D01*
X86763184Y-99882000D01*
X85236816Y-99882000D01*
X84177408Y-98822592D01*
X83866611Y-98614923D01*
X83500000Y-98542000D01*
X73500000Y-98542000D01*
X73133389Y-98614923D01*
X72822592Y-98822592D01*
X72549839Y-99095345D01*
X72429760Y-99144961D01*
X72145957Y-99428268D01*
X71992175Y-99798617D01*
X71991825Y-100199624D01*
X67420890Y-100199624D01*
X67420890Y-98725201D01*
X67522592Y-98877408D01*
X68095337Y-99450153D01*
X68144961Y-99570252D01*
X68428268Y-99854055D01*
X68798617Y-100007837D01*
X69199624Y-100008187D01*
X69570240Y-99855051D01*
X69854043Y-99571744D01*
X70007825Y-99201395D01*
X70008175Y-98800388D01*
X69855039Y-98429772D01*
X69571732Y-98145969D01*
X69450406Y-98095590D01*
X69158000Y-97803184D01*
X69158000Y-96213742D01*
X69861747Y-96213742D01*
X70083247Y-96749812D01*
X70493031Y-97160312D01*
X71028714Y-97382746D01*
X71608742Y-97383253D01*
X72144812Y-97161753D01*
X72555312Y-96751969D01*
X72777746Y-96216286D01*
X72778253Y-95636258D01*
X72580988Y-95158840D01*
X75591756Y-95158840D01*
X75805660Y-95676526D01*
X76201391Y-96072948D01*
X76718703Y-96287755D01*
X77278840Y-96288244D01*
X77796526Y-96074340D01*
X78192948Y-95678609D01*
X78407755Y-95161297D01*
X78408244Y-94601160D01*
X78407610Y-94599624D01*
X83591825Y-94599624D01*
X83744961Y-94970240D01*
X84028268Y-95254043D01*
X84398617Y-95407825D01*
X84799624Y-95408175D01*
X85170240Y-95255039D01*
X85454043Y-94971732D01*
X85607825Y-94601383D01*
X85607914Y-94499416D01*
X87299224Y-92808105D01*
X87399624Y-92808193D01*
X87770240Y-92655057D01*
X88054043Y-92371750D01*
X88207825Y-92001401D01*
X88208175Y-91600394D01*
X88055039Y-91229778D01*
X87771732Y-90945975D01*
X87401383Y-90792193D01*
X87000376Y-90791843D01*
X86629760Y-90944979D01*
X86345957Y-91228286D01*
X86192175Y-91598635D01*
X86192086Y-91700585D01*
X84500758Y-93391913D01*
X84400376Y-93391825D01*
X84029760Y-93544961D01*
X83745957Y-93828268D01*
X83592175Y-94198617D01*
X83591825Y-94599624D01*
X78407610Y-94599624D01*
X78194340Y-94083474D01*
X77798609Y-93687052D01*
X77281297Y-93472245D01*
X76721160Y-93471756D01*
X76203474Y-93685660D01*
X75807052Y-94081391D01*
X75592245Y-94598703D01*
X75591756Y-95158840D01*
X72580988Y-95158840D01*
X72556753Y-95100188D01*
X72146969Y-94689688D01*
X72110624Y-94674596D01*
X72178404Y-94430483D01*
X71320000Y-93572078D01*
X70461596Y-94430483D01*
X70529258Y-94674170D01*
X70495188Y-94688247D01*
X70084688Y-95098031D01*
X69862254Y-95633714D01*
X69861747Y-96213742D01*
X69158000Y-96213742D01*
X69158000Y-93200000D01*
X69154012Y-93179946D01*
X69853772Y-93179946D01*
X69871603Y-93759701D01*
X70059161Y-94212502D01*
X70314517Y-94283404D01*
X71172922Y-93425000D01*
X71467078Y-93425000D01*
X72325483Y-94283404D01*
X72580839Y-94212502D01*
X72786228Y-93670054D01*
X72768397Y-93090299D01*
X72580839Y-92637498D01*
X72325483Y-92566596D01*
X71467078Y-93425000D01*
X71172922Y-93425000D01*
X70314517Y-92566596D01*
X70059161Y-92637498D01*
X69853772Y-93179946D01*
X69154012Y-93179946D01*
X69085077Y-92833389D01*
X69077863Y-92822592D01*
X68877408Y-92522591D01*
X68165300Y-91810483D01*
X70461596Y-91810483D01*
X70532498Y-92065839D01*
X70656509Y-92112794D01*
X70532498Y-92164161D01*
X70461596Y-92419517D01*
X71320000Y-93277922D01*
X72178404Y-92419517D01*
X72107502Y-92164161D01*
X71983491Y-92117206D01*
X72107502Y-92065839D01*
X72178404Y-91810483D01*
X71320000Y-90952078D01*
X70461596Y-91810483D01*
X68165300Y-91810483D01*
X66914763Y-90559946D01*
X69853772Y-90559946D01*
X69871603Y-91139701D01*
X70059161Y-91592502D01*
X70314517Y-91663404D01*
X71172922Y-90805000D01*
X71467078Y-90805000D01*
X72325483Y-91663404D01*
X72580839Y-91592502D01*
X72786228Y-91050054D01*
X72768397Y-90470299D01*
X72689092Y-90278840D01*
X75591756Y-90278840D01*
X75805660Y-90796526D01*
X76201391Y-91192948D01*
X76718703Y-91407755D01*
X77278840Y-91408244D01*
X77796526Y-91194340D01*
X78192948Y-90798609D01*
X78407755Y-90281297D01*
X78408244Y-89721160D01*
X78194340Y-89203474D01*
X77798609Y-88807052D01*
X77281297Y-88592245D01*
X76721160Y-88591756D01*
X76203474Y-88805660D01*
X75807052Y-89201391D01*
X75592245Y-89718703D01*
X75591756Y-90278840D01*
X72689092Y-90278840D01*
X72580839Y-90017498D01*
X72325483Y-89946596D01*
X71467078Y-90805000D01*
X71172922Y-90805000D01*
X70314517Y-89946596D01*
X70059161Y-90017498D01*
X69853772Y-90559946D01*
X66914763Y-90559946D01*
X65958000Y-89603184D01*
X65958000Y-88593742D01*
X69861747Y-88593742D01*
X70083247Y-89129812D01*
X70493031Y-89540312D01*
X70529376Y-89555404D01*
X70461596Y-89799517D01*
X71320000Y-90657922D01*
X72178404Y-89799517D01*
X72110742Y-89555830D01*
X72144812Y-89541753D01*
X72555312Y-89131969D01*
X72777746Y-88596286D01*
X72778253Y-88016258D01*
X72556753Y-87480188D01*
X72146969Y-87069688D01*
X71611286Y-86847254D01*
X71031258Y-86846747D01*
X70495188Y-87068247D01*
X70084688Y-87478031D01*
X69862254Y-88013714D01*
X69861747Y-88593742D01*
X65958000Y-88593742D01*
X65958000Y-88103797D01*
X66235312Y-87826969D01*
X66457746Y-87291286D01*
X66458253Y-86711258D01*
X66236753Y-86175188D01*
X65826969Y-85764688D01*
X65291286Y-85542254D01*
X64711258Y-85541747D01*
X64175188Y-85763247D01*
X63764688Y-86173031D01*
X63542254Y-86708714D01*
X63541747Y-87288742D01*
X63763247Y-87824812D01*
X64042000Y-88104052D01*
X64042000Y-90000000D01*
X64114923Y-90366611D01*
X64322592Y-90677408D01*
X67242000Y-93596817D01*
X67242000Y-96799459D01*
X67230899Y-96782208D01*
X67011014Y-96631967D01*
X66750000Y-96579110D01*
X65943899Y-96579110D01*
X65885077Y-96283389D01*
X65677408Y-95972592D01*
X63777408Y-94072592D01*
X63466611Y-93864923D01*
X63100000Y-93792000D01*
X57396816Y-93792000D01*
X56708000Y-93103184D01*
X56708000Y-90750000D01*
X56635077Y-90383389D01*
X56427408Y-90072592D01*
X55677408Y-89322592D01*
X55366611Y-89114923D01*
X55000000Y-89042000D01*
X53879904Y-89042000D01*
X53856811Y-89018867D01*
X53811789Y-89000172D01*
X53855098Y-88982277D01*
X53879417Y-88958000D01*
X59000000Y-88958000D01*
X59366611Y-88885077D01*
X59677408Y-88677408D01*
X59896906Y-88457910D01*
X60288742Y-88458253D01*
X60824812Y-88236753D01*
X61235312Y-87826969D01*
X61457746Y-87291286D01*
X61458253Y-86711258D01*
X61236753Y-86175188D01*
X60826969Y-85764688D01*
X60291286Y-85542254D01*
X59711258Y-85541747D01*
X59175188Y-85763247D01*
X58764688Y-86173031D01*
X58542254Y-86708714D01*
X58541963Y-87042000D01*
X53879904Y-87042000D01*
X53856811Y-87018867D01*
X53811789Y-87000172D01*
X53855098Y-86982277D01*
X53879417Y-86958000D01*
X55000000Y-86958000D01*
X55366611Y-86885077D01*
X55677408Y-86677408D01*
X59155192Y-83199624D01*
X71991825Y-83199624D01*
X72144961Y-83570240D01*
X72428268Y-83854043D01*
X72798617Y-84007825D01*
X73199624Y-84008175D01*
X73321056Y-83958000D01*
X80896203Y-83958000D01*
X81042000Y-84104052D01*
X81042000Y-88278625D01*
X80992175Y-88398617D01*
X80991825Y-88799624D01*
X81042000Y-88921056D01*
X81042000Y-90678625D01*
X80992175Y-90798617D01*
X80991825Y-91199624D01*
X81144961Y-91570240D01*
X81428268Y-91854043D01*
X81798617Y-92007825D01*
X82199624Y-92008175D01*
X82570240Y-91855039D01*
X82854043Y-91571732D01*
X83007825Y-91201383D01*
X83008175Y-90800376D01*
X82958000Y-90678944D01*
X82958000Y-88921375D01*
X83007825Y-88801383D01*
X83008175Y-88400376D01*
X82958000Y-88278944D01*
X82958000Y-84103797D01*
X83056485Y-84005483D01*
X83641596Y-84005483D01*
X83712498Y-84260839D01*
X84254946Y-84466228D01*
X84834701Y-84448397D01*
X85287502Y-84260839D01*
X85358404Y-84005483D01*
X84500000Y-83147078D01*
X83641596Y-84005483D01*
X83056485Y-84005483D01*
X83235312Y-83826969D01*
X83250404Y-83790624D01*
X83494517Y-83858404D01*
X84352922Y-83000000D01*
X84647078Y-83000000D01*
X85505483Y-83858404D01*
X85760839Y-83787502D01*
X85966228Y-83245054D01*
X85964831Y-83199624D01*
X85991825Y-83199624D01*
X86144961Y-83570240D01*
X86428268Y-83854043D01*
X86798617Y-84007825D01*
X86900584Y-84007914D01*
X89217000Y-86324329D01*
X89217000Y-92157349D01*
X89145957Y-92228268D01*
X88992175Y-92598617D01*
X88991825Y-92999624D01*
X89144961Y-93370240D01*
X89428268Y-93654043D01*
X89798617Y-93807825D01*
X90199624Y-93808175D01*
X90570240Y-93655039D01*
X90854043Y-93371732D01*
X90953125Y-93133114D01*
X90999620Y-93133155D01*
X91370236Y-92980019D01*
X91654039Y-92696712D01*
X91807821Y-92326363D01*
X91808171Y-91925356D01*
X91655035Y-91554740D01*
X91582996Y-91482575D01*
X91582996Y-85890325D01*
X92217000Y-86524329D01*
X92217000Y-93607349D01*
X92145957Y-93678268D01*
X91992175Y-94048617D01*
X91991825Y-94449624D01*
X92144961Y-94820240D01*
X92428268Y-95104043D01*
X92759092Y-95241413D01*
X92894961Y-95570240D01*
X93178268Y-95854043D01*
X93548617Y-96007825D01*
X93949624Y-96008175D01*
X94320240Y-95855039D01*
X94604043Y-95571732D01*
X94735583Y-95254946D01*
X111033772Y-95254946D01*
X111051603Y-95834701D01*
X111239161Y-96287502D01*
X111494517Y-96358404D01*
X112352922Y-95500000D01*
X112647078Y-95500000D01*
X113505483Y-96358404D01*
X113538381Y-96349270D01*
X113574992Y-96543840D01*
X113719101Y-96767792D01*
X113938986Y-96918033D01*
X114200000Y-96970890D01*
X115800000Y-96970890D01*
X116043840Y-96925008D01*
X116267792Y-96780899D01*
X116418033Y-96561014D01*
X116436463Y-96470000D01*
X120319110Y-96470000D01*
X120319110Y-98170000D01*
X120364992Y-98413840D01*
X120509101Y-98637792D01*
X120728986Y-98788033D01*
X120990000Y-98840890D01*
X122690000Y-98840890D01*
X122933840Y-98795008D01*
X123157792Y-98650899D01*
X123308033Y-98431014D01*
X123311702Y-98412895D01*
X123313683Y-98415860D01*
X123802913Y-98742753D01*
X124380000Y-98857543D01*
X124957087Y-98742753D01*
X125446317Y-98415860D01*
X125650000Y-98111027D01*
X125853683Y-98415860D01*
X126342913Y-98742753D01*
X126920000Y-98857543D01*
X127497087Y-98742753D01*
X127986317Y-98415860D01*
X128190000Y-98111027D01*
X128393683Y-98415860D01*
X128882913Y-98742753D01*
X129460000Y-98857543D01*
X130037087Y-98742753D01*
X130526317Y-98415860D01*
X130730000Y-98111027D01*
X130933683Y-98415860D01*
X131422913Y-98742753D01*
X132000000Y-98857543D01*
X132577087Y-98742753D01*
X133066317Y-98415860D01*
X133270000Y-98111027D01*
X133473683Y-98415860D01*
X133962913Y-98742753D01*
X134540000Y-98857543D01*
X135117087Y-98742753D01*
X135606317Y-98415860D01*
X135812384Y-98107459D01*
X135851613Y-98194730D01*
X136279863Y-98598228D01*
X136741939Y-98789619D01*
X136976000Y-98659469D01*
X136976000Y-97424000D01*
X136956000Y-97424000D01*
X136956000Y-97216000D01*
X136976000Y-97216000D01*
X136976000Y-95980531D01*
X137184000Y-95980531D01*
X137184000Y-97216000D01*
X137204000Y-97216000D01*
X137204000Y-97424000D01*
X137184000Y-97424000D01*
X137184000Y-98659469D01*
X137418061Y-98789619D01*
X137880137Y-98598228D01*
X138308387Y-98194730D01*
X138347616Y-98107459D01*
X138553683Y-98415860D01*
X139042913Y-98742753D01*
X139620000Y-98857543D01*
X140197087Y-98742753D01*
X140686317Y-98415860D01*
X141013210Y-97926630D01*
X141128000Y-97349543D01*
X141128000Y-97290457D01*
X141013210Y-96713370D01*
X140686317Y-96224140D01*
X140197087Y-95897247D01*
X139620000Y-95782457D01*
X139042913Y-95897247D01*
X138553683Y-96224140D01*
X138347616Y-96532541D01*
X138308387Y-96445270D01*
X137880137Y-96041772D01*
X137418061Y-95850381D01*
X137184000Y-95980531D01*
X136976000Y-95980531D01*
X136741939Y-95850381D01*
X136279863Y-96041772D01*
X135851613Y-96445270D01*
X135812384Y-96532541D01*
X135606317Y-96224140D01*
X135117087Y-95897247D01*
X134540000Y-95782457D01*
X133962913Y-95897247D01*
X133473683Y-96224140D01*
X133270000Y-96528973D01*
X133066317Y-96224140D01*
X132577087Y-95897247D01*
X132000000Y-95782457D01*
X131422913Y-95897247D01*
X130933683Y-96224140D01*
X130730000Y-96528973D01*
X130526317Y-96224140D01*
X130037087Y-95897247D01*
X129460000Y-95782457D01*
X128882913Y-95897247D01*
X128393683Y-96224140D01*
X128190000Y-96528973D01*
X127986317Y-96224140D01*
X127497087Y-95897247D01*
X126920000Y-95782457D01*
X126342913Y-95897247D01*
X125853683Y-96224140D01*
X125650000Y-96528973D01*
X125446317Y-96224140D01*
X124957087Y-95897247D01*
X124380000Y-95782457D01*
X123802913Y-95897247D01*
X123313701Y-96224128D01*
X123170899Y-96002208D01*
X122951014Y-95851967D01*
X122690000Y-95799110D01*
X120990000Y-95799110D01*
X120746160Y-95844992D01*
X120522208Y-95989101D01*
X120371967Y-96208986D01*
X120319110Y-96470000D01*
X116436463Y-96470000D01*
X116470890Y-96300000D01*
X116470890Y-94700000D01*
X116425008Y-94456160D01*
X116280899Y-94232208D01*
X116061014Y-94081967D01*
X115958000Y-94061106D01*
X115958000Y-89321375D01*
X116007825Y-89201383D01*
X116008175Y-88800376D01*
X115855039Y-88429760D01*
X115571732Y-88145957D01*
X115201383Y-87992175D01*
X114800376Y-87991825D01*
X114429760Y-88144961D01*
X114145957Y-88428268D01*
X113992175Y-88798617D01*
X113991825Y-89199624D01*
X114042000Y-89321056D01*
X114042000Y-94058840D01*
X113956160Y-94074992D01*
X113732208Y-94219101D01*
X113581967Y-94438986D01*
X113539050Y-94650916D01*
X113505483Y-94641596D01*
X112647078Y-95500000D01*
X112352922Y-95500000D01*
X111494517Y-94641596D01*
X111239161Y-94712498D01*
X111033772Y-95254946D01*
X94735583Y-95254946D01*
X94757825Y-95201383D01*
X94758175Y-94800376D01*
X94631797Y-94494517D01*
X111641596Y-94494517D01*
X112500000Y-95352922D01*
X113358404Y-94494517D01*
X113287502Y-94239161D01*
X112745054Y-94033772D01*
X112165299Y-94051603D01*
X111712498Y-94239161D01*
X111641596Y-94494517D01*
X94631797Y-94494517D01*
X94605039Y-94429760D01*
X94533000Y-94357595D01*
X94533000Y-92288742D01*
X95541747Y-92288742D01*
X95763247Y-92824812D01*
X96173031Y-93235312D01*
X96708714Y-93457746D01*
X97288742Y-93458253D01*
X97824812Y-93236753D01*
X98056486Y-93005483D01*
X98641596Y-93005483D01*
X98712498Y-93260839D01*
X99254946Y-93466228D01*
X99834701Y-93448397D01*
X100287502Y-93260839D01*
X100358404Y-93005483D01*
X99500000Y-92147078D01*
X98641596Y-93005483D01*
X98056486Y-93005483D01*
X98235312Y-92826969D01*
X98250404Y-92790624D01*
X98494517Y-92858404D01*
X99352922Y-92000000D01*
X99647078Y-92000000D01*
X100505483Y-92858404D01*
X100760839Y-92787502D01*
X100966228Y-92245054D01*
X100948397Y-91665299D01*
X100760839Y-91212498D01*
X100505483Y-91141596D01*
X99647078Y-92000000D01*
X99352922Y-92000000D01*
X98494517Y-91141596D01*
X98250830Y-91209258D01*
X98236753Y-91175188D01*
X98056398Y-90994517D01*
X98641596Y-90994517D01*
X99500000Y-91852922D01*
X100358404Y-90994517D01*
X100287502Y-90739161D01*
X99745054Y-90533772D01*
X99165299Y-90551603D01*
X98712498Y-90739161D01*
X98641596Y-90994517D01*
X98056398Y-90994517D01*
X97826969Y-90764688D01*
X97291286Y-90542254D01*
X96711258Y-90541747D01*
X96175188Y-90763247D01*
X95764688Y-91173031D01*
X95542254Y-91708714D01*
X95541747Y-92288742D01*
X94533000Y-92288742D01*
X94533000Y-88288742D01*
X95541747Y-88288742D01*
X95763247Y-88824812D01*
X96173031Y-89235312D01*
X96708714Y-89457746D01*
X97288742Y-89458253D01*
X97824812Y-89236753D01*
X98056486Y-89005483D01*
X98641596Y-89005483D01*
X98712498Y-89260839D01*
X99254946Y-89466228D01*
X99834701Y-89448397D01*
X100287502Y-89260839D01*
X100358404Y-89005483D01*
X99500000Y-88147078D01*
X98641596Y-89005483D01*
X98056486Y-89005483D01*
X98235312Y-88826969D01*
X98250404Y-88790624D01*
X98494517Y-88858404D01*
X99352922Y-88000000D01*
X99647078Y-88000000D01*
X100505483Y-88858404D01*
X100760839Y-88787502D01*
X100966228Y-88245054D01*
X100953470Y-87830221D01*
X104579880Y-87830221D01*
X104814350Y-88348541D01*
X105229325Y-88737678D01*
X105669780Y-88920112D01*
X105896000Y-88789312D01*
X105896000Y-87604000D01*
X106104000Y-87604000D01*
X106104000Y-88789312D01*
X106330220Y-88920112D01*
X106770675Y-88737678D01*
X107185650Y-88348541D01*
X107420120Y-87830221D01*
X107289794Y-87604000D01*
X106104000Y-87604000D01*
X105896000Y-87604000D01*
X104710206Y-87604000D01*
X104579880Y-87830221D01*
X100953470Y-87830221D01*
X100948397Y-87665299D01*
X100760839Y-87212498D01*
X100505483Y-87141596D01*
X99647078Y-88000000D01*
X99352922Y-88000000D01*
X98494517Y-87141596D01*
X98250830Y-87209258D01*
X98236753Y-87175188D01*
X98056398Y-86994517D01*
X98641596Y-86994517D01*
X99500000Y-87852922D01*
X100358404Y-86994517D01*
X100287502Y-86739161D01*
X99745054Y-86533772D01*
X99165299Y-86551603D01*
X98712498Y-86739161D01*
X98641596Y-86994517D01*
X98056398Y-86994517D01*
X97826969Y-86764688D01*
X97291286Y-86542254D01*
X96711258Y-86541747D01*
X96175188Y-86763247D01*
X95764688Y-87173031D01*
X95542254Y-87708714D01*
X95541747Y-88288742D01*
X94533000Y-88288742D01*
X94533000Y-85477197D01*
X94533001Y-85477192D01*
X94473398Y-85177551D01*
X94303665Y-84923527D01*
X90167180Y-80787042D01*
X90167268Y-80686661D01*
X90014132Y-80316045D01*
X89730825Y-80032242D01*
X89360476Y-79878460D01*
X88959469Y-79878110D01*
X88588853Y-80031246D01*
X88460148Y-80159726D01*
X88246752Y-79945957D01*
X87876403Y-79792175D01*
X87475396Y-79791825D01*
X87104780Y-79944961D01*
X86820977Y-80228268D01*
X86667195Y-80598617D01*
X86666845Y-80999624D01*
X86819981Y-81370240D01*
X86892020Y-81442405D01*
X86892020Y-81875015D01*
X86892019Y-81875020D01*
X86915273Y-81991925D01*
X86800376Y-81991825D01*
X86429760Y-82144961D01*
X86145957Y-82428268D01*
X85992175Y-82798617D01*
X85991825Y-83199624D01*
X85964831Y-83199624D01*
X85948397Y-82665299D01*
X85760839Y-82212498D01*
X85505483Y-82141596D01*
X84647078Y-83000000D01*
X84352922Y-83000000D01*
X83494517Y-82141596D01*
X83250830Y-82209258D01*
X83236753Y-82175188D01*
X83056398Y-81994517D01*
X83641596Y-81994517D01*
X84500000Y-82852922D01*
X85358404Y-81994517D01*
X85287502Y-81739161D01*
X84745054Y-81533772D01*
X84165299Y-81551603D01*
X83712498Y-81739161D01*
X83641596Y-81994517D01*
X83056398Y-81994517D01*
X82958434Y-81896382D01*
X85396817Y-79458000D01*
X94703184Y-79458000D01*
X101322592Y-86077409D01*
X101633389Y-86285077D01*
X102000000Y-86358000D01*
X105127294Y-86358000D01*
X104814350Y-86651459D01*
X104579880Y-87169779D01*
X104710206Y-87396000D01*
X105896000Y-87396000D01*
X105896000Y-87376000D01*
X106104000Y-87376000D01*
X106104000Y-87396000D01*
X107289794Y-87396000D01*
X107420120Y-87169779D01*
X107185650Y-86651459D01*
X106872706Y-86358000D01*
X107003184Y-86358000D01*
X108042090Y-87396906D01*
X108041747Y-87788742D01*
X108263247Y-88324812D01*
X108673031Y-88735312D01*
X109208714Y-88957746D01*
X109788742Y-88958253D01*
X110324812Y-88736753D01*
X110735312Y-88326969D01*
X110957746Y-87791286D01*
X110958253Y-87211258D01*
X110736753Y-86675188D01*
X110326969Y-86264688D01*
X109791286Y-86042254D01*
X109396725Y-86041909D01*
X108077408Y-84722592D01*
X107766611Y-84514923D01*
X107400000Y-84442000D01*
X106990959Y-84442000D01*
X107007825Y-84401383D01*
X107008175Y-84000376D01*
X106855039Y-83629760D01*
X106783000Y-83557595D01*
X106783000Y-78594029D01*
X106824812Y-78576753D01*
X107235312Y-78166969D01*
X107457746Y-77631286D01*
X107458253Y-77051258D01*
X107236753Y-76515188D01*
X106826969Y-76104688D01*
X106473703Y-75958000D01*
X108974323Y-75958000D01*
X108942048Y-75964420D01*
X108469038Y-76280474D01*
X108152984Y-76753484D01*
X108042000Y-77311436D01*
X108042000Y-77368564D01*
X108152984Y-77926516D01*
X108469038Y-78399526D01*
X108817000Y-78632026D01*
X108817000Y-82157349D01*
X108745957Y-82228268D01*
X108592175Y-82598617D01*
X108591825Y-82999624D01*
X108744961Y-83370240D01*
X109028268Y-83654043D01*
X109398617Y-83807825D01*
X109799624Y-83808175D01*
X110170240Y-83655039D01*
X110454043Y-83371732D01*
X110607825Y-83001383D01*
X110608175Y-82600376D01*
X110455039Y-82229760D01*
X110383000Y-82157595D01*
X110383000Y-78498391D01*
X110530962Y-78399526D01*
X110847016Y-77926516D01*
X110958000Y-77368564D01*
X110958000Y-77311436D01*
X110890175Y-76970457D01*
X120332000Y-76970457D01*
X120332000Y-77029543D01*
X120446790Y-77606630D01*
X120773683Y-78095860D01*
X121057000Y-78285166D01*
X121057000Y-81317419D01*
X120945957Y-81428268D01*
X120792175Y-81798617D01*
X120791825Y-82199624D01*
X120944961Y-82570240D01*
X121228268Y-82854043D01*
X121598617Y-83007825D01*
X121999624Y-83008175D01*
X122370240Y-82855039D01*
X122654043Y-82571732D01*
X122807825Y-82201383D01*
X122808175Y-81800376D01*
X122655039Y-81429760D01*
X122623000Y-81397665D01*
X122623000Y-78285166D01*
X122906317Y-78095860D01*
X123110000Y-77791027D01*
X123313683Y-78095860D01*
X123802913Y-78422753D01*
X124380000Y-78537543D01*
X124957087Y-78422753D01*
X125446317Y-78095860D01*
X125650000Y-77791027D01*
X125853683Y-78095860D01*
X126342913Y-78422753D01*
X126920000Y-78537543D01*
X127497087Y-78422753D01*
X127986317Y-78095860D01*
X128190000Y-77791027D01*
X128393683Y-78095860D01*
X128882913Y-78422753D01*
X129460000Y-78537543D01*
X130037087Y-78422753D01*
X130526317Y-78095860D01*
X130730000Y-77791027D01*
X130933683Y-78095860D01*
X131422913Y-78422753D01*
X132000000Y-78537543D01*
X132577087Y-78422753D01*
X133066317Y-78095860D01*
X133270000Y-77791027D01*
X133473683Y-78095860D01*
X133962913Y-78422753D01*
X134540000Y-78537543D01*
X135117087Y-78422753D01*
X135606317Y-78095860D01*
X135812384Y-77787459D01*
X135851613Y-77874730D01*
X136279863Y-78278228D01*
X136741939Y-78469619D01*
X136976000Y-78339469D01*
X136976000Y-77104000D01*
X136956000Y-77104000D01*
X136956000Y-76896000D01*
X136976000Y-76896000D01*
X136976000Y-75660531D01*
X137184000Y-75660531D01*
X137184000Y-76896000D01*
X137204000Y-76896000D01*
X137204000Y-77104000D01*
X137184000Y-77104000D01*
X137184000Y-78339469D01*
X137418061Y-78469619D01*
X137880137Y-78278228D01*
X138308387Y-77874730D01*
X138329951Y-77826757D01*
X138340835Y-77853097D01*
X138764672Y-78277674D01*
X139318724Y-78507737D01*
X139918644Y-78508261D01*
X140473097Y-78279165D01*
X140897674Y-77855328D01*
X141127737Y-77301276D01*
X141128261Y-76701356D01*
X140899165Y-76146903D01*
X140475328Y-75722326D01*
X139921276Y-75492263D01*
X139321356Y-75491739D01*
X138766903Y-75720835D01*
X138342326Y-76144672D01*
X138330217Y-76173834D01*
X138308387Y-76125270D01*
X137880137Y-75721772D01*
X137418061Y-75530381D01*
X137184000Y-75660531D01*
X136976000Y-75660531D01*
X136741939Y-75530381D01*
X136279863Y-75721772D01*
X135851613Y-76125270D01*
X135812384Y-76212541D01*
X135606317Y-75904140D01*
X135117087Y-75577247D01*
X134540000Y-75462457D01*
X133962913Y-75577247D01*
X133473683Y-75904140D01*
X133270000Y-76208973D01*
X133066317Y-75904140D01*
X132577087Y-75577247D01*
X132000000Y-75462457D01*
X131422913Y-75577247D01*
X130933683Y-75904140D01*
X130730000Y-76208973D01*
X130526317Y-75904140D01*
X130037087Y-75577247D01*
X129460000Y-75462457D01*
X128882913Y-75577247D01*
X128393683Y-75904140D01*
X128190000Y-76208973D01*
X127986317Y-75904140D01*
X127497087Y-75577247D01*
X126920000Y-75462457D01*
X126342913Y-75577247D01*
X125853683Y-75904140D01*
X125650000Y-76208973D01*
X125446317Y-75904140D01*
X124957087Y-75577247D01*
X124380000Y-75462457D01*
X123802913Y-75577247D01*
X123313683Y-75904140D01*
X123110000Y-76208973D01*
X122906317Y-75904140D01*
X122417087Y-75577247D01*
X121840000Y-75462457D01*
X121262913Y-75577247D01*
X120773683Y-75904140D01*
X120446790Y-76393370D01*
X120332000Y-76970457D01*
X110890175Y-76970457D01*
X110847016Y-76753484D01*
X110530962Y-76280474D01*
X110057952Y-75964420D01*
X110025677Y-75958000D01*
X115500000Y-75958000D01*
X115866611Y-75885077D01*
X116177408Y-75677408D01*
X117717408Y-74137408D01*
X117925077Y-73826611D01*
X117998000Y-73460000D01*
X117998000Y-72168235D01*
X118106317Y-72095860D01*
X118310000Y-71791027D01*
X118513683Y-72095860D01*
X119002913Y-72422753D01*
X119580000Y-72537543D01*
X120157087Y-72422753D01*
X120646317Y-72095860D01*
X120850000Y-71791027D01*
X121053683Y-72095860D01*
X121542913Y-72422753D01*
X122120000Y-72537543D01*
X122697087Y-72422753D01*
X123186317Y-72095860D01*
X123513210Y-71606630D01*
X123628000Y-71029543D01*
X123628000Y-70970457D01*
X123513210Y-70393370D01*
X123457504Y-70310000D01*
X125679110Y-70310000D01*
X125679110Y-72010000D01*
X125724992Y-72253840D01*
X125869101Y-72477792D01*
X126088986Y-72628033D01*
X126350000Y-72680890D01*
X128050000Y-72680890D01*
X128293840Y-72635008D01*
X128517792Y-72490899D01*
X128668033Y-72271014D01*
X128671702Y-72252895D01*
X128673683Y-72255860D01*
X129162913Y-72582753D01*
X129740000Y-72697543D01*
X130317087Y-72582753D01*
X130806317Y-72255860D01*
X131133210Y-71766630D01*
X131248000Y-71189543D01*
X131248000Y-71130457D01*
X131133210Y-70553370D01*
X130806317Y-70064140D01*
X130317087Y-69737247D01*
X129740000Y-69622457D01*
X129162913Y-69737247D01*
X128673701Y-70064128D01*
X128530899Y-69842208D01*
X128311014Y-69691967D01*
X128050000Y-69639110D01*
X126350000Y-69639110D01*
X126106160Y-69684992D01*
X125882208Y-69829101D01*
X125731967Y-70048986D01*
X125679110Y-70310000D01*
X123457504Y-70310000D01*
X123186317Y-69904140D01*
X122697087Y-69577247D01*
X122120000Y-69462457D01*
X121542913Y-69577247D01*
X121053683Y-69904140D01*
X120850000Y-70208973D01*
X120646317Y-69904140D01*
X120157087Y-69577247D01*
X119580000Y-69462457D01*
X119002913Y-69577247D01*
X118513683Y-69904140D01*
X118310000Y-70208973D01*
X118106317Y-69904140D01*
X117617087Y-69577247D01*
X117040000Y-69462457D01*
X116462913Y-69577247D01*
X115973683Y-69904140D01*
X115965468Y-69916434D01*
X115907826Y-69777273D01*
X115722727Y-69592175D01*
X115480885Y-69492000D01*
X114768500Y-69492000D01*
X114604000Y-69656500D01*
X114604000Y-70896000D01*
X114624000Y-70896000D01*
X114624000Y-71104000D01*
X114604000Y-71104000D01*
X114604000Y-72343500D01*
X114768500Y-72508000D01*
X115480885Y-72508000D01*
X115722727Y-72407825D01*
X115907826Y-72222727D01*
X115965468Y-72083566D01*
X115973683Y-72095860D01*
X116082000Y-72168235D01*
X116082000Y-73063184D01*
X115103184Y-74042000D01*
X105596817Y-74042000D01*
X104654816Y-73100000D01*
X105017408Y-72737408D01*
X105225077Y-72426611D01*
X105273171Y-72184825D01*
X105406317Y-72095860D01*
X105610000Y-71791027D01*
X105813683Y-72095860D01*
X106302913Y-72422753D01*
X106880000Y-72537543D01*
X107457087Y-72422753D01*
X107946317Y-72095860D01*
X108150000Y-71791027D01*
X108353683Y-72095860D01*
X108842913Y-72422753D01*
X109420000Y-72537543D01*
X109997087Y-72422753D01*
X110486317Y-72095860D01*
X110813210Y-71606630D01*
X110880468Y-71268500D01*
X112992000Y-71268500D01*
X112992000Y-71980884D01*
X113092174Y-72222727D01*
X113277273Y-72407825D01*
X113519115Y-72508000D01*
X114231500Y-72508000D01*
X114396000Y-72343500D01*
X114396000Y-71104000D01*
X113156500Y-71104000D01*
X112992000Y-71268500D01*
X110880468Y-71268500D01*
X110928000Y-71029543D01*
X110928000Y-70970457D01*
X110813210Y-70393370D01*
X110563142Y-70019116D01*
X112992000Y-70019116D01*
X112992000Y-70731500D01*
X113156500Y-70896000D01*
X114396000Y-70896000D01*
X114396000Y-69656500D01*
X114231500Y-69492000D01*
X113519115Y-69492000D01*
X113277273Y-69592175D01*
X113092174Y-69777273D01*
X112992000Y-70019116D01*
X110563142Y-70019116D01*
X110486317Y-69904140D01*
X109997087Y-69577247D01*
X109420000Y-69462457D01*
X108842913Y-69577247D01*
X108353683Y-69904140D01*
X108150000Y-70208973D01*
X107946317Y-69904140D01*
X107457087Y-69577247D01*
X106880000Y-69462457D01*
X106302913Y-69577247D01*
X105813683Y-69904140D01*
X105610000Y-70208973D01*
X105406317Y-69904140D01*
X104917087Y-69577247D01*
X104340000Y-69462457D01*
X103762913Y-69577247D01*
X103273683Y-69904140D01*
X103265468Y-69916434D01*
X103207826Y-69777273D01*
X103022727Y-69592175D01*
X102780885Y-69492000D01*
X102068500Y-69492000D01*
X101904000Y-69656500D01*
X101904000Y-70896000D01*
X101924000Y-70896000D01*
X101924000Y-71104000D01*
X101904000Y-71104000D01*
X101904000Y-72343500D01*
X102068500Y-72508000D01*
X102537184Y-72508000D01*
X102403184Y-72642000D01*
X96999233Y-72642000D01*
X97297087Y-72582753D01*
X97786317Y-72255860D01*
X98113210Y-71766630D01*
X98212294Y-71268500D01*
X100292000Y-71268500D01*
X100292000Y-71980884D01*
X100392174Y-72222727D01*
X100577273Y-72407825D01*
X100819115Y-72508000D01*
X101531500Y-72508000D01*
X101696000Y-72343500D01*
X101696000Y-71104000D01*
X100456500Y-71104000D01*
X100292000Y-71268500D01*
X98212294Y-71268500D01*
X98228000Y-71189543D01*
X98228000Y-71130457D01*
X98113210Y-70553370D01*
X97786317Y-70064140D01*
X97718934Y-70019116D01*
X100292000Y-70019116D01*
X100292000Y-70731500D01*
X100456500Y-70896000D01*
X101696000Y-70896000D01*
X101696000Y-69656500D01*
X101531500Y-69492000D01*
X100819115Y-69492000D01*
X100577273Y-69592175D01*
X100392174Y-69777273D01*
X100292000Y-70019116D01*
X97718934Y-70019116D01*
X97297087Y-69737247D01*
X96720000Y-69622457D01*
X96142913Y-69737247D01*
X95653683Y-70064140D01*
X95447616Y-70372541D01*
X95408387Y-70285270D01*
X94980137Y-69881772D01*
X94518061Y-69690381D01*
X94284000Y-69820531D01*
X94284000Y-71056000D01*
X94304000Y-71056000D01*
X94304000Y-71264000D01*
X94284000Y-71264000D01*
X94284000Y-71284000D01*
X94076000Y-71284000D01*
X94076000Y-71264000D01*
X94056000Y-71264000D01*
X94056000Y-71056000D01*
X94076000Y-71056000D01*
X94076000Y-69820531D01*
X93841939Y-69690381D01*
X93379863Y-69881772D01*
X92951613Y-70285270D01*
X92912384Y-70372541D01*
X92706317Y-70064140D01*
X92217087Y-69737247D01*
X91640000Y-69622457D01*
X91062913Y-69737247D01*
X90573683Y-70064140D01*
X90370000Y-70368973D01*
X90166317Y-70064140D01*
X89677087Y-69737247D01*
X89100000Y-69622457D01*
X88522913Y-69737247D01*
X88033683Y-70064140D01*
X87830000Y-70368973D01*
X87626317Y-70064140D01*
X87137087Y-69737247D01*
X86560000Y-69622457D01*
X85982913Y-69737247D01*
X85493683Y-70064140D01*
X85290000Y-70368973D01*
X85086317Y-70064140D01*
X84597087Y-69737247D01*
X84020000Y-69622457D01*
X83442913Y-69737247D01*
X82953701Y-70064128D01*
X82810899Y-69842208D01*
X82591014Y-69691967D01*
X82330000Y-69639110D01*
X80630000Y-69639110D01*
X80386160Y-69684992D01*
X80162208Y-69829101D01*
X80011967Y-70048986D01*
X79959110Y-70310000D01*
X79959110Y-72010000D01*
X80004992Y-72253840D01*
X80149101Y-72477792D01*
X80301004Y-72581583D01*
X80133389Y-72614923D01*
X79822592Y-72822591D01*
X78822592Y-73822592D01*
X78614923Y-74133389D01*
X78542000Y-74500000D01*
X78542000Y-74896203D01*
X78264688Y-75173031D01*
X78042254Y-75708714D01*
X78041747Y-76288742D01*
X78263247Y-76824812D01*
X78673031Y-77235312D01*
X79208714Y-77457746D01*
X79788742Y-77458253D01*
X80324812Y-77236753D01*
X80735312Y-76826969D01*
X80957746Y-76291286D01*
X80958253Y-75711258D01*
X80736753Y-75175188D01*
X80458434Y-74896382D01*
X80896817Y-74458000D01*
X83000000Y-74458000D01*
X83366611Y-74385077D01*
X83677408Y-74177408D01*
X84020000Y-73834816D01*
X84462592Y-74277408D01*
X84773389Y-74485077D01*
X85140000Y-74558000D01*
X85379920Y-74558000D01*
X85264688Y-74673031D01*
X85246431Y-74717000D01*
X84100009Y-74717000D01*
X84100004Y-74716999D01*
X83800363Y-74776602D01*
X83546339Y-74946335D01*
X83546337Y-74946338D01*
X83100758Y-75391917D01*
X83000376Y-75391829D01*
X82629760Y-75544965D01*
X82345957Y-75828272D01*
X82192175Y-76198621D01*
X82191825Y-76599628D01*
X82344961Y-76970244D01*
X82628268Y-77254047D01*
X82998617Y-77407829D01*
X83399624Y-77408179D01*
X83770240Y-77255043D01*
X84054043Y-76971736D01*
X84207825Y-76601387D01*
X84207914Y-76499420D01*
X84424333Y-76283000D01*
X85245971Y-76283000D01*
X85263247Y-76324812D01*
X85673031Y-76735312D01*
X86208714Y-76957746D01*
X86788742Y-76958253D01*
X87324812Y-76736753D01*
X87735312Y-76326969D01*
X87957746Y-75791286D01*
X87958253Y-75211258D01*
X87736753Y-74675188D01*
X87619769Y-74558000D01*
X89416348Y-74558000D01*
X89345957Y-74628268D01*
X89192175Y-74998617D01*
X89191825Y-75399624D01*
X89344961Y-75770240D01*
X89449428Y-75874890D01*
X89395957Y-75928268D01*
X89242175Y-76298617D01*
X89241825Y-76699624D01*
X89394961Y-77070240D01*
X89678268Y-77354043D01*
X89742103Y-77380550D01*
X89741963Y-77542000D01*
X85000000Y-77542000D01*
X84633389Y-77614923D01*
X84322592Y-77822591D01*
X81322592Y-80822592D01*
X81114923Y-81133389D01*
X81042000Y-81500000D01*
X81042000Y-81896203D01*
X80895948Y-82042000D01*
X73321375Y-82042000D01*
X73201383Y-81992175D01*
X72800376Y-81991825D01*
X72429760Y-82144961D01*
X72145957Y-82428268D01*
X71992175Y-82798617D01*
X71991825Y-83199624D01*
X59155192Y-83199624D01*
X59677408Y-82677408D01*
X59885077Y-82366611D01*
X59902981Y-82276602D01*
X59958000Y-82000000D01*
X59958000Y-80196411D01*
X60179116Y-80288000D01*
X60891500Y-80288000D01*
X61056000Y-80123500D01*
X61056000Y-78884000D01*
X61264000Y-78884000D01*
X61264000Y-80123500D01*
X61428500Y-80288000D01*
X62140884Y-80288000D01*
X62382727Y-80187826D01*
X62567825Y-80002727D01*
X62668000Y-79760885D01*
X62668000Y-79048500D01*
X62503500Y-78884000D01*
X61264000Y-78884000D01*
X61056000Y-78884000D01*
X61036000Y-78884000D01*
X61036000Y-78676000D01*
X61056000Y-78676000D01*
X61056000Y-78656000D01*
X61264000Y-78656000D01*
X61264000Y-78676000D01*
X62503500Y-78676000D01*
X62668000Y-78511500D01*
X62668000Y-77799115D01*
X62567825Y-77557273D01*
X62382727Y-77372174D01*
X62243566Y-77314532D01*
X62255860Y-77306317D01*
X62582753Y-76817087D01*
X62697543Y-76240000D01*
X62649804Y-76000000D01*
X67853436Y-76000000D01*
X67964420Y-76557952D01*
X68280474Y-77030962D01*
X68753484Y-77347016D01*
X69311436Y-77458000D01*
X69368564Y-77458000D01*
X69926516Y-77347016D01*
X70399526Y-77030962D01*
X70715580Y-76557952D01*
X70826564Y-76000000D01*
X70715580Y-75442048D01*
X70399526Y-74969038D01*
X69926516Y-74652984D01*
X69368564Y-74542000D01*
X69311436Y-74542000D01*
X68753484Y-74652984D01*
X68280474Y-74969038D01*
X67964420Y-75442048D01*
X67853436Y-76000000D01*
X62649804Y-76000000D01*
X62582753Y-75662913D01*
X62255860Y-75173683D01*
X61947459Y-74967616D01*
X62034730Y-74928387D01*
X62438228Y-74500137D01*
X62629619Y-74038061D01*
X62499469Y-73804000D01*
X61264000Y-73804000D01*
X61264000Y-73824000D01*
X61056000Y-73824000D01*
X61056000Y-73804000D01*
X59820531Y-73804000D01*
X59690381Y-74038061D01*
X59881772Y-74500137D01*
X60285270Y-74928387D01*
X60372541Y-74967616D01*
X60064140Y-75173683D01*
X59991765Y-75282000D01*
X59957919Y-75282000D01*
X59591308Y-75354923D01*
X59280511Y-75562592D01*
X58322592Y-76520511D01*
X58114923Y-76831308D01*
X58042000Y-77197919D01*
X58042000Y-81603184D01*
X54603184Y-85042000D01*
X53879904Y-85042000D01*
X53856811Y-85018867D01*
X53431351Y-84842201D01*
X52970670Y-84841799D01*
X52544902Y-85017723D01*
X52218867Y-85343189D01*
X52042201Y-85768649D01*
X52041799Y-86229330D01*
X51733000Y-86229330D01*
X51733000Y-84072196D01*
X51742000Y-84026950D01*
X51742000Y-84130884D01*
X51842174Y-84372727D01*
X52027273Y-84557825D01*
X52269115Y-84658000D01*
X52931500Y-84658000D01*
X53096000Y-84493500D01*
X53096000Y-83754000D01*
X53304000Y-83754000D01*
X53304000Y-84493500D01*
X53468500Y-84658000D01*
X54130885Y-84658000D01*
X54372727Y-84557825D01*
X54557826Y-84372727D01*
X54658000Y-84130884D01*
X54658000Y-83918500D01*
X54493500Y-83754000D01*
X53304000Y-83754000D01*
X53096000Y-83754000D01*
X53076000Y-83754000D01*
X53076000Y-83546000D01*
X53096000Y-83546000D01*
X53096000Y-83526000D01*
X53304000Y-83526000D01*
X53304000Y-83546000D01*
X54493500Y-83546000D01*
X54658000Y-83381500D01*
X54658000Y-83169116D01*
X54557826Y-82927273D01*
X54372727Y-82742175D01*
X54350577Y-82733000D01*
X55000000Y-82733000D01*
X55070805Y-82718916D01*
X55143001Y-82718916D01*
X55908368Y-82566675D01*
X56172600Y-82457227D01*
X56821446Y-82023682D01*
X56821448Y-82023681D01*
X57023682Y-81821447D01*
X57457226Y-81172600D01*
X57566675Y-80908368D01*
X57718916Y-80143002D01*
X57718916Y-80070805D01*
X57733000Y-80000000D01*
X57733000Y-73361939D01*
X59690381Y-73361939D01*
X59820531Y-73596000D01*
X61056000Y-73596000D01*
X61056000Y-72360083D01*
X61264000Y-72360083D01*
X61264000Y-73596000D01*
X62499469Y-73596000D01*
X62629619Y-73361939D01*
X62438228Y-72899863D01*
X62034730Y-72471613D01*
X61627910Y-72288742D01*
X67541747Y-72288742D01*
X67763247Y-72824812D01*
X68173031Y-73235312D01*
X68708714Y-73457746D01*
X69288742Y-73458253D01*
X69824812Y-73236753D01*
X70235312Y-72826969D01*
X70457746Y-72291286D01*
X70458253Y-71711258D01*
X70236753Y-71175188D01*
X69826969Y-70764688D01*
X69790624Y-70749596D01*
X69858404Y-70505483D01*
X69000000Y-69647078D01*
X68141596Y-70505483D01*
X68209258Y-70749170D01*
X68175188Y-70763247D01*
X67764688Y-71173031D01*
X67542254Y-71708714D01*
X67541747Y-72288742D01*
X61627910Y-72288742D01*
X61498062Y-72230374D01*
X61264000Y-72360083D01*
X61056000Y-72360083D01*
X60821938Y-72230374D01*
X60285270Y-72471613D01*
X59881772Y-72899863D01*
X59690381Y-73361939D01*
X57733000Y-73361939D01*
X57733000Y-73000000D01*
X57718916Y-72929195D01*
X57718916Y-72856998D01*
X57566675Y-72091632D01*
X57457226Y-71827400D01*
X57023682Y-71178553D01*
X56821447Y-70976318D01*
X56172600Y-70542773D01*
X55908368Y-70433325D01*
X55143001Y-70281084D01*
X55070805Y-70281084D01*
X55000000Y-70267000D01*
X53072196Y-70267000D01*
X52520635Y-70157288D01*
X52114249Y-69885749D01*
X51842712Y-69479365D01*
X51798073Y-69254946D01*
X67533772Y-69254946D01*
X67551603Y-69834701D01*
X67739161Y-70287502D01*
X67994517Y-70358404D01*
X68852922Y-69500000D01*
X69147078Y-69500000D01*
X70005483Y-70358404D01*
X70179811Y-70310000D01*
X72339110Y-70310000D01*
X72339110Y-72010000D01*
X72384992Y-72253840D01*
X72529101Y-72477792D01*
X72748986Y-72628033D01*
X73010000Y-72680890D01*
X74710000Y-72680890D01*
X74953840Y-72635008D01*
X75177792Y-72490899D01*
X75328033Y-72271014D01*
X75343152Y-72196354D01*
X75599863Y-72438228D01*
X76061939Y-72629619D01*
X76296000Y-72499469D01*
X76296000Y-71264000D01*
X76504000Y-71264000D01*
X76504000Y-72499469D01*
X76738061Y-72629619D01*
X77200137Y-72438228D01*
X77628387Y-72034730D01*
X77869626Y-71498062D01*
X77739917Y-71264000D01*
X76504000Y-71264000D01*
X76296000Y-71264000D01*
X76276000Y-71264000D01*
X76276000Y-71056000D01*
X76296000Y-71056000D01*
X76296000Y-69820531D01*
X76504000Y-69820531D01*
X76504000Y-71056000D01*
X77739917Y-71056000D01*
X77869626Y-70821938D01*
X77628387Y-70285270D01*
X77200137Y-69881772D01*
X76738061Y-69690381D01*
X76504000Y-69820531D01*
X76296000Y-69820531D01*
X76061939Y-69690381D01*
X75599863Y-69881772D01*
X75345422Y-70121507D01*
X75335008Y-70066160D01*
X75190899Y-69842208D01*
X74971014Y-69691967D01*
X74710000Y-69639110D01*
X73010000Y-69639110D01*
X72766160Y-69684992D01*
X72542208Y-69829101D01*
X72391967Y-70048986D01*
X72339110Y-70310000D01*
X70179811Y-70310000D01*
X70260839Y-70287502D01*
X70466228Y-69745054D01*
X70448397Y-69165299D01*
X70260839Y-68712498D01*
X70005483Y-68641596D01*
X69147078Y-69500000D01*
X68852922Y-69500000D01*
X67994517Y-68641596D01*
X67739161Y-68712498D01*
X67533772Y-69254946D01*
X51798073Y-69254946D01*
X51733000Y-68927804D01*
X51733000Y-68494517D01*
X68141596Y-68494517D01*
X69000000Y-69352922D01*
X69858404Y-68494517D01*
X69787502Y-68239161D01*
X69245054Y-68033772D01*
X68665299Y-68051603D01*
X68212498Y-68239161D01*
X68141596Y-68494517D01*
X51733000Y-68494517D01*
X51733000Y-65476880D01*
X52591582Y-65476880D01*
X52957406Y-66362241D01*
X53634196Y-67040213D01*
X54518918Y-67407582D01*
X55476880Y-67408418D01*
X56362241Y-67042594D01*
X57040213Y-66365804D01*
X57407582Y-65481082D01*
X57408418Y-64523120D01*
X57042594Y-63637759D01*
X56365804Y-62959787D01*
X55481082Y-62592418D01*
X54523120Y-62591582D01*
X53637759Y-62957406D01*
X52959787Y-63634196D01*
X52592418Y-64518918D01*
X52591582Y-65476880D01*
X51733000Y-65476880D01*
X51733000Y-63072196D01*
X51842712Y-62520635D01*
X52114249Y-62114251D01*
X52520635Y-61842712D01*
X53072196Y-61733000D01*
X67927804Y-61733000D01*
X68479365Y-61842712D01*
G36*
X95284420Y-74942048D02*
X95173436Y-75500000D01*
X95284420Y-76057952D01*
X95600474Y-76530962D01*
X96073484Y-76847016D01*
X96631436Y-76958000D01*
X96688564Y-76958000D01*
X97246516Y-76847016D01*
X97719526Y-76530962D01*
X97953945Y-76180127D01*
X98078422Y-76481383D01*
X98516312Y-76920038D01*
X99088735Y-77157729D01*
X99708546Y-77158270D01*
X100281383Y-76921578D01*
X100437752Y-76765482D01*
X100482175Y-76872727D01*
X100667273Y-77057826D01*
X100909116Y-77158000D01*
X101671500Y-77158000D01*
X101836000Y-76993500D01*
X101836000Y-75704000D01*
X102044000Y-75704000D01*
X102044000Y-76993500D01*
X102208500Y-77158000D01*
X102970884Y-77158000D01*
X103212727Y-77057826D01*
X103397825Y-76872727D01*
X103498000Y-76630885D01*
X103498000Y-75868500D01*
X103333500Y-75704000D01*
X102044000Y-75704000D01*
X101836000Y-75704000D01*
X101816000Y-75704000D01*
X101816000Y-75496000D01*
X101836000Y-75496000D01*
X101836000Y-75476000D01*
X102044000Y-75476000D01*
X102044000Y-75496000D01*
X103333500Y-75496000D01*
X103498000Y-75331500D01*
X103498000Y-74652816D01*
X104522591Y-75677408D01*
X104775414Y-75846339D01*
X104833389Y-75885077D01*
X105200000Y-75958000D01*
X105526712Y-75958000D01*
X105175188Y-76103247D01*
X104764688Y-76513031D01*
X104542254Y-77048714D01*
X104541747Y-77628742D01*
X104763247Y-78164812D01*
X105173031Y-78575312D01*
X105217000Y-78593569D01*
X105217000Y-83557349D01*
X105145957Y-83628268D01*
X104992175Y-83998617D01*
X104991825Y-84399624D01*
X105009334Y-84442000D01*
X102396817Y-84442000D01*
X100737096Y-82782279D01*
X100798617Y-82807825D01*
X101199624Y-82808175D01*
X101570240Y-82655039D01*
X101642405Y-82583000D01*
X103157349Y-82583000D01*
X103228268Y-82654043D01*
X103598617Y-82807825D01*
X103999624Y-82808175D01*
X104370240Y-82655039D01*
X104654043Y-82371732D01*
X104807825Y-82001383D01*
X104808175Y-81600376D01*
X104655039Y-81229760D01*
X104371732Y-80945957D01*
X104001383Y-80792175D01*
X103600376Y-80791825D01*
X103229760Y-80944961D01*
X103157595Y-81017000D01*
X101642651Y-81017000D01*
X101571732Y-80945957D01*
X101201383Y-80792175D01*
X100800376Y-80791825D01*
X100429760Y-80944961D01*
X100145957Y-81228268D01*
X99992175Y-81598617D01*
X99991825Y-81999624D01*
X100018149Y-82063332D01*
X95777408Y-77822592D01*
X95466611Y-77614923D01*
X95100000Y-77542000D01*
X94470198Y-77542000D01*
X94507825Y-77451383D01*
X94508175Y-77050376D01*
X94469285Y-76956255D01*
X94604043Y-76821732D01*
X94757825Y-76451383D01*
X94758175Y-76050376D01*
X94605039Y-75679760D01*
X94321732Y-75395957D01*
X93951383Y-75242175D01*
X93807859Y-75242050D01*
X93808175Y-74880376D01*
X93674971Y-74558000D01*
X95541032Y-74558000D01*
X95284420Y-74942048D01*
X95284420Y-74942048D01*
G37*
X95284420Y-74942048D02*
X95173436Y-75500000D01*
X95284420Y-76057952D01*
X95600474Y-76530962D01*
X96073484Y-76847016D01*
X96631436Y-76958000D01*
X96688564Y-76958000D01*
X97246516Y-76847016D01*
X97719526Y-76530962D01*
X97953945Y-76180127D01*
X98078422Y-76481383D01*
X98516312Y-76920038D01*
X99088735Y-77157729D01*
X99708546Y-77158270D01*
X100281383Y-76921578D01*
X100437752Y-76765482D01*
X100482175Y-76872727D01*
X100667273Y-77057826D01*
X100909116Y-77158000D01*
X101671500Y-77158000D01*
X101836000Y-76993500D01*
X101836000Y-75704000D01*
X102044000Y-75704000D01*
X102044000Y-76993500D01*
X102208500Y-77158000D01*
X102970884Y-77158000D01*
X103212727Y-77057826D01*
X103397825Y-76872727D01*
X103498000Y-76630885D01*
X103498000Y-75868500D01*
X103333500Y-75704000D01*
X102044000Y-75704000D01*
X101836000Y-75704000D01*
X101816000Y-75704000D01*
X101816000Y-75496000D01*
X101836000Y-75496000D01*
X101836000Y-75476000D01*
X102044000Y-75476000D01*
X102044000Y-75496000D01*
X103333500Y-75496000D01*
X103498000Y-75331500D01*
X103498000Y-74652816D01*
X104522591Y-75677408D01*
X104775414Y-75846339D01*
X104833389Y-75885077D01*
X105200000Y-75958000D01*
X105526712Y-75958000D01*
X105175188Y-76103247D01*
X104764688Y-76513031D01*
X104542254Y-77048714D01*
X104541747Y-77628742D01*
X104763247Y-78164812D01*
X105173031Y-78575312D01*
X105217000Y-78593569D01*
X105217000Y-83557349D01*
X105145957Y-83628268D01*
X104992175Y-83998617D01*
X104991825Y-84399624D01*
X105009334Y-84442000D01*
X102396817Y-84442000D01*
X100737096Y-82782279D01*
X100798617Y-82807825D01*
X101199624Y-82808175D01*
X101570240Y-82655039D01*
X101642405Y-82583000D01*
X103157349Y-82583000D01*
X103228268Y-82654043D01*
X103598617Y-82807825D01*
X103999624Y-82808175D01*
X104370240Y-82655039D01*
X104654043Y-82371732D01*
X104807825Y-82001383D01*
X104808175Y-81600376D01*
X104655039Y-81229760D01*
X104371732Y-80945957D01*
X104001383Y-80792175D01*
X103600376Y-80791825D01*
X103229760Y-80944961D01*
X103157595Y-81017000D01*
X101642651Y-81017000D01*
X101571732Y-80945957D01*
X101201383Y-80792175D01*
X100800376Y-80791825D01*
X100429760Y-80944961D01*
X100145957Y-81228268D01*
X99992175Y-81598617D01*
X99991825Y-81999624D01*
X100018149Y-82063332D01*
X95777408Y-77822592D01*
X95466611Y-77614923D01*
X95100000Y-77542000D01*
X94470198Y-77542000D01*
X94507825Y-77451383D01*
X94508175Y-77050376D01*
X94469285Y-76956255D01*
X94604043Y-76821732D01*
X94757825Y-76451383D01*
X94758175Y-76050376D01*
X94605039Y-75679760D01*
X94321732Y-75395957D01*
X93951383Y-75242175D01*
X93807859Y-75242050D01*
X93808175Y-74880376D01*
X93674971Y-74558000D01*
X95541032Y-74558000D01*
X95284420Y-74942048D01*
M02*
