G04 #@! TF.FileFunction,Soldermask,Bot*
%FSLAX46Y46*%
G04 Gerber Fmt 4.6, Leading zero omitted, Abs format (unit mm)*
G04 Created by KiCad (PCBNEW 4.0.1-stable) date 2018/09/01 18:49:11*
%MOMM*%
G01*
G04 APERTURE LIST*
%ADD10C,0.100000*%
%ADD11C,2.000000*%
%ADD12R,3.900000X3.900000*%
%ADD13R,2.200000X2.200000*%
%ADD14C,2.200000*%
%ADD15R,3.000000X1.400000*%
%ADD16C,1.700000*%
%ADD17R,2.100000X2.100000*%
%ADD18O,2.100000X2.100000*%
%ADD19O,2.000000X2.000000*%
%ADD20C,1.400000*%
%ADD21R,2.000000X1.100000*%
%ADD22R,1.100000X2.000000*%
%ADD23C,1.900000*%
%ADD24C,2.100000*%
%ADD25R,2.000000X2.000000*%
%ADD26C,2.400000*%
G04 APERTURE END LIST*
D10*
D11*
X82000000Y-83000000D03*
X84500000Y-83000000D03*
X97000000Y-92000000D03*
X99500000Y-92000000D03*
X97000000Y-88000000D03*
X99500000Y-88000000D03*
X71320000Y-95925000D03*
X71320000Y-93425000D03*
X71320000Y-88305000D03*
X71320000Y-90805000D03*
X119500000Y-103000000D03*
X122000000Y-103000000D03*
X77000000Y-101500000D03*
X79500000Y-101500000D03*
X89500000Y-101500000D03*
X92000000Y-101500000D03*
X69000000Y-72000000D03*
X69000000Y-69500000D03*
X102000000Y-101500000D03*
X104500000Y-101500000D03*
X71500000Y-105000000D03*
X74000000Y-105000000D03*
X114000000Y-109000000D03*
X116500000Y-109000000D03*
D12*
X65000000Y-99000000D03*
X59000000Y-99000000D03*
X62000000Y-103700000D03*
D13*
X101940000Y-75600000D03*
D14*
X99400000Y-75600000D03*
D11*
X60000000Y-87000000D03*
X65000000Y-87000000D03*
D15*
X138000000Y-106550000D03*
X138000000Y-100850000D03*
X130500000Y-106000000D03*
X130500000Y-101400000D03*
D16*
X134500000Y-106200000D03*
X134500000Y-101600000D03*
D17*
X61160000Y-78780000D03*
D18*
X61160000Y-76240000D03*
X61160000Y-73700000D03*
D17*
X127200000Y-71160000D03*
D18*
X129740000Y-71160000D03*
D17*
X73860000Y-71160000D03*
D18*
X76400000Y-71160000D03*
D11*
X86500000Y-75500000D03*
D19*
X96660000Y-75500000D03*
D11*
X106000000Y-77340000D03*
D19*
X106000000Y-87500000D03*
D11*
X109500000Y-87500000D03*
D19*
X109500000Y-77340000D03*
D11*
X87160000Y-105000000D03*
D19*
X77000000Y-105000000D03*
D11*
X99660000Y-105000000D03*
D19*
X89500000Y-105000000D03*
D11*
X79500000Y-76000000D03*
D19*
X69340000Y-76000000D03*
D11*
X112160000Y-105000000D03*
D19*
X102000000Y-105000000D03*
D11*
X70000000Y-108625000D03*
D19*
X59840000Y-108625000D03*
D11*
X124160000Y-113000000D03*
D19*
X114000000Y-113000000D03*
D20*
X53200000Y-86000000D03*
X53200000Y-88000000D03*
X53200000Y-90000000D03*
D21*
X53200000Y-83650000D03*
X53200000Y-92350000D03*
D20*
X64500000Y-113500000D03*
X66500000Y-113500000D03*
X68500000Y-113500000D03*
D22*
X62150000Y-113500000D03*
X70850000Y-113500000D03*
D23*
X77000000Y-94880000D03*
X77000000Y-90000000D03*
D18*
X121840000Y-77000000D03*
X124380000Y-77000000D03*
X126920000Y-77000000D03*
X129460000Y-77000000D03*
X132000000Y-77000000D03*
X134540000Y-77000000D03*
X137080000Y-77000000D03*
D24*
X139620000Y-77000000D03*
D17*
X121840000Y-97320000D03*
D18*
X124380000Y-97320000D03*
X126920000Y-97320000D03*
X129460000Y-97320000D03*
X132000000Y-97320000D03*
X134540000Y-97320000D03*
X137080000Y-97320000D03*
X139620000Y-97320000D03*
D17*
X114500000Y-71000000D03*
D18*
X117040000Y-71000000D03*
X119580000Y-71000000D03*
X122120000Y-71000000D03*
D17*
X101800000Y-71000000D03*
D18*
X104340000Y-71000000D03*
X106880000Y-71000000D03*
X109420000Y-71000000D03*
D17*
X81480000Y-71160000D03*
D18*
X84020000Y-71160000D03*
X86560000Y-71160000D03*
X89100000Y-71160000D03*
X91640000Y-71160000D03*
X94180000Y-71160000D03*
X96720000Y-71160000D03*
D25*
X115000000Y-95500000D03*
D11*
X112500000Y-95500000D03*
D26*
X73500000Y-113500000D03*
X73500000Y-109000000D03*
X80000000Y-113500000D03*
X80000000Y-109000000D03*
X83500000Y-113500000D03*
X83500000Y-109000000D03*
X90000000Y-113500000D03*
X90000000Y-109000000D03*
X93500000Y-113500000D03*
X93500000Y-109000000D03*
X100000000Y-113500000D03*
X100000000Y-109000000D03*
X103500000Y-113500000D03*
X103500000Y-109000000D03*
X110000000Y-113500000D03*
X110000000Y-109000000D03*
D11*
X96250000Y-97500000D03*
D19*
X106410000Y-97500000D03*
D11*
X125750000Y-110410000D03*
D19*
X125750000Y-100250000D03*
M02*
