G04 #@! TF.FileFunction,Profile,NP*
%FSLAX46Y46*%
G04 Gerber Fmt 4.6, Leading zero omitted, Abs format (unit mm)*
G04 Created by KiCad (PCBNEW 4.0.1-stable) date 2018/09/01 18:49:11*
%MOMM*%
G01*
G04 APERTURE LIST*
%ADD10C,0.100000*%
%ADD11C,0.150000*%
G04 APERTURE END LIST*
D10*
D11*
X51000000Y-69000000D02*
X51000000Y-63000000D01*
X55000000Y-71000000D02*
X53000000Y-71000000D01*
X57000000Y-80000000D02*
X57000000Y-73000000D01*
X51000000Y-69000000D02*
G75*
G03X53000000Y-71000000I2000000J0D01*
G01*
X57000000Y-73000000D02*
G75*
G03X55000000Y-71000000I-2000000J0D01*
G01*
X53000000Y-82000000D02*
X55000000Y-82000000D01*
X51000000Y-114000000D02*
X51000000Y-84000000D01*
X140000000Y-116000000D02*
X53000000Y-116000000D01*
X142000000Y-63000000D02*
X142000000Y-114000000D01*
X135000000Y-61000000D02*
X140000000Y-61000000D01*
X133000000Y-65000000D02*
X133000000Y-63000000D01*
X72000000Y-67000000D02*
X131000000Y-67000000D01*
X70000000Y-63000000D02*
X70000000Y-65000000D01*
X68000000Y-61000000D02*
X53000000Y-61000000D01*
X53000000Y-82000000D02*
G75*
G03X51000000Y-84000000I0J-2000000D01*
G01*
X55000000Y-82000000D02*
G75*
G03X57000000Y-80000000I0J2000000D01*
G01*
X51000000Y-114000000D02*
G75*
G03X53000000Y-116000000I2000000J0D01*
G01*
X140000000Y-116000000D02*
G75*
G03X142000000Y-114000000I0J2000000D01*
G01*
X142000000Y-63000000D02*
G75*
G03X140000000Y-61000000I-2000000J0D01*
G01*
X135000000Y-61000000D02*
G75*
G03X133000000Y-63000000I0J-2000000D01*
G01*
X70000000Y-65000000D02*
G75*
G03X72000000Y-67000000I2000000J0D01*
G01*
X131000000Y-67000000D02*
G75*
G03X133000000Y-65000000I0J2000000D01*
G01*
X70000000Y-63000000D02*
G75*
G03X68000000Y-61000000I-2000000J0D01*
G01*
X53000000Y-61000000D02*
G75*
G03X51000000Y-63000000I0J-2000000D01*
G01*
M02*
