%FSLAX45Y45*%
G04 Gerber Fmt 4.5, Leading zero omitted, Abs format (unit mm)*
G04 Created by KiCad (PCBNEW 4.0.1-stable) date 2018/09/01 18:49:29*
%MOMM*%
G01*
G04 APERTURE LIST*
%ADD10C,0.127000*%
%ADD11C,0.150000*%
%ADD12C,0.200000*%
%ADD13C,0.300000*%
G04 APERTURE END LIST*
D10*
D11*
X5100000Y-6900000D02*
X5100000Y-6300000D01*
X5500000Y-7100000D02*
X5300000Y-7100000D01*
X5700000Y-8000000D02*
X5700000Y-7300000D01*
X5100000Y-6900000D02*
G75*
G03X5300000Y-7100000I200000J0D01*
G01*
X5700000Y-7300000D02*
G75*
G03X5500000Y-7100000I-200000J0D01*
G01*
X5300000Y-8200000D02*
X5500000Y-8200000D01*
X5100000Y-11400000D02*
X5100000Y-8400000D01*
X14000000Y-11600000D02*
X5300000Y-11600000D01*
X14200000Y-6300000D02*
X14200000Y-11400000D01*
X13500000Y-6100000D02*
X14000000Y-6100000D01*
X13300000Y-6500000D02*
X13300000Y-6300000D01*
X7200000Y-6700000D02*
X13100000Y-6700000D01*
X7000000Y-6300000D02*
X7000000Y-6500000D01*
X6800000Y-6100000D02*
X5300000Y-6100000D01*
X5300000Y-8200000D02*
G75*
G03X5100000Y-8400000I0J-200000D01*
G01*
X5500000Y-8200000D02*
G75*
G03X5700000Y-8000000I0J200000D01*
G01*
X5100000Y-11400000D02*
G75*
G03X5300000Y-11600000I200000J0D01*
G01*
X14000000Y-11600000D02*
G75*
G03X14200000Y-11400000I0J200000D01*
G01*
X14200000Y-6300000D02*
G75*
G03X14000000Y-6100000I-200000J0D01*
G01*
X13500000Y-6100000D02*
G75*
G03X13300000Y-6300000I0J-200000D01*
G01*
X7000000Y-6500000D02*
G75*
G03X7200000Y-6700000I200000J0D01*
G01*
X13100000Y-6700000D02*
G75*
G03X13300000Y-6500000I0J200000D01*
G01*
X7000000Y-6300000D02*
G75*
G03X6800000Y-6100000I-200000J0D01*
G01*
X5300000Y-6100000D02*
G75*
G03X5100000Y-6300000I0J-200000D01*
G01*
D12*
X5185000Y-6485000D02*
X5215000Y-6515000D01*
X5215000Y-6485000D02*
X5185000Y-6515000D01*
X5185000Y-6785000D02*
X5215000Y-6815000D01*
X5215000Y-6785000D02*
X5185000Y-6815000D01*
X5185000Y-8685000D02*
X5215000Y-8715000D01*
X5215000Y-8685000D02*
X5185000Y-8715000D01*
X5185000Y-9085000D02*
X5215000Y-9115000D01*
X5215000Y-9085000D02*
X5185000Y-9115000D01*
X5185000Y-9385000D02*
X5215000Y-9415000D01*
X5215000Y-9385000D02*
X5185000Y-9415000D01*
X5185000Y-9685000D02*
X5215000Y-9715000D01*
X5215000Y-9685000D02*
X5185000Y-9715000D01*
X5185000Y-9985000D02*
X5215000Y-10015000D01*
X5215000Y-9985000D02*
X5185000Y-10015000D01*
X5185000Y-10285000D02*
X5215000Y-10315000D01*
X5215000Y-10285000D02*
X5185000Y-10315000D01*
X5185000Y-10585000D02*
X5215000Y-10615000D01*
X5215000Y-10585000D02*
X5185000Y-10615000D01*
X5185000Y-10885000D02*
X5215000Y-10915000D01*
X5215000Y-10885000D02*
X5185000Y-10915000D01*
X5185000Y-11185000D02*
X5215000Y-11215000D01*
X5215000Y-11185000D02*
X5185000Y-11215000D01*
X5285000Y-6185000D02*
X5315000Y-6215000D01*
X5315000Y-6185000D02*
X5285000Y-6215000D01*
X5285000Y-11485000D02*
X5315000Y-11515000D01*
X5315000Y-11485000D02*
X5285000Y-11515000D01*
X5385000Y-6985000D02*
X5415000Y-7015000D01*
X5415000Y-6985000D02*
X5385000Y-7015000D01*
X5585000Y-6185000D02*
X5615000Y-6215000D01*
X5615000Y-6185000D02*
X5585000Y-6215000D01*
X5585000Y-8285000D02*
X5615000Y-8315000D01*
X5615000Y-8285000D02*
X5585000Y-8315000D01*
X5585000Y-11485000D02*
X5615000Y-11515000D01*
X5615000Y-11485000D02*
X5585000Y-11515000D01*
X5785000Y-7185000D02*
X5815000Y-7215000D01*
X5815000Y-7185000D02*
X5785000Y-7215000D01*
X5785000Y-7485000D02*
X5815000Y-7515000D01*
X5815000Y-7485000D02*
X5785000Y-7515000D01*
X5785000Y-7785000D02*
X5815000Y-7815000D01*
X5815000Y-7785000D02*
X5785000Y-7815000D01*
X5785000Y-8085000D02*
X5815000Y-8115000D01*
X5815000Y-8085000D02*
X5785000Y-8115000D01*
X5885000Y-6185000D02*
X5915000Y-6215000D01*
X5915000Y-6185000D02*
X5885000Y-6215000D01*
X5885000Y-9135000D02*
X5915000Y-9165000D01*
X5915000Y-9135000D02*
X5885000Y-9165000D01*
X5885000Y-9235000D02*
X5915000Y-9265000D01*
X5915000Y-9235000D02*
X5885000Y-9265000D01*
X5885000Y-11485000D02*
X5915000Y-11515000D01*
X5915000Y-11485000D02*
X5885000Y-11515000D01*
X5985000Y-9135000D02*
X6015000Y-9165000D01*
X6015000Y-9135000D02*
X5985000Y-9165000D01*
X5985000Y-9235000D02*
X6015000Y-9265000D01*
X6015000Y-9235000D02*
X5985000Y-9265000D01*
X6085000Y-9135000D02*
X6115000Y-9165000D01*
X6115000Y-9135000D02*
X6085000Y-9165000D01*
X6085000Y-9235000D02*
X6115000Y-9265000D01*
X6115000Y-9235000D02*
X6085000Y-9265000D01*
X6185000Y-11485000D02*
X6215000Y-11515000D01*
X6215000Y-11485000D02*
X6185000Y-11515000D01*
X6285000Y-6185000D02*
X6315000Y-6215000D01*
X6315000Y-6185000D02*
X6285000Y-6215000D01*
X6410000Y-7860000D02*
X6440000Y-7890000D01*
X6440000Y-7860000D02*
X6410000Y-7890000D01*
X6410000Y-7960000D02*
X6440000Y-7990000D01*
X6440000Y-7960000D02*
X6410000Y-7990000D01*
X6485000Y-11485000D02*
X6515000Y-11515000D01*
X6515000Y-11485000D02*
X6485000Y-11515000D01*
X6510000Y-7860000D02*
X6540000Y-7890000D01*
X6540000Y-7860000D02*
X6510000Y-7890000D01*
X6510000Y-7960000D02*
X6540000Y-7990000D01*
X6540000Y-7960000D02*
X6510000Y-7990000D01*
X6610000Y-7860000D02*
X6640000Y-7890000D01*
X6640000Y-7860000D02*
X6610000Y-7890000D01*
X6610000Y-7960000D02*
X6640000Y-7990000D01*
X6640000Y-7960000D02*
X6610000Y-7990000D01*
X6685000Y-6185000D02*
X6715000Y-6215000D01*
X6715000Y-6185000D02*
X6685000Y-6215000D01*
X6735000Y-8560000D02*
X6765000Y-8590000D01*
X6765000Y-8560000D02*
X6735000Y-8590000D01*
X6735000Y-8660000D02*
X6765000Y-8690000D01*
X6765000Y-8660000D02*
X6735000Y-8690000D01*
X6735000Y-8760000D02*
X6765000Y-8790000D01*
X6765000Y-8760000D02*
X6735000Y-8790000D01*
X6785000Y-11485000D02*
X6815000Y-11515000D01*
X6815000Y-11485000D02*
X6785000Y-11515000D01*
X6835000Y-8560000D02*
X6865000Y-8590000D01*
X6865000Y-8560000D02*
X6835000Y-8590000D01*
X6835000Y-8660000D02*
X6865000Y-8690000D01*
X6865000Y-8660000D02*
X6835000Y-8690000D01*
X6835000Y-8760000D02*
X6865000Y-8790000D01*
X6865000Y-8760000D02*
X6835000Y-8790000D01*
X6885000Y-6385000D02*
X6915000Y-6415000D01*
X6915000Y-6385000D02*
X6885000Y-6415000D01*
X6885000Y-9205000D02*
X6915000Y-9235000D01*
X6915000Y-9205000D02*
X6885000Y-9235000D01*
X6885000Y-9885001D02*
X6915000Y-9915001D01*
X6915000Y-9885001D02*
X6885000Y-9915001D01*
X6885000Y-10285000D02*
X6915000Y-10315000D01*
X6915000Y-10285000D02*
X6885000Y-10315000D01*
X6985000Y-6685000D02*
X7015000Y-6715000D01*
X7015000Y-6685000D02*
X6985000Y-6715000D01*
X7060000Y-7385000D02*
X7090000Y-7415000D01*
X7090000Y-7385000D02*
X7060000Y-7415000D01*
X7065000Y-9845000D02*
X7095000Y-9875000D01*
X7095000Y-9845000D02*
X7065000Y-9875000D01*
X7085000Y-8565000D02*
X7115000Y-8595000D01*
X7115000Y-8565000D02*
X7085000Y-8595000D01*
X7085000Y-10085000D02*
X7115000Y-10115000D01*
X7115000Y-10085000D02*
X7085000Y-10115000D01*
X7085000Y-10185000D02*
X7115000Y-10215000D01*
X7115000Y-10185000D02*
X7085000Y-10215000D01*
X7085000Y-11485000D02*
X7115000Y-11515000D01*
X7115000Y-11485000D02*
X7085000Y-11515000D01*
X7185000Y-6785000D02*
X7215000Y-6815000D01*
X7215000Y-6785000D02*
X7185000Y-6815000D01*
X7185000Y-10085000D02*
X7215000Y-10115000D01*
X7215000Y-10085000D02*
X7185000Y-10115000D01*
X7185000Y-10185000D02*
X7215000Y-10215000D01*
X7215000Y-10185000D02*
X7185000Y-10215000D01*
X7285000Y-8285000D02*
X7315000Y-8315000D01*
X7315000Y-8285000D02*
X7285000Y-8315000D01*
X7285000Y-9985000D02*
X7315000Y-10015000D01*
X7315000Y-9985000D02*
X7285000Y-10015000D01*
X7285000Y-10085000D02*
X7315000Y-10115000D01*
X7315000Y-10085000D02*
X7285000Y-10115000D01*
X7285000Y-10185000D02*
X7315000Y-10215000D01*
X7315000Y-10185000D02*
X7285000Y-10215000D01*
X7485000Y-6785000D02*
X7515000Y-6815000D01*
X7515000Y-6785000D02*
X7485000Y-6815000D01*
X7485000Y-11485000D02*
X7515000Y-11515000D01*
X7515000Y-11485000D02*
X7485000Y-11515000D01*
X7610000Y-7710000D02*
X7640000Y-7740000D01*
X7640000Y-7710000D02*
X7610000Y-7740000D01*
X7610000Y-7810000D02*
X7640000Y-7840000D01*
X7640000Y-7810000D02*
X7610000Y-7840000D01*
X7610000Y-7910000D02*
X7640000Y-7940000D01*
X7640000Y-7910000D02*
X7610000Y-7940000D01*
X7710000Y-7710000D02*
X7740000Y-7740000D01*
X7740000Y-7710000D02*
X7710000Y-7740000D01*
X7710000Y-7810000D02*
X7740000Y-7840000D01*
X7740000Y-7810000D02*
X7710000Y-7840000D01*
X7710000Y-7910000D02*
X7740000Y-7940000D01*
X7740000Y-7910000D02*
X7710000Y-7940000D01*
X7785000Y-6785000D02*
X7815000Y-6815000D01*
X7815000Y-6785000D02*
X7785000Y-6815000D01*
X7785000Y-11485000D02*
X7815000Y-11515000D01*
X7815000Y-11485000D02*
X7785000Y-11515000D01*
X7885000Y-8565000D02*
X7915000Y-8595000D01*
X7915000Y-8565000D02*
X7885000Y-8595000D01*
X7905000Y-9839999D02*
X7935000Y-9869999D01*
X7935000Y-9839999D02*
X7905000Y-9869999D01*
X8065000Y-8985000D02*
X8095000Y-9015000D01*
X8095000Y-8985000D02*
X8065000Y-9015000D01*
X8065000Y-9385000D02*
X8095000Y-9415000D01*
X8095000Y-9385000D02*
X8065000Y-9415000D01*
X8085000Y-6785000D02*
X8115000Y-6815000D01*
X8115000Y-6785000D02*
X8085000Y-6815000D01*
X8110000Y-9485000D02*
X8140000Y-9515000D01*
X8140000Y-9485000D02*
X8110000Y-9515000D01*
X8110000Y-9585000D02*
X8140000Y-9615000D01*
X8140000Y-9585000D02*
X8110000Y-9615000D01*
X8110000Y-9685000D02*
X8140000Y-9715000D01*
X8140000Y-9685000D02*
X8110000Y-9715000D01*
X8185000Y-8845000D02*
X8215000Y-8875000D01*
X8215000Y-8845000D02*
X8185000Y-8875000D01*
X8185000Y-9085000D02*
X8215000Y-9115000D01*
X8215000Y-9085000D02*
X8185000Y-9115000D01*
X8185000Y-11485000D02*
X8215000Y-11515000D01*
X8215000Y-11485000D02*
X8185000Y-11515000D01*
X8210000Y-9485000D02*
X8240000Y-9515000D01*
X8240000Y-9485000D02*
X8210000Y-9515000D01*
X8210000Y-9585000D02*
X8240000Y-9615000D01*
X8240000Y-9585000D02*
X8210000Y-9615000D01*
X8210000Y-9685000D02*
X8240000Y-9715000D01*
X8240000Y-9685000D02*
X8210000Y-9715000D01*
X8285000Y-8772502D02*
X8315000Y-8802502D01*
X8315000Y-8772502D02*
X8285000Y-8802502D01*
X8305000Y-7625000D02*
X8335000Y-7655000D01*
X8335000Y-7625000D02*
X8305000Y-7655000D01*
X8310000Y-7810000D02*
X8340000Y-7840000D01*
X8340000Y-7810000D02*
X8310000Y-7840000D01*
X8385000Y-6785000D02*
X8415000Y-6815000D01*
X8415000Y-6785000D02*
X8385000Y-6815000D01*
X8445000Y-9425000D02*
X8475000Y-9455000D01*
X8475000Y-9425000D02*
X8445000Y-9455000D01*
X8585000Y-11485000D02*
X8615000Y-11515000D01*
X8615000Y-11485000D02*
X8585000Y-11515000D01*
X8624501Y-9024750D02*
X8654501Y-9054750D01*
X8654501Y-9024750D02*
X8624501Y-9054750D01*
X8625000Y-8705000D02*
X8655000Y-8735000D01*
X8655000Y-8705000D02*
X8625000Y-8735000D01*
X8625000Y-8865000D02*
X8655000Y-8895000D01*
X8655000Y-8865000D02*
X8625000Y-8895000D01*
X8685000Y-6785000D02*
X8715000Y-6815000D01*
X8715000Y-6785000D02*
X8685000Y-6815000D01*
X8685000Y-8285000D02*
X8715000Y-8315000D01*
X8715000Y-8285000D02*
X8685000Y-8315000D01*
X8705000Y-9165002D02*
X8735000Y-9195002D01*
X8735000Y-9165002D02*
X8705000Y-9195002D01*
X8752502Y-8065000D02*
X8782502Y-8095000D01*
X8782502Y-8065000D02*
X8752502Y-8095000D01*
X8825000Y-8145000D02*
X8855000Y-8175000D01*
X8855000Y-8145000D02*
X8825000Y-8175000D01*
X8825000Y-9245000D02*
X8855000Y-9275000D01*
X8855000Y-9245000D02*
X8825000Y-9275000D01*
X8900909Y-8073628D02*
X8930909Y-8103628D01*
X8930909Y-8073628D02*
X8900909Y-8103628D01*
X8985000Y-6785000D02*
X9015000Y-6815000D01*
X9015000Y-6785000D02*
X8985000Y-6815000D01*
X8985000Y-9265000D02*
X9015000Y-9295000D01*
X9015000Y-9265000D02*
X8985000Y-9295000D01*
X9005000Y-7505000D02*
X9035000Y-7535000D01*
X9035000Y-7505000D02*
X9005000Y-7535000D01*
X9010000Y-7635000D02*
X9040000Y-7665000D01*
X9040000Y-7635000D02*
X9010000Y-7665000D01*
X9060000Y-7735000D02*
X9090000Y-7765000D01*
X9090000Y-7735000D02*
X9060000Y-7765000D01*
X9065000Y-9197498D02*
X9095000Y-9227498D01*
X9095000Y-9197498D02*
X9065000Y-9227498D01*
X9145000Y-8945000D02*
X9175000Y-8975000D01*
X9175000Y-8945000D02*
X9145000Y-8975000D01*
X9185000Y-11485000D02*
X9215000Y-11515000D01*
X9215000Y-11485000D02*
X9185000Y-11515000D01*
X9235000Y-7960000D02*
X9265000Y-7990000D01*
X9265000Y-7960000D02*
X9235000Y-7990000D01*
X9235000Y-8060000D02*
X9265000Y-8090000D01*
X9265000Y-8060000D02*
X9235000Y-8090000D01*
X9265000Y-7493000D02*
X9295000Y-7523000D01*
X9295000Y-7493000D02*
X9265000Y-7523000D01*
X9285000Y-6785000D02*
X9315000Y-6815000D01*
X9315000Y-6785000D02*
X9285000Y-6815000D01*
X9285000Y-9410000D02*
X9315000Y-9440000D01*
X9315000Y-9410000D02*
X9285000Y-9440000D01*
X9335000Y-7710000D02*
X9365000Y-7740000D01*
X9365000Y-7710000D02*
X9335000Y-7740000D01*
X9335000Y-7960000D02*
X9365000Y-7990000D01*
X9365000Y-7960000D02*
X9335000Y-7990000D01*
X9335000Y-8060000D02*
X9365000Y-8090000D01*
X9365000Y-8060000D02*
X9335000Y-8090000D01*
X9360000Y-7610000D02*
X9390000Y-7640000D01*
X9390000Y-7610000D02*
X9360000Y-7640000D01*
X9360000Y-9485000D02*
X9390000Y-9515000D01*
X9390000Y-9485000D02*
X9360000Y-9515000D01*
X9435000Y-7960000D02*
X9465000Y-7990000D01*
X9465000Y-7960000D02*
X9435000Y-7990000D01*
X9435000Y-8060000D02*
X9465000Y-8090000D01*
X9465000Y-8060000D02*
X9435000Y-8090000D01*
X9459997Y-9585000D02*
X9489997Y-9615000D01*
X9489997Y-9585000D02*
X9459997Y-9615000D01*
X9460000Y-9485001D02*
X9490000Y-9515001D01*
X9490000Y-9485001D02*
X9460000Y-9515001D01*
X9505000Y-8865000D02*
X9535000Y-8895000D01*
X9535000Y-8865000D02*
X9505000Y-8895000D01*
X9535000Y-10135000D02*
X9565000Y-10165000D01*
X9565000Y-10135000D02*
X9535000Y-10165000D01*
X9535000Y-10260000D02*
X9565000Y-10290000D01*
X9565000Y-10260000D02*
X9535000Y-10290000D01*
X9560000Y-9485000D02*
X9590000Y-9515000D01*
X9590000Y-9485000D02*
X9560000Y-9515000D01*
X9560000Y-9585000D02*
X9590000Y-9615000D01*
X9590000Y-9585000D02*
X9560000Y-9615000D01*
X9585000Y-6785000D02*
X9615000Y-6815000D01*
X9615000Y-6785000D02*
X9585000Y-6815000D01*
X9585000Y-11485000D02*
X9615000Y-11515000D01*
X9615000Y-11485000D02*
X9585000Y-11515000D01*
X9660000Y-10135000D02*
X9690000Y-10165000D01*
X9690000Y-10135000D02*
X9660000Y-10165000D01*
X9660000Y-10260000D02*
X9690000Y-10290000D01*
X9690000Y-10260000D02*
X9660000Y-10290000D01*
X9885000Y-6785000D02*
X9915000Y-6815000D01*
X9915000Y-6785000D02*
X9885000Y-6815000D01*
X9909999Y-9760000D02*
X9939999Y-9790000D01*
X9939999Y-9760000D02*
X9909999Y-9790000D01*
X10085000Y-8165000D02*
X10115000Y-8195000D01*
X10115000Y-8165000D02*
X10085000Y-8195000D01*
X10160000Y-9185000D02*
X10190000Y-9215000D01*
X10190000Y-9185000D02*
X10160000Y-9215000D01*
X10160000Y-9285000D02*
X10190000Y-9315000D01*
X10190000Y-9285000D02*
X10160000Y-9315000D01*
X10185000Y-6785000D02*
X10215000Y-6815000D01*
X10215000Y-6785000D02*
X10185000Y-6815000D01*
X10185000Y-11485000D02*
X10215000Y-11515000D01*
X10215000Y-11485000D02*
X10185000Y-11515000D01*
X10260000Y-9185000D02*
X10290000Y-9215000D01*
X10290000Y-9185000D02*
X10260000Y-9215000D01*
X10260000Y-9285000D02*
X10290000Y-9315000D01*
X10290000Y-9285000D02*
X10260000Y-9315000D01*
X10365000Y-8165000D02*
X10395000Y-8195000D01*
X10395000Y-8165000D02*
X10365000Y-8195000D01*
X10485000Y-6785000D02*
X10515000Y-6815000D01*
X10515000Y-6785000D02*
X10485000Y-6815000D01*
X10585000Y-8405000D02*
X10615000Y-8435000D01*
X10615000Y-8405000D02*
X10585000Y-8435000D01*
X10685000Y-10285000D02*
X10715000Y-10315000D01*
X10715000Y-10285000D02*
X10685000Y-10315000D01*
X10685000Y-10385000D02*
X10715000Y-10415000D01*
X10715000Y-10385000D02*
X10685000Y-10415000D01*
X10685000Y-11485000D02*
X10715000Y-11515000D01*
X10715000Y-11485000D02*
X10685000Y-11515000D01*
X10780324Y-10289677D02*
X10810324Y-10319677D01*
X10810324Y-10289677D02*
X10780324Y-10319677D01*
X10785000Y-6785000D02*
X10815000Y-6815000D01*
X10815000Y-6785000D02*
X10785000Y-6815000D01*
X10785000Y-10385000D02*
X10815000Y-10415000D01*
X10815000Y-10385000D02*
X10785000Y-10415000D01*
X10810000Y-9535000D02*
X10840000Y-9565000D01*
X10840000Y-9535000D02*
X10810000Y-9565000D01*
X10810000Y-9635000D02*
X10840000Y-9665000D01*
X10840000Y-9635000D02*
X10810000Y-9665000D01*
X10910000Y-9535000D02*
X10940000Y-9565000D01*
X10940000Y-9535000D02*
X10910000Y-9565000D01*
X10910000Y-9635000D02*
X10940000Y-9665000D01*
X10940000Y-9635000D02*
X10910000Y-9665000D01*
X10945000Y-8265000D02*
X10975000Y-8295000D01*
X10975000Y-8265000D02*
X10945000Y-8295000D01*
X11010000Y-9535000D02*
X11040000Y-9565000D01*
X11040000Y-9535000D02*
X11010000Y-9565000D01*
X11010000Y-9635000D02*
X11040000Y-9665000D01*
X11040000Y-9635000D02*
X11010000Y-9665000D01*
X11085000Y-6785000D02*
X11115000Y-6815000D01*
X11115000Y-6785000D02*
X11085000Y-6815000D01*
X11285000Y-11485000D02*
X11315000Y-11515000D01*
X11315000Y-11485000D02*
X11285000Y-11515000D01*
X11385000Y-6785000D02*
X11415000Y-6815000D01*
X11415000Y-6785000D02*
X11385000Y-6815000D01*
X11485000Y-8885000D02*
X11515000Y-8915000D01*
X11515000Y-8885000D02*
X11485000Y-8915000D01*
X11585000Y-11485000D02*
X11615000Y-11515000D01*
X11615000Y-11485000D02*
X11585000Y-11515000D01*
X11665000Y-8625000D02*
X11695000Y-8655000D01*
X11695000Y-8625000D02*
X11665000Y-8655000D01*
X11685000Y-6785000D02*
X11715000Y-6815000D01*
X11715000Y-6785000D02*
X11685000Y-6815000D01*
X11745000Y-7985000D02*
X11775000Y-8015000D01*
X11775000Y-7985000D02*
X11745000Y-8015000D01*
X11785000Y-9310000D02*
X11815000Y-9340000D01*
X11815000Y-9310000D02*
X11785000Y-9340000D01*
X11785000Y-9410000D02*
X11815000Y-9440000D01*
X11815000Y-9410000D02*
X11785000Y-9440000D01*
X11785000Y-9510000D02*
X11815000Y-9540000D01*
X11815000Y-9510000D02*
X11785000Y-9540000D01*
X11860000Y-8335000D02*
X11890000Y-8365000D01*
X11890000Y-8335000D02*
X11860000Y-8365000D01*
X11860000Y-8435000D02*
X11890000Y-8465000D01*
X11890000Y-8435000D02*
X11860000Y-8465000D01*
X11860000Y-8535000D02*
X11890000Y-8565000D01*
X11890000Y-8535000D02*
X11860000Y-8565000D01*
X11871571Y-7878431D02*
X11901571Y-7908431D01*
X11901571Y-7878431D02*
X11871571Y-7908431D01*
X11885000Y-9310000D02*
X11915000Y-9340000D01*
X11915000Y-9310000D02*
X11885000Y-9340000D01*
X11885000Y-9410000D02*
X11915000Y-9440000D01*
X11915000Y-9410000D02*
X11885000Y-9440000D01*
X11885000Y-9510000D02*
X11915000Y-9540000D01*
X11915000Y-9510000D02*
X11885000Y-9540000D01*
X11885000Y-11485000D02*
X11915000Y-11515000D01*
X11915000Y-11485000D02*
X11885000Y-11515000D01*
X11960000Y-8335000D02*
X11990000Y-8365000D01*
X11990000Y-8335000D02*
X11960000Y-8365000D01*
X11960000Y-8435000D02*
X11990000Y-8465000D01*
X11990000Y-8435000D02*
X11960000Y-8465000D01*
X11960000Y-8535000D02*
X11990000Y-8565000D01*
X11990000Y-8535000D02*
X11960000Y-8565000D01*
X11985000Y-6785000D02*
X12015000Y-6815000D01*
X12015000Y-6785000D02*
X11985000Y-6815000D01*
X12032713Y-7810057D02*
X12062713Y-7840057D01*
X12062713Y-7810057D02*
X12032713Y-7840057D01*
X12165000Y-8185000D02*
X12195000Y-8215000D01*
X12195000Y-8185000D02*
X12165000Y-8215000D01*
X12185000Y-11485000D02*
X12215000Y-11515000D01*
X12215000Y-11485000D02*
X12185000Y-11515000D01*
X12285000Y-6785000D02*
X12315000Y-6815000D01*
X12315000Y-6785000D02*
X12285000Y-6815000D01*
X12485000Y-11485000D02*
X12515000Y-11515000D01*
X12515000Y-11485000D02*
X12485000Y-11515000D01*
X12505000Y-7105000D02*
X12535000Y-7135000D01*
X12535000Y-7105000D02*
X12505000Y-7135000D01*
X12585000Y-6785000D02*
X12615000Y-6815000D01*
X12615000Y-6785000D02*
X12585000Y-6815000D01*
X12785000Y-11485000D02*
X12815000Y-11515000D01*
X12815000Y-11485000D02*
X12785000Y-11515000D01*
X12845000Y-7305000D02*
X12875000Y-7335000D01*
X12875000Y-7305000D02*
X12845000Y-7335000D01*
X12885000Y-6785000D02*
X12915000Y-6815000D01*
X12915000Y-6785000D02*
X12885000Y-6815000D01*
X13065000Y-7305000D02*
X13095000Y-7335000D01*
X13095000Y-7305000D02*
X13065000Y-7335000D01*
X13085000Y-11485000D02*
X13115000Y-11515000D01*
X13115000Y-11485000D02*
X13085000Y-11515000D01*
X13185000Y-6785000D02*
X13215000Y-6815000D01*
X13215000Y-6785000D02*
X13185000Y-6815000D01*
X13305000Y-8165000D02*
X13335000Y-8195000D01*
X13335000Y-8165000D02*
X13305000Y-8195000D01*
X13325000Y-9485000D02*
X13355000Y-9515000D01*
X13355000Y-9485000D02*
X13325000Y-9515000D01*
X13385000Y-6485000D02*
X13415000Y-6515000D01*
X13415000Y-6485000D02*
X13385000Y-6515000D01*
X13385000Y-11485000D02*
X13415000Y-11515000D01*
X13415000Y-11485000D02*
X13385000Y-11515000D01*
X13485000Y-6185000D02*
X13515000Y-6215000D01*
X13515000Y-6185000D02*
X13485000Y-6215000D01*
X13485000Y-7985000D02*
X13515000Y-8015000D01*
X13515000Y-7985000D02*
X13485000Y-8015000D01*
X13685000Y-9285000D02*
X13715000Y-9315000D01*
X13715000Y-9285000D02*
X13685000Y-9315000D01*
X13693000Y-9185000D02*
X13723000Y-9215000D01*
X13723000Y-9185000D02*
X13693000Y-9215000D01*
X13693000Y-9385000D02*
X13723000Y-9415000D01*
X13723000Y-9385000D02*
X13693000Y-9415000D01*
X13705000Y-7885000D02*
X13735000Y-7915000D01*
X13735000Y-7885000D02*
X13705000Y-7915000D01*
X13785000Y-6185000D02*
X13815000Y-6215000D01*
X13815000Y-6185000D02*
X13785000Y-6215000D01*
X13785000Y-11485000D02*
X13815000Y-11515000D01*
X13815000Y-11485000D02*
X13785000Y-11515000D01*
X14085000Y-6285000D02*
X14115000Y-6315000D01*
X14115000Y-6285000D02*
X14085000Y-6315000D01*
X14085000Y-6585000D02*
X14115000Y-6615000D01*
X14115000Y-6585000D02*
X14085000Y-6615000D01*
X14085000Y-6885000D02*
X14115000Y-6915000D01*
X14115000Y-6885000D02*
X14085000Y-6915000D01*
X14085000Y-7185000D02*
X14115000Y-7215000D01*
X14115000Y-7185000D02*
X14085000Y-7215000D01*
X14085000Y-7485000D02*
X14115000Y-7515000D01*
X14115000Y-7485000D02*
X14085000Y-7515000D01*
X14085000Y-7785000D02*
X14115000Y-7815000D01*
X14115000Y-7785000D02*
X14085000Y-7815000D01*
X14085000Y-8085000D02*
X14115000Y-8115000D01*
X14115000Y-8085000D02*
X14085000Y-8115000D01*
X14085000Y-8385000D02*
X14115000Y-8415000D01*
X14115000Y-8385000D02*
X14085000Y-8415000D01*
X14085000Y-8685000D02*
X14115000Y-8715000D01*
X14115000Y-8685000D02*
X14085000Y-8715000D01*
X14085000Y-8985000D02*
X14115000Y-9015000D01*
X14115000Y-8985000D02*
X14085000Y-9015000D01*
X14085000Y-9285000D02*
X14115000Y-9315000D01*
X14115000Y-9285000D02*
X14085000Y-9315000D01*
X14085000Y-9585003D02*
X14115000Y-9615003D01*
X14115000Y-9585003D02*
X14085000Y-9615003D01*
X14085000Y-9885000D02*
X14115000Y-9915000D01*
X14115000Y-9885000D02*
X14085000Y-9915000D01*
X14085000Y-10185000D02*
X14115000Y-10215000D01*
X14115000Y-10185000D02*
X14085000Y-10215000D01*
X14085000Y-10485000D02*
X14115000Y-10515000D01*
X14115000Y-10485000D02*
X14085000Y-10515000D01*
X14085000Y-10785000D02*
X14115000Y-10815000D01*
X14115000Y-10785000D02*
X14085000Y-10815000D01*
X14085000Y-11085000D02*
X14115000Y-11115000D01*
X14115000Y-11085000D02*
X14085000Y-11115000D01*
X14085000Y-11385000D02*
X14115000Y-11415000D01*
X14115000Y-11385000D02*
X14085000Y-11415000D01*
X5345000Y-8365000D02*
G75*
G03X5345000Y-8365000I-25000J0D01*
G01*
X5365000Y-8350000D02*
X5275000Y-8350000D01*
X5365000Y-8380000D02*
X5275000Y-8380000D01*
X5275000Y-8350000D02*
G75*
G03X5275000Y-8380000I0J-15000D01*
G01*
X5365000Y-8380000D02*
G75*
G03X5365000Y-8350000I0J15000D01*
G01*
X5345000Y-9235000D02*
G75*
G03X5345000Y-9235000I-25000J0D01*
G01*
X5365000Y-9220000D02*
X5275000Y-9220000D01*
X5365000Y-9250000D02*
X5275000Y-9250000D01*
X5275000Y-9220000D02*
G75*
G03X5275000Y-9250000I0J-15000D01*
G01*
X5365000Y-9250000D02*
G75*
G03X5365000Y-9220000I0J15000D01*
G01*
X6240000Y-11350000D02*
G75*
G03X6240000Y-11350000I-25000J0D01*
G01*
X6200000Y-11305000D02*
X6200000Y-11395000D01*
X6230000Y-11305000D02*
X6230000Y-11395000D01*
X6200000Y-11395000D02*
G75*
G03X6230000Y-11395000I15000J0D01*
G01*
X6230000Y-11305000D02*
G75*
G03X6200000Y-11305000I-15000J0D01*
G01*
X7110000Y-11350000D02*
G75*
G03X7110000Y-11350000I-25000J0D01*
G01*
X7070000Y-11305000D02*
X7070000Y-11395000D01*
X7100000Y-11305000D02*
X7100000Y-11395000D01*
X7070000Y-11395000D02*
G75*
G03X7100000Y-11395000I15000J0D01*
G01*
X7100000Y-11305000D02*
G75*
G03X7070000Y-11305000I-15000J0D01*
G01*
X5320000Y-8570000D02*
X5320000Y-8630000D01*
X5290000Y-8600000D02*
X5350000Y-8600000D01*
X5320000Y-8770000D02*
X5320000Y-8830000D01*
X5290000Y-8800000D02*
X5350000Y-8800000D01*
X5320000Y-8970000D02*
X5320000Y-9030000D01*
X5290000Y-9000000D02*
X5350000Y-9000000D01*
X6450000Y-11320000D02*
X6450000Y-11380000D01*
X6420000Y-11350000D02*
X6480000Y-11350000D01*
X6650000Y-11320000D02*
X6650000Y-11380000D01*
X6620000Y-11350000D02*
X6680000Y-11350000D01*
X6850000Y-11320000D02*
X6850000Y-11380000D01*
X6820000Y-11350000D02*
X6880000Y-11350000D01*
X13076941Y-10166941D02*
X13076941Y-10113059D01*
X13023059Y-10113059D01*
X13023059Y-10166941D01*
X13076941Y-10166941D01*
X13076941Y-10626941D02*
X13076941Y-10573059D01*
X13023059Y-10573059D01*
X13023059Y-10626941D01*
X13076941Y-10626941D01*
X13826941Y-10111941D02*
X13826941Y-10058059D01*
X13773059Y-10058059D01*
X13773059Y-10111941D01*
X13826941Y-10111941D01*
X13826941Y-10681941D02*
X13826941Y-10628059D01*
X13773059Y-10628059D01*
X13773059Y-10681941D01*
X13826941Y-10681941D01*
X5984000Y-10902500D02*
X6024000Y-10862500D01*
X5984000Y-10822500D01*
X5944000Y-10862500D01*
X5984000Y-10902500D01*
X6000000Y-8740000D02*
X6040000Y-8700000D01*
X6000000Y-8660000D01*
X5960000Y-8700000D01*
X6000000Y-8740000D01*
X6500000Y-8740000D02*
X6540000Y-8700000D01*
X6500000Y-8660000D01*
X6460000Y-8700000D01*
X6500000Y-8740000D01*
X6900000Y-6990000D02*
X6940000Y-6950000D01*
X6900000Y-6910000D01*
X6860000Y-6950000D01*
X6900000Y-6990000D01*
X6900000Y-7240000D02*
X6940000Y-7200000D01*
X6900000Y-7160000D01*
X6860000Y-7200000D01*
X6900000Y-7240000D01*
X6934000Y-7640000D02*
X6974000Y-7600000D01*
X6934000Y-7560000D01*
X6894000Y-7600000D01*
X6934000Y-7640000D01*
X7000000Y-10902500D02*
X7040000Y-10862500D01*
X7000000Y-10822500D01*
X6960000Y-10862500D01*
X7000000Y-10902500D01*
X7132000Y-8870500D02*
X7172000Y-8830500D01*
X7132000Y-8790500D01*
X7092000Y-8830500D01*
X7132000Y-8870500D01*
X7132000Y-9120500D02*
X7172000Y-9080500D01*
X7132000Y-9040500D01*
X7092000Y-9080500D01*
X7132000Y-9120500D01*
X7132000Y-9382500D02*
X7172000Y-9342500D01*
X7132000Y-9302500D01*
X7092000Y-9342500D01*
X7132000Y-9382500D01*
X7132000Y-9632500D02*
X7172000Y-9592500D01*
X7132000Y-9552500D01*
X7092000Y-9592500D01*
X7132000Y-9632500D01*
X7150000Y-10540000D02*
X7190000Y-10500000D01*
X7150000Y-10460000D01*
X7110000Y-10500000D01*
X7150000Y-10540000D01*
X7400000Y-10540000D02*
X7440000Y-10500000D01*
X7400000Y-10460000D01*
X7360000Y-10500000D01*
X7400000Y-10540000D01*
X7700000Y-9040000D02*
X7740000Y-9000000D01*
X7700000Y-8960000D01*
X7660000Y-9000000D01*
X7700000Y-9040000D01*
X7700000Y-9528000D02*
X7740000Y-9488000D01*
X7700000Y-9448000D01*
X7660000Y-9488000D01*
X7700000Y-9528000D01*
X7700000Y-10190000D02*
X7740000Y-10150000D01*
X7700000Y-10110000D01*
X7660000Y-10150000D01*
X7700000Y-10190000D01*
X7700000Y-10540000D02*
X7740000Y-10500000D01*
X7700000Y-10460000D01*
X7660000Y-10500000D01*
X7700000Y-10540000D01*
X7950000Y-7640000D02*
X7990000Y-7600000D01*
X7950000Y-7560000D01*
X7910000Y-7600000D01*
X7950000Y-7640000D01*
X7950000Y-10190000D02*
X7990000Y-10150000D01*
X7950000Y-10110000D01*
X7910000Y-10150000D01*
X7950000Y-10190000D01*
X8200000Y-8340000D02*
X8240000Y-8300000D01*
X8200000Y-8260000D01*
X8160000Y-8300000D01*
X8200000Y-8340000D01*
X8450000Y-8340000D02*
X8490000Y-8300000D01*
X8450000Y-8260000D01*
X8410000Y-8300000D01*
X8450000Y-8340000D01*
X8650000Y-7590000D02*
X8690000Y-7550000D01*
X8650000Y-7510000D01*
X8610000Y-7550000D01*
X8650000Y-7590000D01*
X8716000Y-10540000D02*
X8756000Y-10500000D01*
X8716000Y-10460000D01*
X8676000Y-10500000D01*
X8716000Y-10540000D01*
X8950000Y-10190000D02*
X8990000Y-10150000D01*
X8950000Y-10110000D01*
X8910000Y-10150000D01*
X8950000Y-10190000D01*
X8950000Y-10540000D02*
X8990000Y-10500000D01*
X8950000Y-10460000D01*
X8910000Y-10500000D01*
X8950000Y-10540000D01*
X9200000Y-10190000D02*
X9240000Y-10150000D01*
X9200000Y-10110000D01*
X9160000Y-10150000D01*
X9200000Y-10190000D01*
X9625000Y-9790000D02*
X9665000Y-9750000D01*
X9625000Y-9710000D01*
X9585000Y-9750000D01*
X9625000Y-9790000D01*
X9666000Y-7590000D02*
X9706000Y-7550000D01*
X9666000Y-7510000D01*
X9626000Y-7550000D01*
X9666000Y-7590000D01*
X9700000Y-8840000D02*
X9740000Y-8800000D01*
X9700000Y-8760000D01*
X9660000Y-8800000D01*
X9700000Y-8840000D01*
X9700000Y-9240000D02*
X9740000Y-9200000D01*
X9700000Y-9160000D01*
X9660000Y-9200000D01*
X9700000Y-9240000D01*
X9950000Y-8840000D02*
X9990000Y-8800000D01*
X9950000Y-8760000D01*
X9910000Y-8800000D01*
X9950000Y-8840000D01*
X9950000Y-9240000D02*
X9990000Y-9200000D01*
X9950000Y-9160000D01*
X9910000Y-9200000D01*
X9950000Y-9240000D01*
X9966000Y-10540000D02*
X10006000Y-10500000D01*
X9966000Y-10460000D01*
X9926000Y-10500000D01*
X9966000Y-10540000D01*
X10200000Y-10190000D02*
X10240000Y-10150000D01*
X10200000Y-10110000D01*
X10160000Y-10150000D01*
X10200000Y-10190000D01*
X10200000Y-10540000D02*
X10240000Y-10500000D01*
X10200000Y-10460000D01*
X10160000Y-10500000D01*
X10200000Y-10540000D01*
X10450000Y-10190000D02*
X10490000Y-10150000D01*
X10450000Y-10110000D01*
X10410000Y-10150000D01*
X10450000Y-10190000D01*
X10600000Y-7774000D02*
X10640000Y-7734000D01*
X10600000Y-7694000D01*
X10560000Y-7734000D01*
X10600000Y-7774000D01*
X10600000Y-8790000D02*
X10640000Y-8750000D01*
X10600000Y-8710000D01*
X10560000Y-8750000D01*
X10600000Y-8790000D01*
X10641000Y-9790000D02*
X10681000Y-9750000D01*
X10641000Y-9710000D01*
X10601000Y-9750000D01*
X10641000Y-9790000D01*
X10950000Y-7774000D02*
X10990000Y-7734000D01*
X10950000Y-7694000D01*
X10910000Y-7734000D01*
X10950000Y-7774000D01*
X10950000Y-8790000D02*
X10990000Y-8750000D01*
X10950000Y-8710000D01*
X10910000Y-8750000D01*
X10950000Y-8790000D01*
X11216000Y-10540000D02*
X11256000Y-10500000D01*
X11216000Y-10460000D01*
X11176000Y-10500000D01*
X11216000Y-10540000D01*
X11250000Y-9590000D02*
X11290000Y-9550000D01*
X11250000Y-9510000D01*
X11210000Y-9550000D01*
X11250000Y-9590000D01*
X11400000Y-10940000D02*
X11440000Y-10900000D01*
X11400000Y-10860000D01*
X11360000Y-10900000D01*
X11400000Y-10940000D01*
X11400000Y-11340000D02*
X11440000Y-11300000D01*
X11400000Y-11260000D01*
X11360000Y-11300000D01*
X11400000Y-11340000D01*
X11500000Y-9590000D02*
X11540000Y-9550000D01*
X11500000Y-9510000D01*
X11460000Y-9550000D01*
X11500000Y-9590000D01*
X11650000Y-10940000D02*
X11690000Y-10900000D01*
X11650000Y-10860000D01*
X11610000Y-10900000D01*
X11650000Y-10940000D01*
X11950000Y-10340000D02*
X11990000Y-10300000D01*
X11950000Y-10260000D01*
X11910000Y-10300000D01*
X11950000Y-10340000D01*
X12200000Y-10340000D02*
X12240000Y-10300000D01*
X12200000Y-10260000D01*
X12160000Y-10300000D01*
X12200000Y-10340000D01*
X12416000Y-11340000D02*
X12456000Y-11300000D01*
X12416000Y-11260000D01*
X12376000Y-11300000D01*
X12416000Y-11340000D01*
X12575000Y-10065000D02*
X12615000Y-10025000D01*
X12575000Y-9985000D01*
X12535000Y-10025000D01*
X12575000Y-10065000D01*
X12575000Y-11081000D02*
X12615000Y-11041000D01*
X12575000Y-11001000D01*
X12535000Y-11041000D01*
X12575000Y-11081000D01*
X9895000Y-7515000D02*
X9985000Y-7605000D01*
X9985000Y-7515000D02*
X9895000Y-7605000D01*
X9985000Y-7560000D02*
G75*
G03X9985000Y-7560000I-45000J0D01*
G01*
X10149000Y-7515000D02*
X10239000Y-7605000D01*
X10239000Y-7515000D02*
X10149000Y-7605000D01*
X10239000Y-7560000D02*
G75*
G03X10239000Y-7560000I-45000J0D01*
G01*
X5850000Y-9850000D02*
X5950000Y-9950000D01*
X5950000Y-9850000D02*
X5850000Y-9950000D01*
X5900000Y-9850000D02*
X5900000Y-9950000D01*
X5850000Y-9900000D02*
X5950000Y-9900000D01*
X5860000Y-9800000D02*
X5860000Y-10000000D01*
X5940000Y-9800000D02*
X5940000Y-10000000D01*
X5860000Y-10000000D02*
G75*
G03X5940000Y-10000000I40000J0D01*
G01*
X5940000Y-9800000D02*
G75*
G03X5860000Y-9800000I-40000J0D01*
G01*
X6066000Y-7320000D02*
X6166000Y-7420000D01*
X6166000Y-7320000D02*
X6066000Y-7420000D01*
X6116000Y-7320000D02*
X6116000Y-7420000D01*
X6066000Y-7370000D02*
X6166000Y-7370000D01*
X6066000Y-7574000D02*
X6166000Y-7674000D01*
X6166000Y-7574000D02*
X6066000Y-7674000D01*
X6116000Y-7574000D02*
X6116000Y-7674000D01*
X6066000Y-7624000D02*
X6166000Y-7624000D01*
X6066000Y-7828000D02*
X6166000Y-7928000D01*
X6166000Y-7828000D02*
X6066000Y-7928000D01*
X6116000Y-7828000D02*
X6116000Y-7928000D01*
X6066000Y-7878000D02*
X6166000Y-7878000D01*
X6150000Y-10320000D02*
X6250000Y-10420000D01*
X6250000Y-10320000D02*
X6150000Y-10420000D01*
X6200000Y-10320000D02*
X6200000Y-10420000D01*
X6150000Y-10370000D02*
X6250000Y-10370000D01*
X6100000Y-10410000D02*
X6300000Y-10410000D01*
X6100000Y-10330000D02*
X6300000Y-10330000D01*
X6300000Y-10410000D02*
G75*
G03X6300000Y-10330000I0J40000D01*
G01*
X6100000Y-10330000D02*
G75*
G03X6100000Y-10410000I0J-40000D01*
G01*
X6450000Y-9850000D02*
X6550000Y-9950000D01*
X6550000Y-9850000D02*
X6450000Y-9950000D01*
X6500000Y-9850000D02*
X6500000Y-9950000D01*
X6450000Y-9900000D02*
X6550000Y-9900000D01*
X6460000Y-9800000D02*
X6460000Y-10000000D01*
X6540000Y-9800000D02*
X6540000Y-10000000D01*
X6460000Y-10000000D02*
G75*
G03X6540000Y-10000000I40000J0D01*
G01*
X6540000Y-9800000D02*
G75*
G03X6460000Y-9800000I-40000J0D01*
G01*
X7336000Y-7066000D02*
X7436000Y-7166000D01*
X7436000Y-7066000D02*
X7336000Y-7166000D01*
X7386000Y-7066000D02*
X7386000Y-7166000D01*
X7336000Y-7116000D02*
X7436000Y-7116000D01*
X7590000Y-7066000D02*
X7690000Y-7166000D01*
X7690000Y-7066000D02*
X7590000Y-7166000D01*
X7640000Y-7066000D02*
X7640000Y-7166000D01*
X7590000Y-7116000D02*
X7690000Y-7116000D01*
X8098000Y-7066000D02*
X8198000Y-7166000D01*
X8198000Y-7066000D02*
X8098000Y-7166000D01*
X8148000Y-7066000D02*
X8148000Y-7166000D01*
X8098000Y-7116000D02*
X8198000Y-7116000D01*
X8352000Y-7066000D02*
X8452000Y-7166000D01*
X8452000Y-7066000D02*
X8352000Y-7166000D01*
X8402000Y-7066000D02*
X8402000Y-7166000D01*
X8352000Y-7116000D02*
X8452000Y-7116000D01*
X8606000Y-7066000D02*
X8706000Y-7166000D01*
X8706000Y-7066000D02*
X8606000Y-7166000D01*
X8656000Y-7066000D02*
X8656000Y-7166000D01*
X8606000Y-7116000D02*
X8706000Y-7116000D01*
X8860000Y-7066000D02*
X8960000Y-7166000D01*
X8960000Y-7066000D02*
X8860000Y-7166000D01*
X8910000Y-7066000D02*
X8910000Y-7166000D01*
X8860000Y-7116000D02*
X8960000Y-7116000D01*
X9114000Y-7066000D02*
X9214000Y-7166000D01*
X9214000Y-7066000D02*
X9114000Y-7166000D01*
X9164000Y-7066000D02*
X9164000Y-7166000D01*
X9114000Y-7116000D02*
X9214000Y-7116000D01*
X9368000Y-7066000D02*
X9468000Y-7166000D01*
X9468000Y-7066000D02*
X9368000Y-7166000D01*
X9418000Y-7066000D02*
X9418000Y-7166000D01*
X9368000Y-7116000D02*
X9468000Y-7116000D01*
X9622000Y-7066000D02*
X9722000Y-7166000D01*
X9722000Y-7066000D02*
X9622000Y-7166000D01*
X9672000Y-7066000D02*
X9672000Y-7166000D01*
X9622000Y-7116000D02*
X9722000Y-7116000D01*
X10130000Y-7050000D02*
X10230000Y-7150000D01*
X10230000Y-7050000D02*
X10130000Y-7150000D01*
X10180000Y-7050000D02*
X10180000Y-7150000D01*
X10130000Y-7100000D02*
X10230000Y-7100000D01*
X10384000Y-7050000D02*
X10484000Y-7150000D01*
X10484000Y-7050000D02*
X10384000Y-7150000D01*
X10434000Y-7050000D02*
X10434000Y-7150000D01*
X10384000Y-7100000D02*
X10484000Y-7100000D01*
X10638000Y-7050000D02*
X10738000Y-7150000D01*
X10738000Y-7050000D02*
X10638000Y-7150000D01*
X10688000Y-7050000D02*
X10688000Y-7150000D01*
X10638000Y-7100000D02*
X10738000Y-7100000D01*
X10892000Y-7050000D02*
X10992000Y-7150000D01*
X10992000Y-7050000D02*
X10892000Y-7150000D01*
X10942000Y-7050000D02*
X10942000Y-7150000D01*
X10892000Y-7100000D02*
X10992000Y-7100000D01*
X11400000Y-7050000D02*
X11500000Y-7150000D01*
X11500000Y-7050000D02*
X11400000Y-7150000D01*
X11450000Y-7050000D02*
X11450000Y-7150000D01*
X11400000Y-7100000D02*
X11500000Y-7100000D01*
X11654000Y-7050000D02*
X11754000Y-7150000D01*
X11754000Y-7050000D02*
X11654000Y-7150000D01*
X11704000Y-7050000D02*
X11704000Y-7150000D01*
X11654000Y-7100000D02*
X11754000Y-7100000D01*
X11908000Y-7050000D02*
X12008000Y-7150000D01*
X12008000Y-7050000D02*
X11908000Y-7150000D01*
X11958000Y-7050000D02*
X11958000Y-7150000D01*
X11908000Y-7100000D02*
X12008000Y-7100000D01*
X12134000Y-7650000D02*
X12234000Y-7750000D01*
X12234000Y-7650000D02*
X12134000Y-7750000D01*
X12184000Y-7650000D02*
X12184000Y-7750000D01*
X12134000Y-7700000D02*
X12234000Y-7700000D01*
X12134000Y-9682000D02*
X12234000Y-9782000D01*
X12234000Y-9682000D02*
X12134000Y-9782000D01*
X12184000Y-9682000D02*
X12184000Y-9782000D01*
X12134000Y-9732000D02*
X12234000Y-9732000D01*
X12162000Y-7050000D02*
X12262000Y-7150000D01*
X12262000Y-7050000D02*
X12162000Y-7150000D01*
X12212000Y-7050000D02*
X12212000Y-7150000D01*
X12162000Y-7100000D02*
X12262000Y-7100000D01*
X12388000Y-7650000D02*
X12488000Y-7750000D01*
X12488000Y-7650000D02*
X12388000Y-7750000D01*
X12438000Y-7650000D02*
X12438000Y-7750000D01*
X12388000Y-7700000D02*
X12488000Y-7700000D01*
X12388000Y-9682000D02*
X12488000Y-9782000D01*
X12488000Y-9682000D02*
X12388000Y-9782000D01*
X12438000Y-9682000D02*
X12438000Y-9782000D01*
X12388000Y-9732000D02*
X12488000Y-9732000D01*
X12642000Y-7650000D02*
X12742000Y-7750000D01*
X12742000Y-7650000D02*
X12642000Y-7750000D01*
X12692000Y-7650000D02*
X12692000Y-7750000D01*
X12642000Y-7700000D02*
X12742000Y-7700000D01*
X12642000Y-9682000D02*
X12742000Y-9782000D01*
X12742000Y-9682000D02*
X12642000Y-9782000D01*
X12692000Y-9682000D02*
X12692000Y-9782000D01*
X12642000Y-9732000D02*
X12742000Y-9732000D01*
X12670000Y-7066000D02*
X12770000Y-7166000D01*
X12770000Y-7066000D02*
X12670000Y-7166000D01*
X12720000Y-7066000D02*
X12720000Y-7166000D01*
X12670000Y-7116000D02*
X12770000Y-7116000D01*
X12896000Y-7650000D02*
X12996000Y-7750000D01*
X12996000Y-7650000D02*
X12896000Y-7750000D01*
X12946000Y-7650000D02*
X12946000Y-7750000D01*
X12896000Y-7700000D02*
X12996000Y-7700000D01*
X12896000Y-9682000D02*
X12996000Y-9782000D01*
X12996000Y-9682000D02*
X12896000Y-9782000D01*
X12946000Y-9682000D02*
X12946000Y-9782000D01*
X12896000Y-9732000D02*
X12996000Y-9732000D01*
X12924000Y-7066000D02*
X13024000Y-7166000D01*
X13024000Y-7066000D02*
X12924000Y-7166000D01*
X12974000Y-7066000D02*
X12974000Y-7166000D01*
X12924000Y-7116000D02*
X13024000Y-7116000D01*
X13150000Y-7650000D02*
X13250000Y-7750000D01*
X13250000Y-7650000D02*
X13150000Y-7750000D01*
X13200000Y-7650000D02*
X13200000Y-7750000D01*
X13150000Y-7700000D02*
X13250000Y-7700000D01*
X13150000Y-9682000D02*
X13250000Y-9782000D01*
X13250000Y-9682000D02*
X13150000Y-9782000D01*
X13200000Y-9682000D02*
X13200000Y-9782000D01*
X13150000Y-9732000D02*
X13250000Y-9732000D01*
X13404000Y-7650000D02*
X13504000Y-7750000D01*
X13504000Y-7650000D02*
X13404000Y-7750000D01*
X13454000Y-7650000D02*
X13454000Y-7750000D01*
X13404000Y-7700000D02*
X13504000Y-7700000D01*
X13404000Y-9682000D02*
X13504000Y-9782000D01*
X13504000Y-9682000D02*
X13404000Y-9782000D01*
X13454000Y-9682000D02*
X13454000Y-9782000D01*
X13404000Y-9732000D02*
X13504000Y-9732000D01*
X13658000Y-7650000D02*
X13758000Y-7750000D01*
X13758000Y-7650000D02*
X13658000Y-7750000D01*
X13708000Y-7650000D02*
X13708000Y-7750000D01*
X13658000Y-7700000D02*
X13758000Y-7700000D01*
X13658000Y-9682000D02*
X13758000Y-9782000D01*
X13758000Y-9682000D02*
X13658000Y-9782000D01*
X13708000Y-9682000D02*
X13708000Y-9782000D01*
X13658000Y-9732000D02*
X13758000Y-9732000D01*
X13912000Y-7650000D02*
X14012000Y-7750000D01*
X14012000Y-7650000D02*
X13912000Y-7750000D01*
X13962000Y-7650000D02*
X13962000Y-7750000D01*
X13912000Y-7700000D02*
X14012000Y-7700000D01*
X13912000Y-9682000D02*
X14012000Y-9782000D01*
X14012000Y-9682000D02*
X13912000Y-9782000D01*
X13962000Y-9682000D02*
X13962000Y-9782000D01*
X13912000Y-9732000D02*
X14012000Y-9732000D01*
X7295000Y-10845000D02*
X7405000Y-10955000D01*
X7405000Y-10845000D02*
X7295000Y-10955000D01*
X7388891Y-10938891D02*
X7388891Y-10861109D01*
X7311109Y-10861109D01*
X7311109Y-10938891D01*
X7388891Y-10938891D01*
X7295000Y-11295000D02*
X7405000Y-11405000D01*
X7405000Y-11295000D02*
X7295000Y-11405000D01*
X7388891Y-11388891D02*
X7388891Y-11311109D01*
X7311109Y-11311109D01*
X7311109Y-11388891D01*
X7388891Y-11388891D01*
X7945000Y-10845000D02*
X8055000Y-10955000D01*
X8055000Y-10845000D02*
X7945000Y-10955000D01*
X8038891Y-10938891D02*
X8038891Y-10861109D01*
X7961109Y-10861109D01*
X7961109Y-10938891D01*
X8038891Y-10938891D01*
X7945000Y-11295000D02*
X8055000Y-11405000D01*
X8055000Y-11295000D02*
X7945000Y-11405000D01*
X8038891Y-11388891D02*
X8038891Y-11311109D01*
X7961109Y-11311109D01*
X7961109Y-11388891D01*
X8038891Y-11388891D01*
X8295000Y-10845000D02*
X8405000Y-10955000D01*
X8405000Y-10845000D02*
X8295000Y-10955000D01*
X8388891Y-10938891D02*
X8388891Y-10861109D01*
X8311109Y-10861109D01*
X8311109Y-10938891D01*
X8388891Y-10938891D01*
X8295000Y-11295000D02*
X8405000Y-11405000D01*
X8405000Y-11295000D02*
X8295000Y-11405000D01*
X8388891Y-11388891D02*
X8388891Y-11311109D01*
X8311109Y-11311109D01*
X8311109Y-11388891D01*
X8388891Y-11388891D01*
X8945000Y-10845000D02*
X9055000Y-10955000D01*
X9055000Y-10845000D02*
X8945000Y-10955000D01*
X9038891Y-10938891D02*
X9038891Y-10861109D01*
X8961109Y-10861109D01*
X8961109Y-10938891D01*
X9038891Y-10938891D01*
X8945000Y-11295000D02*
X9055000Y-11405000D01*
X9055000Y-11295000D02*
X8945000Y-11405000D01*
X9038891Y-11388891D02*
X9038891Y-11311109D01*
X8961109Y-11311109D01*
X8961109Y-11388891D01*
X9038891Y-11388891D01*
X9295000Y-10845000D02*
X9405000Y-10955000D01*
X9405000Y-10845000D02*
X9295000Y-10955000D01*
X9388891Y-10938891D02*
X9388891Y-10861109D01*
X9311109Y-10861109D01*
X9311109Y-10938891D01*
X9388891Y-10938891D01*
X9295000Y-11295000D02*
X9405000Y-11405000D01*
X9405000Y-11295000D02*
X9295000Y-11405000D01*
X9388891Y-11388891D02*
X9388891Y-11311109D01*
X9311109Y-11311109D01*
X9311109Y-11388891D01*
X9388891Y-11388891D01*
X9945000Y-10845000D02*
X10055000Y-10955000D01*
X10055000Y-10845000D02*
X9945000Y-10955000D01*
X10038891Y-10938891D02*
X10038891Y-10861109D01*
X9961109Y-10861109D01*
X9961109Y-10938891D01*
X10038891Y-10938891D01*
X9945000Y-11295000D02*
X10055000Y-11405000D01*
X10055000Y-11295000D02*
X9945000Y-11405000D01*
X10038891Y-11388891D02*
X10038891Y-11311109D01*
X9961109Y-11311109D01*
X9961109Y-11388891D01*
X10038891Y-11388891D01*
X10295000Y-10845000D02*
X10405000Y-10955000D01*
X10405000Y-10845000D02*
X10295000Y-10955000D01*
X10388891Y-10938891D02*
X10388891Y-10861109D01*
X10311109Y-10861109D01*
X10311109Y-10938891D01*
X10388891Y-10938891D01*
X10295000Y-11295000D02*
X10405000Y-11405000D01*
X10405000Y-11295000D02*
X10295000Y-11405000D01*
X10388891Y-11388891D02*
X10388891Y-11311109D01*
X10311109Y-11311109D01*
X10311109Y-11388891D01*
X10388891Y-11388891D01*
X10945000Y-10845000D02*
X11055000Y-10955000D01*
X11055000Y-10845000D02*
X10945000Y-10955000D01*
X11038891Y-10938891D02*
X11038891Y-10861109D01*
X10961109Y-10861109D01*
X10961109Y-10938891D01*
X11038891Y-10938891D01*
X10945000Y-11295000D02*
X11055000Y-11405000D01*
X11055000Y-11295000D02*
X10945000Y-11405000D01*
X11038891Y-11388891D02*
X11038891Y-11311109D01*
X10961109Y-11311109D01*
X10961109Y-11388891D01*
X11038891Y-11388891D01*
X13390000Y-10100000D02*
X13510000Y-10220000D01*
X13510000Y-10100000D02*
X13390000Y-10220000D01*
X13450000Y-10220000D02*
X13510000Y-10160000D01*
X13450000Y-10100000D01*
X13390000Y-10160000D01*
X13450000Y-10220000D01*
X13390000Y-10560000D02*
X13510000Y-10680000D01*
X13510000Y-10560000D02*
X13390000Y-10680000D01*
X13450000Y-10680000D02*
X13510000Y-10620000D01*
X13450000Y-10560000D01*
X13390000Y-10620000D01*
X13450000Y-10680000D01*
X5500000Y-6340000D02*
X5500000Y-6660000D01*
X5340000Y-6500000D02*
X5660000Y-6500000D01*
X5660000Y-6500000D02*
G75*
G03X5660000Y-6500000I-160000J0D01*
G01*
X5500000Y-11040000D02*
X5500000Y-11360000D01*
X5340000Y-11200000D02*
X5660000Y-11200000D01*
X5660000Y-11200000D02*
G75*
G03X5660000Y-11200000I-160000J0D01*
G01*
X13800000Y-6340000D02*
X13800000Y-6660000D01*
X13640000Y-6500000D02*
X13960000Y-6500000D01*
X13960000Y-6500000D02*
G75*
G03X13960000Y-6500000I-160000J0D01*
G01*
X13800000Y-11040000D02*
X13800000Y-11360000D01*
X13640000Y-11200000D02*
X13960000Y-11200000D01*
X13960000Y-11200000D02*
G75*
G03X13960000Y-11200000I-160000J0D01*
G01*
D13*
X5363929Y-12073214D02*
X5363929Y-11773214D01*
X5435357Y-11773214D01*
X5478214Y-11787500D01*
X5506786Y-11816071D01*
X5521071Y-11844643D01*
X5535357Y-11901786D01*
X5535357Y-11944643D01*
X5521071Y-12001786D01*
X5506786Y-12030357D01*
X5478214Y-12058929D01*
X5435357Y-12073214D01*
X5363929Y-12073214D01*
X5663928Y-12073214D02*
X5663928Y-11873214D01*
X5663928Y-11930357D02*
X5678214Y-11901786D01*
X5692500Y-11887500D01*
X5721071Y-11873214D01*
X5749643Y-11873214D01*
X5849643Y-12073214D02*
X5849643Y-11873214D01*
X5849643Y-11773214D02*
X5835357Y-11787500D01*
X5849643Y-11801786D01*
X5863928Y-11787500D01*
X5849643Y-11773214D01*
X5849643Y-11801786D01*
X6035357Y-12073214D02*
X6006786Y-12058929D01*
X5992500Y-12030357D01*
X5992500Y-11773214D01*
X6192500Y-12073214D02*
X6163928Y-12058929D01*
X6149643Y-12030357D01*
X6149643Y-11773214D01*
X6535357Y-12073214D02*
X6535357Y-11773214D01*
X6635357Y-11987500D01*
X6735357Y-11773214D01*
X6735357Y-12073214D01*
X7006786Y-12073214D02*
X7006786Y-11916071D01*
X6992500Y-11887500D01*
X6963928Y-11873214D01*
X6906786Y-11873214D01*
X6878214Y-11887500D01*
X7006786Y-12058929D02*
X6978214Y-12073214D01*
X6906786Y-12073214D01*
X6878214Y-12058929D01*
X6863928Y-12030357D01*
X6863928Y-12001786D01*
X6878214Y-11973214D01*
X6906786Y-11958929D01*
X6978214Y-11958929D01*
X7006786Y-11944643D01*
X7149643Y-11873214D02*
X7149643Y-12173214D01*
X7149643Y-11887500D02*
X7178214Y-11873214D01*
X7235357Y-11873214D01*
X7263928Y-11887500D01*
X7278214Y-11901786D01*
X7292500Y-11930357D01*
X7292500Y-12016071D01*
X7278214Y-12044643D01*
X7263928Y-12058929D01*
X7235357Y-12073214D01*
X7178214Y-12073214D01*
X7149643Y-12058929D01*
X7421071Y-12044643D02*
X7435357Y-12058929D01*
X7421071Y-12073214D01*
X7406786Y-12058929D01*
X7421071Y-12044643D01*
X7421071Y-12073214D01*
X7421071Y-11887500D02*
X7435357Y-11901786D01*
X7421071Y-11916071D01*
X7406786Y-11901786D01*
X7421071Y-11887500D01*
X7421071Y-11916071D01*
X5062500Y-12552500D02*
X5092500Y-12582500D01*
X5092500Y-12552500D02*
X5062500Y-12582500D01*
X5421071Y-12403214D02*
X5449643Y-12403214D01*
X5478214Y-12417500D01*
X5492500Y-12431786D01*
X5506786Y-12460357D01*
X5521071Y-12517500D01*
X5521071Y-12588929D01*
X5506786Y-12646071D01*
X5492500Y-12674643D01*
X5478214Y-12688929D01*
X5449643Y-12703214D01*
X5421071Y-12703214D01*
X5392500Y-12688929D01*
X5378214Y-12674643D01*
X5363929Y-12646071D01*
X5349643Y-12588929D01*
X5349643Y-12517500D01*
X5363929Y-12460357D01*
X5378214Y-12431786D01*
X5392500Y-12417500D01*
X5421071Y-12403214D01*
X5649643Y-12674643D02*
X5663928Y-12688929D01*
X5649643Y-12703214D01*
X5635357Y-12688929D01*
X5649643Y-12674643D01*
X5649643Y-12703214D01*
X5763928Y-12403214D02*
X5949643Y-12403214D01*
X5849643Y-12517500D01*
X5892500Y-12517500D01*
X5921071Y-12531786D01*
X5935357Y-12546071D01*
X5949643Y-12574643D01*
X5949643Y-12646071D01*
X5935357Y-12674643D01*
X5921071Y-12688929D01*
X5892500Y-12703214D01*
X5806786Y-12703214D01*
X5778214Y-12688929D01*
X5763928Y-12674643D01*
X6135357Y-12403214D02*
X6163928Y-12403214D01*
X6192500Y-12417500D01*
X6206786Y-12431786D01*
X6221071Y-12460357D01*
X6235357Y-12517500D01*
X6235357Y-12588929D01*
X6221071Y-12646071D01*
X6206786Y-12674643D01*
X6192500Y-12688929D01*
X6163928Y-12703214D01*
X6135357Y-12703214D01*
X6106786Y-12688929D01*
X6092500Y-12674643D01*
X6078214Y-12646071D01*
X6063928Y-12588929D01*
X6063928Y-12517500D01*
X6078214Y-12460357D01*
X6092500Y-12431786D01*
X6106786Y-12417500D01*
X6135357Y-12403214D01*
X6363928Y-12703214D02*
X6363928Y-12503214D01*
X6363928Y-12531786D02*
X6378214Y-12517500D01*
X6406786Y-12503214D01*
X6449643Y-12503214D01*
X6478214Y-12517500D01*
X6492500Y-12546071D01*
X6492500Y-12703214D01*
X6492500Y-12546071D02*
X6506786Y-12517500D01*
X6535357Y-12503214D01*
X6578214Y-12503214D01*
X6606786Y-12517500D01*
X6621071Y-12546071D01*
X6621071Y-12703214D01*
X6763928Y-12703214D02*
X6763928Y-12503214D01*
X6763928Y-12531786D02*
X6778214Y-12517500D01*
X6806786Y-12503214D01*
X6849643Y-12503214D01*
X6878214Y-12517500D01*
X6892500Y-12546071D01*
X6892500Y-12703214D01*
X6892500Y-12546071D02*
X6906786Y-12517500D01*
X6935357Y-12503214D01*
X6978214Y-12503214D01*
X7006786Y-12517500D01*
X7021071Y-12546071D01*
X7021071Y-12703214D01*
X7606786Y-12388929D02*
X7349643Y-12774643D01*
X7992500Y-12403214D02*
X8021071Y-12403214D01*
X8049643Y-12417500D01*
X8063928Y-12431786D01*
X8078214Y-12460357D01*
X8092500Y-12517500D01*
X8092500Y-12588929D01*
X8078214Y-12646071D01*
X8063928Y-12674643D01*
X8049643Y-12688929D01*
X8021071Y-12703214D01*
X7992500Y-12703214D01*
X7963928Y-12688929D01*
X7949643Y-12674643D01*
X7935357Y-12646071D01*
X7921071Y-12588929D01*
X7921071Y-12517500D01*
X7935357Y-12460357D01*
X7949643Y-12431786D01*
X7963928Y-12417500D01*
X7992500Y-12403214D01*
X8221071Y-12674643D02*
X8235357Y-12688929D01*
X8221071Y-12703214D01*
X8206786Y-12688929D01*
X8221071Y-12674643D01*
X8221071Y-12703214D01*
X8421071Y-12403214D02*
X8449643Y-12403214D01*
X8478214Y-12417500D01*
X8492500Y-12431786D01*
X8506786Y-12460357D01*
X8521071Y-12517500D01*
X8521071Y-12588929D01*
X8506786Y-12646071D01*
X8492500Y-12674643D01*
X8478214Y-12688929D01*
X8449643Y-12703214D01*
X8421071Y-12703214D01*
X8392500Y-12688929D01*
X8378214Y-12674643D01*
X8363928Y-12646071D01*
X8349643Y-12588929D01*
X8349643Y-12517500D01*
X8363928Y-12460357D01*
X8378214Y-12431786D01*
X8392500Y-12417500D01*
X8421071Y-12403214D01*
X8806786Y-12703214D02*
X8635357Y-12703214D01*
X8721071Y-12703214D02*
X8721071Y-12403214D01*
X8692500Y-12446071D01*
X8663928Y-12474643D01*
X8635357Y-12488929D01*
X8921071Y-12431786D02*
X8935357Y-12417500D01*
X8963928Y-12403214D01*
X9035357Y-12403214D01*
X9063928Y-12417500D01*
X9078214Y-12431786D01*
X9092500Y-12460357D01*
X9092500Y-12488929D01*
X9078214Y-12531786D01*
X8906786Y-12703214D01*
X9092500Y-12703214D01*
X9206786Y-12403214D02*
X9206786Y-12460357D01*
X9321071Y-12403214D02*
X9321071Y-12460357D01*
X9763928Y-12817500D02*
X9749643Y-12803214D01*
X9721071Y-12760357D01*
X9706786Y-12731786D01*
X9692500Y-12688929D01*
X9678214Y-12617500D01*
X9678214Y-12560357D01*
X9692500Y-12488929D01*
X9706786Y-12446071D01*
X9721071Y-12417500D01*
X9749643Y-12374643D01*
X9763928Y-12360357D01*
X9863928Y-12431786D02*
X9878214Y-12417500D01*
X9906786Y-12403214D01*
X9978214Y-12403214D01*
X10006786Y-12417500D01*
X10021071Y-12431786D01*
X10035357Y-12460357D01*
X10035357Y-12488929D01*
X10021071Y-12531786D01*
X9849643Y-12703214D01*
X10035357Y-12703214D01*
X10149643Y-12431786D02*
X10163928Y-12417500D01*
X10192500Y-12403214D01*
X10263928Y-12403214D01*
X10292500Y-12417500D01*
X10306786Y-12431786D01*
X10321071Y-12460357D01*
X10321071Y-12488929D01*
X10306786Y-12531786D01*
X10135357Y-12703214D01*
X10321071Y-12703214D01*
X10578214Y-12403214D02*
X10521071Y-12403214D01*
X10492500Y-12417500D01*
X10478214Y-12431786D01*
X10449643Y-12474643D01*
X10435357Y-12531786D01*
X10435357Y-12646071D01*
X10449643Y-12674643D01*
X10463928Y-12688929D01*
X10492500Y-12703214D01*
X10549643Y-12703214D01*
X10578214Y-12688929D01*
X10592500Y-12674643D01*
X10606786Y-12646071D01*
X10606786Y-12574643D01*
X10592500Y-12546071D01*
X10578214Y-12531786D01*
X10549643Y-12517500D01*
X10492500Y-12517500D01*
X10463928Y-12531786D01*
X10449643Y-12546071D01*
X10435357Y-12574643D01*
X10963928Y-12703214D02*
X10963928Y-12403214D01*
X11092500Y-12703214D02*
X11092500Y-12546071D01*
X11078214Y-12517500D01*
X11049643Y-12503214D01*
X11006786Y-12503214D01*
X10978214Y-12517500D01*
X10963928Y-12531786D01*
X11278214Y-12703214D02*
X11249643Y-12688929D01*
X11235357Y-12674643D01*
X11221071Y-12646071D01*
X11221071Y-12560357D01*
X11235357Y-12531786D01*
X11249643Y-12517500D01*
X11278214Y-12503214D01*
X11321071Y-12503214D01*
X11349643Y-12517500D01*
X11363928Y-12531786D01*
X11378214Y-12560357D01*
X11378214Y-12646071D01*
X11363928Y-12674643D01*
X11349643Y-12688929D01*
X11321071Y-12703214D01*
X11278214Y-12703214D01*
X11549643Y-12703214D02*
X11521071Y-12688929D01*
X11506786Y-12660357D01*
X11506786Y-12403214D01*
X11778214Y-12688929D02*
X11749643Y-12703214D01*
X11692500Y-12703214D01*
X11663928Y-12688929D01*
X11649643Y-12660357D01*
X11649643Y-12546071D01*
X11663928Y-12517500D01*
X11692500Y-12503214D01*
X11749643Y-12503214D01*
X11778214Y-12517500D01*
X11792500Y-12546071D01*
X11792500Y-12574643D01*
X11649643Y-12603214D01*
X11906786Y-12688929D02*
X11935357Y-12703214D01*
X11992500Y-12703214D01*
X12021071Y-12688929D01*
X12035357Y-12660357D01*
X12035357Y-12646071D01*
X12021071Y-12617500D01*
X11992500Y-12603214D01*
X11949643Y-12603214D01*
X11921071Y-12588929D01*
X11906786Y-12560357D01*
X11906786Y-12546071D01*
X11921071Y-12517500D01*
X11949643Y-12503214D01*
X11992500Y-12503214D01*
X12021071Y-12517500D01*
X12135357Y-12817500D02*
X12149643Y-12803214D01*
X12178214Y-12760357D01*
X12192500Y-12731786D01*
X12206786Y-12688929D01*
X12221071Y-12617500D01*
X12221071Y-12560357D01*
X12206786Y-12488929D01*
X12192500Y-12446071D01*
X12178214Y-12417500D01*
X12149643Y-12374643D01*
X12135357Y-12360357D01*
X5092500Y-12963500D02*
G75*
G03X5092500Y-12963500I-25000J0D01*
G01*
X5421071Y-12799214D02*
X5449643Y-12799214D01*
X5478214Y-12813500D01*
X5492500Y-12827786D01*
X5506786Y-12856357D01*
X5521071Y-12913500D01*
X5521071Y-12984929D01*
X5506786Y-13042071D01*
X5492500Y-13070643D01*
X5478214Y-13084929D01*
X5449643Y-13099214D01*
X5421071Y-13099214D01*
X5392500Y-13084929D01*
X5378214Y-13070643D01*
X5363929Y-13042071D01*
X5349643Y-12984929D01*
X5349643Y-12913500D01*
X5363929Y-12856357D01*
X5378214Y-12827786D01*
X5392500Y-12813500D01*
X5421071Y-12799214D01*
X5649643Y-13070643D02*
X5663928Y-13084929D01*
X5649643Y-13099214D01*
X5635357Y-13084929D01*
X5649643Y-13070643D01*
X5649643Y-13099214D01*
X5935357Y-12799214D02*
X5792500Y-12799214D01*
X5778214Y-12942071D01*
X5792500Y-12927786D01*
X5821071Y-12913500D01*
X5892500Y-12913500D01*
X5921071Y-12927786D01*
X5935357Y-12942071D01*
X5949643Y-12970643D01*
X5949643Y-13042071D01*
X5935357Y-13070643D01*
X5921071Y-13084929D01*
X5892500Y-13099214D01*
X5821071Y-13099214D01*
X5792500Y-13084929D01*
X5778214Y-13070643D01*
X6135357Y-12799214D02*
X6163928Y-12799214D01*
X6192500Y-12813500D01*
X6206786Y-12827786D01*
X6221071Y-12856357D01*
X6235357Y-12913500D01*
X6235357Y-12984929D01*
X6221071Y-13042071D01*
X6206786Y-13070643D01*
X6192500Y-13084929D01*
X6163928Y-13099214D01*
X6135357Y-13099214D01*
X6106786Y-13084929D01*
X6092500Y-13070643D01*
X6078214Y-13042071D01*
X6063928Y-12984929D01*
X6063928Y-12913500D01*
X6078214Y-12856357D01*
X6092500Y-12827786D01*
X6106786Y-12813500D01*
X6135357Y-12799214D01*
X6363928Y-13099214D02*
X6363928Y-12899214D01*
X6363928Y-12927786D02*
X6378214Y-12913500D01*
X6406786Y-12899214D01*
X6449643Y-12899214D01*
X6478214Y-12913500D01*
X6492500Y-12942071D01*
X6492500Y-13099214D01*
X6492500Y-12942071D02*
X6506786Y-12913500D01*
X6535357Y-12899214D01*
X6578214Y-12899214D01*
X6606786Y-12913500D01*
X6621071Y-12942071D01*
X6621071Y-13099214D01*
X6763928Y-13099214D02*
X6763928Y-12899214D01*
X6763928Y-12927786D02*
X6778214Y-12913500D01*
X6806786Y-12899214D01*
X6849643Y-12899214D01*
X6878214Y-12913500D01*
X6892500Y-12942071D01*
X6892500Y-13099214D01*
X6892500Y-12942071D02*
X6906786Y-12913500D01*
X6935357Y-12899214D01*
X6978214Y-12899214D01*
X7006786Y-12913500D01*
X7021071Y-12942071D01*
X7021071Y-13099214D01*
X7606786Y-12784929D02*
X7349643Y-13170643D01*
X7992500Y-12799214D02*
X8021071Y-12799214D01*
X8049643Y-12813500D01*
X8063928Y-12827786D01*
X8078214Y-12856357D01*
X8092500Y-12913500D01*
X8092500Y-12984929D01*
X8078214Y-13042071D01*
X8063928Y-13070643D01*
X8049643Y-13084929D01*
X8021071Y-13099214D01*
X7992500Y-13099214D01*
X7963928Y-13084929D01*
X7949643Y-13070643D01*
X7935357Y-13042071D01*
X7921071Y-12984929D01*
X7921071Y-12913500D01*
X7935357Y-12856357D01*
X7949643Y-12827786D01*
X7963928Y-12813500D01*
X7992500Y-12799214D01*
X8221071Y-13070643D02*
X8235357Y-13084929D01*
X8221071Y-13099214D01*
X8206786Y-13084929D01*
X8221071Y-13070643D01*
X8221071Y-13099214D01*
X8421071Y-12799214D02*
X8449643Y-12799214D01*
X8478214Y-12813500D01*
X8492500Y-12827786D01*
X8506786Y-12856357D01*
X8521071Y-12913500D01*
X8521071Y-12984929D01*
X8506786Y-13042071D01*
X8492500Y-13070643D01*
X8478214Y-13084929D01*
X8449643Y-13099214D01*
X8421071Y-13099214D01*
X8392500Y-13084929D01*
X8378214Y-13070643D01*
X8363928Y-13042071D01*
X8349643Y-12984929D01*
X8349643Y-12913500D01*
X8363928Y-12856357D01*
X8378214Y-12827786D01*
X8392500Y-12813500D01*
X8421071Y-12799214D01*
X8635357Y-12827786D02*
X8649643Y-12813500D01*
X8678214Y-12799214D01*
X8749643Y-12799214D01*
X8778214Y-12813500D01*
X8792500Y-12827786D01*
X8806786Y-12856357D01*
X8806786Y-12884929D01*
X8792500Y-12927786D01*
X8621071Y-13099214D01*
X8806786Y-13099214D01*
X8992500Y-12799214D02*
X9021071Y-12799214D01*
X9049643Y-12813500D01*
X9063928Y-12827786D01*
X9078214Y-12856357D01*
X9092500Y-12913500D01*
X9092500Y-12984929D01*
X9078214Y-13042071D01*
X9063928Y-13070643D01*
X9049643Y-13084929D01*
X9021071Y-13099214D01*
X8992500Y-13099214D01*
X8963928Y-13084929D01*
X8949643Y-13070643D01*
X8935357Y-13042071D01*
X8921071Y-12984929D01*
X8921071Y-12913500D01*
X8935357Y-12856357D01*
X8949643Y-12827786D01*
X8963928Y-12813500D01*
X8992500Y-12799214D01*
X9206786Y-12799214D02*
X9206786Y-12856357D01*
X9321071Y-12799214D02*
X9321071Y-12856357D01*
X9763928Y-13213500D02*
X9749643Y-13199214D01*
X9721071Y-13156357D01*
X9706786Y-13127786D01*
X9692500Y-13084929D01*
X9678214Y-13013500D01*
X9678214Y-12956357D01*
X9692500Y-12884929D01*
X9706786Y-12842071D01*
X9721071Y-12813500D01*
X9749643Y-12770643D01*
X9763928Y-12756357D01*
X9935357Y-12799214D02*
X9963928Y-12799214D01*
X9992500Y-12813500D01*
X10006786Y-12827786D01*
X10021071Y-12856357D01*
X10035357Y-12913500D01*
X10035357Y-12984929D01*
X10021071Y-13042071D01*
X10006786Y-13070643D01*
X9992500Y-13084929D01*
X9963928Y-13099214D01*
X9935357Y-13099214D01*
X9906786Y-13084929D01*
X9892500Y-13070643D01*
X9878214Y-13042071D01*
X9863928Y-12984929D01*
X9863928Y-12913500D01*
X9878214Y-12856357D01*
X9892500Y-12827786D01*
X9906786Y-12813500D01*
X9935357Y-12799214D01*
X10392500Y-13099214D02*
X10392500Y-12799214D01*
X10521071Y-13099214D02*
X10521071Y-12942071D01*
X10506786Y-12913500D01*
X10478214Y-12899214D01*
X10435357Y-12899214D01*
X10406786Y-12913500D01*
X10392500Y-12927786D01*
X10706786Y-13099214D02*
X10678214Y-13084929D01*
X10663928Y-13070643D01*
X10649643Y-13042071D01*
X10649643Y-12956357D01*
X10663928Y-12927786D01*
X10678214Y-12913500D01*
X10706786Y-12899214D01*
X10749643Y-12899214D01*
X10778214Y-12913500D01*
X10792500Y-12927786D01*
X10806786Y-12956357D01*
X10806786Y-13042071D01*
X10792500Y-13070643D01*
X10778214Y-13084929D01*
X10749643Y-13099214D01*
X10706786Y-13099214D01*
X10978214Y-13099214D02*
X10949643Y-13084929D01*
X10935357Y-13056357D01*
X10935357Y-12799214D01*
X11206786Y-13084929D02*
X11178214Y-13099214D01*
X11121071Y-13099214D01*
X11092500Y-13084929D01*
X11078214Y-13056357D01*
X11078214Y-12942071D01*
X11092500Y-12913500D01*
X11121071Y-12899214D01*
X11178214Y-12899214D01*
X11206786Y-12913500D01*
X11221071Y-12942071D01*
X11221071Y-12970643D01*
X11078214Y-12999214D01*
X11335357Y-13084929D02*
X11363928Y-13099214D01*
X11421071Y-13099214D01*
X11449643Y-13084929D01*
X11463928Y-13056357D01*
X11463928Y-13042071D01*
X11449643Y-13013500D01*
X11421071Y-12999214D01*
X11378214Y-12999214D01*
X11349643Y-12984929D01*
X11335357Y-12956357D01*
X11335357Y-12942071D01*
X11349643Y-12913500D01*
X11378214Y-12899214D01*
X11421071Y-12899214D01*
X11449643Y-12913500D01*
X11821071Y-12984929D02*
X12049643Y-12984929D01*
X11935357Y-13099214D02*
X11935357Y-12870643D01*
X12549643Y-12899214D02*
X12549643Y-13099214D01*
X12478214Y-12784929D02*
X12406786Y-12999214D01*
X12592500Y-12999214D01*
X12921071Y-13084929D02*
X12949643Y-13099214D01*
X13006785Y-13099214D01*
X13035357Y-13084929D01*
X13049643Y-13056357D01*
X13049643Y-13042071D01*
X13035357Y-13013500D01*
X13006785Y-12999214D01*
X12963928Y-12999214D01*
X12935357Y-12984929D01*
X12921071Y-12956357D01*
X12921071Y-12942071D01*
X12935357Y-12913500D01*
X12963928Y-12899214D01*
X13006785Y-12899214D01*
X13035357Y-12913500D01*
X13221071Y-13099214D02*
X13192500Y-13084929D01*
X13178214Y-13056357D01*
X13178214Y-12799214D01*
X13378214Y-13099214D02*
X13349643Y-13084929D01*
X13335357Y-13070643D01*
X13321071Y-13042071D01*
X13321071Y-12956357D01*
X13335357Y-12927786D01*
X13349643Y-12913500D01*
X13378214Y-12899214D01*
X13421071Y-12899214D01*
X13449643Y-12913500D01*
X13463928Y-12927786D01*
X13478214Y-12956357D01*
X13478214Y-13042071D01*
X13463928Y-13070643D01*
X13449643Y-13084929D01*
X13421071Y-13099214D01*
X13378214Y-13099214D01*
X13563928Y-12899214D02*
X13678214Y-12899214D01*
X13606786Y-12799214D02*
X13606786Y-13056357D01*
X13621071Y-13084929D01*
X13649643Y-13099214D01*
X13678214Y-13099214D01*
X13763928Y-13084929D02*
X13792500Y-13099214D01*
X13849643Y-13099214D01*
X13878214Y-13084929D01*
X13892500Y-13056357D01*
X13892500Y-13042071D01*
X13878214Y-13013500D01*
X13849643Y-12999214D01*
X13806786Y-12999214D01*
X13778214Y-12984929D01*
X13763928Y-12956357D01*
X13763928Y-12942071D01*
X13778214Y-12913500D01*
X13806786Y-12899214D01*
X13849643Y-12899214D01*
X13878214Y-12913500D01*
X13992500Y-13213500D02*
X14006786Y-13199214D01*
X14035357Y-13156357D01*
X14049643Y-13127786D01*
X14063928Y-13084929D01*
X14078214Y-13013500D01*
X14078214Y-12956357D01*
X14063928Y-12884929D01*
X14049643Y-12842071D01*
X14035357Y-12813500D01*
X14006786Y-12770643D01*
X13992500Y-12756357D01*
X5062500Y-13329500D02*
X5062500Y-13389500D01*
X5032500Y-13359500D02*
X5092500Y-13359500D01*
X5421071Y-13195214D02*
X5449643Y-13195214D01*
X5478214Y-13209500D01*
X5492500Y-13223786D01*
X5506786Y-13252357D01*
X5521071Y-13309500D01*
X5521071Y-13380929D01*
X5506786Y-13438071D01*
X5492500Y-13466643D01*
X5478214Y-13480929D01*
X5449643Y-13495214D01*
X5421071Y-13495214D01*
X5392500Y-13480929D01*
X5378214Y-13466643D01*
X5363929Y-13438071D01*
X5349643Y-13380929D01*
X5349643Y-13309500D01*
X5363929Y-13252357D01*
X5378214Y-13223786D01*
X5392500Y-13209500D01*
X5421071Y-13195214D01*
X5649643Y-13466643D02*
X5663928Y-13480929D01*
X5649643Y-13495214D01*
X5635357Y-13480929D01*
X5649643Y-13466643D01*
X5649643Y-13495214D01*
X5921071Y-13195214D02*
X5863928Y-13195214D01*
X5835357Y-13209500D01*
X5821071Y-13223786D01*
X5792500Y-13266643D01*
X5778214Y-13323786D01*
X5778214Y-13438071D01*
X5792500Y-13466643D01*
X5806786Y-13480929D01*
X5835357Y-13495214D01*
X5892500Y-13495214D01*
X5921071Y-13480929D01*
X5935357Y-13466643D01*
X5949643Y-13438071D01*
X5949643Y-13366643D01*
X5935357Y-13338071D01*
X5921071Y-13323786D01*
X5892500Y-13309500D01*
X5835357Y-13309500D01*
X5806786Y-13323786D01*
X5792500Y-13338071D01*
X5778214Y-13366643D01*
X6135357Y-13195214D02*
X6163928Y-13195214D01*
X6192500Y-13209500D01*
X6206786Y-13223786D01*
X6221071Y-13252357D01*
X6235357Y-13309500D01*
X6235357Y-13380929D01*
X6221071Y-13438071D01*
X6206786Y-13466643D01*
X6192500Y-13480929D01*
X6163928Y-13495214D01*
X6135357Y-13495214D01*
X6106786Y-13480929D01*
X6092500Y-13466643D01*
X6078214Y-13438071D01*
X6063928Y-13380929D01*
X6063928Y-13309500D01*
X6078214Y-13252357D01*
X6092500Y-13223786D01*
X6106786Y-13209500D01*
X6135357Y-13195214D01*
X6363928Y-13495214D02*
X6363928Y-13295214D01*
X6363928Y-13323786D02*
X6378214Y-13309500D01*
X6406786Y-13295214D01*
X6449643Y-13295214D01*
X6478214Y-13309500D01*
X6492500Y-13338071D01*
X6492500Y-13495214D01*
X6492500Y-13338071D02*
X6506786Y-13309500D01*
X6535357Y-13295214D01*
X6578214Y-13295214D01*
X6606786Y-13309500D01*
X6621071Y-13338071D01*
X6621071Y-13495214D01*
X6763928Y-13495214D02*
X6763928Y-13295214D01*
X6763928Y-13323786D02*
X6778214Y-13309500D01*
X6806786Y-13295214D01*
X6849643Y-13295214D01*
X6878214Y-13309500D01*
X6892500Y-13338071D01*
X6892500Y-13495214D01*
X6892500Y-13338071D02*
X6906786Y-13309500D01*
X6935357Y-13295214D01*
X6978214Y-13295214D01*
X7006786Y-13309500D01*
X7021071Y-13338071D01*
X7021071Y-13495214D01*
X7606786Y-13180929D02*
X7349643Y-13566643D01*
X7992500Y-13195214D02*
X8021071Y-13195214D01*
X8049643Y-13209500D01*
X8063928Y-13223786D01*
X8078214Y-13252357D01*
X8092500Y-13309500D01*
X8092500Y-13380929D01*
X8078214Y-13438071D01*
X8063928Y-13466643D01*
X8049643Y-13480929D01*
X8021071Y-13495214D01*
X7992500Y-13495214D01*
X7963928Y-13480929D01*
X7949643Y-13466643D01*
X7935357Y-13438071D01*
X7921071Y-13380929D01*
X7921071Y-13309500D01*
X7935357Y-13252357D01*
X7949643Y-13223786D01*
X7963928Y-13209500D01*
X7992500Y-13195214D01*
X8221071Y-13466643D02*
X8235357Y-13480929D01*
X8221071Y-13495214D01*
X8206786Y-13480929D01*
X8221071Y-13466643D01*
X8221071Y-13495214D01*
X8421071Y-13195214D02*
X8449643Y-13195214D01*
X8478214Y-13209500D01*
X8492500Y-13223786D01*
X8506786Y-13252357D01*
X8521071Y-13309500D01*
X8521071Y-13380929D01*
X8506786Y-13438071D01*
X8492500Y-13466643D01*
X8478214Y-13480929D01*
X8449643Y-13495214D01*
X8421071Y-13495214D01*
X8392500Y-13480929D01*
X8378214Y-13466643D01*
X8363928Y-13438071D01*
X8349643Y-13380929D01*
X8349643Y-13309500D01*
X8363928Y-13252357D01*
X8378214Y-13223786D01*
X8392500Y-13209500D01*
X8421071Y-13195214D01*
X8635357Y-13223786D02*
X8649643Y-13209500D01*
X8678214Y-13195214D01*
X8749643Y-13195214D01*
X8778214Y-13209500D01*
X8792500Y-13223786D01*
X8806786Y-13252357D01*
X8806786Y-13280929D01*
X8792500Y-13323786D01*
X8621071Y-13495214D01*
X8806786Y-13495214D01*
X9063928Y-13295214D02*
X9063928Y-13495214D01*
X8992500Y-13180929D02*
X8921071Y-13395214D01*
X9106786Y-13395214D01*
X9206786Y-13195214D02*
X9206786Y-13252357D01*
X9321071Y-13195214D02*
X9321071Y-13252357D01*
X9763928Y-13609500D02*
X9749643Y-13595214D01*
X9721071Y-13552357D01*
X9706786Y-13523786D01*
X9692500Y-13480929D01*
X9678214Y-13409500D01*
X9678214Y-13352357D01*
X9692500Y-13280929D01*
X9706786Y-13238071D01*
X9721071Y-13209500D01*
X9749643Y-13166643D01*
X9763928Y-13152357D01*
X10006786Y-13195214D02*
X9949643Y-13195214D01*
X9921071Y-13209500D01*
X9906786Y-13223786D01*
X9878214Y-13266643D01*
X9863928Y-13323786D01*
X9863928Y-13438071D01*
X9878214Y-13466643D01*
X9892500Y-13480929D01*
X9921071Y-13495214D01*
X9978214Y-13495214D01*
X10006786Y-13480929D01*
X10021071Y-13466643D01*
X10035357Y-13438071D01*
X10035357Y-13366643D01*
X10021071Y-13338071D01*
X10006786Y-13323786D01*
X9978214Y-13309500D01*
X9921071Y-13309500D01*
X9892500Y-13323786D01*
X9878214Y-13338071D01*
X9863928Y-13366643D01*
X10392500Y-13495214D02*
X10392500Y-13195214D01*
X10521071Y-13495214D02*
X10521071Y-13338071D01*
X10506786Y-13309500D01*
X10478214Y-13295214D01*
X10435357Y-13295214D01*
X10406786Y-13309500D01*
X10392500Y-13323786D01*
X10706786Y-13495214D02*
X10678214Y-13480929D01*
X10663928Y-13466643D01*
X10649643Y-13438071D01*
X10649643Y-13352357D01*
X10663928Y-13323786D01*
X10678214Y-13309500D01*
X10706786Y-13295214D01*
X10749643Y-13295214D01*
X10778214Y-13309500D01*
X10792500Y-13323786D01*
X10806786Y-13352357D01*
X10806786Y-13438071D01*
X10792500Y-13466643D01*
X10778214Y-13480929D01*
X10749643Y-13495214D01*
X10706786Y-13495214D01*
X10978214Y-13495214D02*
X10949643Y-13480929D01*
X10935357Y-13452357D01*
X10935357Y-13195214D01*
X11206786Y-13480929D02*
X11178214Y-13495214D01*
X11121071Y-13495214D01*
X11092500Y-13480929D01*
X11078214Y-13452357D01*
X11078214Y-13338071D01*
X11092500Y-13309500D01*
X11121071Y-13295214D01*
X11178214Y-13295214D01*
X11206786Y-13309500D01*
X11221071Y-13338071D01*
X11221071Y-13366643D01*
X11078214Y-13395214D01*
X11335357Y-13480929D02*
X11363928Y-13495214D01*
X11421071Y-13495214D01*
X11449643Y-13480929D01*
X11463928Y-13452357D01*
X11463928Y-13438071D01*
X11449643Y-13409500D01*
X11421071Y-13395214D01*
X11378214Y-13395214D01*
X11349643Y-13380929D01*
X11335357Y-13352357D01*
X11335357Y-13338071D01*
X11349643Y-13309500D01*
X11378214Y-13295214D01*
X11421071Y-13295214D01*
X11449643Y-13309500D01*
X11563928Y-13609500D02*
X11578214Y-13595214D01*
X11606786Y-13552357D01*
X11621071Y-13523786D01*
X11635357Y-13480929D01*
X11649643Y-13409500D01*
X11649643Y-13352357D01*
X11635357Y-13280929D01*
X11621071Y-13238071D01*
X11606786Y-13209500D01*
X11578214Y-13166643D01*
X11563928Y-13152357D01*
X5081341Y-13782441D02*
X5081341Y-13728559D01*
X5027459Y-13728559D01*
X5027459Y-13782441D01*
X5081341Y-13782441D01*
X5421071Y-13591214D02*
X5449643Y-13591214D01*
X5478214Y-13605500D01*
X5492500Y-13619786D01*
X5506786Y-13648357D01*
X5521071Y-13705500D01*
X5521071Y-13776929D01*
X5506786Y-13834071D01*
X5492500Y-13862643D01*
X5478214Y-13876929D01*
X5449643Y-13891214D01*
X5421071Y-13891214D01*
X5392500Y-13876929D01*
X5378214Y-13862643D01*
X5363929Y-13834071D01*
X5349643Y-13776929D01*
X5349643Y-13705500D01*
X5363929Y-13648357D01*
X5378214Y-13619786D01*
X5392500Y-13605500D01*
X5421071Y-13591214D01*
X5649643Y-13862643D02*
X5663928Y-13876929D01*
X5649643Y-13891214D01*
X5635357Y-13876929D01*
X5649643Y-13862643D01*
X5649643Y-13891214D01*
X5763928Y-13591214D02*
X5963928Y-13591214D01*
X5835357Y-13891214D01*
X6206786Y-13591214D02*
X6149643Y-13591214D01*
X6121071Y-13605500D01*
X6106786Y-13619786D01*
X6078214Y-13662643D01*
X6063928Y-13719786D01*
X6063928Y-13834071D01*
X6078214Y-13862643D01*
X6092500Y-13876929D01*
X6121071Y-13891214D01*
X6178214Y-13891214D01*
X6206786Y-13876929D01*
X6221071Y-13862643D01*
X6235357Y-13834071D01*
X6235357Y-13762643D01*
X6221071Y-13734071D01*
X6206786Y-13719786D01*
X6178214Y-13705500D01*
X6121071Y-13705500D01*
X6092500Y-13719786D01*
X6078214Y-13734071D01*
X6063928Y-13762643D01*
X6363928Y-13891214D02*
X6363928Y-13691214D01*
X6363928Y-13719786D02*
X6378214Y-13705500D01*
X6406786Y-13691214D01*
X6449643Y-13691214D01*
X6478214Y-13705500D01*
X6492500Y-13734071D01*
X6492500Y-13891214D01*
X6492500Y-13734071D02*
X6506786Y-13705500D01*
X6535357Y-13691214D01*
X6578214Y-13691214D01*
X6606786Y-13705500D01*
X6621071Y-13734071D01*
X6621071Y-13891214D01*
X6763928Y-13891214D02*
X6763928Y-13691214D01*
X6763928Y-13719786D02*
X6778214Y-13705500D01*
X6806786Y-13691214D01*
X6849643Y-13691214D01*
X6878214Y-13705500D01*
X6892500Y-13734071D01*
X6892500Y-13891214D01*
X6892500Y-13734071D02*
X6906786Y-13705500D01*
X6935357Y-13691214D01*
X6978214Y-13691214D01*
X7006786Y-13705500D01*
X7021071Y-13734071D01*
X7021071Y-13891214D01*
X7606786Y-13576929D02*
X7349643Y-13962643D01*
X7992500Y-13591214D02*
X8021071Y-13591214D01*
X8049643Y-13605500D01*
X8063928Y-13619786D01*
X8078214Y-13648357D01*
X8092500Y-13705500D01*
X8092500Y-13776929D01*
X8078214Y-13834071D01*
X8063928Y-13862643D01*
X8049643Y-13876929D01*
X8021071Y-13891214D01*
X7992500Y-13891214D01*
X7963928Y-13876929D01*
X7949643Y-13862643D01*
X7935357Y-13834071D01*
X7921071Y-13776929D01*
X7921071Y-13705500D01*
X7935357Y-13648357D01*
X7949643Y-13619786D01*
X7963928Y-13605500D01*
X7992500Y-13591214D01*
X8221071Y-13862643D02*
X8235357Y-13876929D01*
X8221071Y-13891214D01*
X8206786Y-13876929D01*
X8221071Y-13862643D01*
X8221071Y-13891214D01*
X8421071Y-13591214D02*
X8449643Y-13591214D01*
X8478214Y-13605500D01*
X8492500Y-13619786D01*
X8506786Y-13648357D01*
X8521071Y-13705500D01*
X8521071Y-13776929D01*
X8506786Y-13834071D01*
X8492500Y-13862643D01*
X8478214Y-13876929D01*
X8449643Y-13891214D01*
X8421071Y-13891214D01*
X8392500Y-13876929D01*
X8378214Y-13862643D01*
X8363928Y-13834071D01*
X8349643Y-13776929D01*
X8349643Y-13705500D01*
X8363928Y-13648357D01*
X8378214Y-13619786D01*
X8392500Y-13605500D01*
X8421071Y-13591214D01*
X8621071Y-13591214D02*
X8806786Y-13591214D01*
X8706786Y-13705500D01*
X8749643Y-13705500D01*
X8778214Y-13719786D01*
X8792500Y-13734071D01*
X8806786Y-13762643D01*
X8806786Y-13834071D01*
X8792500Y-13862643D01*
X8778214Y-13876929D01*
X8749643Y-13891214D01*
X8663928Y-13891214D01*
X8635357Y-13876929D01*
X8621071Y-13862643D01*
X8992500Y-13591214D02*
X9021071Y-13591214D01*
X9049643Y-13605500D01*
X9063928Y-13619786D01*
X9078214Y-13648357D01*
X9092500Y-13705500D01*
X9092500Y-13776929D01*
X9078214Y-13834071D01*
X9063928Y-13862643D01*
X9049643Y-13876929D01*
X9021071Y-13891214D01*
X8992500Y-13891214D01*
X8963928Y-13876929D01*
X8949643Y-13862643D01*
X8935357Y-13834071D01*
X8921071Y-13776929D01*
X8921071Y-13705500D01*
X8935357Y-13648357D01*
X8949643Y-13619786D01*
X8963928Y-13605500D01*
X8992500Y-13591214D01*
X9206786Y-13591214D02*
X9206786Y-13648357D01*
X9321071Y-13591214D02*
X9321071Y-13648357D01*
X9763928Y-14005500D02*
X9749643Y-13991214D01*
X9721071Y-13948357D01*
X9706786Y-13919786D01*
X9692500Y-13876929D01*
X9678214Y-13805500D01*
X9678214Y-13748357D01*
X9692500Y-13676929D01*
X9706786Y-13634071D01*
X9721071Y-13605500D01*
X9749643Y-13562643D01*
X9763928Y-13548357D01*
X10006786Y-13691214D02*
X10006786Y-13891214D01*
X9935357Y-13576929D02*
X9863928Y-13791214D01*
X10049643Y-13791214D01*
X10392500Y-13891214D02*
X10392500Y-13591214D01*
X10521071Y-13891214D02*
X10521071Y-13734071D01*
X10506786Y-13705500D01*
X10478214Y-13691214D01*
X10435357Y-13691214D01*
X10406786Y-13705500D01*
X10392500Y-13719786D01*
X10706786Y-13891214D02*
X10678214Y-13876929D01*
X10663928Y-13862643D01*
X10649643Y-13834071D01*
X10649643Y-13748357D01*
X10663928Y-13719786D01*
X10678214Y-13705500D01*
X10706786Y-13691214D01*
X10749643Y-13691214D01*
X10778214Y-13705500D01*
X10792500Y-13719786D01*
X10806786Y-13748357D01*
X10806786Y-13834071D01*
X10792500Y-13862643D01*
X10778214Y-13876929D01*
X10749643Y-13891214D01*
X10706786Y-13891214D01*
X10978214Y-13891214D02*
X10949643Y-13876929D01*
X10935357Y-13848357D01*
X10935357Y-13591214D01*
X11206786Y-13876929D02*
X11178214Y-13891214D01*
X11121071Y-13891214D01*
X11092500Y-13876929D01*
X11078214Y-13848357D01*
X11078214Y-13734071D01*
X11092500Y-13705500D01*
X11121071Y-13691214D01*
X11178214Y-13691214D01*
X11206786Y-13705500D01*
X11221071Y-13734071D01*
X11221071Y-13762643D01*
X11078214Y-13791214D01*
X11335357Y-13876929D02*
X11363928Y-13891214D01*
X11421071Y-13891214D01*
X11449643Y-13876929D01*
X11463928Y-13848357D01*
X11463928Y-13834071D01*
X11449643Y-13805500D01*
X11421071Y-13791214D01*
X11378214Y-13791214D01*
X11349643Y-13776929D01*
X11335357Y-13748357D01*
X11335357Y-13734071D01*
X11349643Y-13705500D01*
X11378214Y-13691214D01*
X11421071Y-13691214D01*
X11449643Y-13705500D01*
X11563928Y-14005500D02*
X11578214Y-13991214D01*
X11606786Y-13948357D01*
X11621071Y-13919786D01*
X11635357Y-13876929D01*
X11649643Y-13805500D01*
X11649643Y-13748357D01*
X11635357Y-13676929D01*
X11621071Y-13634071D01*
X11606786Y-13605500D01*
X11578214Y-13562643D01*
X11563928Y-13548357D01*
X5052500Y-14191500D02*
X5092500Y-14151500D01*
X5052500Y-14111500D01*
X5012500Y-14151500D01*
X5052500Y-14191500D01*
X5421071Y-13987214D02*
X5449643Y-13987214D01*
X5478214Y-14001500D01*
X5492500Y-14015786D01*
X5506786Y-14044357D01*
X5521071Y-14101500D01*
X5521071Y-14172929D01*
X5506786Y-14230071D01*
X5492500Y-14258643D01*
X5478214Y-14272929D01*
X5449643Y-14287214D01*
X5421071Y-14287214D01*
X5392500Y-14272929D01*
X5378214Y-14258643D01*
X5363929Y-14230071D01*
X5349643Y-14172929D01*
X5349643Y-14101500D01*
X5363929Y-14044357D01*
X5378214Y-14015786D01*
X5392500Y-14001500D01*
X5421071Y-13987214D01*
X5649643Y-14258643D02*
X5663928Y-14272929D01*
X5649643Y-14287214D01*
X5635357Y-14272929D01*
X5649643Y-14258643D01*
X5649643Y-14287214D01*
X5835357Y-14115786D02*
X5806786Y-14101500D01*
X5792500Y-14087214D01*
X5778214Y-14058643D01*
X5778214Y-14044357D01*
X5792500Y-14015786D01*
X5806786Y-14001500D01*
X5835357Y-13987214D01*
X5892500Y-13987214D01*
X5921071Y-14001500D01*
X5935357Y-14015786D01*
X5949643Y-14044357D01*
X5949643Y-14058643D01*
X5935357Y-14087214D01*
X5921071Y-14101500D01*
X5892500Y-14115786D01*
X5835357Y-14115786D01*
X5806786Y-14130071D01*
X5792500Y-14144357D01*
X5778214Y-14172929D01*
X5778214Y-14230071D01*
X5792500Y-14258643D01*
X5806786Y-14272929D01*
X5835357Y-14287214D01*
X5892500Y-14287214D01*
X5921071Y-14272929D01*
X5935357Y-14258643D01*
X5949643Y-14230071D01*
X5949643Y-14172929D01*
X5935357Y-14144357D01*
X5921071Y-14130071D01*
X5892500Y-14115786D01*
X6135357Y-13987214D02*
X6163928Y-13987214D01*
X6192500Y-14001500D01*
X6206786Y-14015786D01*
X6221071Y-14044357D01*
X6235357Y-14101500D01*
X6235357Y-14172929D01*
X6221071Y-14230071D01*
X6206786Y-14258643D01*
X6192500Y-14272929D01*
X6163928Y-14287214D01*
X6135357Y-14287214D01*
X6106786Y-14272929D01*
X6092500Y-14258643D01*
X6078214Y-14230071D01*
X6063928Y-14172929D01*
X6063928Y-14101500D01*
X6078214Y-14044357D01*
X6092500Y-14015786D01*
X6106786Y-14001500D01*
X6135357Y-13987214D01*
X6363928Y-14287214D02*
X6363928Y-14087214D01*
X6363928Y-14115786D02*
X6378214Y-14101500D01*
X6406786Y-14087214D01*
X6449643Y-14087214D01*
X6478214Y-14101500D01*
X6492500Y-14130071D01*
X6492500Y-14287214D01*
X6492500Y-14130071D02*
X6506786Y-14101500D01*
X6535357Y-14087214D01*
X6578214Y-14087214D01*
X6606786Y-14101500D01*
X6621071Y-14130071D01*
X6621071Y-14287214D01*
X6763928Y-14287214D02*
X6763928Y-14087214D01*
X6763928Y-14115786D02*
X6778214Y-14101500D01*
X6806786Y-14087214D01*
X6849643Y-14087214D01*
X6878214Y-14101500D01*
X6892500Y-14130071D01*
X6892500Y-14287214D01*
X6892500Y-14130071D02*
X6906786Y-14101500D01*
X6935357Y-14087214D01*
X6978214Y-14087214D01*
X7006786Y-14101500D01*
X7021071Y-14130071D01*
X7021071Y-14287214D01*
X7606786Y-13972929D02*
X7349643Y-14358643D01*
X7992500Y-13987214D02*
X8021071Y-13987214D01*
X8049643Y-14001500D01*
X8063928Y-14015786D01*
X8078214Y-14044357D01*
X8092500Y-14101500D01*
X8092500Y-14172929D01*
X8078214Y-14230071D01*
X8063928Y-14258643D01*
X8049643Y-14272929D01*
X8021071Y-14287214D01*
X7992500Y-14287214D01*
X7963928Y-14272929D01*
X7949643Y-14258643D01*
X7935357Y-14230071D01*
X7921071Y-14172929D01*
X7921071Y-14101500D01*
X7935357Y-14044357D01*
X7949643Y-14015786D01*
X7963928Y-14001500D01*
X7992500Y-13987214D01*
X8221071Y-14258643D02*
X8235357Y-14272929D01*
X8221071Y-14287214D01*
X8206786Y-14272929D01*
X8221071Y-14258643D01*
X8221071Y-14287214D01*
X8421071Y-13987214D02*
X8449643Y-13987214D01*
X8478214Y-14001500D01*
X8492500Y-14015786D01*
X8506786Y-14044357D01*
X8521071Y-14101500D01*
X8521071Y-14172929D01*
X8506786Y-14230071D01*
X8492500Y-14258643D01*
X8478214Y-14272929D01*
X8449643Y-14287214D01*
X8421071Y-14287214D01*
X8392500Y-14272929D01*
X8378214Y-14258643D01*
X8363928Y-14230071D01*
X8349643Y-14172929D01*
X8349643Y-14101500D01*
X8363928Y-14044357D01*
X8378214Y-14015786D01*
X8392500Y-14001500D01*
X8421071Y-13987214D01*
X8621071Y-13987214D02*
X8806786Y-13987214D01*
X8706786Y-14101500D01*
X8749643Y-14101500D01*
X8778214Y-14115786D01*
X8792500Y-14130071D01*
X8806786Y-14158643D01*
X8806786Y-14230071D01*
X8792500Y-14258643D01*
X8778214Y-14272929D01*
X8749643Y-14287214D01*
X8663928Y-14287214D01*
X8635357Y-14272929D01*
X8621071Y-14258643D01*
X9092500Y-14287214D02*
X8921071Y-14287214D01*
X9006786Y-14287214D02*
X9006786Y-13987214D01*
X8978214Y-14030071D01*
X8949643Y-14058643D01*
X8921071Y-14072929D01*
X9206786Y-13987214D02*
X9206786Y-14044357D01*
X9321071Y-13987214D02*
X9321071Y-14044357D01*
X9763928Y-14401500D02*
X9749643Y-14387214D01*
X9721071Y-14344357D01*
X9706786Y-14315786D01*
X9692500Y-14272929D01*
X9678214Y-14201500D01*
X9678214Y-14144357D01*
X9692500Y-14072929D01*
X9706786Y-14030071D01*
X9721071Y-14001500D01*
X9749643Y-13958643D01*
X9763928Y-13944357D01*
X10021071Y-13987214D02*
X9878214Y-13987214D01*
X9863928Y-14130071D01*
X9878214Y-14115786D01*
X9906786Y-14101500D01*
X9978214Y-14101500D01*
X10006786Y-14115786D01*
X10021071Y-14130071D01*
X10035357Y-14158643D01*
X10035357Y-14230071D01*
X10021071Y-14258643D01*
X10006786Y-14272929D01*
X9978214Y-14287214D01*
X9906786Y-14287214D01*
X9878214Y-14272929D01*
X9863928Y-14258643D01*
X10149643Y-14015786D02*
X10163928Y-14001500D01*
X10192500Y-13987214D01*
X10263928Y-13987214D01*
X10292500Y-14001500D01*
X10306786Y-14015786D01*
X10321071Y-14044357D01*
X10321071Y-14072929D01*
X10306786Y-14115786D01*
X10135357Y-14287214D01*
X10321071Y-14287214D01*
X10678214Y-14287214D02*
X10678214Y-13987214D01*
X10806786Y-14287214D02*
X10806786Y-14130071D01*
X10792500Y-14101500D01*
X10763928Y-14087214D01*
X10721071Y-14087214D01*
X10692500Y-14101500D01*
X10678214Y-14115786D01*
X10992500Y-14287214D02*
X10963928Y-14272929D01*
X10949643Y-14258643D01*
X10935357Y-14230071D01*
X10935357Y-14144357D01*
X10949643Y-14115786D01*
X10963928Y-14101500D01*
X10992500Y-14087214D01*
X11035357Y-14087214D01*
X11063928Y-14101500D01*
X11078214Y-14115786D01*
X11092500Y-14144357D01*
X11092500Y-14230071D01*
X11078214Y-14258643D01*
X11063928Y-14272929D01*
X11035357Y-14287214D01*
X10992500Y-14287214D01*
X11263928Y-14287214D02*
X11235357Y-14272929D01*
X11221071Y-14244357D01*
X11221071Y-13987214D01*
X11492500Y-14272929D02*
X11463928Y-14287214D01*
X11406786Y-14287214D01*
X11378214Y-14272929D01*
X11363928Y-14244357D01*
X11363928Y-14130071D01*
X11378214Y-14101500D01*
X11406786Y-14087214D01*
X11463928Y-14087214D01*
X11492500Y-14101500D01*
X11506786Y-14130071D01*
X11506786Y-14158643D01*
X11363928Y-14187214D01*
X11621071Y-14272929D02*
X11649643Y-14287214D01*
X11706786Y-14287214D01*
X11735357Y-14272929D01*
X11749643Y-14244357D01*
X11749643Y-14230071D01*
X11735357Y-14201500D01*
X11706786Y-14187214D01*
X11663928Y-14187214D01*
X11635357Y-14172929D01*
X11621071Y-14144357D01*
X11621071Y-14130071D01*
X11635357Y-14101500D01*
X11663928Y-14087214D01*
X11706786Y-14087214D01*
X11735357Y-14101500D01*
X11849643Y-14401500D02*
X11863928Y-14387214D01*
X11892500Y-14344357D01*
X11906786Y-14315786D01*
X11921071Y-14272929D01*
X11935357Y-14201500D01*
X11935357Y-14144357D01*
X11921071Y-14072929D01*
X11906786Y-14030071D01*
X11892500Y-14001500D01*
X11863928Y-13958643D01*
X11849643Y-13944357D01*
X5002500Y-14502500D02*
X5092500Y-14592500D01*
X5092500Y-14502500D02*
X5002500Y-14592500D01*
X5092500Y-14547500D02*
G75*
G03X5092500Y-14547500I-45000J0D01*
G01*
X5421071Y-14383214D02*
X5449643Y-14383214D01*
X5478214Y-14397500D01*
X5492500Y-14411786D01*
X5506786Y-14440357D01*
X5521071Y-14497500D01*
X5521071Y-14568929D01*
X5506786Y-14626071D01*
X5492500Y-14654643D01*
X5478214Y-14668929D01*
X5449643Y-14683214D01*
X5421071Y-14683214D01*
X5392500Y-14668929D01*
X5378214Y-14654643D01*
X5363929Y-14626071D01*
X5349643Y-14568929D01*
X5349643Y-14497500D01*
X5363929Y-14440357D01*
X5378214Y-14411786D01*
X5392500Y-14397500D01*
X5421071Y-14383214D01*
X5649643Y-14654643D02*
X5663928Y-14668929D01*
X5649643Y-14683214D01*
X5635357Y-14668929D01*
X5649643Y-14654643D01*
X5649643Y-14683214D01*
X5806786Y-14683214D02*
X5863928Y-14683214D01*
X5892500Y-14668929D01*
X5906786Y-14654643D01*
X5935357Y-14611786D01*
X5949643Y-14554643D01*
X5949643Y-14440357D01*
X5935357Y-14411786D01*
X5921071Y-14397500D01*
X5892500Y-14383214D01*
X5835357Y-14383214D01*
X5806786Y-14397500D01*
X5792500Y-14411786D01*
X5778214Y-14440357D01*
X5778214Y-14511786D01*
X5792500Y-14540357D01*
X5806786Y-14554643D01*
X5835357Y-14568929D01*
X5892500Y-14568929D01*
X5921071Y-14554643D01*
X5935357Y-14540357D01*
X5949643Y-14511786D01*
X6135357Y-14383214D02*
X6163928Y-14383214D01*
X6192500Y-14397500D01*
X6206786Y-14411786D01*
X6221071Y-14440357D01*
X6235357Y-14497500D01*
X6235357Y-14568929D01*
X6221071Y-14626071D01*
X6206786Y-14654643D01*
X6192500Y-14668929D01*
X6163928Y-14683214D01*
X6135357Y-14683214D01*
X6106786Y-14668929D01*
X6092500Y-14654643D01*
X6078214Y-14626071D01*
X6063928Y-14568929D01*
X6063928Y-14497500D01*
X6078214Y-14440357D01*
X6092500Y-14411786D01*
X6106786Y-14397500D01*
X6135357Y-14383214D01*
X6363928Y-14683214D02*
X6363928Y-14483214D01*
X6363928Y-14511786D02*
X6378214Y-14497500D01*
X6406786Y-14483214D01*
X6449643Y-14483214D01*
X6478214Y-14497500D01*
X6492500Y-14526071D01*
X6492500Y-14683214D01*
X6492500Y-14526071D02*
X6506786Y-14497500D01*
X6535357Y-14483214D01*
X6578214Y-14483214D01*
X6606786Y-14497500D01*
X6621071Y-14526071D01*
X6621071Y-14683214D01*
X6763928Y-14683214D02*
X6763928Y-14483214D01*
X6763928Y-14511786D02*
X6778214Y-14497500D01*
X6806786Y-14483214D01*
X6849643Y-14483214D01*
X6878214Y-14497500D01*
X6892500Y-14526071D01*
X6892500Y-14683214D01*
X6892500Y-14526071D02*
X6906786Y-14497500D01*
X6935357Y-14483214D01*
X6978214Y-14483214D01*
X7006786Y-14497500D01*
X7021071Y-14526071D01*
X7021071Y-14683214D01*
X7606786Y-14368929D02*
X7349643Y-14754643D01*
X7992500Y-14383214D02*
X8021071Y-14383214D01*
X8049643Y-14397500D01*
X8063928Y-14411786D01*
X8078214Y-14440357D01*
X8092500Y-14497500D01*
X8092500Y-14568929D01*
X8078214Y-14626071D01*
X8063928Y-14654643D01*
X8049643Y-14668929D01*
X8021071Y-14683214D01*
X7992500Y-14683214D01*
X7963928Y-14668929D01*
X7949643Y-14654643D01*
X7935357Y-14626071D01*
X7921071Y-14568929D01*
X7921071Y-14497500D01*
X7935357Y-14440357D01*
X7949643Y-14411786D01*
X7963928Y-14397500D01*
X7992500Y-14383214D01*
X8221071Y-14654643D02*
X8235357Y-14668929D01*
X8221071Y-14683214D01*
X8206786Y-14668929D01*
X8221071Y-14654643D01*
X8221071Y-14683214D01*
X8421071Y-14383214D02*
X8449643Y-14383214D01*
X8478214Y-14397500D01*
X8492500Y-14411786D01*
X8506786Y-14440357D01*
X8521071Y-14497500D01*
X8521071Y-14568929D01*
X8506786Y-14626071D01*
X8492500Y-14654643D01*
X8478214Y-14668929D01*
X8449643Y-14683214D01*
X8421071Y-14683214D01*
X8392500Y-14668929D01*
X8378214Y-14654643D01*
X8363928Y-14626071D01*
X8349643Y-14568929D01*
X8349643Y-14497500D01*
X8363928Y-14440357D01*
X8378214Y-14411786D01*
X8392500Y-14397500D01*
X8421071Y-14383214D01*
X8621071Y-14383214D02*
X8806786Y-14383214D01*
X8706786Y-14497500D01*
X8749643Y-14497500D01*
X8778214Y-14511786D01*
X8792500Y-14526071D01*
X8806786Y-14554643D01*
X8806786Y-14626071D01*
X8792500Y-14654643D01*
X8778214Y-14668929D01*
X8749643Y-14683214D01*
X8663928Y-14683214D01*
X8635357Y-14668929D01*
X8621071Y-14654643D01*
X9078214Y-14383214D02*
X8935357Y-14383214D01*
X8921071Y-14526071D01*
X8935357Y-14511786D01*
X8963928Y-14497500D01*
X9035357Y-14497500D01*
X9063928Y-14511786D01*
X9078214Y-14526071D01*
X9092500Y-14554643D01*
X9092500Y-14626071D01*
X9078214Y-14654643D01*
X9063928Y-14668929D01*
X9035357Y-14683214D01*
X8963928Y-14683214D01*
X8935357Y-14668929D01*
X8921071Y-14654643D01*
X9206786Y-14383214D02*
X9206786Y-14440357D01*
X9321071Y-14383214D02*
X9321071Y-14440357D01*
X9763928Y-14797500D02*
X9749643Y-14783214D01*
X9721071Y-14740357D01*
X9706786Y-14711786D01*
X9692500Y-14668929D01*
X9678214Y-14597500D01*
X9678214Y-14540357D01*
X9692500Y-14468929D01*
X9706786Y-14426071D01*
X9721071Y-14397500D01*
X9749643Y-14354643D01*
X9763928Y-14340357D01*
X9863928Y-14411786D02*
X9878214Y-14397500D01*
X9906786Y-14383214D01*
X9978214Y-14383214D01*
X10006786Y-14397500D01*
X10021071Y-14411786D01*
X10035357Y-14440357D01*
X10035357Y-14468929D01*
X10021071Y-14511786D01*
X9849643Y-14683214D01*
X10035357Y-14683214D01*
X10392500Y-14683214D02*
X10392500Y-14383214D01*
X10521071Y-14683214D02*
X10521071Y-14526071D01*
X10506786Y-14497500D01*
X10478214Y-14483214D01*
X10435357Y-14483214D01*
X10406786Y-14497500D01*
X10392500Y-14511786D01*
X10706786Y-14683214D02*
X10678214Y-14668929D01*
X10663928Y-14654643D01*
X10649643Y-14626071D01*
X10649643Y-14540357D01*
X10663928Y-14511786D01*
X10678214Y-14497500D01*
X10706786Y-14483214D01*
X10749643Y-14483214D01*
X10778214Y-14497500D01*
X10792500Y-14511786D01*
X10806786Y-14540357D01*
X10806786Y-14626071D01*
X10792500Y-14654643D01*
X10778214Y-14668929D01*
X10749643Y-14683214D01*
X10706786Y-14683214D01*
X10978214Y-14683214D02*
X10949643Y-14668929D01*
X10935357Y-14640357D01*
X10935357Y-14383214D01*
X11206786Y-14668929D02*
X11178214Y-14683214D01*
X11121071Y-14683214D01*
X11092500Y-14668929D01*
X11078214Y-14640357D01*
X11078214Y-14526071D01*
X11092500Y-14497500D01*
X11121071Y-14483214D01*
X11178214Y-14483214D01*
X11206786Y-14497500D01*
X11221071Y-14526071D01*
X11221071Y-14554643D01*
X11078214Y-14583214D01*
X11335357Y-14668929D02*
X11363928Y-14683214D01*
X11421071Y-14683214D01*
X11449643Y-14668929D01*
X11463928Y-14640357D01*
X11463928Y-14626071D01*
X11449643Y-14597500D01*
X11421071Y-14583214D01*
X11378214Y-14583214D01*
X11349643Y-14568929D01*
X11335357Y-14540357D01*
X11335357Y-14526071D01*
X11349643Y-14497500D01*
X11378214Y-14483214D01*
X11421071Y-14483214D01*
X11449643Y-14497500D01*
X11563928Y-14797500D02*
X11578214Y-14783214D01*
X11606786Y-14740357D01*
X11621071Y-14711786D01*
X11635357Y-14668929D01*
X11649643Y-14597500D01*
X11649643Y-14540357D01*
X11635357Y-14468929D01*
X11621071Y-14426071D01*
X11606786Y-14397500D01*
X11578214Y-14354643D01*
X11563928Y-14340357D01*
X4992500Y-14893500D02*
X5092500Y-14993500D01*
X5092500Y-14893500D02*
X4992500Y-14993500D01*
X5042500Y-14893500D02*
X5042500Y-14993500D01*
X4992500Y-14943500D02*
X5092500Y-14943500D01*
X5521071Y-15079214D02*
X5349643Y-15079214D01*
X5435357Y-15079214D02*
X5435357Y-14779214D01*
X5406786Y-14822071D01*
X5378214Y-14850643D01*
X5349643Y-14864929D01*
X5649643Y-15050643D02*
X5663928Y-15064929D01*
X5649643Y-15079214D01*
X5635357Y-15064929D01*
X5649643Y-15050643D01*
X5649643Y-15079214D01*
X5849643Y-14779214D02*
X5878214Y-14779214D01*
X5906786Y-14793500D01*
X5921071Y-14807786D01*
X5935357Y-14836357D01*
X5949643Y-14893500D01*
X5949643Y-14964929D01*
X5935357Y-15022071D01*
X5921071Y-15050643D01*
X5906786Y-15064929D01*
X5878214Y-15079214D01*
X5849643Y-15079214D01*
X5821071Y-15064929D01*
X5806786Y-15050643D01*
X5792500Y-15022071D01*
X5778214Y-14964929D01*
X5778214Y-14893500D01*
X5792500Y-14836357D01*
X5806786Y-14807786D01*
X5821071Y-14793500D01*
X5849643Y-14779214D01*
X6135357Y-14779214D02*
X6163928Y-14779214D01*
X6192500Y-14793500D01*
X6206786Y-14807786D01*
X6221071Y-14836357D01*
X6235357Y-14893500D01*
X6235357Y-14964929D01*
X6221071Y-15022071D01*
X6206786Y-15050643D01*
X6192500Y-15064929D01*
X6163928Y-15079214D01*
X6135357Y-15079214D01*
X6106786Y-15064929D01*
X6092500Y-15050643D01*
X6078214Y-15022071D01*
X6063928Y-14964929D01*
X6063928Y-14893500D01*
X6078214Y-14836357D01*
X6092500Y-14807786D01*
X6106786Y-14793500D01*
X6135357Y-14779214D01*
X6363928Y-15079214D02*
X6363928Y-14879214D01*
X6363928Y-14907786D02*
X6378214Y-14893500D01*
X6406786Y-14879214D01*
X6449643Y-14879214D01*
X6478214Y-14893500D01*
X6492500Y-14922071D01*
X6492500Y-15079214D01*
X6492500Y-14922071D02*
X6506786Y-14893500D01*
X6535357Y-14879214D01*
X6578214Y-14879214D01*
X6606786Y-14893500D01*
X6621071Y-14922071D01*
X6621071Y-15079214D01*
X6763928Y-15079214D02*
X6763928Y-14879214D01*
X6763928Y-14907786D02*
X6778214Y-14893500D01*
X6806786Y-14879214D01*
X6849643Y-14879214D01*
X6878214Y-14893500D01*
X6892500Y-14922071D01*
X6892500Y-15079214D01*
X6892500Y-14922071D02*
X6906786Y-14893500D01*
X6935357Y-14879214D01*
X6978214Y-14879214D01*
X7006786Y-14893500D01*
X7021071Y-14922071D01*
X7021071Y-15079214D01*
X7606786Y-14764929D02*
X7349643Y-15150643D01*
X7992500Y-14779214D02*
X8021071Y-14779214D01*
X8049643Y-14793500D01*
X8063928Y-14807786D01*
X8078214Y-14836357D01*
X8092500Y-14893500D01*
X8092500Y-14964929D01*
X8078214Y-15022071D01*
X8063928Y-15050643D01*
X8049643Y-15064929D01*
X8021071Y-15079214D01*
X7992500Y-15079214D01*
X7963928Y-15064929D01*
X7949643Y-15050643D01*
X7935357Y-15022071D01*
X7921071Y-14964929D01*
X7921071Y-14893500D01*
X7935357Y-14836357D01*
X7949643Y-14807786D01*
X7963928Y-14793500D01*
X7992500Y-14779214D01*
X8221071Y-15050643D02*
X8235357Y-15064929D01*
X8221071Y-15079214D01*
X8206786Y-15064929D01*
X8221071Y-15050643D01*
X8221071Y-15079214D01*
X8421071Y-14779214D02*
X8449643Y-14779214D01*
X8478214Y-14793500D01*
X8492500Y-14807786D01*
X8506786Y-14836357D01*
X8521071Y-14893500D01*
X8521071Y-14964929D01*
X8506786Y-15022071D01*
X8492500Y-15050643D01*
X8478214Y-15064929D01*
X8449643Y-15079214D01*
X8421071Y-15079214D01*
X8392500Y-15064929D01*
X8378214Y-15050643D01*
X8363928Y-15022071D01*
X8349643Y-14964929D01*
X8349643Y-14893500D01*
X8363928Y-14836357D01*
X8378214Y-14807786D01*
X8392500Y-14793500D01*
X8421071Y-14779214D01*
X8621071Y-14779214D02*
X8806786Y-14779214D01*
X8706786Y-14893500D01*
X8749643Y-14893500D01*
X8778214Y-14907786D01*
X8792500Y-14922071D01*
X8806786Y-14950643D01*
X8806786Y-15022071D01*
X8792500Y-15050643D01*
X8778214Y-15064929D01*
X8749643Y-15079214D01*
X8663928Y-15079214D01*
X8635357Y-15064929D01*
X8621071Y-15050643D01*
X8949643Y-15079214D02*
X9006786Y-15079214D01*
X9035357Y-15064929D01*
X9049643Y-15050643D01*
X9078214Y-15007786D01*
X9092500Y-14950643D01*
X9092500Y-14836357D01*
X9078214Y-14807786D01*
X9063928Y-14793500D01*
X9035357Y-14779214D01*
X8978214Y-14779214D01*
X8949643Y-14793500D01*
X8935357Y-14807786D01*
X8921071Y-14836357D01*
X8921071Y-14907786D01*
X8935357Y-14936357D01*
X8949643Y-14950643D01*
X8978214Y-14964929D01*
X9035357Y-14964929D01*
X9063928Y-14950643D01*
X9078214Y-14936357D01*
X9092500Y-14907786D01*
X9206786Y-14779214D02*
X9206786Y-14836357D01*
X9321071Y-14779214D02*
X9321071Y-14836357D01*
X9763928Y-15193500D02*
X9749643Y-15179214D01*
X9721071Y-15136357D01*
X9706786Y-15107786D01*
X9692500Y-15064929D01*
X9678214Y-14993500D01*
X9678214Y-14936357D01*
X9692500Y-14864929D01*
X9706786Y-14822071D01*
X9721071Y-14793500D01*
X9749643Y-14750643D01*
X9763928Y-14736357D01*
X9849643Y-14779214D02*
X10035357Y-14779214D01*
X9935357Y-14893500D01*
X9978214Y-14893500D01*
X10006786Y-14907786D01*
X10021071Y-14922071D01*
X10035357Y-14950643D01*
X10035357Y-15022071D01*
X10021071Y-15050643D01*
X10006786Y-15064929D01*
X9978214Y-15079214D01*
X9892500Y-15079214D01*
X9863928Y-15064929D01*
X9849643Y-15050643D01*
X10206786Y-14907786D02*
X10178214Y-14893500D01*
X10163928Y-14879214D01*
X10149643Y-14850643D01*
X10149643Y-14836357D01*
X10163928Y-14807786D01*
X10178214Y-14793500D01*
X10206786Y-14779214D01*
X10263928Y-14779214D01*
X10292500Y-14793500D01*
X10306786Y-14807786D01*
X10321071Y-14836357D01*
X10321071Y-14850643D01*
X10306786Y-14879214D01*
X10292500Y-14893500D01*
X10263928Y-14907786D01*
X10206786Y-14907786D01*
X10178214Y-14922071D01*
X10163928Y-14936357D01*
X10149643Y-14964929D01*
X10149643Y-15022071D01*
X10163928Y-15050643D01*
X10178214Y-15064929D01*
X10206786Y-15079214D01*
X10263928Y-15079214D01*
X10292500Y-15064929D01*
X10306786Y-15050643D01*
X10321071Y-15022071D01*
X10321071Y-14964929D01*
X10306786Y-14936357D01*
X10292500Y-14922071D01*
X10263928Y-14907786D01*
X10678214Y-15079214D02*
X10678214Y-14779214D01*
X10806786Y-15079214D02*
X10806786Y-14922071D01*
X10792500Y-14893500D01*
X10763928Y-14879214D01*
X10721071Y-14879214D01*
X10692500Y-14893500D01*
X10678214Y-14907786D01*
X10992500Y-15079214D02*
X10963928Y-15064929D01*
X10949643Y-15050643D01*
X10935357Y-15022071D01*
X10935357Y-14936357D01*
X10949643Y-14907786D01*
X10963928Y-14893500D01*
X10992500Y-14879214D01*
X11035357Y-14879214D01*
X11063928Y-14893500D01*
X11078214Y-14907786D01*
X11092500Y-14936357D01*
X11092500Y-15022071D01*
X11078214Y-15050643D01*
X11063928Y-15064929D01*
X11035357Y-15079214D01*
X10992500Y-15079214D01*
X11263928Y-15079214D02*
X11235357Y-15064929D01*
X11221071Y-15036357D01*
X11221071Y-14779214D01*
X11492500Y-15064929D02*
X11463928Y-15079214D01*
X11406786Y-15079214D01*
X11378214Y-15064929D01*
X11363928Y-15036357D01*
X11363928Y-14922071D01*
X11378214Y-14893500D01*
X11406786Y-14879214D01*
X11463928Y-14879214D01*
X11492500Y-14893500D01*
X11506786Y-14922071D01*
X11506786Y-14950643D01*
X11363928Y-14979214D01*
X11621071Y-15064929D02*
X11649643Y-15079214D01*
X11706786Y-15079214D01*
X11735357Y-15064929D01*
X11749643Y-15036357D01*
X11749643Y-15022071D01*
X11735357Y-14993500D01*
X11706786Y-14979214D01*
X11663928Y-14979214D01*
X11635357Y-14964929D01*
X11621071Y-14936357D01*
X11621071Y-14922071D01*
X11635357Y-14893500D01*
X11663928Y-14879214D01*
X11706786Y-14879214D01*
X11735357Y-14893500D01*
X12106786Y-14964929D02*
X12335357Y-14964929D01*
X12221071Y-15079214D02*
X12221071Y-14850643D01*
X12678214Y-14779214D02*
X12863928Y-14779214D01*
X12763928Y-14893500D01*
X12806786Y-14893500D01*
X12835357Y-14907786D01*
X12849643Y-14922071D01*
X12863928Y-14950643D01*
X12863928Y-15022071D01*
X12849643Y-15050643D01*
X12835357Y-15064929D01*
X12806786Y-15079214D01*
X12721071Y-15079214D01*
X12692500Y-15064929D01*
X12678214Y-15050643D01*
X13206786Y-15064929D02*
X13235357Y-15079214D01*
X13292500Y-15079214D01*
X13321071Y-15064929D01*
X13335357Y-15036357D01*
X13335357Y-15022071D01*
X13321071Y-14993500D01*
X13292500Y-14979214D01*
X13249643Y-14979214D01*
X13221071Y-14964929D01*
X13206786Y-14936357D01*
X13206786Y-14922071D01*
X13221071Y-14893500D01*
X13249643Y-14879214D01*
X13292500Y-14879214D01*
X13321071Y-14893500D01*
X13506785Y-15079214D02*
X13478214Y-15064929D01*
X13463928Y-15036357D01*
X13463928Y-14779214D01*
X13663928Y-15079214D02*
X13635357Y-15064929D01*
X13621071Y-15050643D01*
X13606786Y-15022071D01*
X13606786Y-14936357D01*
X13621071Y-14907786D01*
X13635357Y-14893500D01*
X13663928Y-14879214D01*
X13706786Y-14879214D01*
X13735357Y-14893500D01*
X13749643Y-14907786D01*
X13763928Y-14936357D01*
X13763928Y-15022071D01*
X13749643Y-15050643D01*
X13735357Y-15064929D01*
X13706786Y-15079214D01*
X13663928Y-15079214D01*
X13849643Y-14879214D02*
X13963928Y-14879214D01*
X13892500Y-14779214D02*
X13892500Y-15036357D01*
X13906786Y-15064929D01*
X13935357Y-15079214D01*
X13963928Y-15079214D01*
X14049643Y-15064929D02*
X14078214Y-15079214D01*
X14135357Y-15079214D01*
X14163928Y-15064929D01*
X14178214Y-15036357D01*
X14178214Y-15022071D01*
X14163928Y-14993500D01*
X14135357Y-14979214D01*
X14092500Y-14979214D01*
X14063928Y-14964929D01*
X14049643Y-14936357D01*
X14049643Y-14922071D01*
X14063928Y-14893500D01*
X14092500Y-14879214D01*
X14135357Y-14879214D01*
X14163928Y-14893500D01*
X14278214Y-15193500D02*
X14292500Y-15179214D01*
X14321071Y-15136357D01*
X14335357Y-15107786D01*
X14349643Y-15064929D01*
X14363928Y-14993500D01*
X14363928Y-14936357D01*
X14349643Y-14864929D01*
X14335357Y-14822071D01*
X14321071Y-14793500D01*
X14292500Y-14750643D01*
X14278214Y-14736357D01*
X4982500Y-15284500D02*
X5092500Y-15394500D01*
X5092500Y-15284500D02*
X4982500Y-15394500D01*
X5076391Y-15378391D02*
X5076391Y-15300609D01*
X4998609Y-15300609D01*
X4998609Y-15378391D01*
X5076391Y-15378391D01*
X5521071Y-15475214D02*
X5349643Y-15475214D01*
X5435357Y-15475214D02*
X5435357Y-15175214D01*
X5406786Y-15218071D01*
X5378214Y-15246643D01*
X5349643Y-15260929D01*
X5649643Y-15446643D02*
X5663928Y-15460929D01*
X5649643Y-15475214D01*
X5635357Y-15460929D01*
X5649643Y-15446643D01*
X5649643Y-15475214D01*
X5949643Y-15475214D02*
X5778214Y-15475214D01*
X5863928Y-15475214D02*
X5863928Y-15175214D01*
X5835357Y-15218071D01*
X5806786Y-15246643D01*
X5778214Y-15260929D01*
X6135357Y-15175214D02*
X6163928Y-15175214D01*
X6192500Y-15189500D01*
X6206786Y-15203786D01*
X6221071Y-15232357D01*
X6235357Y-15289500D01*
X6235357Y-15360929D01*
X6221071Y-15418071D01*
X6206786Y-15446643D01*
X6192500Y-15460929D01*
X6163928Y-15475214D01*
X6135357Y-15475214D01*
X6106786Y-15460929D01*
X6092500Y-15446643D01*
X6078214Y-15418071D01*
X6063928Y-15360929D01*
X6063928Y-15289500D01*
X6078214Y-15232357D01*
X6092500Y-15203786D01*
X6106786Y-15189500D01*
X6135357Y-15175214D01*
X6363928Y-15475214D02*
X6363928Y-15275214D01*
X6363928Y-15303786D02*
X6378214Y-15289500D01*
X6406786Y-15275214D01*
X6449643Y-15275214D01*
X6478214Y-15289500D01*
X6492500Y-15318071D01*
X6492500Y-15475214D01*
X6492500Y-15318071D02*
X6506786Y-15289500D01*
X6535357Y-15275214D01*
X6578214Y-15275214D01*
X6606786Y-15289500D01*
X6621071Y-15318071D01*
X6621071Y-15475214D01*
X6763928Y-15475214D02*
X6763928Y-15275214D01*
X6763928Y-15303786D02*
X6778214Y-15289500D01*
X6806786Y-15275214D01*
X6849643Y-15275214D01*
X6878214Y-15289500D01*
X6892500Y-15318071D01*
X6892500Y-15475214D01*
X6892500Y-15318071D02*
X6906786Y-15289500D01*
X6935357Y-15275214D01*
X6978214Y-15275214D01*
X7006786Y-15289500D01*
X7021071Y-15318071D01*
X7021071Y-15475214D01*
X7606786Y-15160929D02*
X7349643Y-15546643D01*
X7992500Y-15175214D02*
X8021071Y-15175214D01*
X8049643Y-15189500D01*
X8063928Y-15203786D01*
X8078214Y-15232357D01*
X8092500Y-15289500D01*
X8092500Y-15360929D01*
X8078214Y-15418071D01*
X8063928Y-15446643D01*
X8049643Y-15460929D01*
X8021071Y-15475214D01*
X7992500Y-15475214D01*
X7963928Y-15460929D01*
X7949643Y-15446643D01*
X7935357Y-15418071D01*
X7921071Y-15360929D01*
X7921071Y-15289500D01*
X7935357Y-15232357D01*
X7949643Y-15203786D01*
X7963928Y-15189500D01*
X7992500Y-15175214D01*
X8221071Y-15446643D02*
X8235357Y-15460929D01*
X8221071Y-15475214D01*
X8206786Y-15460929D01*
X8221071Y-15446643D01*
X8221071Y-15475214D01*
X8421071Y-15175214D02*
X8449643Y-15175214D01*
X8478214Y-15189500D01*
X8492500Y-15203786D01*
X8506786Y-15232357D01*
X8521071Y-15289500D01*
X8521071Y-15360929D01*
X8506786Y-15418071D01*
X8492500Y-15446643D01*
X8478214Y-15460929D01*
X8449643Y-15475214D01*
X8421071Y-15475214D01*
X8392500Y-15460929D01*
X8378214Y-15446643D01*
X8363928Y-15418071D01*
X8349643Y-15360929D01*
X8349643Y-15289500D01*
X8363928Y-15232357D01*
X8378214Y-15203786D01*
X8392500Y-15189500D01*
X8421071Y-15175214D01*
X8778214Y-15275214D02*
X8778214Y-15475214D01*
X8706786Y-15160929D02*
X8635357Y-15375214D01*
X8821071Y-15375214D01*
X8906786Y-15175214D02*
X9092500Y-15175214D01*
X8992500Y-15289500D01*
X9035357Y-15289500D01*
X9063928Y-15303786D01*
X9078214Y-15318071D01*
X9092500Y-15346643D01*
X9092500Y-15418071D01*
X9078214Y-15446643D01*
X9063928Y-15460929D01*
X9035357Y-15475214D01*
X8949643Y-15475214D01*
X8921071Y-15460929D01*
X8906786Y-15446643D01*
X9206786Y-15175214D02*
X9206786Y-15232357D01*
X9321071Y-15175214D02*
X9321071Y-15232357D01*
X9763928Y-15589500D02*
X9749643Y-15575214D01*
X9721071Y-15532357D01*
X9706786Y-15503786D01*
X9692500Y-15460929D01*
X9678214Y-15389500D01*
X9678214Y-15332357D01*
X9692500Y-15260929D01*
X9706786Y-15218071D01*
X9721071Y-15189500D01*
X9749643Y-15146643D01*
X9763928Y-15132357D01*
X10035357Y-15475214D02*
X9863928Y-15475214D01*
X9949643Y-15475214D02*
X9949643Y-15175214D01*
X9921071Y-15218071D01*
X9892500Y-15246643D01*
X9863928Y-15260929D01*
X10292500Y-15175214D02*
X10235357Y-15175214D01*
X10206786Y-15189500D01*
X10192500Y-15203786D01*
X10163928Y-15246643D01*
X10149643Y-15303786D01*
X10149643Y-15418071D01*
X10163928Y-15446643D01*
X10178214Y-15460929D01*
X10206786Y-15475214D01*
X10263928Y-15475214D01*
X10292500Y-15460929D01*
X10306786Y-15446643D01*
X10321071Y-15418071D01*
X10321071Y-15346643D01*
X10306786Y-15318071D01*
X10292500Y-15303786D01*
X10263928Y-15289500D01*
X10206786Y-15289500D01*
X10178214Y-15303786D01*
X10163928Y-15318071D01*
X10149643Y-15346643D01*
X10678214Y-15475214D02*
X10678214Y-15175214D01*
X10806786Y-15475214D02*
X10806786Y-15318071D01*
X10792500Y-15289500D01*
X10763928Y-15275214D01*
X10721071Y-15275214D01*
X10692500Y-15289500D01*
X10678214Y-15303786D01*
X10992500Y-15475214D02*
X10963928Y-15460929D01*
X10949643Y-15446643D01*
X10935357Y-15418071D01*
X10935357Y-15332357D01*
X10949643Y-15303786D01*
X10963928Y-15289500D01*
X10992500Y-15275214D01*
X11035357Y-15275214D01*
X11063928Y-15289500D01*
X11078214Y-15303786D01*
X11092500Y-15332357D01*
X11092500Y-15418071D01*
X11078214Y-15446643D01*
X11063928Y-15460929D01*
X11035357Y-15475214D01*
X10992500Y-15475214D01*
X11263928Y-15475214D02*
X11235357Y-15460929D01*
X11221071Y-15432357D01*
X11221071Y-15175214D01*
X11492500Y-15460929D02*
X11463928Y-15475214D01*
X11406786Y-15475214D01*
X11378214Y-15460929D01*
X11363928Y-15432357D01*
X11363928Y-15318071D01*
X11378214Y-15289500D01*
X11406786Y-15275214D01*
X11463928Y-15275214D01*
X11492500Y-15289500D01*
X11506786Y-15318071D01*
X11506786Y-15346643D01*
X11363928Y-15375214D01*
X11621071Y-15460929D02*
X11649643Y-15475214D01*
X11706786Y-15475214D01*
X11735357Y-15460929D01*
X11749643Y-15432357D01*
X11749643Y-15418071D01*
X11735357Y-15389500D01*
X11706786Y-15375214D01*
X11663928Y-15375214D01*
X11635357Y-15360929D01*
X11621071Y-15332357D01*
X11621071Y-15318071D01*
X11635357Y-15289500D01*
X11663928Y-15275214D01*
X11706786Y-15275214D01*
X11735357Y-15289500D01*
X11849643Y-15589500D02*
X11863928Y-15575214D01*
X11892500Y-15532357D01*
X11906786Y-15503786D01*
X11921071Y-15460929D01*
X11935357Y-15389500D01*
X11935357Y-15332357D01*
X11921071Y-15260929D01*
X11906786Y-15218071D01*
X11892500Y-15189500D01*
X11863928Y-15146643D01*
X11849643Y-15132357D01*
X4972500Y-15675500D02*
X5092500Y-15795500D01*
X5092500Y-15675500D02*
X4972500Y-15795500D01*
X5032500Y-15795500D02*
X5092500Y-15735500D01*
X5032500Y-15675500D01*
X4972500Y-15735500D01*
X5032500Y-15795500D01*
X5521071Y-15871214D02*
X5349643Y-15871214D01*
X5435357Y-15871214D02*
X5435357Y-15571214D01*
X5406786Y-15614071D01*
X5378214Y-15642643D01*
X5349643Y-15656929D01*
X5649643Y-15842643D02*
X5663928Y-15856929D01*
X5649643Y-15871214D01*
X5635357Y-15856929D01*
X5649643Y-15842643D01*
X5649643Y-15871214D01*
X5778214Y-15599786D02*
X5792500Y-15585500D01*
X5821071Y-15571214D01*
X5892500Y-15571214D01*
X5921071Y-15585500D01*
X5935357Y-15599786D01*
X5949643Y-15628357D01*
X5949643Y-15656929D01*
X5935357Y-15699786D01*
X5763928Y-15871214D01*
X5949643Y-15871214D01*
X6135357Y-15571214D02*
X6163928Y-15571214D01*
X6192500Y-15585500D01*
X6206786Y-15599786D01*
X6221071Y-15628357D01*
X6235357Y-15685500D01*
X6235357Y-15756929D01*
X6221071Y-15814071D01*
X6206786Y-15842643D01*
X6192500Y-15856929D01*
X6163928Y-15871214D01*
X6135357Y-15871214D01*
X6106786Y-15856929D01*
X6092500Y-15842643D01*
X6078214Y-15814071D01*
X6063928Y-15756929D01*
X6063928Y-15685500D01*
X6078214Y-15628357D01*
X6092500Y-15599786D01*
X6106786Y-15585500D01*
X6135357Y-15571214D01*
X6363928Y-15871214D02*
X6363928Y-15671214D01*
X6363928Y-15699786D02*
X6378214Y-15685500D01*
X6406786Y-15671214D01*
X6449643Y-15671214D01*
X6478214Y-15685500D01*
X6492500Y-15714071D01*
X6492500Y-15871214D01*
X6492500Y-15714071D02*
X6506786Y-15685500D01*
X6535357Y-15671214D01*
X6578214Y-15671214D01*
X6606786Y-15685500D01*
X6621071Y-15714071D01*
X6621071Y-15871214D01*
X6763928Y-15871214D02*
X6763928Y-15671214D01*
X6763928Y-15699786D02*
X6778214Y-15685500D01*
X6806786Y-15671214D01*
X6849643Y-15671214D01*
X6878214Y-15685500D01*
X6892500Y-15714071D01*
X6892500Y-15871214D01*
X6892500Y-15714071D02*
X6906786Y-15685500D01*
X6935357Y-15671214D01*
X6978214Y-15671214D01*
X7006786Y-15685500D01*
X7021071Y-15714071D01*
X7021071Y-15871214D01*
X7606786Y-15556929D02*
X7349643Y-15942643D01*
X7992500Y-15571214D02*
X8021071Y-15571214D01*
X8049643Y-15585500D01*
X8063928Y-15599786D01*
X8078214Y-15628357D01*
X8092500Y-15685500D01*
X8092500Y-15756929D01*
X8078214Y-15814071D01*
X8063928Y-15842643D01*
X8049643Y-15856929D01*
X8021071Y-15871214D01*
X7992500Y-15871214D01*
X7963928Y-15856929D01*
X7949643Y-15842643D01*
X7935357Y-15814071D01*
X7921071Y-15756929D01*
X7921071Y-15685500D01*
X7935357Y-15628357D01*
X7949643Y-15599786D01*
X7963928Y-15585500D01*
X7992500Y-15571214D01*
X8221071Y-15842643D02*
X8235357Y-15856929D01*
X8221071Y-15871214D01*
X8206786Y-15856929D01*
X8221071Y-15842643D01*
X8221071Y-15871214D01*
X8421071Y-15571214D02*
X8449643Y-15571214D01*
X8478214Y-15585500D01*
X8492500Y-15599786D01*
X8506786Y-15628357D01*
X8521071Y-15685500D01*
X8521071Y-15756929D01*
X8506786Y-15814071D01*
X8492500Y-15842643D01*
X8478214Y-15856929D01*
X8449643Y-15871214D01*
X8421071Y-15871214D01*
X8392500Y-15856929D01*
X8378214Y-15842643D01*
X8363928Y-15814071D01*
X8349643Y-15756929D01*
X8349643Y-15685500D01*
X8363928Y-15628357D01*
X8378214Y-15599786D01*
X8392500Y-15585500D01*
X8421071Y-15571214D01*
X8778214Y-15671214D02*
X8778214Y-15871214D01*
X8706786Y-15556929D02*
X8635357Y-15771214D01*
X8821071Y-15771214D01*
X8906786Y-15571214D02*
X9106786Y-15571214D01*
X8978214Y-15871214D01*
X9206786Y-15571214D02*
X9206786Y-15628357D01*
X9321071Y-15571214D02*
X9321071Y-15628357D01*
X9763928Y-15985500D02*
X9749643Y-15971214D01*
X9721071Y-15928357D01*
X9706786Y-15899786D01*
X9692500Y-15856929D01*
X9678214Y-15785500D01*
X9678214Y-15728357D01*
X9692500Y-15656929D01*
X9706786Y-15614071D01*
X9721071Y-15585500D01*
X9749643Y-15542643D01*
X9763928Y-15528357D01*
X9863928Y-15599786D02*
X9878214Y-15585500D01*
X9906786Y-15571214D01*
X9978214Y-15571214D01*
X10006786Y-15585500D01*
X10021071Y-15599786D01*
X10035357Y-15628357D01*
X10035357Y-15656929D01*
X10021071Y-15699786D01*
X9849643Y-15871214D01*
X10035357Y-15871214D01*
X10392500Y-15871214D02*
X10392500Y-15571214D01*
X10521071Y-15871214D02*
X10521071Y-15714071D01*
X10506786Y-15685500D01*
X10478214Y-15671214D01*
X10435357Y-15671214D01*
X10406786Y-15685500D01*
X10392500Y-15699786D01*
X10706786Y-15871214D02*
X10678214Y-15856929D01*
X10663928Y-15842643D01*
X10649643Y-15814071D01*
X10649643Y-15728357D01*
X10663928Y-15699786D01*
X10678214Y-15685500D01*
X10706786Y-15671214D01*
X10749643Y-15671214D01*
X10778214Y-15685500D01*
X10792500Y-15699786D01*
X10806786Y-15728357D01*
X10806786Y-15814071D01*
X10792500Y-15842643D01*
X10778214Y-15856929D01*
X10749643Y-15871214D01*
X10706786Y-15871214D01*
X10978214Y-15871214D02*
X10949643Y-15856929D01*
X10935357Y-15828357D01*
X10935357Y-15571214D01*
X11206786Y-15856929D02*
X11178214Y-15871214D01*
X11121071Y-15871214D01*
X11092500Y-15856929D01*
X11078214Y-15828357D01*
X11078214Y-15714071D01*
X11092500Y-15685500D01*
X11121071Y-15671214D01*
X11178214Y-15671214D01*
X11206786Y-15685500D01*
X11221071Y-15714071D01*
X11221071Y-15742643D01*
X11078214Y-15771214D01*
X11335357Y-15856929D02*
X11363928Y-15871214D01*
X11421071Y-15871214D01*
X11449643Y-15856929D01*
X11463928Y-15828357D01*
X11463928Y-15814071D01*
X11449643Y-15785500D01*
X11421071Y-15771214D01*
X11378214Y-15771214D01*
X11349643Y-15756929D01*
X11335357Y-15728357D01*
X11335357Y-15714071D01*
X11349643Y-15685500D01*
X11378214Y-15671214D01*
X11421071Y-15671214D01*
X11449643Y-15685500D01*
X11563928Y-15985500D02*
X11578214Y-15971214D01*
X11606786Y-15928357D01*
X11621071Y-15899786D01*
X11635357Y-15856929D01*
X11649643Y-15785500D01*
X11649643Y-15728357D01*
X11635357Y-15656929D01*
X11621071Y-15614071D01*
X11606786Y-15585500D01*
X11578214Y-15542643D01*
X11563928Y-15528357D01*
X4932500Y-15971500D02*
X4932500Y-16291500D01*
X4772500Y-16131500D02*
X5092500Y-16131500D01*
X5092500Y-16131500D02*
G75*
G03X5092500Y-16131500I-160000J0D01*
G01*
X5335357Y-15967214D02*
X5521071Y-15967214D01*
X5421071Y-16081500D01*
X5463929Y-16081500D01*
X5492500Y-16095786D01*
X5506786Y-16110071D01*
X5521071Y-16138643D01*
X5521071Y-16210071D01*
X5506786Y-16238643D01*
X5492500Y-16252929D01*
X5463929Y-16267214D01*
X5378214Y-16267214D01*
X5349643Y-16252929D01*
X5335357Y-16238643D01*
X5649643Y-16238643D02*
X5663928Y-16252929D01*
X5649643Y-16267214D01*
X5635357Y-16252929D01*
X5649643Y-16238643D01*
X5649643Y-16267214D01*
X5778214Y-15995786D02*
X5792500Y-15981500D01*
X5821071Y-15967214D01*
X5892500Y-15967214D01*
X5921071Y-15981500D01*
X5935357Y-15995786D01*
X5949643Y-16024357D01*
X5949643Y-16052929D01*
X5935357Y-16095786D01*
X5763928Y-16267214D01*
X5949643Y-16267214D01*
X6135357Y-15967214D02*
X6163928Y-15967214D01*
X6192500Y-15981500D01*
X6206786Y-15995786D01*
X6221071Y-16024357D01*
X6235357Y-16081500D01*
X6235357Y-16152929D01*
X6221071Y-16210071D01*
X6206786Y-16238643D01*
X6192500Y-16252929D01*
X6163928Y-16267214D01*
X6135357Y-16267214D01*
X6106786Y-16252929D01*
X6092500Y-16238643D01*
X6078214Y-16210071D01*
X6063928Y-16152929D01*
X6063928Y-16081500D01*
X6078214Y-16024357D01*
X6092500Y-15995786D01*
X6106786Y-15981500D01*
X6135357Y-15967214D01*
X6363928Y-16267214D02*
X6363928Y-16067214D01*
X6363928Y-16095786D02*
X6378214Y-16081500D01*
X6406786Y-16067214D01*
X6449643Y-16067214D01*
X6478214Y-16081500D01*
X6492500Y-16110071D01*
X6492500Y-16267214D01*
X6492500Y-16110071D02*
X6506786Y-16081500D01*
X6535357Y-16067214D01*
X6578214Y-16067214D01*
X6606786Y-16081500D01*
X6621071Y-16110071D01*
X6621071Y-16267214D01*
X6763928Y-16267214D02*
X6763928Y-16067214D01*
X6763928Y-16095786D02*
X6778214Y-16081500D01*
X6806786Y-16067214D01*
X6849643Y-16067214D01*
X6878214Y-16081500D01*
X6892500Y-16110071D01*
X6892500Y-16267214D01*
X6892500Y-16110071D02*
X6906786Y-16081500D01*
X6935357Y-16067214D01*
X6978214Y-16067214D01*
X7006786Y-16081500D01*
X7021071Y-16110071D01*
X7021071Y-16267214D01*
X7606786Y-15952929D02*
X7349643Y-16338643D01*
X7992500Y-15967214D02*
X8021071Y-15967214D01*
X8049643Y-15981500D01*
X8063928Y-15995786D01*
X8078214Y-16024357D01*
X8092500Y-16081500D01*
X8092500Y-16152929D01*
X8078214Y-16210071D01*
X8063928Y-16238643D01*
X8049643Y-16252929D01*
X8021071Y-16267214D01*
X7992500Y-16267214D01*
X7963928Y-16252929D01*
X7949643Y-16238643D01*
X7935357Y-16210071D01*
X7921071Y-16152929D01*
X7921071Y-16081500D01*
X7935357Y-16024357D01*
X7949643Y-15995786D01*
X7963928Y-15981500D01*
X7992500Y-15967214D01*
X8221071Y-16238643D02*
X8235357Y-16252929D01*
X8221071Y-16267214D01*
X8206786Y-16252929D01*
X8221071Y-16238643D01*
X8221071Y-16267214D01*
X8521071Y-16267214D02*
X8349643Y-16267214D01*
X8435357Y-16267214D02*
X8435357Y-15967214D01*
X8406786Y-16010071D01*
X8378214Y-16038643D01*
X8349643Y-16052929D01*
X8635357Y-15995786D02*
X8649643Y-15981500D01*
X8678214Y-15967214D01*
X8749643Y-15967214D01*
X8778214Y-15981500D01*
X8792500Y-15995786D01*
X8806786Y-16024357D01*
X8806786Y-16052929D01*
X8792500Y-16095786D01*
X8621071Y-16267214D01*
X8806786Y-16267214D01*
X9063928Y-15967214D02*
X9006786Y-15967214D01*
X8978214Y-15981500D01*
X8963928Y-15995786D01*
X8935357Y-16038643D01*
X8921071Y-16095786D01*
X8921071Y-16210071D01*
X8935357Y-16238643D01*
X8949643Y-16252929D01*
X8978214Y-16267214D01*
X9035357Y-16267214D01*
X9063928Y-16252929D01*
X9078214Y-16238643D01*
X9092500Y-16210071D01*
X9092500Y-16138643D01*
X9078214Y-16110071D01*
X9063928Y-16095786D01*
X9035357Y-16081500D01*
X8978214Y-16081500D01*
X8949643Y-16095786D01*
X8935357Y-16110071D01*
X8921071Y-16138643D01*
X9206786Y-15967214D02*
X9206786Y-16024357D01*
X9321071Y-15967214D02*
X9321071Y-16024357D01*
X9763928Y-16381500D02*
X9749643Y-16367214D01*
X9721071Y-16324357D01*
X9706786Y-16295786D01*
X9692500Y-16252929D01*
X9678214Y-16181500D01*
X9678214Y-16124357D01*
X9692500Y-16052929D01*
X9706786Y-16010071D01*
X9721071Y-15981500D01*
X9749643Y-15938643D01*
X9763928Y-15924357D01*
X10006786Y-16067214D02*
X10006786Y-16267214D01*
X9935357Y-15952929D02*
X9863928Y-16167214D01*
X10049643Y-16167214D01*
X10392500Y-16267214D02*
X10392500Y-15967214D01*
X10521071Y-16267214D02*
X10521071Y-16110071D01*
X10506786Y-16081500D01*
X10478214Y-16067214D01*
X10435357Y-16067214D01*
X10406786Y-16081500D01*
X10392500Y-16095786D01*
X10706786Y-16267214D02*
X10678214Y-16252929D01*
X10663928Y-16238643D01*
X10649643Y-16210071D01*
X10649643Y-16124357D01*
X10663928Y-16095786D01*
X10678214Y-16081500D01*
X10706786Y-16067214D01*
X10749643Y-16067214D01*
X10778214Y-16081500D01*
X10792500Y-16095786D01*
X10806786Y-16124357D01*
X10806786Y-16210071D01*
X10792500Y-16238643D01*
X10778214Y-16252929D01*
X10749643Y-16267214D01*
X10706786Y-16267214D01*
X10978214Y-16267214D02*
X10949643Y-16252929D01*
X10935357Y-16224357D01*
X10935357Y-15967214D01*
X11206786Y-16252929D02*
X11178214Y-16267214D01*
X11121071Y-16267214D01*
X11092500Y-16252929D01*
X11078214Y-16224357D01*
X11078214Y-16110071D01*
X11092500Y-16081500D01*
X11121071Y-16067214D01*
X11178214Y-16067214D01*
X11206786Y-16081500D01*
X11221071Y-16110071D01*
X11221071Y-16138643D01*
X11078214Y-16167214D01*
X11335357Y-16252929D02*
X11363928Y-16267214D01*
X11421071Y-16267214D01*
X11449643Y-16252929D01*
X11463928Y-16224357D01*
X11463928Y-16210071D01*
X11449643Y-16181500D01*
X11421071Y-16167214D01*
X11378214Y-16167214D01*
X11349643Y-16152929D01*
X11335357Y-16124357D01*
X11335357Y-16110071D01*
X11349643Y-16081500D01*
X11378214Y-16067214D01*
X11421071Y-16067214D01*
X11449643Y-16081500D01*
X11563928Y-16381500D02*
X11578214Y-16367214D01*
X11606786Y-16324357D01*
X11621071Y-16295786D01*
X11635357Y-16252929D01*
X11649643Y-16181500D01*
X11649643Y-16124357D01*
X11635357Y-16052929D01*
X11621071Y-16010071D01*
X11606786Y-15981500D01*
X11578214Y-15938643D01*
X11563928Y-15924357D01*
X12106786Y-16381500D02*
X12092500Y-16367214D01*
X12063928Y-16324357D01*
X12049643Y-16295786D01*
X12035357Y-16252929D01*
X12021071Y-16181500D01*
X12021071Y-16124357D01*
X12035357Y-16052929D01*
X12049643Y-16010071D01*
X12063928Y-15981500D01*
X12092500Y-15938643D01*
X12106786Y-15924357D01*
X12221071Y-16067214D02*
X12221071Y-16267214D01*
X12221071Y-16095786D02*
X12235357Y-16081500D01*
X12263928Y-16067214D01*
X12306786Y-16067214D01*
X12335357Y-16081500D01*
X12349643Y-16110071D01*
X12349643Y-16267214D01*
X12535357Y-16267214D02*
X12506786Y-16252929D01*
X12492500Y-16238643D01*
X12478214Y-16210071D01*
X12478214Y-16124357D01*
X12492500Y-16095786D01*
X12506786Y-16081500D01*
X12535357Y-16067214D01*
X12578214Y-16067214D01*
X12606786Y-16081500D01*
X12621071Y-16095786D01*
X12635357Y-16124357D01*
X12635357Y-16210071D01*
X12621071Y-16238643D01*
X12606786Y-16252929D01*
X12578214Y-16267214D01*
X12535357Y-16267214D01*
X12721071Y-16067214D02*
X12835357Y-16067214D01*
X12763928Y-15967214D02*
X12763928Y-16224357D01*
X12778214Y-16252929D01*
X12806786Y-16267214D01*
X12835357Y-16267214D01*
X13163928Y-16067214D02*
X13163928Y-16367214D01*
X13163928Y-16081500D02*
X13192500Y-16067214D01*
X13249643Y-16067214D01*
X13278214Y-16081500D01*
X13292500Y-16095786D01*
X13306786Y-16124357D01*
X13306786Y-16210071D01*
X13292500Y-16238643D01*
X13278214Y-16252929D01*
X13249643Y-16267214D01*
X13192500Y-16267214D01*
X13163928Y-16252929D01*
X13478214Y-16267214D02*
X13449643Y-16252929D01*
X13435357Y-16224357D01*
X13435357Y-15967214D01*
X13721071Y-16267214D02*
X13721071Y-16110071D01*
X13706786Y-16081500D01*
X13678214Y-16067214D01*
X13621071Y-16067214D01*
X13592500Y-16081500D01*
X13721071Y-16252929D02*
X13692500Y-16267214D01*
X13621071Y-16267214D01*
X13592500Y-16252929D01*
X13578214Y-16224357D01*
X13578214Y-16195786D01*
X13592500Y-16167214D01*
X13621071Y-16152929D01*
X13692500Y-16152929D01*
X13721071Y-16138643D01*
X13821071Y-16067214D02*
X13935357Y-16067214D01*
X13863929Y-15967214D02*
X13863929Y-16224357D01*
X13878214Y-16252929D01*
X13906786Y-16267214D01*
X13935357Y-16267214D01*
X14149643Y-16252929D02*
X14121071Y-16267214D01*
X14063929Y-16267214D01*
X14035357Y-16252929D01*
X14021071Y-16224357D01*
X14021071Y-16110071D01*
X14035357Y-16081500D01*
X14063929Y-16067214D01*
X14121071Y-16067214D01*
X14149643Y-16081500D01*
X14163929Y-16110071D01*
X14163929Y-16138643D01*
X14021071Y-16167214D01*
X14421071Y-16267214D02*
X14421071Y-15967214D01*
X14421071Y-16252929D02*
X14392500Y-16267214D01*
X14335357Y-16267214D01*
X14306786Y-16252929D01*
X14292500Y-16238643D01*
X14278214Y-16210071D01*
X14278214Y-16124357D01*
X14292500Y-16095786D01*
X14306786Y-16081500D01*
X14335357Y-16067214D01*
X14392500Y-16067214D01*
X14421071Y-16081500D01*
X14535357Y-16381500D02*
X14549643Y-16367214D01*
X14578214Y-16324357D01*
X14592500Y-16295786D01*
X14606786Y-16252929D01*
X14621071Y-16181500D01*
X14621071Y-16124357D01*
X14606786Y-16052929D01*
X14592500Y-16010071D01*
X14578214Y-15981500D01*
X14549643Y-15938643D01*
X14535357Y-15924357D01*
M02*
