M48
;DRILL file {KiCad 4.0.1-stable} date 2018/09/01 18:49:28
;FORMAT={-:-/ absolute / metric / decimal}
FMAT,2
METRIC,TZ
T1C0.300
T2C0.500
T3C0.600
T4C0.762
T5C0.800
T6C0.900
T7C1.000
T8C1.100
T9C1.200
T10C3.200
%
G90
G05
M71
T1
X52.Y-65.
X52.Y-68.
X52.Y-87.
X52.Y-91.
X52.Y-94.
X52.Y-97.
X52.Y-100.
X52.Y-103.
X52.Y-106.
X52.Y-109.
X52.Y-112.
X53.Y-62.
X53.Y-115.
X54.Y-70.
X56.Y-62.
X56.Y-83.
X56.Y-115.
X58.Y-72.
X58.Y-75.
X58.Y-78.
X58.Y-81.
X59.Y-62.
X59.Y-91.5
X59.Y-92.5
X59.Y-115.
X60.Y-91.5
X60.Y-92.5
X61.Y-91.5
X61.Y-92.5
X62.Y-115.
X63.Y-62.
X64.25Y-78.75
X64.25Y-79.75
X65.Y-115.
X65.25Y-78.75
X65.25Y-79.75
X66.25Y-78.75
X66.25Y-79.75
X67.Y-62.
X67.5Y-85.75
X67.5Y-86.75
X67.5Y-87.75
X68.Y-115.
X68.5Y-85.75
X68.5Y-86.75
X68.5Y-87.75
X69.Y-64.
X69.Y-92.2
X69.Y-99.
X69.Y-103.
X70.Y-67.
X70.75Y-74.
X70.8Y-98.6
X71.Y-85.8
X71.Y-101.
X71.Y-102.
X71.Y-115.
X72.Y-68.
X72.Y-101.
X72.Y-102.
X73.Y-83.
X73.Y-100.
X73.Y-101.
X73.Y-102.
X75.Y-68.
X75.Y-115.
X76.25Y-77.25
X76.25Y-78.25
X76.25Y-79.25
X77.25Y-77.25
X77.25Y-78.25
X77.25Y-79.25
X78.Y-68.
X78.Y-115.
X79.Y-85.8
X79.2Y-98.55
X80.8Y-90.
X80.8Y-94.
X81.Y-68.
X81.25Y-95.
X81.25Y-96.
X81.25Y-97.
X82.Y-88.6
X82.Y-91.
X82.Y-115.
X82.25Y-95.
X82.25Y-96.
X82.25Y-97.
X83.Y-87.875
X83.2Y-76.4
X83.25Y-78.25
X84.Y-68.
X84.6Y-94.4
X86.Y-115.
X86.395Y-90.398
X86.4Y-87.2
X86.4Y-88.8
X87.Y-68.
X87.Y-83.
X87.2Y-91.8
X87.675Y-80.8
X88.4Y-81.6
X88.4Y-92.6
X89.159Y-80.886
X90.Y-68.
X90.Y-92.8
X90.2Y-75.2
X90.25Y-76.5
X90.75Y-77.5
X90.8Y-92.125
X91.6Y-89.6
X92.Y-115.
X92.5Y-79.75
X92.5Y-80.75
X92.8Y-75.08
X93.Y-68.
X93.Y-94.25
X93.5Y-77.25
X93.5Y-79.75
X93.5Y-80.75
X93.75Y-76.25
X93.75Y-95.
X94.5Y-79.75
X94.5Y-80.75
X94.75Y-96.
X94.75Y-95.
X95.2Y-88.8
X95.5Y-101.5
X95.5Y-102.75
X95.75Y-95.
X95.75Y-96.
X96.Y-68.
X96.Y-115.
X96.75Y-101.5
X96.75Y-102.75
X99.Y-68.
X99.25Y-97.75
X101.Y-81.8
X101.75Y-92.
X101.75Y-93.
X102.Y-68.
X102.Y-115.
X102.75Y-92.
X102.75Y-93.
X103.8Y-81.8
X105.Y-68.
X106.Y-84.2
X107.Y-103.
X107.Y-104.
X107.Y-115.
X107.953Y-103.047
X108.Y-68.
X108.Y-104.
X108.25Y-95.5
X108.25Y-96.5
X109.25Y-95.5
X109.25Y-96.5
X109.6Y-82.8
X110.25Y-95.5
X110.25Y-96.5
X111.Y-68.
X113.Y-115.
X114.Y-68.
X115.Y-89.
X116.Y-115.
X116.8Y-86.4
X117.Y-68.
X117.6Y-80.
X118.Y-93.25
X118.Y-94.25
X118.Y-95.25
X118.75Y-83.5
X118.75Y-84.5
X118.75Y-85.5
X118.866Y-78.934
X119.Y-93.25
X119.Y-94.25
X119.Y-95.25
X119.Y-115.
X119.75Y-83.5
X119.75Y-84.5
X119.75Y-85.5
X120.Y-68.
X120.477Y-78.251
X121.8Y-82.
X122.Y-115.
X123.Y-68.
X125.Y-115.
X125.2Y-71.2
X126.Y-68.
X128.Y-115.
X128.6Y-73.2
X129.Y-68.
X130.8Y-73.2
X131.Y-115.
X132.Y-68.
X133.2Y-81.8
X133.4Y-95.
X134.Y-65.
X134.Y-115.
X135.Y-62.
X135.Y-80.
X137.Y-93.
X137.08Y-92.
X137.08Y-94.
X137.2Y-79.
X138.Y-62.
X138.Y-115.
X141.Y-63.
X141.Y-66.
X141.Y-69.
X141.Y-72.
X141.Y-75.
X141.Y-78.
X141.Y-81.
X141.Y-84.
X141.Y-87.
X141.Y-90.
X141.Y-93.
X141.Y-96.
X141.Y-99.
X141.Y-102.
X141.Y-105.
X141.Y-108.
X141.Y-111.
X141.Y-114.
T3
X53.2Y-86.
X53.2Y-88.
X53.2Y-90.
X64.5Y-113.5
X66.5Y-113.5
X68.5Y-113.5
T4
X130.5Y-101.4
X130.5Y-106.
X138.Y-100.85
X138.Y-106.55
T5
X59.84Y-108.625
X60.Y-87.
X65.Y-87.
X69.Y-69.5
X69.Y-72.
X69.34Y-76.
X70.Y-108.625
X71.32Y-88.305
X71.32Y-90.805
X71.32Y-93.425
X71.32Y-95.925
X71.5Y-105.
X74.Y-105.
X77.Y-90.
X77.Y-94.88
X77.Y-101.5
X77.Y-105.
X79.5Y-76.
X79.5Y-101.5
X82.Y-83.
X84.5Y-83.
X86.5Y-75.5
X87.16Y-105.
X89.5Y-101.5
X89.5Y-105.
X92.Y-101.5
X96.25Y-97.5
X96.66Y-75.5
X97.Y-88.
X97.Y-92.
X99.5Y-88.
X99.5Y-92.
X99.66Y-105.
X102.Y-101.5
X102.Y-105.
X104.5Y-101.5
X106.Y-77.34
X106.Y-87.5
X106.41Y-97.5
X109.5Y-77.34
X109.5Y-87.5
X112.16Y-105.
X112.5Y-95.5
X114.Y-109.
X114.Y-113.
X115.Y-95.5
X116.5Y-109.
X119.5Y-103.
X122.Y-103.
X124.16Y-113.
X125.75Y-100.25
X125.75Y-110.41
T6
X99.4Y-75.6
X101.94Y-75.6
T7
X61.16Y-73.7
X61.16Y-76.24
X61.16Y-78.78
X73.86Y-71.16
X76.4Y-71.16
X81.48Y-71.16
X84.02Y-71.16
X86.56Y-71.16
X89.1Y-71.16
X91.64Y-71.16
X94.18Y-71.16
X96.72Y-71.16
X101.8Y-71.
X104.34Y-71.
X106.88Y-71.
X109.42Y-71.
X114.5Y-71.
X117.04Y-71.
X119.58Y-71.
X121.84Y-77.
X121.84Y-97.32
X122.12Y-71.
X124.38Y-77.
X124.38Y-97.32
X126.92Y-77.
X126.92Y-97.32
X127.2Y-71.16
X129.46Y-77.
X129.46Y-97.32
X129.74Y-71.16
X132.Y-77.
X132.Y-97.32
X134.54Y-77.
X134.54Y-97.32
X137.08Y-77.
X137.08Y-97.32
X139.62Y-77.
X139.62Y-97.32
T8
X73.5Y-109.
X73.5Y-113.5
X80.Y-109.
X80.Y-113.5
X83.5Y-109.
X83.5Y-113.5
X90.Y-109.
X90.Y-113.5
X93.5Y-109.
X93.5Y-113.5
X100.Y-109.
X100.Y-113.5
X103.5Y-109.
X103.5Y-113.5
X110.Y-109.
X110.Y-113.5
T9
X134.5Y-101.6
X134.5Y-106.2
T10
X55.Y-65.
X55.Y-112.
X138.Y-65.
X138.Y-112.
T2
X53.65Y-83.65G85X52.75Y-83.65
G05
X53.65Y-92.35G85X52.75Y-92.35
G05
X62.15Y-113.05G85X62.15Y-113.95
G05
X70.85Y-113.05G85X70.85Y-113.95
G05
T7
X59.Y-98.G85X59.Y-100.
G05
X61.Y-103.7G85X63.Y-103.7
G05
X65.Y-98.G85X65.Y-100.
G05
T0
M30
